<svg width="3000" height="200" viewBox="0 0 3000 200" xmlns="http://www.w3.org/2000/svg">
<rect x="0" y="0" width="3000" height="200" opacity="1" fill="#FFFFFF" stroke="none"/>
<line opacity="0.1" stroke="#000000" stroke-width="1" x1="27" y1="172" x2="27" y2="7"/>
<line opacity="0.1" stroke="#000000" stroke-width="1" x1="56" y1="172" x2="56" y2="7"/>
<line opacity="0.1" stroke="#000000" stroke-width="1" x1="86" y1="172" x2="86" y2="7"/>
<line opacity="0.1" stroke="#000000" stroke-width="1" x1="115" y1="172" x2="115" y2="7"/>
<line opacity="0.1" stroke="#000000" stroke-width="1" x1="145" y1="172" x2="145" y2="7"/>
<line opacity="0.1" stroke="#000000" stroke-width="1" x1="175" y1="172" x2="175" y2="7"/>
<line opacity="0.1" stroke="#000000" stroke-width="1" x1="204" y1="172" x2="204" y2="7"/>
<line opacity="0.1" stroke="#000000" stroke-width="1" x1="234" y1="172" x2="234" y2="7"/>
<line opacity="0.1" stroke="#000000" stroke-width="1" x1="264" y1="172" x2="264" y2="7"/>
<line opacity="0.1" stroke="#000000" stroke-width="1" x1="293" y1="172" x2="293" y2="7"/>
<line opacity="0.1" stroke="#000000" stroke-width="1" x1="323" y1="172" x2="323" y2="7"/>
<line opacity="0.1" stroke="#000000" stroke-width="1" x1="353" y1="172" x2="353" y2="7"/>
<line opacity="0.1" stroke="#000000" stroke-width="1" x1="382" y1="172" x2="382" y2="7"/>
<line opacity="0.1" stroke="#000000" stroke-width="1" x1="412" y1="172" x2="412" y2="7"/>
<line opacity="0.1" stroke="#000000" stroke-width="1" x1="442" y1="172" x2="442" y2="7"/>
<line opacity="0.1" stroke="#000000" stroke-width="1" x1="471" y1="172" x2="471" y2="7"/>
<line opacity="0.1" stroke="#000000" stroke-width="1" x1="501" y1="172" x2="501" y2="7"/>
<line opacity="0.1" stroke="#000000" stroke-width="1" x1="531" y1="172" x2="531" y2="7"/>
<line opacity="0.1" stroke="#000000" stroke-width="1" x1="560" y1="172" x2="560" y2="7"/>
<line opacity="0.1" stroke="#000000" stroke-width="1" x1="590" y1="172" x2="590" y2="7"/>
<line opacity="0.1" stroke="#000000" stroke-width="1" x1="620" y1="172" x2="620" y2="7"/>
<line opacity="0.1" stroke="#000000" stroke-width="1" x1="649" y1="172" x2="649" y2="7"/>
<line opacity="0.1" stroke="#000000" stroke-width="1" x1="679" y1="172" x2="679" y2="7"/>
<line opacity="0.1" stroke="#000000" stroke-width="1" x1="708" y1="172" x2="708" y2="7"/>
<line opacity="0.1" stroke="#000000" stroke-width="1" x1="738" y1="172" x2="738" y2="7"/>
<line opacity="0.1" stroke="#000000" stroke-width="1" x1="768" y1="172" x2="768" y2="7"/>
<line opacity="0.1" stroke="#000000" stroke-width="1" x1="797" y1="172" x2="797" y2="7"/>
<line opacity="0.1" stroke="#000000" stroke-width="1" x1="827" y1="172" x2="827" y2="7"/>
<line opacity="0.1" stroke="#000000" stroke-width="1" x1="857" y1="172" x2="857" y2="7"/>
<line opacity="0.1" stroke="#000000" stroke-width="1" x1="886" y1="172" x2="886" y2="7"/>
<line opacity="0.1" stroke="#000000" stroke-width="1" x1="916" y1="172" x2="916" y2="7"/>
<line opacity="0.1" stroke="#000000" stroke-width="1" x1="946" y1="172" x2="946" y2="7"/>
<line opacity="0.1" stroke="#000000" stroke-width="1" x1="975" y1="172" x2="975" y2="7"/>
<line opacity="0.1" stroke="#000000" stroke-width="1" x1="1005" y1="172" x2="1005" y2="7"/>
<line opacity="0.1" stroke="#000000" stroke-width="1" x1="1035" y1="172" x2="1035" y2="7"/>
<line opacity="0.1" stroke="#000000" stroke-width="1" x1="1064" y1="172" x2="1064" y2="7"/>
<line opacity="0.1" stroke="#000000" stroke-width="1" x1="1094" y1="172" x2="1094" y2="7"/>
<line opacity="0.1" stroke="#000000" stroke-width="1" x1="1124" y1="172" x2="1124" y2="7"/>
<line opacity="0.1" stroke="#000000" stroke-width="1" x1="1153" y1="172" x2="1153" y2="7"/>
<line opacity="0.1" stroke="#000000" stroke-width="1" x1="1183" y1="172" x2="1183" y2="7"/>
<line opacity="0.1" stroke="#000000" stroke-width="1" x1="1213" y1="172" x2="1213" y2="7"/>
<line opacity="0.1" stroke="#000000" stroke-width="1" x1="1242" y1="172" x2="1242" y2="7"/>
<line opacity="0.1" stroke="#000000" stroke-width="1" x1="1272" y1="172" x2="1272" y2="7"/>
<line opacity="0.1" stroke="#000000" stroke-width="1" x1="1301" y1="172" x2="1301" y2="7"/>
<line opacity="0.1" stroke="#000000" stroke-width="1" x1="1331" y1="172" x2="1331" y2="7"/>
<line opacity="0.1" stroke="#000000" stroke-width="1" x1="1361" y1="172" x2="1361" y2="7"/>
<line opacity="0.1" stroke="#000000" stroke-width="1" x1="1390" y1="172" x2="1390" y2="7"/>
<line opacity="0.1" stroke="#000000" stroke-width="1" x1="1420" y1="172" x2="1420" y2="7"/>
<line opacity="0.1" stroke="#000000" stroke-width="1" x1="1450" y1="172" x2="1450" y2="7"/>
<line opacity="0.1" stroke="#000000" stroke-width="1" x1="1479" y1="172" x2="1479" y2="7"/>
<line opacity="0.1" stroke="#000000" stroke-width="1" x1="1509" y1="172" x2="1509" y2="7"/>
<line opacity="0.1" stroke="#000000" stroke-width="1" x1="1539" y1="172" x2="1539" y2="7"/>
<line opacity="0.1" stroke="#000000" stroke-width="1" x1="1568" y1="172" x2="1568" y2="7"/>
<line opacity="0.1" stroke="#000000" stroke-width="1" x1="1598" y1="172" x2="1598" y2="7"/>
<line opacity="0.1" stroke="#000000" stroke-width="1" x1="1628" y1="172" x2="1628" y2="7"/>
<line opacity="0.1" stroke="#000000" stroke-width="1" x1="1657" y1="172" x2="1657" y2="7"/>
<line opacity="0.1" stroke="#000000" stroke-width="1" x1="1687" y1="172" x2="1687" y2="7"/>
<line opacity="0.1" stroke="#000000" stroke-width="1" x1="1717" y1="172" x2="1717" y2="7"/>
<line opacity="0.1" stroke="#000000" stroke-width="1" x1="1746" y1="172" x2="1746" y2="7"/>
<line opacity="0.1" stroke="#000000" stroke-width="1" x1="1776" y1="172" x2="1776" y2="7"/>
<line opacity="0.1" stroke="#000000" stroke-width="1" x1="1806" y1="172" x2="1806" y2="7"/>
<line opacity="0.1" stroke="#000000" stroke-width="1" x1="1835" y1="172" x2="1835" y2="7"/>
<line opacity="0.1" stroke="#000000" stroke-width="1" x1="1865" y1="172" x2="1865" y2="7"/>
<line opacity="0.1" stroke="#000000" stroke-width="1" x1="1894" y1="172" x2="1894" y2="7"/>
<line opacity="0.1" stroke="#000000" stroke-width="1" x1="1924" y1="172" x2="1924" y2="7"/>
<line opacity="0.1" stroke="#000000" stroke-width="1" x1="1954" y1="172" x2="1954" y2="7"/>
<line opacity="0.1" stroke="#000000" stroke-width="1" x1="1983" y1="172" x2="1983" y2="7"/>
<line opacity="0.1" stroke="#000000" stroke-width="1" x1="2013" y1="172" x2="2013" y2="7"/>
<line opacity="0.1" stroke="#000000" stroke-width="1" x1="2043" y1="172" x2="2043" y2="7"/>
<line opacity="0.1" stroke="#000000" stroke-width="1" x1="2072" y1="172" x2="2072" y2="7"/>
<line opacity="0.1" stroke="#000000" stroke-width="1" x1="2102" y1="172" x2="2102" y2="7"/>
<line opacity="0.1" stroke="#000000" stroke-width="1" x1="2132" y1="172" x2="2132" y2="7"/>
<line opacity="0.1" stroke="#000000" stroke-width="1" x1="2161" y1="172" x2="2161" y2="7"/>
<line opacity="0.1" stroke="#000000" stroke-width="1" x1="2191" y1="172" x2="2191" y2="7"/>
<line opacity="0.1" stroke="#000000" stroke-width="1" x1="2221" y1="172" x2="2221" y2="7"/>
<line opacity="0.1" stroke="#000000" stroke-width="1" x1="2250" y1="172" x2="2250" y2="7"/>
<line opacity="0.1" stroke="#000000" stroke-width="1" x1="2280" y1="172" x2="2280" y2="7"/>
<line opacity="0.1" stroke="#000000" stroke-width="1" x1="2310" y1="172" x2="2310" y2="7"/>
<line opacity="0.1" stroke="#000000" stroke-width="1" x1="2339" y1="172" x2="2339" y2="7"/>
<line opacity="0.1" stroke="#000000" stroke-width="1" x1="2369" y1="172" x2="2369" y2="7"/>
<line opacity="0.1" stroke="#000000" stroke-width="1" x1="2399" y1="172" x2="2399" y2="7"/>
<line opacity="0.1" stroke="#000000" stroke-width="1" x1="2428" y1="172" x2="2428" y2="7"/>
<line opacity="0.1" stroke="#000000" stroke-width="1" x1="2458" y1="172" x2="2458" y2="7"/>
<line opacity="0.1" stroke="#000000" stroke-width="1" x1="2487" y1="172" x2="2487" y2="7"/>
<line opacity="0.1" stroke="#000000" stroke-width="1" x1="2517" y1="172" x2="2517" y2="7"/>
<line opacity="0.1" stroke="#000000" stroke-width="1" x1="2547" y1="172" x2="2547" y2="7"/>
<line opacity="0.1" stroke="#000000" stroke-width="1" x1="2576" y1="172" x2="2576" y2="7"/>
<line opacity="0.1" stroke="#000000" stroke-width="1" x1="2606" y1="172" x2="2606" y2="7"/>
<line opacity="0.1" stroke="#000000" stroke-width="1" x1="2636" y1="172" x2="2636" y2="7"/>
<line opacity="0.1" stroke="#000000" stroke-width="1" x1="2665" y1="172" x2="2665" y2="7"/>
<line opacity="0.1" stroke="#000000" stroke-width="1" x1="2695" y1="172" x2="2695" y2="7"/>
<line opacity="0.1" stroke="#000000" stroke-width="1" x1="2725" y1="172" x2="2725" y2="7"/>
<line opacity="0.1" stroke="#000000" stroke-width="1" x1="2754" y1="172" x2="2754" y2="7"/>
<line opacity="0.1" stroke="#000000" stroke-width="1" x1="2784" y1="172" x2="2784" y2="7"/>
<line opacity="0.1" stroke="#000000" stroke-width="1" x1="2814" y1="172" x2="2814" y2="7"/>
<line opacity="0.1" stroke="#000000" stroke-width="1" x1="2843" y1="172" x2="2843" y2="7"/>
<line opacity="0.1" stroke="#000000" stroke-width="1" x1="2873" y1="172" x2="2873" y2="7"/>
<line opacity="0.1" stroke="#000000" stroke-width="1" x1="2903" y1="172" x2="2903" y2="7"/>
<line opacity="0.1" stroke="#000000" stroke-width="1" x1="2932" y1="172" x2="2932" y2="7"/>
<line opacity="0.1" stroke="#000000" stroke-width="1" x1="2962" y1="172" x2="2962" y2="7"/>
<line opacity="0.1" stroke="#000000" stroke-width="1" x1="2992" y1="172" x2="2992" y2="7"/>
<line opacity="0.1" stroke="#000000" stroke-width="1" x1="27" y1="172" x2="2992" y2="172"/>
<line opacity="0.1" stroke="#000000" stroke-width="1" x1="27" y1="169" x2="2992" y2="169"/>
<line opacity="0.1" stroke="#000000" stroke-width="1" x1="27" y1="165" x2="2992" y2="165"/>
<line opacity="0.1" stroke="#000000" stroke-width="1" x1="27" y1="161" x2="2992" y2="161"/>
<line opacity="0.1" stroke="#000000" stroke-width="1" x1="27" y1="157" x2="2992" y2="157"/>
<line opacity="0.1" stroke="#000000" stroke-width="1" x1="27" y1="154" x2="2992" y2="154"/>
<line opacity="0.1" stroke="#000000" stroke-width="1" x1="27" y1="150" x2="2992" y2="150"/>
<line opacity="0.1" stroke="#000000" stroke-width="1" x1="27" y1="146" x2="2992" y2="146"/>
<line opacity="0.1" stroke="#000000" stroke-width="1" x1="27" y1="142" x2="2992" y2="142"/>
<line opacity="0.1" stroke="#000000" stroke-width="1" x1="27" y1="139" x2="2992" y2="139"/>
<line opacity="0.1" stroke="#000000" stroke-width="1" x1="27" y1="135" x2="2992" y2="135"/>
<line opacity="0.1" stroke="#000000" stroke-width="1" x1="27" y1="131" x2="2992" y2="131"/>
<line opacity="0.1" stroke="#000000" stroke-width="1" x1="27" y1="127" x2="2992" y2="127"/>
<line opacity="0.1" stroke="#000000" stroke-width="1" x1="27" y1="124" x2="2992" y2="124"/>
<line opacity="0.1" stroke="#000000" stroke-width="1" x1="27" y1="120" x2="2992" y2="120"/>
<line opacity="0.1" stroke="#000000" stroke-width="1" x1="27" y1="116" x2="2992" y2="116"/>
<line opacity="0.1" stroke="#000000" stroke-width="1" x1="27" y1="112" x2="2992" y2="112"/>
<line opacity="0.1" stroke="#000000" stroke-width="1" x1="27" y1="109" x2="2992" y2="109"/>
<line opacity="0.1" stroke="#000000" stroke-width="1" x1="27" y1="105" x2="2992" y2="105"/>
<line opacity="0.1" stroke="#000000" stroke-width="1" x1="27" y1="101" x2="2992" y2="101"/>
<line opacity="0.1" stroke="#000000" stroke-width="1" x1="27" y1="97" x2="2992" y2="97"/>
<line opacity="0.1" stroke="#000000" stroke-width="1" x1="27" y1="94" x2="2992" y2="94"/>
<line opacity="0.1" stroke="#000000" stroke-width="1" x1="27" y1="90" x2="2992" y2="90"/>
<line opacity="0.1" stroke="#000000" stroke-width="1" x1="27" y1="86" x2="2992" y2="86"/>
<line opacity="0.1" stroke="#000000" stroke-width="1" x1="27" y1="82" x2="2992" y2="82"/>
<line opacity="0.1" stroke="#000000" stroke-width="1" x1="27" y1="79" x2="2992" y2="79"/>
<line opacity="0.1" stroke="#000000" stroke-width="1" x1="27" y1="75" x2="2992" y2="75"/>
<line opacity="0.1" stroke="#000000" stroke-width="1" x1="27" y1="71" x2="2992" y2="71"/>
<line opacity="0.1" stroke="#000000" stroke-width="1" x1="27" y1="67" x2="2992" y2="67"/>
<line opacity="0.1" stroke="#000000" stroke-width="1" x1="27" y1="64" x2="2992" y2="64"/>
<line opacity="0.1" stroke="#000000" stroke-width="1" x1="27" y1="60" x2="2992" y2="60"/>
<line opacity="0.1" stroke="#000000" stroke-width="1" x1="27" y1="56" x2="2992" y2="56"/>
<line opacity="0.1" stroke="#000000" stroke-width="1" x1="27" y1="52" x2="2992" y2="52"/>
<line opacity="0.1" stroke="#000000" stroke-width="1" x1="27" y1="49" x2="2992" y2="49"/>
<line opacity="0.1" stroke="#000000" stroke-width="1" x1="27" y1="45" x2="2992" y2="45"/>
<line opacity="0.1" stroke="#000000" stroke-width="1" x1="27" y1="41" x2="2992" y2="41"/>
<line opacity="0.1" stroke="#000000" stroke-width="1" x1="27" y1="37" x2="2992" y2="37"/>
<line opacity="0.1" stroke="#000000" stroke-width="1" x1="27" y1="34" x2="2992" y2="34"/>
<line opacity="0.1" stroke="#000000" stroke-width="1" x1="27" y1="30" x2="2992" y2="30"/>
<line opacity="0.1" stroke="#000000" stroke-width="1" x1="27" y1="26" x2="2992" y2="26"/>
<line opacity="0.1" stroke="#000000" stroke-width="1" x1="27" y1="22" x2="2992" y2="22"/>
<line opacity="0.1" stroke="#000000" stroke-width="1" x1="27" y1="19" x2="2992" y2="19"/>
<line opacity="0.1" stroke="#000000" stroke-width="1" x1="27" y1="15" x2="2992" y2="15"/>
<line opacity="0.1" stroke="#000000" stroke-width="1" x1="27" y1="11" x2="2992" y2="11"/>
<line opacity="0.1" stroke="#000000" stroke-width="1" x1="27" y1="7" x2="2992" y2="7"/>
<line opacity="0.2" stroke="#000000" stroke-width="1" x1="27" y1="172" x2="27" y2="7"/>
<line opacity="0.2" stroke="#000000" stroke-width="1" x1="323" y1="172" x2="323" y2="7"/>
<line opacity="0.2" stroke="#000000" stroke-width="1" x1="620" y1="172" x2="620" y2="7"/>
<line opacity="0.2" stroke="#000000" stroke-width="1" x1="916" y1="172" x2="916" y2="7"/>
<line opacity="0.2" stroke="#000000" stroke-width="1" x1="1213" y1="172" x2="1213" y2="7"/>
<line opacity="0.2" stroke="#000000" stroke-width="1" x1="1509" y1="172" x2="1509" y2="7"/>
<line opacity="0.2" stroke="#000000" stroke-width="1" x1="1806" y1="172" x2="1806" y2="7"/>
<line opacity="0.2" stroke="#000000" stroke-width="1" x1="2102" y1="172" x2="2102" y2="7"/>
<line opacity="0.2" stroke="#000000" stroke-width="1" x1="2399" y1="172" x2="2399" y2="7"/>
<line opacity="0.2" stroke="#000000" stroke-width="1" x1="2695" y1="172" x2="2695" y2="7"/>
<line opacity="0.2" stroke="#000000" stroke-width="1" x1="2992" y1="172" x2="2992" y2="7"/>
<line opacity="0.2" stroke="#000000" stroke-width="1" x1="27" y1="165" x2="2992" y2="165"/>
<line opacity="0.2" stroke="#000000" stroke-width="1" x1="27" y1="150" x2="2992" y2="150"/>
<line opacity="0.2" stroke="#000000" stroke-width="1" x1="27" y1="135" x2="2992" y2="135"/>
<line opacity="0.2" stroke="#000000" stroke-width="1" x1="27" y1="120" x2="2992" y2="120"/>
<line opacity="0.2" stroke="#000000" stroke-width="1" x1="27" y1="105" x2="2992" y2="105"/>
<line opacity="0.2" stroke="#000000" stroke-width="1" x1="27" y1="90" x2="2992" y2="90"/>
<line opacity="0.2" stroke="#000000" stroke-width="1" x1="27" y1="75" x2="2992" y2="75"/>
<line opacity="0.2" stroke="#000000" stroke-width="1" x1="27" y1="60" x2="2992" y2="60"/>
<line opacity="0.2" stroke="#000000" stroke-width="1" x1="27" y1="45" x2="2992" y2="45"/>
<line opacity="0.2" stroke="#000000" stroke-width="1" x1="27" y1="30" x2="2992" y2="30"/>
<line opacity="0.2" stroke="#000000" stroke-width="1" x1="27" y1="15" x2="2992" y2="15"/>
<polyline fill="none" opacity="1" stroke="#000000" stroke-width="1" points="26,7 26,172 "/>
<text x="17" y="165" dy="0.5ex" text-anchor="end" font-family="sans-serif" font-size="9.67741935483871" opacity="1" fill="#000000">
-1.0
</text>
<polyline fill="none" opacity="1" stroke="#000000" stroke-width="1" points="21,165 26,165 "/>
<text x="17" y="150" dy="0.5ex" text-anchor="end" font-family="sans-serif" font-size="9.67741935483871" opacity="1" fill="#000000">
-0.8
</text>
<polyline fill="none" opacity="1" stroke="#000000" stroke-width="1" points="21,150 26,150 "/>
<text x="17" y="135" dy="0.5ex" text-anchor="end" font-family="sans-serif" font-size="9.67741935483871" opacity="1" fill="#000000">
-0.6
</text>
<polyline fill="none" opacity="1" stroke="#000000" stroke-width="1" points="21,135 26,135 "/>
<text x="17" y="120" dy="0.5ex" text-anchor="end" font-family="sans-serif" font-size="9.67741935483871" opacity="1" fill="#000000">
-0.4
</text>
<polyline fill="none" opacity="1" stroke="#000000" stroke-width="1" points="21,120 26,120 "/>
<text x="17" y="105" dy="0.5ex" text-anchor="end" font-family="sans-serif" font-size="9.67741935483871" opacity="1" fill="#000000">
-0.2
</text>
<polyline fill="none" opacity="1" stroke="#000000" stroke-width="1" points="21,105 26,105 "/>
<text x="17" y="90" dy="0.5ex" text-anchor="end" font-family="sans-serif" font-size="9.67741935483871" opacity="1" fill="#000000">
-0.0
</text>
<polyline fill="none" opacity="1" stroke="#000000" stroke-width="1" points="21,90 26,90 "/>
<text x="17" y="75" dy="0.5ex" text-anchor="end" font-family="sans-serif" font-size="9.67741935483871" opacity="1" fill="#000000">
0.2
</text>
<polyline fill="none" opacity="1" stroke="#000000" stroke-width="1" points="21,75 26,75 "/>
<text x="17" y="60" dy="0.5ex" text-anchor="end" font-family="sans-serif" font-size="9.67741935483871" opacity="1" fill="#000000">
0.4
</text>
<polyline fill="none" opacity="1" stroke="#000000" stroke-width="1" points="21,60 26,60 "/>
<text x="17" y="45" dy="0.5ex" text-anchor="end" font-family="sans-serif" font-size="9.67741935483871" opacity="1" fill="#000000">
0.6
</text>
<polyline fill="none" opacity="1" stroke="#000000" stroke-width="1" points="21,45 26,45 "/>
<text x="17" y="30" dy="0.5ex" text-anchor="end" font-family="sans-serif" font-size="9.67741935483871" opacity="1" fill="#000000">
0.8
</text>
<polyline fill="none" opacity="1" stroke="#000000" stroke-width="1" points="21,30 26,30 "/>
<text x="17" y="15" dy="0.5ex" text-anchor="end" font-family="sans-serif" font-size="9.67741935483871" opacity="1" fill="#000000">
1.0
</text>
<polyline fill="none" opacity="1" stroke="#000000" stroke-width="1" points="21,15 26,15 "/>
<polyline fill="none" opacity="1" stroke="#000000" stroke-width="1" points="27,173 2992,173 "/>
<text x="27" y="183" dy="0.76em" text-anchor="middle" font-family="sans-serif" font-size="9.67741935483871" opacity="1" fill="#000000">
0.0
</text>
<polyline fill="none" opacity="1" stroke="#000000" stroke-width="1" points="27,173 27,178 "/>
<text x="323" y="183" dy="0.76em" text-anchor="middle" font-family="sans-serif" font-size="9.67741935483871" opacity="1" fill="#000000">
1000.0
</text>
<polyline fill="none" opacity="1" stroke="#000000" stroke-width="1" points="323,173 323,178 "/>
<text x="620" y="183" dy="0.76em" text-anchor="middle" font-family="sans-serif" font-size="9.67741935483871" opacity="1" fill="#000000">
2000.0
</text>
<polyline fill="none" opacity="1" stroke="#000000" stroke-width="1" points="620,173 620,178 "/>
<text x="916" y="183" dy="0.76em" text-anchor="middle" font-family="sans-serif" font-size="9.67741935483871" opacity="1" fill="#000000">
3000.0
</text>
<polyline fill="none" opacity="1" stroke="#000000" stroke-width="1" points="916,173 916,178 "/>
<text x="1213" y="183" dy="0.76em" text-anchor="middle" font-family="sans-serif" font-size="9.67741935483871" opacity="1" fill="#000000">
4000.0
</text>
<polyline fill="none" opacity="1" stroke="#000000" stroke-width="1" points="1213,173 1213,178 "/>
<text x="1509" y="183" dy="0.76em" text-anchor="middle" font-family="sans-serif" font-size="9.67741935483871" opacity="1" fill="#000000">
5000.0
</text>
<polyline fill="none" opacity="1" stroke="#000000" stroke-width="1" points="1509,173 1509,178 "/>
<text x="1806" y="183" dy="0.76em" text-anchor="middle" font-family="sans-serif" font-size="9.67741935483871" opacity="1" fill="#000000">
6000.0
</text>
<polyline fill="none" opacity="1" stroke="#000000" stroke-width="1" points="1806,173 1806,178 "/>
<text x="2102" y="183" dy="0.76em" text-anchor="middle" font-family="sans-serif" font-size="9.67741935483871" opacity="1" fill="#000000">
7000.0
</text>
<polyline fill="none" opacity="1" stroke="#000000" stroke-width="1" points="2102,173 2102,178 "/>
<text x="2399" y="183" dy="0.76em" text-anchor="middle" font-family="sans-serif" font-size="9.67741935483871" opacity="1" fill="#000000">
8000.0
</text>
<polyline fill="none" opacity="1" stroke="#000000" stroke-width="1" points="2399,173 2399,178 "/>
<text x="2695" y="183" dy="0.76em" text-anchor="middle" font-family="sans-serif" font-size="9.67741935483871" opacity="1" fill="#000000">
9000.0
</text>
<polyline fill="none" opacity="1" stroke="#000000" stroke-width="1" points="2695,173 2695,178 "/>
<text x="2992" y="183" dy="0.76em" text-anchor="middle" font-family="sans-serif" font-size="9.67741935483871" opacity="1" fill="#000000">
10000.0
</text>
<polyline fill="none" opacity="1" stroke="#000000" stroke-width="1" points="2992,173 2992,178 "/>
<polyline fill="none" opacity="1" stroke="#FF0000" stroke-width="1" points="27,90 27,18 27,52 27,143 28,155 28,71 28,15 29,71 29,155 29,143 29,52 30,18 30,90 30,162 31,127 31,37 31,25 32,109 32,165 32,109 32,25 33,37 33,127 33,162 34,90 34,18 34,52 35,143 35,155 35,71 35,15 36,71 36,155 36,143 37,52 37,18 37,90 37,162 38,127 38,37 38,25 39,109 39,165 39,109 40,25 40,37 40,127 40,162 41,90 41,18 41,52 42,143 42,155 42,71 43,15 43,71 43,155 43,143 44,52 44,18 44,90 45,162 45,127 45,37 45,25 46,109 46,165 46,109 47,25 47,37 47,127 48,162 48,90 48,18 48,52 49,143 49,155 49,71 50,15 50,71 50,155 51,143 51,52 51,18 51,90 52,162 52,127 52,37 53,25 53,109 53,165 53,109 54,25 54,37 54,127 55,162 55,90 55,18 56,52 56,143 56,155 56,71 57,15 57,71 57,155 58,143 58,52 58,18 59,90 59,162 59,127 59,37 60,25 60,109 60,165 61,109 61,25 61,37 61,127 62,162 62,90 62,18 63,52 63,143 63,155 64,71 64,15 64,71 64,155 65,143 65,52 65,18 66,90 66,162 66,127 67,37 67,25 67,109 67,165 68,109 68,25 68,37 69,127 69,162 69,90 69,18 70,52 70,143 70,155 71,71 71,15 71,71 72,155 72,143 72,52 72,18 73,90 73,162 73,127 74,37 74,25 74,109 75,165 75,109 75,25 75,37 76,127 76,162 76,90 77,18 77,52 77,143 77,155 78,71 78,15 78,71 79,155 79,143 79,52 80,18 80,90 80,162 80,127 81,37 81,25 81,109 82,165 82,109 82,25 83,37 83,127 83,162 83,90 84,18 84,52 84,143 85,155 85,71 85,15 86,71 86,155 86,143 86,52 87,18 87,90 87,162 88,127 88,37 88,25 88,109 89,165 89,109 89,25 90,37 90,127 90,162 91,90 91,18 91,52 91,143 92,155 92,71 92,15 93,71 93,155 93,143 94,52 94,18 94,90 94,162 95,127 95,37 95,25 96,109 96,165 96,109 96,25 97,37 97,128 97,162 98,90 98,18 98,52 99,143 99,155 99,71 99,15 100,71 100,155 100,143 101,52 101,18 101,90 102,162 102,128 102,37 102,25 103,109 103,165 103,109 104,25 104,37 104,127 104,162 105,90 105,18 105,53 106,143 106,155 106,71 107,15 107,71 107,155 107,143 108,52 108,18 108,90 109,162 109,127 109,37 110,25 110,109 110,165 110,109 111,25 111,37 111,128 112,162 112,90 112,18 112,53 113,143 113,155 113,71 114,15 114,71 114,155 115,143 115,52 115,18 115,90 116,162 116,127 116,37 117,25 117,109 117,165 118,109 118,25 118,37 118,127 119,162 119,90 119,18 120,53 120,143 120,155 120,71 121,15 121,71 121,155 122,143 122,52 122,18 123,90 123,162 123,127 123,37 124,25 124,109 124,165 125,109 125,25 125,37 126,127 126,162 126,90 126,18 127,52 127,143 127,155 128,71 128,15 128,71 128,155 129,143 129,52 129,18 130,90 130,162 130,127 131,37 131,25 131,109 131,165 132,109 132,25 132,37 133,127 133,162 133,90 134,18 134,53 134,143 134,155 135,71 135,15 135,71 136,155 136,143 136,52 137,18 137,90 137,162 137,127 138,37 138,25 138,109 139,165 139,109 139,25 139,37 140,127 140,162 140,90 141,18 141,52 141,143 142,155 142,71 142,15 142,71 143,155 143,143 143,52 144,18 144,90 144,162 145,127 145,37 145,25 145,109 146,165 146,109 146,25 147,37 147,127 147,162 147,90 148,18 148,53 148,143 149,155 149,71 149,15 150,71 150,155 150,143 150,52 151,18 151,90 151,162 152,127 152,37 152,25 153,109 153,165 153,109 153,25 154,37 154,128 154,162 155,90 155,18 155,53 155,143 156,155 156,71 156,15 157,71 157,155 157,143 158,52 158,18 158,90 158,162 159,127 159,37 159,25 160,109 160,165 160,109 161,25 161,37 161,127 161,162 162,90 162,18 162,53 163,143 163,155 163,71 163,15 164,71 164,155 164,143 165,53 165,18 165,90 166,162 166,127 166,37 166,25 167,109 167,165 167,109 168,25 168,37 168,127 169,162 169,90 169,18 169,52 170,143 170,155 170,71 171,15 171,71 171,155 171,143 172,52 172,18 172,90 173,162 173,128 173,37 174,25 174,109 174,165 174,109 175,25 175,37 175,127 176,162 176,90 176,18 177,52 177,143 177,155 177,71 178,15 178,71 178,155 179,143 179,52 179,18 179,90 180,162 180,127 180,37 181,25 181,109 181,165 182,109 182,25 182,37 182,128 183,162 183,90 183,18 184,53 184,143 184,155 185,71 185,15 185,71 185,155 186,143 186,52 186,18 187,90 187,162 187,127 188,37 188,25 188,109 188,165 189,109 189,25 189,37 190,128 190,162 190,90 190,18 191,53 191,143 191,155 192,71 192,15 192,71 193,155 193,143 193,53 193,18 194,90 194,162 194,127 195,37 195,25 195,109 196,165 196,109 196,25 196,37 197,128 197,162 197,90 198,18 198,53 198,143 198,155 199,71 199,15 199,71 200,155 200,143 200,52 201,18 201,90 201,162 201,128 202,37 202,25 202,109 203,165 203,109 203,25 204,37 204,128 204,162 204,90 205,18 205,53 205,143 206,155 206,71 206,15 206,71 207,155 207,143 207,52 208,18 208,90 208,162 209,127 209,37 209,25 209,109 210,165 210,109 210,25 211,37 211,127 211,162 212,90 212,18 212,53 212,143 213,155 213,71 213,15 214,71 214,155 214,143 214,52 215,18 215,90 215,162 216,127 216,37 216,25 217,109 217,165 217,109 217,25 218,37 218,128 218,162 219,90 219,18 219,52 220,143 220,155 220,71 220,15 221,71 221,155 221,143 222,53 222,18 222,90 222,162 223,127 223,37 223,25 224,109 224,165 224,109 225,25 225,37 225,127 225,162 226,90 226,18 226,53 227,143 227,155 227,71 228,15 228,71 228,155 228,143 229,53 229,18 229,90 230,162 230,127 230,37 230,25 231,109 231,165 231,109 232,25 232,37 232,128 233,162 233,90 233,18 233,52 234,143 234,155 234,71 235,15 235,71 235,155 236,143 236,52 236,18 236,90 237,162 237,127 237,37 238,25 238,109 238,165 238,109 239,25 239,37 239,127 240,162 240,90 240,18 241,52 241,143 241,155 241,71 242,15 242,71 242,155 243,143 243,52 243,18 244,90 244,162 244,128 244,37 245,25 245,109 245,165 246,109 246,25 246,37 247,127 247,162 247,90 247,18 248,53 248,143 248,155 249,71 249,15 249,71 249,155 250,143 250,52 250,18 251,90 251,162 251,127 252,37 252,25 252,109 252,165 253,109 253,25 253,37 254,128 254,162 254,90 255,18 255,53 255,143 255,155 256,71 256,15 256,71 257,155 257,143 257,52 257,18 258,90 258,162 258,127 259,37 259,25 259,109 260,165 260,109 260,25 260,37 261,127 261,162 261,90 262,18 262,52 262,143 263,155 263,71 263,15 263,71 264,155 264,143 264,52 265,18 265,90 265,162 265,127 266,37 266,25 266,109 267,165 267,109 267,25 268,37 268,128 268,162 268,90 269,18 269,52 269,143 270,155 270,71 270,15 271,71 271,155 271,143 271,53 272,18 272,90 272,162 273,127 273,37 273,25 273,109 274,165 274,109 274,25 275,37 275,128 275,162 276,90 276,18 276,53 276,143 277,155 277,71 277,15 278,71 278,155 278,143 279,52 279,18 279,90 279,162 280,127 280,37 280,25 281,109 281,165 281,109 281,25 282,37 282,128 282,162 283,90 283,18 283,53 284,143 284,155 284,71 284,15 285,71 285,155 285,143 286,52 286,18 286,90 287,162 287,127 287,37 287,25 288,109 288,165 288,109 289,25 289,37 289,128 289,162 290,90 290,18 290,53 291,143 291,155 291,71 292,15 292,71 292,155 292,143 293,52 293,18 293,90 294,162 294,128 294,37 295,25 295,109 295,165 295,109 296,25 296,37 296,128 297,162 297,90 297,18 298,53 298,143 298,155 298,71 299,15 299,71 299,155 300,143 300,52 300,18 300,90 301,162 301,127 301,37 302,25 302,109 302,165 303,109 303,25 303,37 303,127 304,162 304,90 304,18 305,52 305,143 305,155 306,71 306,15 306,71 306,155 307,143 307,52 307,18 308,90 308,162 308,127 308,37 309,25 309,109 309,165 310,109 310,25 310,37 311,127 311,162 311,90 311,18 312,53 312,143 312,155 313,71 313,15 313,71 314,155 314,143 314,52 314,18 315,90 315,162 315,127 316,37 316,25 316,109 316,165 317,109 317,25 317,37 318,128 318,162 318,90 319,18 319,52 319,143 319,155 320,71 320,15 320,71 321,155 321,143 321,52 322,18 322,90 322,162 322,127 323,37 323,90 323,80 324,70 324,61 324,52 324,43 325,35 325,28 325,23 326,19 326,16 326,15 327,16 327,18 327,22 327,28 328,36 328,45 328,56 329,67 329,80 329,92 330,105 330,118 330,129 330,140 331,149 331,157 331,162 332,165 332,165 332,162 332,157 333,149 333,139 333,127 334,114 334,99 334,84 335,69 335,55 335,42 335,31 336,22 336,17 336,15 337,17 337,22 337,30 338,42 338,56 338,72 338,89 339,106 339,123 339,138 340,150 340,159 340,164 340,165 341,161 341,153 341,141 342,126 342,108 342,89 343,70 343,52 343,37 343,25 344,17 344,15 344,18 345,26 345,39 345,56 346,75 346,96 346,116 346,135 347,150 347,160 347,165 348,163 348,156 348,142 349,124 349,103 349,81 349,59 350,40 350,26 350,17 351,15 351,21 351,33 351,51 352,72 352,96 352,119 353,140 353,155 353,164 354,164 354,157 354,143 354,122 355,98 355,73 355,49 356,31 356,19 356,15 357,20 357,34 357,55 357,80 358,106 358,131 358,150 359,162 359,165 359,158 359,141 360,118 360,91 360,64 361,40 361,23 361,15 362,18 362,32 362,54 362,81 363,110 363,136 363,155 364,164 364,162 364,149 365,126 365,98 365,68 365,42 366,23 366,15 366,20 367,36 367,62 367,92 367,123 368,147 368,162 368,164 369,153 369,130 369,100 370,68 370,40 370,21 370,15 371,23 371,44 371,74 372,107 372,137 372,158 373,165 373,157 373,136 373,105 374,71 374,40 374,20 375,15 375,26 375,51 375,84 376,118 376,147 376,163 377,163 377,146 377,116 378,81 378,47 378,23 378,15 379,24 379,50 379,85 380,121 380,150 380,164 381,160 381,139 381,105 381,67 382,35 382,17 382,18 383,37 383,71 383,109 383,143 384,162 384,162 384,143 385,108 385,69 385,35 386,17 386,19 386,41 386,78 387,118 387,150 387,165 388,158 388,130 388,91 389,51 389,23 389,15 389,30 390,64 390,105 390,142 391,163 391,161 391,136 391,96 392,55 392,24 392,15 393,31 393,66 393,109 394,146 394,164 394,157 394,127 395,84 395,43 395,18 396,19 396,44 396,86 397,129 397,159 397,163 397,141 398,100 398,55 398,23 399,16 399,36 399,77 399,123 400,156 400,164 400,144 401,102 401,56 401,23 402,16 402,39 402,82 402,128 403,160 403,162 403,136 404,90 404,44 404,17 405,21 405,54 405,102 405,145 406,165 406,153 406,113 407,64 407,26 407,16 408,39 408,85 408,133 408,162 409,159 409,124 409,74 410,31 410,15 410,34 410,79 411,129 411,161 411,159 412,124 412,73 412,29 413,15 413,37 413,85 413,136 414,164 414,155 414,114 415,61 415,22 415,18 416,51 416,103 416,149 416,165 417,141 417,91 417,40 418,15 418,30 418,77 418,131 419,163 419,156 419,113 420,57 420,20 420,21 421,60 421,116 421,158 421,161 422,124 422,68 422,24 423,18 423,53 423,110 424,155 424,162 424,128 424,72 425,26 425,17 425,50 426,105 426,152 426,164 426,135 427,81 427,32 427,15 428,40 428,91 428,142 429,165 429,147 429,99 429,46 430,17 430,26 430,69 431,122 431,159 431,161 432,125 432,72 432,28 432,16 433,40 433,90 433,140 434,164 434,152 434,110 434,58 435,21 435,18 435,50 436,100 436,146 436,165 437,149 437,105 437,54 437,20 438,19 438,49 438,99 439,144 439,165 439,152 440,112 440,62 440,24 440,16 441,40 441,86 441,133 442,162 442,160 442,128 442,81 443,37 443,16 443,25 444,61 444,109 444,149 445,165 445,150 445,112 445,64 446,27 446,15 446,32 447,72 447,118 447,154 448,165 448,147 448,108 448,62 449,27 449,15 449,31 450,68 450,114 450,150 450,165 451,153 451,118 451,74 452,35 452,16 452,22 453,52 453,95 453,136 453,161 454,162 454,140 454,100 455,58 455,26 455,15 456,28 456,62 456,104 456,141 457,163 457,161 457,137 458,99 458,58 458,27 459,15 459,26 459,56 459,96 460,134 460,159 460,164 461,148 461,115 461,75 461,39 462,18 462,17 462,36 463,70 463,109 463,143 464,162 464,162 464,143 464,110 465,72 465,38 465,18 466,17 466,34 466,65 467,103 467,137 467,159 467,165 468,152 468,124 468,89 469,53 469,27 469,15 469,21 470,43 470,75 470,111 471,141 471,161 471,164 472,152 472,125 472,92 472,58 473,31 473,16 473,18 474,34 474,61 474,95 475,127 475,152 475,164 475,162 476,145 476,118 476,86 477,54 477,30 477,17 477,17 478,31 478,56 478,86 479,118 479,144 479,161 480,165 480,156 480,136 480,108 481,77 481,49 481,27 482,16 482,17 482,30 483,52 483,80 483,109 483,136 484,155 484,164 484,162 485,150 485,128 485,101 485,73 486,47 486,27 486,17 487,16 487,26 487,44 488,68 488,96 488,122 488,144 489,159 489,165 489,161 490,149 490,129 490,105 491,79 491,54 491,34 491,21 492,15 492,18 492,30 493,47 493,70 493,95 493,119 494,140 494,155 494,164 495,164 495,158 495,144 496,125 496,103 496,80 496,58 497,39 497,24 497,17 498,15 498,21 498,33 499,49 499,70 499,91 499,113 500,132 500,148 500,159 501,165 501,164 501,158 501,146 502,130 502,112 502,92 503,72 503,53 503,37 504,25 504,18 504,15 504,18 505,25 505,36 505,51 506,68 506,87 506,105 507,122 507,138 507,150 507,159 508,164 508,165 508,161 509,154 509,144 509,131 509,115 510,99 510,82 510,66 511,51 511,39 511,28 512,21 512,16 512,15 512,17 513,22 513,30 513,40 514,53 514,66 514,80 515,95 515,109 515,122 515,134 516,145 516,153 516,159 517,163 517,165 517,164 518,161 518,156 518,149 518,140 519,131 519,120 519,108 520,96 520,84 520,73 520,62 521,51 521,42 521,34 522,27 522,22 522,18 523,16 523,15 523,16 523,18 524,21 524,25 524,90 525,127 525,155 525,165 526,155 526,127 526,90 526,52 527,25 527,15 527,25 528,52 528,90 528,127 528,155 529,165 529,155 529,127 530,90 530,52 530,25 531,15 531,25 531,52 531,90 532,127 532,155 532,165 533,155 533,127 533,90 534,52 534,25 534,15 534,25 535,52 535,90 535,52 536,25 536,15 536,25 536,52 537,90 537,127 537,155 538,165 538,155 538,127 539,90 539,52 539,25 539,15 540,25 540,52 540,90 541,127 541,155 541,165 542,155 542,127 542,90 542,52 543,25 543,15 543,25 544,52 544,90 544,127 544,155 545,165 545,155 545,127 546,90 546,52 546,25 547,15 547,25 547,52 547,90 548,127 548,155 548,165 549,155 549,127 549,90 550,52 550,25 550,15 550,25 551,52 551,90 551,127 552,155 552,165 552,155 552,127 553,90 553,52 553,25 554,15 554,25 554,52 555,90 555,127 555,155 555,165 556,155 556,127 556,90 557,52 557,25 557,15 558,25 558,52 558,90 558,127 559,155 559,165 559,155 560,127 560,90 560,52 560,25 561,15 561,25 561,52 562,90 562,127 562,155 563,165 563,155 563,127 563,90 564,52 564,25 564,15 565,25 565,52 565,90 566,127 566,155 566,165 566,155 567,127 567,90 567,52 568,25 568,15 568,25 569,52 569,90 569,127 569,155 570,165 570,155 570,127 571,90 571,52 571,25 571,15 572,25 572,52 572,90 573,127 573,155 573,165 574,155 574,127 574,90 574,52 575,25 575,15 575,25 576,52 576,90 576,127 577,155 577,165 577,155 577,127 578,90 578,52 578,25 579,15 579,25 579,52 579,90 580,127 580,155 580,165 581,155 581,127 581,90 582,52 582,25 582,15 582,25 583,52 583,90 583,127 584,155 584,165 584,155 585,127 585,90 585,52 585,25 586,15 586,25 586,52 587,90 587,127 587,155 587,165 588,155 588,127 588,90 589,127 589,155 589,165 590,155 590,127 590,90 590,52 591,25 591,15 591,25 592,52 592,90 592,127 593,155 593,165 593,155 593,127 594,90 594,52 594,25 595,15 595,25 595,52 595,90 596,127 596,155 596,165 597,155 597,127 597,90 598,52 598,25 598,15 598,25 599,52 599,90 599,52 600,25 600,15 600,25 601,52 601,90 601,127 601,155 602,165 602,155 602,127 603,90 603,52 603,25 603,15 604,25 604,52 604,90 605,127 605,155 605,165 606,155 606,127 606,90 606,52 607,25 607,15 607,25 608,52 608,90 608,127 609,155 609,165 609,155 609,127 610,90 610,52 610,25 611,15 611,25 611,52 611,90 612,127 612,155 612,165 613,155 613,127 613,90 614,52 614,25 614,15 614,25 615,52 615,90 615,127 616,155 616,165 616,155 617,127 617,90 617,52 617,25 618,15 618,25 618,52 619,90 619,127 619,155 620,165 620,155 620,127 620,90 621,52 621,25 621,15 622,25 622,52 622,90 622,127 623,155 623,165 623,155 624,127 624,90 624,52 625,25 625,15 625,25 625,52 626,90 626,127 626,155 627,165 627,155 627,127 628,90 628,52 628,25 628,15 629,25 629,52 629,90 630,127 630,155 630,165 630,155 631,127 631,90 631,127 632,155 632,165 632,155 633,127 633,90 633,52 633,25 634,15 634,25 634,52 635,90 635,127 635,155 636,165 636,155 636,127 636,90 637,52 637,25 637,15 638,25 638,52 638,90 638,127 639,155 639,165 639,155 640,127 640,90 640,52 641,25 641,15 641,25 641,52 642,90 642,127 642,155 643,165 643,155 643,127 644,90 644,52 644,25 644,15 645,25 645,52 645,90 646,127 646,155 646,165 646,155 647,127 647,90 647,52 648,25 648,15 648,25 649,52 649,90 649,127 649,155 650,165 650,155 650,127 651,90 651,52 651,25 652,15 652,25 652,52 652,90 653,52 653,25 653,15 654,25 654,52 654,90 654,127 655,155 655,165 655,155 656,127 656,90 656,52 657,25 657,15 657,25 657,52 658,90 658,127 658,155 659,165 659,155 659,127 660,90 660,52 660,25 660,15 661,25 661,52 661,90 662,127 662,155 662,165 662,155 663,127 663,90 663,52 664,25 664,15 664,25 665,52 665,90 665,127 665,155 666,165 666,155 666,127 667,90 667,52 667,25 668,15 668,25 668,52 668,90 669,127 669,155 669,165 670,155 670,127 670,90 670,52 671,25 671,15 671,25 672,52 672,90 672,127 673,155 673,165 673,155 673,127 674,90 674,127 674,155 675,165 675,155 675,127 676,90 676,52 676,25 676,15 677,25 677,52 677,90 678,127 678,155 678,165 679,155 679,127 679,90 679,52 680,25 680,15 680,25 681,52 681,90 681,127 681,155 682,165 682,155 682,127 683,90 683,52 683,25 684,15 684,25 684,52 684,90 685,52 685,25 685,15 686,25 686,52 686,90 687,127 687,155 687,165 687,155 688,127 688,90 688,52 689,25 689,15 689,25 689,52 690,90 690,127 690,155 691,165 691,155 691,127 692,90 692,52 692,25 692,15 693,25 693,52 693,90 694,127 694,155 694,165 695,155 695,127 695,90 695,52 696,25 696,15 696,25 697,52 697,90 697,127 697,155 698,165 698,155 698,127 699,90 699,52 699,25 700,15 700,25 700,52 700,90 701,127 701,155 701,165 702,155 702,127 702,90 703,52 703,25 703,15 703,25 704,52 704,90 704,127 705,155 705,165 705,155 705,127 706,90 706,52 706,25 707,15 707,25 707,52 708,90 708,127 708,155 708,165 709,155 709,127 709,90 710,52 710,25 710,15 711,25 711,52 711,90 711,127 712,155 712,165 712,155 713,127 713,90 713,52 713,25 714,15 714,25 714,52 715,90 715,127 715,155 716,165 716,155 716,127 716,90 717,127 717,155 717,165 718,155 718,127 718,90 719,52 719,25 719,15 719,25 720,52 720,90 720,127 721,155 721,165 721,155 721,127 722,90 722,52 722,25 723,15 723,25 723,52 724,90 724,127 724,155 724,165 725,155 725,127 725,90 726,52 726,25 726,15 727,25 727,52 727,90 727,127 728,155 728,165 728,155 729,127 729,90 729,52 730,25 730,15 730,25 730,52 731,90 731,127 731,155 732,165 732,155 732,127 732,90 733,52 733,25 733,15 734,25 734,52 734,90 735,127 735,155 735,165 735,155 736,127 736,90 736,52 737,25 737,15 737,25 738,52 738,90 738,52 738,25 739,15 739,25 739,52 740,90 740,127 740,155 740,165 741,155 741,127 741,90 742,52 742,25 742,15 743,25 743,52 743,90 743,127 744,155 744,165 744,155 745,127 745,90 745,52 746,25 746,15 746,25 746,52 747,90 747,127 747,155 748,165 748,155 748,127 748,90 749,52 749,25 749,15 750,25 750,52 750,90 751,127 751,155 751,165 751,155 752,127 752,90 752,52 753,25 753,15 753,25 754,52 754,90 754,127 754,155 755,165 755,155 755,127 756,90 756,52 756,25 756,15 757,25 757,52 757,90 758,127 758,155 758,165 759,155 759,127 759,90 759,52 760,25 760,15 760,25 761,52 761,90 761,127 762,155 762,165 762,155 762,127 763,90 763,52 763,25 764,15 764,25 764,52 764,90 765,127 765,155 765,165 766,155 766,127 766,90 767,52 767,25 767,15 767,25 768,52 768,90 768,127 769,155 769,165 769,155 770,127 770,90 770,127 770,155 771,165 771,155 771,127 772,90 772,52 772,25 772,15 773,25 773,52 773,90 774,127 774,155 774,165 775,155 775,127 775,90 775,52 776,25 776,15 776,25 777,52 777,90 777,127 778,155 778,165 778,155 778,127 779,90 779,52 779,25 780,15 780,25 780,52 781,90 781,127 781,155 781,165 782,155 782,127 782,90 783,52 783,25 783,15 783,25 784,52 784,90 784,127 785,155 785,165 785,155 786,127 786,90 786,52 786,25 787,15 787,25 787,52 788,90 788,127 788,155 789,165 789,155 789,127 789,90 790,52 790,25 790,15 791,25 791,52 791,90 791,127 792,155 792,165 792,155 793,127 793,90 793,52 794,25 794,15 794,25 794,52 795,90 795,127 795,155 796,165 796,155 796,127 797,90 797,52 797,25 797,15 798,25 798,52 798,90 799,127 799,155 799,165 799,155 800,127 800,90 800,52 801,25 801,15 801,25 802,52 802,90 802,52 802,25 803,15 803,25 803,52 804,90 804,127 804,155 805,165 805,155 805,127 805,90 806,52 806,25 806,15 807,25 807,52 807,90 807,127 808,155 808,165 808,155 809,127 809,90 809,52 810,25 810,15 810,25 810,52 811,90 811,127 811,155 812,165 812,155 812,127 813,90 813,127 813,155 813,165 814,155 814,127 814,90 815,52 815,25 815,15 815,25 816,52 816,90 816,127 817,155 817,165 817,155 818,127 818,90 818,52 818,25 819,15 819,25 819,52 820,90 820,127 820,155 821,165 821,155 821,127 821,90 822,52 822,25 822,15 823,25 823,52 823,90 823,127 824,155 824,165 824,155 825,127 825,90 825,52 826,25 826,15 826,25 826,52 827,90 827,127 827,155 828,165 828,155 828,127 829,90 829,52 829,25 829,15 830,25 830,52 830,90 831,127 831,155 831,165 831,155 832,127 832,90 832,52 833,25 833,15 833,25 834,52 834,90 834,127 834,155 835,165 835,155 835,127 836,90 836,52 836,25 837,15 837,25 837,52 837,90 838,127 838,155 838,165 839,155 839,127 839,90 840,52 840,25 840,15 840,25 841,52 841,90 841,127 842,155 842,165 842,155 842,127 843,90 843,52 843,25 844,15 844,25 844,52 845,90 845,127 845,155 845,165 846,155 846,127 846,90 847,52 847,25 847,15 848,25 848,52 848,90 848,127 849,155 849,165 849,155 850,127 850,90 850,52 850,25 851,15 851,25 851,52 852,90 852,127 852,155 853,165 853,155 853,127 853,90 854,52 854,25 854,15 855,25 855,52 855,90 856,127 856,155 856,165 856,155 857,127 857,90 857,52 858,25 858,15 858,25 858,52 859,90 859,127 859,155 860,165 860,155 860,127 861,90 861,52 861,25 861,15 862,25 862,52 862,90 863,127 863,155 863,165 864,155 864,127 864,90 864,52 865,25 865,15 865,25 866,52 866,90 866,127 866,155 867,165 867,155 867,127 868,90 868,52 868,25 869,15 869,25 869,52 869,90 870,127 870,155 870,165 871,155 871,127 871,90 872,52 872,25 872,15 872,25 873,52 873,90 873,127 874,155 874,165 874,155 874,127 875,90 875,52 875,25 876,15 876,25 876,52 877,90 877,127 877,155 877,165 878,155 878,127 878,90 879,52 879,25 879,15 880,25 880,52 880,90 880,127 881,155 881,165 881,155 882,127 882,90 882,52 882,25 883,15 883,25 883,52 884,90 884,127 884,155 885,165 885,155 885,127 885,90 886,52 886,25 886,15 887,25 887,52 887,90 888,52 888,25 888,15 888,25 889,52 889,90 889,127 890,155 890,165 890,155 891,127 891,90 891,52 891,25 892,15 892,25 892,52 893,90 893,127 893,155 893,165 894,155 894,127 894,90 895,52 895,25 895,15 896,25 896,52 896,90 896,127 897,155 897,165 897,155 898,127 898,90 898,127 899,155 899,165 899,155 899,127 900,90 900,52 900,25 901,15 901,25 901,52 901,90 902,127 902,155 902,165 903,155 903,127 903,90 904,52 904,25 904,15 904,25 905,52 905,90 905,127 906,155 906,165 906,155 907,127 907,90 907,52 907,25 908,15 908,25 908,52 909,90 909,127 909,155 909,165 910,155 910,127 910,90 911,52 911,25 911,15 912,25 912,52 912,90 912,127 913,155 913,165 913,155 914,127 914,90 914,52 915,25 915,15 915,25 915,52 916,90 916,127 916,155 917,165 917,155 917,127 917,90 918,52 918,25 918,15 919,25 919,52 919,90 920,52 920,25 920,15 920,25 921,52 921,90 921,127 922,155 922,165 922,155 923,127 923,90 923,52 923,25 924,15 924,25 924,52 925,90 925,127 925,155 925,165 926,155 926,127 926,90 927,52 927,25 927,15 928,25 928,52 928,90 928,127 929,155 929,165 929,155 930,127 930,90 930,127 931,155 931,165 931,155 931,127 932,90 932,52 932,25 933,15 933,25 933,52 933,90 934,127 934,155 934,165 935,155 935,127 935,90 936,52 936,25 936,15 936,25 937,52 937,90 937,127 938,155 938,165 938,155 939,127 939,90 939,52 939,25 940,15 940,25 940,52 941,90 941,52 941,25 941,15 942,25 942,52 942,90 943,127 943,155 943,165 944,155 944,127 944,90 944,52 945,25 945,15 945,25 946,52 946,90 946,127 947,155 947,165 947,155 947,127 948,90 948,52 948,25 949,15 949,25 949,52 950,90 950,127 950,155 950,165 951,155 951,127 951,90 952,127 952,155 952,165 952,155 953,127 953,90 953,52 954,25 954,15 954,25 955,52 955,90 955,127 955,155 956,165 956,155 956,127 957,90 957,52 957,25 958,15 958,25 958,52 958,90 959,127 959,155 959,165 960,155 960,127 960,90 960,52 961,25 961,15 961,25 962,52 962,90 962,127 963,155 963,165 963,155 963,127 964,90 964,52 964,25 965,15 965,25 965,52 966,90 966,127 966,155 966,165 967,155 967,127 967,90 968,52 968,25 968,15 968,25 969,52 969,90 969,127 970,155 970,165 970,155 971,127 971,90 971,52 971,25 972,15 972,25 972,52 973,90 973,52 973,25 974,15 974,25 974,52 974,90 975,127 975,155 975,165 976,155 976,127 976,90 976,52 977,25 977,15 977,25 978,52 978,90 978,127 979,155 979,165 979,155 979,127 980,90 980,52 980,25 981,15 981,25 981,52 982,90 982,127 982,155 982,165 983,155 983,127 983,90 984,52 984,25 984,15 984,25 985,52 985,90 985,127 986,155 986,165 986,155 987,127 987,90 987,52 987,25 988,15 988,25 988,52 989,90 989,127 989,155 990,165 990,155 990,127 990,90 991,52 991,25 991,15 992,25 992,52 992,90 992,127 993,155 993,165 993,155 994,127 994,90 994,127 995,155 995,165 995,155 995,127 996,90 996,52 996,25 997,15 997,25 997,52 998,90 998,127 998,155 998,165 999,155 999,127 999,90 1000,52 1000,25 1000,15 1001,25 1001,52 1001,90 1001,127 1002,155 1002,165 1002,155 1003,127 1003,90 1003,52 1003,25 1004,15 1004,25 1004,52 1005,90 1005,52 1005,25 1006,15 1006,25 1006,52 1006,90 1007,127 1007,155 1007,165 1008,155 1008,127 1008,90 1009,52 1009,25 1009,15 1009,25 1010,52 1010,90 1010,127 1011,155 1011,165 1011,155 1011,127 1012,90 1012,52 1012,25 1013,15 1013,25 1013,52 1014,90 1014,127 1014,155 1014,165 1015,155 1015,127 1015,90 1016,52 1016,25 1016,15 1017,25 1017,52 1017,90 1017,127 1018,155 1018,165 1018,155 1019,127 1019,90 1019,52 1019,25 1020,15 1020,25 1020,52 1021,90 1021,127 1021,155 1022,165 1022,155 1022,127 1022,90 1023,52 1023,25 1023,15 1024,25 1024,52 1024,90 1025,127 1025,155 1025,165 1025,155 1026,127 1026,90 1026,52 1027,25 1027,15 1027,25 1027,52 1028,90 1028,127 1028,155 1029,165 1029,155 1029,127 1030,90 1030,52 1030,25 1030,15 1031,25 1031,52 1031,90 1032,127 1032,155 1032,165 1033,155 1033,127 1033,90 1033,52 1034,25 1034,15 1034,25 1035,52 1035,90 1035,127 1035,155 1036,165 1036,155 1036,127 1037,90 1037,127 1037,155 1038,165 1038,155 1038,127 1038,90 1039,52 1039,25 1039,15 1040,25 1040,52 1040,90 1041,127 1041,155 1041,165 1041,155 1042,127 1042,90 1042,52 1043,25 1043,15 1043,25 1043,52 1044,90 1044,127 1044,155 1045,165 1045,155 1045,127 1046,90 1046,52 1046,25 1046,15 1047,25 1047,52 1047,90 1048,127 1048,155 1048,165 1049,155 1049,127 1049,90 1049,52 1050,25 1050,15 1050,25 1051,52 1051,90 1051,127 1052,155 1052,165 1052,155 1052,127 1053,90 1053,52 1053,25 1054,15 1054,25 1054,52 1054,90 1055,127 1055,155 1055,165 1056,155 1056,127 1056,90 1057,52 1057,25 1057,15 1057,25 1058,52 1058,90 1058,52 1059,25 1059,15 1059,25 1060,52 1060,90 1060,127 1060,155 1061,165 1061,155 1061,127 1062,90 1062,52 1062,25 1062,15 1063,25 1063,52 1063,90 1064,127 1064,155 1064,165 1065,155 1065,127 1065,90 1065,52 1066,25 1066,15 1066,25 1067,52 1067,90 1067,127 1068,155 1068,165 1068,155 1068,127 1069,90 1069,127 1069,155 1070,165 1070,155 1070,127 1070,90 1071,52 1071,25 1071,15 1072,25 1072,52 1072,90 1073,127 1073,155 1073,165 1073,155 1074,127 1074,90 1074,52 1075,25 1075,15 1075,25 1076,52 1076,90 1076,127 1076,155 1077,165 1077,155 1077,127 1078,90 1078,52 1078,25 1078,15 1079,25 1079,52 1079,90 1080,127 1080,155 1080,165 1081,155 1081,127 1081,90 1081,52 1082,25 1082,15 1082,25 1083,52 1083,90 1083,127 1084,155 1084,165 1084,155 1084,127 1085,90 1085,52 1085,25 1086,15 1086,25 1086,52 1086,90 1087,127 1087,155 1087,165 1088,155 1088,127 1088,90 1089,52 1089,25 1089,15 1089,25 1090,52 1090,90 1090,127 1091,155 1091,165 1091,155 1092,127 1092,90 1092,52 1092,25 1093,15 1093,25 1093,52 1094,90 1094,127 1094,155 1094,165 1095,155 1095,127 1095,90 1096,52 1096,25 1096,15 1097,25 1097,52 1097,90 1097,127 1098,155 1098,165 1098,155 1099,127 1099,90 1099,52 1100,25 1100,15 1100,25 1100,52 1101,90 1101,52 1101,25 1102,15 1102,25 1102,52 1102,90 1103,127 1103,155 1103,165 1104,155 1104,127 1104,90 1105,52 1105,25 1105,15 1105,25 1106,52 1106,90 1106,127 1107,155 1107,165 1107,155 1108,127 1108,90 1108,52 1108,25 1109,15 1109,25 1109,52 1110,90 1110,127 1110,155 1111,165 1111,155 1111,127 1111,90 1112,127 1112,155 1112,165 1113,155 1113,127 1113,90 1113,52 1114,25 1114,15 1114,25 1115,52 1115,90 1115,127 1116,155 1116,165 1116,155 1116,127 1117,90 1117,52 1117,25 1118,15 1118,25 1118,52 1119,90 1119,127 1119,155 1119,165 1120,155 1120,127 1120,90 1121,52 1121,25 1121,15 1121,25 1122,52 1122,90 1122,52 1123,25 1123,15 1123,25 1124,52 1124,90 1124,127 1124,155 1125,165 1125,155 1125,127 1126,90 1126,52 1126,25 1127,15 1127,25 1127,52 1127,90 1128,127 1128,155 1128,165 1129,155 1129,127 1129,90 1129,52 1130,25 1130,15 1130,25 1131,52 1131,90 1131,127 1132,155 1132,165 1132,155 1132,127 1133,90 1133,127 1133,155 1134,165 1134,155 1134,127 1135,90 1135,52 1135,25 1135,15 1136,25 1136,52 1136,90 1137,127 1137,155 1137,165 1137,155 1138,127 1138,90 1138,52 1139,25 1139,15 1139,25 1140,52 1140,90 1140,127 1140,155 1141,165 1141,155 1141,127 1142,90 1142,52 1142,25 1143,15 1143,25 1143,52 1143,90 1144,127 1144,155 1144,165 1145,155 1145,127 1145,90 1145,52 1146,25 1146,15 1146,25 1147,52 1147,90 1147,127 1148,155 1148,165 1148,155 1148,127 1149,90 1149,52 1149,25 1150,15 1150,25 1150,52 1151,90 1151,127 1151,155 1151,165 1152,155 1152,127 1152,90 1153,52 1153,25 1153,15 1153,25 1154,52 1154,90 1154,52 1155,25 1155,15 1155,25 1156,52 1156,90 1156,127 1156,155 1157,165 1157,155 1157,127 1158,90 1158,52 1158,25 1159,15 1159,25 1159,52 1159,90 1160,127 1160,155 1160,165 1161,155 1161,127 1161,90 1162,52 1162,25 1162,15 1162,25 1163,52 1163,90 1163,127 1164,155 1164,165 1164,155 1164,127 1165,90 1165,127 1165,155 1166,165 1166,155 1166,127 1167,90 1167,52 1167,25 1167,15 1168,25 1168,52 1168,90 1169,127 1169,155 1169,165 1170,155 1170,127 1170,90 1170,52 1171,25 1171,15 1171,25 1172,52 1172,90 1172,127 1172,155 1173,165 1173,155 1173,127 1174,90 1174,52 1174,25 1175,15 1175,25 1175,52 1175,90 1176,52 1176,25 1176,15 1177,25 1177,52 1177,90 1178,127 1178,155 1178,165 1178,155 1179,127 1179,90 1179,52 1180,25 1180,15 1180,25 1180,52 1181,90 1181,127 1181,155 1182,165 1182,155 1182,127 1183,90 1183,52 1183,25 1183,15 1184,25 1184,52 1184,90 1185,127 1185,155 1185,165 1186,155 1186,127 1186,90 1186,127 1187,155 1187,165 1187,155 1188,127 1188,90 1188,52 1188,25 1189,15 1189,25 1189,52 1190,90 1190,127 1190,155 1191,165 1191,155 1191,127 1191,90 1192,52 1192,25 1192,15 1193,25 1193,52 1193,90 1194,127 1194,155 1194,165 1194,155 1195,127 1195,90 1195,52 1196,25 1196,15 1196,25 1196,52 1197,90 1197,52 1197,25 1198,15 1198,25 1198,52 1199,90 1199,127 1199,155 1199,165 1200,155 1200,127 1200,90 1201,52 1201,25 1201,15 1202,25 1202,52 1202,90 1202,127 1203,155 1203,165 1203,155 1204,127 1204,90 1204,52 1204,25 1205,15 1205,25 1205,52 1206,90 1206,127 1206,155 1207,165 1207,155 1207,127 1207,90 1208,127 1208,155 1208,165 1209,155 1209,127 1209,90 1210,52 1210,25 1210,15 1210,25 1211,52 1211,90 1211,127 1212,155 1212,165 1212,155 1213,127 1213,90 1213,52 1213,25 1214,15 1214,25 1214,52 1215,90 1215,127 1215,155 1215,165 1216,155 1216,127 1216,90 1217,52 1217,25 1217,15 1218,25 1218,52 1218,90 1218,52 1219,25 1219,15 1219,25 1220,52 1220,90 1220,127 1221,155 1221,165 1221,155 1221,127 1222,90 1222,52 1222,25 1223,15 1223,25 1223,52 1223,90 1224,127 1224,155 1224,165 1225,155 1225,127 1225,90 1226,52 1226,25 1226,15 1226,25 1227,52 1227,90 1227,127 1228,155 1228,165 1228,155 1229,127 1229,90 1229,52 1229,25 1230,15 1230,25 1230,52 1231,90 1231,127 1231,155 1231,165 1232,155 1232,127 1232,90 1233,52 1233,25 1233,15 1234,25 1234,52 1234,90 1234,127 1235,155 1235,165 1235,155 1236,127 1236,90 1236,52 1237,25 1237,15 1237,25 1237,52 1238,90 1238,127 1238,155 1239,165 1239,155 1239,127 1239,90 1240,52 1240,25 1240,15 1241,25 1241,52 1241,90 1242,127 1242,155 1242,165 1242,155 1243,127 1243,90 1243,52 1244,25 1244,15 1244,25 1245,52 1245,90 1245,127 1245,155 1246,165 1246,155 1246,127 1247,90 1247,52 1247,25 1247,15 1248,25 1248,52 1248,90 1249,127 1249,155 1249,165 1250,155 1250,127 1250,90 1250,127 1251,155 1251,165 1251,155 1252,127 1252,90 1252,52 1253,25 1253,15 1253,25 1253,52 1254,90 1254,127 1254,155 1255,165 1255,155 1255,127 1255,90 1256,52 1256,25 1256,15 1257,25 1257,52 1257,90 1258,127 1258,155 1258,165 1258,155 1259,127 1259,90 1259,52 1260,25 1260,15 1260,25 1261,52 1261,90 1261,127 1261,155 1262,165 1262,155 1262,127 1263,90 1263,52 1263,25 1263,15 1264,25 1264,52 1264,90 1265,127 1265,155 1265,165 1266,155 1266,127 1266,90 1266,52 1267,25 1267,15 1267,25 1268,52 1268,90 1268,127 1269,155 1269,165 1269,155 1269,127 1270,90 1270,52 1270,25 1271,15 1271,25 1271,52 1272,90 1272,127 1272,155 1272,165 1273,155 1273,127 1273,90 1274,52 1274,25 1274,15 1274,25 1275,52 1275,90 1275,127 1276,155 1276,165 1276,155 1277,127 1277,90 1277,52 1277,25 1278,15 1278,25 1278,52 1279,90 1279,127 1279,155 1280,165 1280,155 1280,127 1280,90 1281,52 1281,25 1281,15 1282,25 1282,52 1282,90 1282,52 1283,25 1283,15 1283,25 1284,52 1284,90 1284,127 1285,155 1285,165 1285,155 1285,127 1286,90 1286,52 1286,25 1287,15 1287,25 1287,52 1288,90 1288,127 1288,155 1288,165 1289,155 1289,127 1289,90 1290,52 1290,25 1290,15 1290,25 1291,52 1291,90 1291,127 1292,155 1292,165 1292,155 1293,127 1293,90 1293,52 1293,25 1294,15 1294,25 1294,52 1295,90 1295,127 1295,155 1296,165 1296,155 1296,127 1296,90 1297,52 1297,25 1297,15 1298,25 1298,52 1298,90 1298,127 1299,155 1299,165 1299,155 1300,127 1300,90 1300,52 1301,25 1301,15 1301,25 1301,52 1302,90 1302,127 1302,155 1303,165 1303,155 1303,127 1304,90 1304,127 1304,155 1304,165 1305,155 1305,127 1305,90 1306,52 1306,25 1306,15 1306,25 1307,52 1307,90 1307,127 1308,155 1308,165 1308,155 1309,127 1309,90 1309,52 1309,25 1310,15 1310,25 1310,52 1311,90 1311,127 1311,155 1312,165 1312,155 1312,127 1312,90 1313,52 1313,25 1313,15 1314,25 1314,52 1314,90 1314,127 1315,155 1315,165 1315,155 1316,127 1316,90 1316,52 1317,25 1317,15 1317,25 1317,52 1318,90 1318,127 1318,155 1319,165 1319,155 1319,127 1320,90 1320,52 1320,25 1320,15 1321,25 1321,52 1321,90 1322,127 1322,155 1322,165 1323,155 1323,127 1323,90 1323,52 1324,25 1324,15 1324,25 1325,52 1325,90 1325,52 1325,25 1326,15 1326,25 1326,52 1327,90 1327,127 1327,155 1328,165 1328,155 1328,127 1328,90 1329,52 1329,25 1329,15 1330,25 1330,52 1330,90 1331,127 1331,155 1331,165 1331,155 1332,127 1332,90 1332,52 1333,25 1333,15 1333,25 1333,52 1334,90 1334,127 1334,155 1335,165 1335,155 1335,127 1336,90 1336,52 1336,25 1336,15 1337,25 1337,52 1337,90 1338,127 1338,155 1338,165 1339,155 1339,127 1339,90 1339,52 1340,25 1340,15 1340,25 1341,52 1341,90 1341,127 1341,155 1342,165 1342,155 1342,127 1343,90 1343,52 1343,25 1344,15 1344,25 1344,52 1344,90 1345,127 1345,155 1345,165 1346,155 1346,127 1346,90 1347,127 1347,155 1347,165 1347,155 1348,127 1348,90 1348,52 1349,25 1349,15 1349,25 1349,52 1350,90 1350,127 1350,155 1351,165 1351,155 1351,127 1352,90 1352,52 1352,25 1352,15 1353,25 1353,52 1353,90 1354,127 1354,155 1354,165 1355,155 1355,127 1355,90 1355,52 1356,25 1356,15 1356,25 1357,52 1357,90 1357,52 1357,25 1358,15 1358,25 1358,52 1359,90 1359,127 1359,155 1360,165 1360,155 1360,127 1360,90 1361,52 1361,25 1361,15 1362,25 1362,52 1362,90 1363,127 1363,155 1363,165 1363,155 1364,127 1364,90 1364,52 1365,25 1365,15 1365,25 1365,52 1366,90 1366,127 1366,155 1367,165 1367,155 1367,127 1368,90 1368,127 1368,155 1368,165 1369,155 1369,127 1369,90 1370,52 1370,25 1370,15 1371,25 1371,52 1371,90 1371,127 1372,155 1372,165 1372,155 1373,127 1373,90 1373,52 1374,25 1374,15 1374,25 1374,52 1375,90 1375,127 1375,155 1376,165 1376,155 1376,127 1376,90 1377,52 1377,25 1377,15 1378,25 1378,52 1378,90 1379,127 1379,155 1379,165 1379,155 1380,127 1380,90 1380,52 1381,25 1381,15 1381,25 1382,52 1382,90 1382,127 1382,155 1383,165 1383,155 1383,127 1384,90 1384,52 1384,25 1384,15 1385,25 1385,52 1385,90 1386,127 1386,155 1386,165 1387,155 1387,127 1387,90 1387,52 1388,25 1388,15 1388,25 1389,52 1389,90 1389,127 1390,155 1390,165 1390,155 1390,127 1391,90 1391,52 1391,25 1392,15 1392,25 1392,52 1392,90 1393,127 1393,155 1393,165 1394,155 1394,127 1394,90 1395,52 1395,25 1395,15 1395,25 1396,52 1396,90 1396,127 1397,155 1397,165 1397,155 1398,127 1398,90 1398,52 1398,25 1399,15 1399,25 1399,52 1400,90 1400,127 1400,155 1400,165 1401,155 1401,127 1401,90 1402,52 1402,25 1402,15 1403,25 1403,52 1403,90 1403,127 1404,155 1404,165 1404,155 1405,127 1405,90 1405,52 1406,25 1406,15 1406,25 1406,52 1407,90 1407,127 1407,155 1408,165 1408,155 1408,127 1408,90 1409,52 1409,25 1409,15 1410,25 1410,52 1410,90 1411,52 1411,25 1411,15 1411,25 1412,52 1412,90 1412,127 1413,155 1413,165 1413,155 1414,127 1414,90 1414,52 1414,25 1415,15 1415,25 1415,52 1416,90 1416,127 1416,155 1416,165 1417,155 1417,127 1417,90 1418,52 1418,25 1418,15 1419,25 1419,52 1419,90 1419,127 1420,155 1420,165 1420,155 1421,127 1421,90 1421,127 1422,155 1422,165 1422,155 1422,127 1423,90 1423,52 1423,25 1424,15 1424,25 1424,52 1424,90 1425,127 1425,155 1425,165 1426,155 1426,127 1426,90 1427,52 1427,25 1427,15 1427,25 1428,52 1428,90 1428,127 1429,155 1429,165 1429,155 1430,127 1430,90 1430,52 1430,25 1431,15 1431,25 1431,52 1432,90 1432,52 1432,25 1433,15 1433,25 1433,52 1433,90 1434,127 1434,155 1434,165 1435,155 1435,127 1435,90 1435,52 1436,25 1436,15 1436,25 1437,52 1437,90 1437,127 1438,155 1438,165 1438,155 1438,127 1439,90 1439,52 1439,25 1440,15 1440,25 1440,52 1441,90 1441,127 1441,155 1441,165 1442,155 1442,127 1442,90 1443,52 1443,25 1443,15 1443,25 1444,52 1444,90 1444,127 1445,155 1445,165 1445,155 1446,127 1446,90 1446,52 1446,25 1447,15 1447,25 1447,52 1448,90 1448,127 1448,155 1449,165 1449,155 1449,127 1449,90 1450,52 1450,25 1450,15 1451,25 1451,52 1451,90 1451,127 1452,155 1452,165 1452,155 1453,127 1453,90 1453,127 1454,155 1454,165 1454,155 1454,127 1455,90 1455,52 1455,25 1456,15 1456,25 1456,52 1457,90 1457,127 1457,155 1457,165 1458,155 1458,127 1458,90 1459,52 1459,25 1459,15 1459,25 1460,52 1460,90 1460,127 1461,155 1461,165 1461,155 1462,127 1462,90 1462,52 1462,25 1463,15 1463,25 1463,52 1464,90 1464,127 1464,155 1465,165 1465,155 1465,127 1465,90 1466,52 1466,25 1466,15 1467,25 1467,52 1467,90 1467,127 1468,155 1468,165 1468,155 1469,127 1469,90 1469,52 1470,25 1470,15 1470,25 1470,52 1471,90 1471,127 1471,155 1472,165 1472,155 1472,127 1473,90 1473,52 1473,25 1473,15 1474,25 1474,52 1474,90 1475,127 1475,155 1475,165 1475,155 1476,127 1476,90 1476,52 1477,25 1477,15 1477,25 1478,52 1478,90 1478,127 1478,155 1479,165 1479,155 1479,127 1480,90 1480,52 1480,25 1481,15 1481,25 1481,52 1481,90 1482,127 1482,155 1482,165 1483,155 1483,127 1483,90 1484,52 1484,25 1484,15 1484,25 1485,52 1485,90 1485,127 1486,155 1486,165 1486,155 1486,127 1487,90 1487,52 1487,25 1488,15 1488,25 1488,52 1489,90 1489,127 1489,155 1489,165 1490,155 1490,127 1490,90 1491,52 1491,25 1491,15 1492,25 1492,52 1492,90 1492,127 1493,155 1493,165 1493,155 1494,127 1494,90 1494,52 1494,25 1495,15 1495,25 1495,52 1496,90 1496,52 1496,25 1497,15 1497,25 1497,52 1497,90 1498,127 1498,155 1498,165 1499,155 1499,127 1499,90 1500,52 1500,25 1500,15 1500,25 1501,52 1501,90 1501,127 1502,155 1502,165 1502,155 1502,127 1503,90 1503,52 1503,25 1504,15 1504,25 1504,52 1505,90 1505,127 1505,155 1505,165 1506,155 1506,127 1506,90 1507,52 1507,25 1507,15 1508,25 1508,52 1508,90 1508,127 1509,155 1509,165 1509,155 1510,127 1510,90 1510,52 1510,25 1511,15 1511,25 1511,52 1512,90 1512,127 1512,155 1513,165 1513,155 1513,127 1513,90 1514,52 1514,25 1514,15 1515,25 1515,52 1515,90 1516,127 1516,155 1516,165 1516,155 1517,127 1517,90 1517,52 1518,25 1518,15 1518,25 1518,52 1519,90 1519,127 1519,155 1520,165 1520,155 1520,127 1521,90 1521,52 1521,25 1521,15 1522,25 1522,52 1522,90 1523,127 1523,155 1523,165 1524,155 1524,127 1524,90 1524,52 1525,25 1525,15 1525,25 1526,52 1526,90 1526,127 1526,155 1527,165 1527,155 1527,127 1528,90 1528,52 1528,25 1529,15 1529,25 1529,52 1529,90 1530,127 1530,155 1530,165 1531,155 1531,127 1531,90 1532,52 1532,25 1532,15 1532,25 1533,52 1533,90 1533,127 1534,155 1534,165 1534,155 1535,127 1535,90 1535,52 1535,25 1536,15 1536,25 1536,52 1537,90 1537,127 1537,155 1537,165 1538,155 1538,127 1538,90 1539,52 1539,25 1539,15 1540,25 1540,52 1540,90 1540,127 1541,155 1541,165 1541,155 1542,127 1542,90 1542,52 1543,25 1543,15 1543,25 1543,52 1544,90 1544,127 1544,155 1545,165 1545,155 1545,127 1545,90 1546,52 1546,25 1546,15 1547,25 1547,52 1547,90 1548,127 1548,155 1548,165 1548,155 1549,127 1549,90 1549,127 1550,155 1550,165 1550,155 1551,127 1551,90 1551,52 1551,25 1552,15 1552,25 1552,52 1553,90 1553,127 1553,155 1553,165 1554,155 1554,127 1554,90 1555,52 1555,25 1555,15 1556,25 1556,52 1556,90 1556,127 1557,155 1557,165 1557,155 1558,127 1558,90 1558,52 1559,25 1559,15 1559,25 1559,52 1560,90 1560,52 1560,25 1561,15 1561,25 1561,52 1561,90 1562,127 1562,155 1562,165 1563,155 1563,127 1563,90 1564,52 1564,25 1564,15 1564,25 1565,52 1565,90 1565,127 1566,155 1566,165 1566,155 1567,127 1567,90 1567,52 1567,25 1568,15 1568,25 1568,52 1569,90 1569,127 1569,155 1569,165 1570,155 1570,127 1570,90 1571,52 1571,25 1571,15 1572,25 1572,52 1572,90 1572,127 1573,155 1573,165 1573,155 1574,127 1574,90 1574,52 1575,25 1575,15 1575,25 1575,52 1576,90 1576,127 1576,155 1577,165 1577,155 1577,127 1577,90 1578,52 1578,25 1578,15 1579,25 1579,52 1579,90 1580,127 1580,155 1580,165 1580,155 1581,127 1581,90 1581,52 1582,25 1582,15 1582,25 1583,52 1583,90 1583,127 1583,155 1584,165 1584,155 1584,127 1585,90 1585,52 1585,25 1585,15 1586,25 1586,52 1586,90 1587,127 1587,155 1587,165 1588,155 1588,127 1588,90 1588,52 1589,25 1589,15 1589,25 1590,52 1590,90 1590,127 1591,155 1591,165 1591,155 1591,127 "/>
<rect x="2943" y="12" width="45" height="40" opacity="0.1" fill="#0000FF" stroke="none"/>
<rect x="2943" y="12" width="45" height="40" opacity="1" fill="none" stroke="#0000FF"/>
</svg>
