<svg width="3000" height="200" viewBox="0 0 3000 200" xmlns="http://www.w3.org/2000/svg">
<rect x="0" y="0" width="3000" height="200" opacity="1" fill="#FFFFFF" stroke="none"/>
<line opacity="0.1" stroke="#000000" stroke-width="1" x1="27" y1="172" x2="27" y2="7"/>
<line opacity="0.1" stroke="#000000" stroke-width="1" x1="56" y1="172" x2="56" y2="7"/>
<line opacity="0.1" stroke="#000000" stroke-width="1" x1="86" y1="172" x2="86" y2="7"/>
<line opacity="0.1" stroke="#000000" stroke-width="1" x1="115" y1="172" x2="115" y2="7"/>
<line opacity="0.1" stroke="#000000" stroke-width="1" x1="145" y1="172" x2="145" y2="7"/>
<line opacity="0.1" stroke="#000000" stroke-width="1" x1="175" y1="172" x2="175" y2="7"/>
<line opacity="0.1" stroke="#000000" stroke-width="1" x1="204" y1="172" x2="204" y2="7"/>
<line opacity="0.1" stroke="#000000" stroke-width="1" x1="234" y1="172" x2="234" y2="7"/>
<line opacity="0.1" stroke="#000000" stroke-width="1" x1="264" y1="172" x2="264" y2="7"/>
<line opacity="0.1" stroke="#000000" stroke-width="1" x1="293" y1="172" x2="293" y2="7"/>
<line opacity="0.1" stroke="#000000" stroke-width="1" x1="323" y1="172" x2="323" y2="7"/>
<line opacity="0.1" stroke="#000000" stroke-width="1" x1="353" y1="172" x2="353" y2="7"/>
<line opacity="0.1" stroke="#000000" stroke-width="1" x1="382" y1="172" x2="382" y2="7"/>
<line opacity="0.1" stroke="#000000" stroke-width="1" x1="412" y1="172" x2="412" y2="7"/>
<line opacity="0.1" stroke="#000000" stroke-width="1" x1="442" y1="172" x2="442" y2="7"/>
<line opacity="0.1" stroke="#000000" stroke-width="1" x1="471" y1="172" x2="471" y2="7"/>
<line opacity="0.1" stroke="#000000" stroke-width="1" x1="501" y1="172" x2="501" y2="7"/>
<line opacity="0.1" stroke="#000000" stroke-width="1" x1="531" y1="172" x2="531" y2="7"/>
<line opacity="0.1" stroke="#000000" stroke-width="1" x1="560" y1="172" x2="560" y2="7"/>
<line opacity="0.1" stroke="#000000" stroke-width="1" x1="590" y1="172" x2="590" y2="7"/>
<line opacity="0.1" stroke="#000000" stroke-width="1" x1="620" y1="172" x2="620" y2="7"/>
<line opacity="0.1" stroke="#000000" stroke-width="1" x1="649" y1="172" x2="649" y2="7"/>
<line opacity="0.1" stroke="#000000" stroke-width="1" x1="679" y1="172" x2="679" y2="7"/>
<line opacity="0.1" stroke="#000000" stroke-width="1" x1="708" y1="172" x2="708" y2="7"/>
<line opacity="0.1" stroke="#000000" stroke-width="1" x1="738" y1="172" x2="738" y2="7"/>
<line opacity="0.1" stroke="#000000" stroke-width="1" x1="768" y1="172" x2="768" y2="7"/>
<line opacity="0.1" stroke="#000000" stroke-width="1" x1="797" y1="172" x2="797" y2="7"/>
<line opacity="0.1" stroke="#000000" stroke-width="1" x1="827" y1="172" x2="827" y2="7"/>
<line opacity="0.1" stroke="#000000" stroke-width="1" x1="857" y1="172" x2="857" y2="7"/>
<line opacity="0.1" stroke="#000000" stroke-width="1" x1="886" y1="172" x2="886" y2="7"/>
<line opacity="0.1" stroke="#000000" stroke-width="1" x1="916" y1="172" x2="916" y2="7"/>
<line opacity="0.1" stroke="#000000" stroke-width="1" x1="946" y1="172" x2="946" y2="7"/>
<line opacity="0.1" stroke="#000000" stroke-width="1" x1="975" y1="172" x2="975" y2="7"/>
<line opacity="0.1" stroke="#000000" stroke-width="1" x1="1005" y1="172" x2="1005" y2="7"/>
<line opacity="0.1" stroke="#000000" stroke-width="1" x1="1035" y1="172" x2="1035" y2="7"/>
<line opacity="0.1" stroke="#000000" stroke-width="1" x1="1064" y1="172" x2="1064" y2="7"/>
<line opacity="0.1" stroke="#000000" stroke-width="1" x1="1094" y1="172" x2="1094" y2="7"/>
<line opacity="0.1" stroke="#000000" stroke-width="1" x1="1124" y1="172" x2="1124" y2="7"/>
<line opacity="0.1" stroke="#000000" stroke-width="1" x1="1153" y1="172" x2="1153" y2="7"/>
<line opacity="0.1" stroke="#000000" stroke-width="1" x1="1183" y1="172" x2="1183" y2="7"/>
<line opacity="0.1" stroke="#000000" stroke-width="1" x1="1213" y1="172" x2="1213" y2="7"/>
<line opacity="0.1" stroke="#000000" stroke-width="1" x1="1242" y1="172" x2="1242" y2="7"/>
<line opacity="0.1" stroke="#000000" stroke-width="1" x1="1272" y1="172" x2="1272" y2="7"/>
<line opacity="0.1" stroke="#000000" stroke-width="1" x1="1301" y1="172" x2="1301" y2="7"/>
<line opacity="0.1" stroke="#000000" stroke-width="1" x1="1331" y1="172" x2="1331" y2="7"/>
<line opacity="0.1" stroke="#000000" stroke-width="1" x1="1361" y1="172" x2="1361" y2="7"/>
<line opacity="0.1" stroke="#000000" stroke-width="1" x1="1390" y1="172" x2="1390" y2="7"/>
<line opacity="0.1" stroke="#000000" stroke-width="1" x1="1420" y1="172" x2="1420" y2="7"/>
<line opacity="0.1" stroke="#000000" stroke-width="1" x1="1450" y1="172" x2="1450" y2="7"/>
<line opacity="0.1" stroke="#000000" stroke-width="1" x1="1479" y1="172" x2="1479" y2="7"/>
<line opacity="0.1" stroke="#000000" stroke-width="1" x1="1509" y1="172" x2="1509" y2="7"/>
<line opacity="0.1" stroke="#000000" stroke-width="1" x1="1539" y1="172" x2="1539" y2="7"/>
<line opacity="0.1" stroke="#000000" stroke-width="1" x1="1568" y1="172" x2="1568" y2="7"/>
<line opacity="0.1" stroke="#000000" stroke-width="1" x1="1598" y1="172" x2="1598" y2="7"/>
<line opacity="0.1" stroke="#000000" stroke-width="1" x1="1628" y1="172" x2="1628" y2="7"/>
<line opacity="0.1" stroke="#000000" stroke-width="1" x1="1657" y1="172" x2="1657" y2="7"/>
<line opacity="0.1" stroke="#000000" stroke-width="1" x1="1687" y1="172" x2="1687" y2="7"/>
<line opacity="0.1" stroke="#000000" stroke-width="1" x1="1717" y1="172" x2="1717" y2="7"/>
<line opacity="0.1" stroke="#000000" stroke-width="1" x1="1746" y1="172" x2="1746" y2="7"/>
<line opacity="0.1" stroke="#000000" stroke-width="1" x1="1776" y1="172" x2="1776" y2="7"/>
<line opacity="0.1" stroke="#000000" stroke-width="1" x1="1806" y1="172" x2="1806" y2="7"/>
<line opacity="0.1" stroke="#000000" stroke-width="1" x1="1835" y1="172" x2="1835" y2="7"/>
<line opacity="0.1" stroke="#000000" stroke-width="1" x1="1865" y1="172" x2="1865" y2="7"/>
<line opacity="0.1" stroke="#000000" stroke-width="1" x1="1894" y1="172" x2="1894" y2="7"/>
<line opacity="0.1" stroke="#000000" stroke-width="1" x1="1924" y1="172" x2="1924" y2="7"/>
<line opacity="0.1" stroke="#000000" stroke-width="1" x1="1954" y1="172" x2="1954" y2="7"/>
<line opacity="0.1" stroke="#000000" stroke-width="1" x1="1983" y1="172" x2="1983" y2="7"/>
<line opacity="0.1" stroke="#000000" stroke-width="1" x1="2013" y1="172" x2="2013" y2="7"/>
<line opacity="0.1" stroke="#000000" stroke-width="1" x1="2043" y1="172" x2="2043" y2="7"/>
<line opacity="0.1" stroke="#000000" stroke-width="1" x1="2072" y1="172" x2="2072" y2="7"/>
<line opacity="0.1" stroke="#000000" stroke-width="1" x1="2102" y1="172" x2="2102" y2="7"/>
<line opacity="0.1" stroke="#000000" stroke-width="1" x1="2132" y1="172" x2="2132" y2="7"/>
<line opacity="0.1" stroke="#000000" stroke-width="1" x1="2161" y1="172" x2="2161" y2="7"/>
<line opacity="0.1" stroke="#000000" stroke-width="1" x1="2191" y1="172" x2="2191" y2="7"/>
<line opacity="0.1" stroke="#000000" stroke-width="1" x1="2221" y1="172" x2="2221" y2="7"/>
<line opacity="0.1" stroke="#000000" stroke-width="1" x1="2250" y1="172" x2="2250" y2="7"/>
<line opacity="0.1" stroke="#000000" stroke-width="1" x1="2280" y1="172" x2="2280" y2="7"/>
<line opacity="0.1" stroke="#000000" stroke-width="1" x1="2310" y1="172" x2="2310" y2="7"/>
<line opacity="0.1" stroke="#000000" stroke-width="1" x1="2339" y1="172" x2="2339" y2="7"/>
<line opacity="0.1" stroke="#000000" stroke-width="1" x1="2369" y1="172" x2="2369" y2="7"/>
<line opacity="0.1" stroke="#000000" stroke-width="1" x1="2399" y1="172" x2="2399" y2="7"/>
<line opacity="0.1" stroke="#000000" stroke-width="1" x1="2428" y1="172" x2="2428" y2="7"/>
<line opacity="0.1" stroke="#000000" stroke-width="1" x1="2458" y1="172" x2="2458" y2="7"/>
<line opacity="0.1" stroke="#000000" stroke-width="1" x1="2487" y1="172" x2="2487" y2="7"/>
<line opacity="0.1" stroke="#000000" stroke-width="1" x1="2517" y1="172" x2="2517" y2="7"/>
<line opacity="0.1" stroke="#000000" stroke-width="1" x1="2547" y1="172" x2="2547" y2="7"/>
<line opacity="0.1" stroke="#000000" stroke-width="1" x1="2576" y1="172" x2="2576" y2="7"/>
<line opacity="0.1" stroke="#000000" stroke-width="1" x1="2606" y1="172" x2="2606" y2="7"/>
<line opacity="0.1" stroke="#000000" stroke-width="1" x1="2636" y1="172" x2="2636" y2="7"/>
<line opacity="0.1" stroke="#000000" stroke-width="1" x1="2665" y1="172" x2="2665" y2="7"/>
<line opacity="0.1" stroke="#000000" stroke-width="1" x1="2695" y1="172" x2="2695" y2="7"/>
<line opacity="0.1" stroke="#000000" stroke-width="1" x1="2725" y1="172" x2="2725" y2="7"/>
<line opacity="0.1" stroke="#000000" stroke-width="1" x1="2754" y1="172" x2="2754" y2="7"/>
<line opacity="0.1" stroke="#000000" stroke-width="1" x1="2784" y1="172" x2="2784" y2="7"/>
<line opacity="0.1" stroke="#000000" stroke-width="1" x1="2814" y1="172" x2="2814" y2="7"/>
<line opacity="0.1" stroke="#000000" stroke-width="1" x1="2843" y1="172" x2="2843" y2="7"/>
<line opacity="0.1" stroke="#000000" stroke-width="1" x1="2873" y1="172" x2="2873" y2="7"/>
<line opacity="0.1" stroke="#000000" stroke-width="1" x1="2903" y1="172" x2="2903" y2="7"/>
<line opacity="0.1" stroke="#000000" stroke-width="1" x1="2932" y1="172" x2="2932" y2="7"/>
<line opacity="0.1" stroke="#000000" stroke-width="1" x1="2962" y1="172" x2="2962" y2="7"/>
<line opacity="0.1" stroke="#000000" stroke-width="1" x1="2992" y1="172" x2="2992" y2="7"/>
<line opacity="0.1" stroke="#000000" stroke-width="1" x1="27" y1="172" x2="2992" y2="172"/>
<line opacity="0.1" stroke="#000000" stroke-width="1" x1="27" y1="170" x2="2992" y2="170"/>
<line opacity="0.1" stroke="#000000" stroke-width="1" x1="27" y1="168" x2="2992" y2="168"/>
<line opacity="0.1" stroke="#000000" stroke-width="1" x1="27" y1="166" x2="2992" y2="166"/>
<line opacity="0.1" stroke="#000000" stroke-width="1" x1="27" y1="164" x2="2992" y2="164"/>
<line opacity="0.1" stroke="#000000" stroke-width="1" x1="27" y1="162" x2="2992" y2="162"/>
<line opacity="0.1" stroke="#000000" stroke-width="1" x1="27" y1="160" x2="2992" y2="160"/>
<line opacity="0.1" stroke="#000000" stroke-width="1" x1="27" y1="158" x2="2992" y2="158"/>
<line opacity="0.1" stroke="#000000" stroke-width="1" x1="27" y1="156" x2="2992" y2="156"/>
<line opacity="0.1" stroke="#000000" stroke-width="1" x1="27" y1="154" x2="2992" y2="154"/>
<line opacity="0.1" stroke="#000000" stroke-width="1" x1="27" y1="152" x2="2992" y2="152"/>
<line opacity="0.1" stroke="#000000" stroke-width="1" x1="27" y1="150" x2="2992" y2="150"/>
<line opacity="0.1" stroke="#000000" stroke-width="1" x1="27" y1="148" x2="2992" y2="148"/>
<line opacity="0.1" stroke="#000000" stroke-width="1" x1="27" y1="146" x2="2992" y2="146"/>
<line opacity="0.1" stroke="#000000" stroke-width="1" x1="27" y1="144" x2="2992" y2="144"/>
<line opacity="0.1" stroke="#000000" stroke-width="1" x1="27" y1="142" x2="2992" y2="142"/>
<line opacity="0.1" stroke="#000000" stroke-width="1" x1="27" y1="139" x2="2992" y2="139"/>
<line opacity="0.1" stroke="#000000" stroke-width="1" x1="27" y1="137" x2="2992" y2="137"/>
<line opacity="0.1" stroke="#000000" stroke-width="1" x1="27" y1="135" x2="2992" y2="135"/>
<line opacity="0.1" stroke="#000000" stroke-width="1" x1="27" y1="133" x2="2992" y2="133"/>
<line opacity="0.1" stroke="#000000" stroke-width="1" x1="27" y1="131" x2="2992" y2="131"/>
<line opacity="0.1" stroke="#000000" stroke-width="1" x1="27" y1="129" x2="2992" y2="129"/>
<line opacity="0.1" stroke="#000000" stroke-width="1" x1="27" y1="127" x2="2992" y2="127"/>
<line opacity="0.1" stroke="#000000" stroke-width="1" x1="27" y1="125" x2="2992" y2="125"/>
<line opacity="0.1" stroke="#000000" stroke-width="1" x1="27" y1="123" x2="2992" y2="123"/>
<line opacity="0.1" stroke="#000000" stroke-width="1" x1="27" y1="121" x2="2992" y2="121"/>
<line opacity="0.1" stroke="#000000" stroke-width="1" x1="27" y1="119" x2="2992" y2="119"/>
<line opacity="0.1" stroke="#000000" stroke-width="1" x1="27" y1="117" x2="2992" y2="117"/>
<line opacity="0.1" stroke="#000000" stroke-width="1" x1="27" y1="115" x2="2992" y2="115"/>
<line opacity="0.1" stroke="#000000" stroke-width="1" x1="27" y1="113" x2="2992" y2="113"/>
<line opacity="0.1" stroke="#000000" stroke-width="1" x1="27" y1="111" x2="2992" y2="111"/>
<line opacity="0.1" stroke="#000000" stroke-width="1" x1="27" y1="109" x2="2992" y2="109"/>
<line opacity="0.1" stroke="#000000" stroke-width="1" x1="27" y1="106" x2="2992" y2="106"/>
<line opacity="0.1" stroke="#000000" stroke-width="1" x1="27" y1="104" x2="2992" y2="104"/>
<line opacity="0.1" stroke="#000000" stroke-width="1" x1="27" y1="102" x2="2992" y2="102"/>
<line opacity="0.1" stroke="#000000" stroke-width="1" x1="27" y1="100" x2="2992" y2="100"/>
<line opacity="0.1" stroke="#000000" stroke-width="1" x1="27" y1="98" x2="2992" y2="98"/>
<line opacity="0.1" stroke="#000000" stroke-width="1" x1="27" y1="96" x2="2992" y2="96"/>
<line opacity="0.1" stroke="#000000" stroke-width="1" x1="27" y1="94" x2="2992" y2="94"/>
<line opacity="0.1" stroke="#000000" stroke-width="1" x1="27" y1="92" x2="2992" y2="92"/>
<line opacity="0.1" stroke="#000000" stroke-width="1" x1="27" y1="90" x2="2992" y2="90"/>
<line opacity="0.1" stroke="#000000" stroke-width="1" x1="27" y1="88" x2="2992" y2="88"/>
<line opacity="0.1" stroke="#000000" stroke-width="1" x1="27" y1="86" x2="2992" y2="86"/>
<line opacity="0.1" stroke="#000000" stroke-width="1" x1="27" y1="84" x2="2992" y2="84"/>
<line opacity="0.1" stroke="#000000" stroke-width="1" x1="27" y1="82" x2="2992" y2="82"/>
<line opacity="0.1" stroke="#000000" stroke-width="1" x1="27" y1="80" x2="2992" y2="80"/>
<line opacity="0.1" stroke="#000000" stroke-width="1" x1="27" y1="78" x2="2992" y2="78"/>
<line opacity="0.1" stroke="#000000" stroke-width="1" x1="27" y1="76" x2="2992" y2="76"/>
<line opacity="0.1" stroke="#000000" stroke-width="1" x1="27" y1="73" x2="2992" y2="73"/>
<line opacity="0.1" stroke="#000000" stroke-width="1" x1="27" y1="71" x2="2992" y2="71"/>
<line opacity="0.1" stroke="#000000" stroke-width="1" x1="27" y1="69" x2="2992" y2="69"/>
<line opacity="0.1" stroke="#000000" stroke-width="1" x1="27" y1="67" x2="2992" y2="67"/>
<line opacity="0.1" stroke="#000000" stroke-width="1" x1="27" y1="65" x2="2992" y2="65"/>
<line opacity="0.1" stroke="#000000" stroke-width="1" x1="27" y1="63" x2="2992" y2="63"/>
<line opacity="0.1" stroke="#000000" stroke-width="1" x1="27" y1="61" x2="2992" y2="61"/>
<line opacity="0.1" stroke="#000000" stroke-width="1" x1="27" y1="59" x2="2992" y2="59"/>
<line opacity="0.1" stroke="#000000" stroke-width="1" x1="27" y1="57" x2="2992" y2="57"/>
<line opacity="0.1" stroke="#000000" stroke-width="1" x1="27" y1="55" x2="2992" y2="55"/>
<line opacity="0.1" stroke="#000000" stroke-width="1" x1="27" y1="53" x2="2992" y2="53"/>
<line opacity="0.1" stroke="#000000" stroke-width="1" x1="27" y1="51" x2="2992" y2="51"/>
<line opacity="0.1" stroke="#000000" stroke-width="1" x1="27" y1="49" x2="2992" y2="49"/>
<line opacity="0.1" stroke="#000000" stroke-width="1" x1="27" y1="47" x2="2992" y2="47"/>
<line opacity="0.1" stroke="#000000" stroke-width="1" x1="27" y1="45" x2="2992" y2="45"/>
<line opacity="0.1" stroke="#000000" stroke-width="1" x1="27" y1="43" x2="2992" y2="43"/>
<line opacity="0.1" stroke="#000000" stroke-width="1" x1="27" y1="40" x2="2992" y2="40"/>
<line opacity="0.1" stroke="#000000" stroke-width="1" x1="27" y1="38" x2="2992" y2="38"/>
<line opacity="0.1" stroke="#000000" stroke-width="1" x1="27" y1="36" x2="2992" y2="36"/>
<line opacity="0.1" stroke="#000000" stroke-width="1" x1="27" y1="34" x2="2992" y2="34"/>
<line opacity="0.1" stroke="#000000" stroke-width="1" x1="27" y1="32" x2="2992" y2="32"/>
<line opacity="0.1" stroke="#000000" stroke-width="1" x1="27" y1="30" x2="2992" y2="30"/>
<line opacity="0.1" stroke="#000000" stroke-width="1" x1="27" y1="28" x2="2992" y2="28"/>
<line opacity="0.1" stroke="#000000" stroke-width="1" x1="27" y1="26" x2="2992" y2="26"/>
<line opacity="0.1" stroke="#000000" stroke-width="1" x1="27" y1="24" x2="2992" y2="24"/>
<line opacity="0.1" stroke="#000000" stroke-width="1" x1="27" y1="22" x2="2992" y2="22"/>
<line opacity="0.1" stroke="#000000" stroke-width="1" x1="27" y1="20" x2="2992" y2="20"/>
<line opacity="0.1" stroke="#000000" stroke-width="1" x1="27" y1="18" x2="2992" y2="18"/>
<line opacity="0.1" stroke="#000000" stroke-width="1" x1="27" y1="16" x2="2992" y2="16"/>
<line opacity="0.1" stroke="#000000" stroke-width="1" x1="27" y1="14" x2="2992" y2="14"/>
<line opacity="0.1" stroke="#000000" stroke-width="1" x1="27" y1="12" x2="2992" y2="12"/>
<line opacity="0.1" stroke="#000000" stroke-width="1" x1="27" y1="10" x2="2992" y2="10"/>
<line opacity="0.2" stroke="#000000" stroke-width="1" x1="27" y1="172" x2="27" y2="7"/>
<line opacity="0.2" stroke="#000000" stroke-width="1" x1="323" y1="172" x2="323" y2="7"/>
<line opacity="0.2" stroke="#000000" stroke-width="1" x1="620" y1="172" x2="620" y2="7"/>
<line opacity="0.2" stroke="#000000" stroke-width="1" x1="916" y1="172" x2="916" y2="7"/>
<line opacity="0.2" stroke="#000000" stroke-width="1" x1="1213" y1="172" x2="1213" y2="7"/>
<line opacity="0.2" stroke="#000000" stroke-width="1" x1="1509" y1="172" x2="1509" y2="7"/>
<line opacity="0.2" stroke="#000000" stroke-width="1" x1="1806" y1="172" x2="1806" y2="7"/>
<line opacity="0.2" stroke="#000000" stroke-width="1" x1="2102" y1="172" x2="2102" y2="7"/>
<line opacity="0.2" stroke="#000000" stroke-width="1" x1="2399" y1="172" x2="2399" y2="7"/>
<line opacity="0.2" stroke="#000000" stroke-width="1" x1="2695" y1="172" x2="2695" y2="7"/>
<line opacity="0.2" stroke="#000000" stroke-width="1" x1="2992" y1="172" x2="2992" y2="7"/>
<line opacity="0.2" stroke="#000000" stroke-width="1" x1="27" y1="172" x2="2992" y2="172"/>
<line opacity="0.2" stroke="#000000" stroke-width="1" x1="27" y1="152" x2="2992" y2="152"/>
<line opacity="0.2" stroke="#000000" stroke-width="1" x1="27" y1="131" x2="2992" y2="131"/>
<line opacity="0.2" stroke="#000000" stroke-width="1" x1="27" y1="111" x2="2992" y2="111"/>
<line opacity="0.2" stroke="#000000" stroke-width="1" x1="27" y1="90" x2="2992" y2="90"/>
<line opacity="0.2" stroke="#000000" stroke-width="1" x1="27" y1="69" x2="2992" y2="69"/>
<line opacity="0.2" stroke="#000000" stroke-width="1" x1="27" y1="49" x2="2992" y2="49"/>
<line opacity="0.2" stroke="#000000" stroke-width="1" x1="27" y1="28" x2="2992" y2="28"/>
<line opacity="0.2" stroke="#000000" stroke-width="1" x1="27" y1="7" x2="2992" y2="7"/>
<polyline fill="none" opacity="1" stroke="#000000" stroke-width="1" points="26,7 26,172 "/>
<text x="17" y="172" dy="0.5ex" text-anchor="end" font-family="sans-serif" font-size="9.67741935483871" opacity="1" fill="#000000">
-0.4
</text>
<polyline fill="none" opacity="1" stroke="#000000" stroke-width="1" points="21,172 26,172 "/>
<text x="17" y="152" dy="0.5ex" text-anchor="end" font-family="sans-serif" font-size="9.67741935483871" opacity="1" fill="#000000">
-0.3
</text>
<polyline fill="none" opacity="1" stroke="#000000" stroke-width="1" points="21,152 26,152 "/>
<text x="17" y="131" dy="0.5ex" text-anchor="end" font-family="sans-serif" font-size="9.67741935483871" opacity="1" fill="#000000">
-0.2
</text>
<polyline fill="none" opacity="1" stroke="#000000" stroke-width="1" points="21,131 26,131 "/>
<text x="17" y="111" dy="0.5ex" text-anchor="end" font-family="sans-serif" font-size="9.67741935483871" opacity="1" fill="#000000">
-0.1
</text>
<polyline fill="none" opacity="1" stroke="#000000" stroke-width="1" points="21,111 26,111 "/>
<text x="17" y="90" dy="0.5ex" text-anchor="end" font-family="sans-serif" font-size="9.67741935483871" opacity="1" fill="#000000">
0.0
</text>
<polyline fill="none" opacity="1" stroke="#000000" stroke-width="1" points="21,90 26,90 "/>
<text x="17" y="69" dy="0.5ex" text-anchor="end" font-family="sans-serif" font-size="9.67741935483871" opacity="1" fill="#000000">
0.1
</text>
<polyline fill="none" opacity="1" stroke="#000000" stroke-width="1" points="21,69 26,69 "/>
<text x="17" y="49" dy="0.5ex" text-anchor="end" font-family="sans-serif" font-size="9.67741935483871" opacity="1" fill="#000000">
0.2
</text>
<polyline fill="none" opacity="1" stroke="#000000" stroke-width="1" points="21,49 26,49 "/>
<text x="17" y="28" dy="0.5ex" text-anchor="end" font-family="sans-serif" font-size="9.67741935483871" opacity="1" fill="#000000">
0.3
</text>
<polyline fill="none" opacity="1" stroke="#000000" stroke-width="1" points="21,28 26,28 "/>
<text x="17" y="7" dy="0.5ex" text-anchor="end" font-family="sans-serif" font-size="9.67741935483871" opacity="1" fill="#000000">
0.4
</text>
<polyline fill="none" opacity="1" stroke="#000000" stroke-width="1" points="21,7 26,7 "/>
<polyline fill="none" opacity="1" stroke="#000000" stroke-width="1" points="27,173 2992,173 "/>
<text x="27" y="183" dy="0.76em" text-anchor="middle" font-family="sans-serif" font-size="9.67741935483871" opacity="1" fill="#000000">
0.0
</text>
<polyline fill="none" opacity="1" stroke="#000000" stroke-width="1" points="27,173 27,178 "/>
<text x="323" y="183" dy="0.76em" text-anchor="middle" font-family="sans-serif" font-size="9.67741935483871" opacity="1" fill="#000000">
1000.0
</text>
<polyline fill="none" opacity="1" stroke="#000000" stroke-width="1" points="323,173 323,178 "/>
<text x="620" y="183" dy="0.76em" text-anchor="middle" font-family="sans-serif" font-size="9.67741935483871" opacity="1" fill="#000000">
2000.0
</text>
<polyline fill="none" opacity="1" stroke="#000000" stroke-width="1" points="620,173 620,178 "/>
<text x="916" y="183" dy="0.76em" text-anchor="middle" font-family="sans-serif" font-size="9.67741935483871" opacity="1" fill="#000000">
3000.0
</text>
<polyline fill="none" opacity="1" stroke="#000000" stroke-width="1" points="916,173 916,178 "/>
<text x="1213" y="183" dy="0.76em" text-anchor="middle" font-family="sans-serif" font-size="9.67741935483871" opacity="1" fill="#000000">
4000.0
</text>
<polyline fill="none" opacity="1" stroke="#000000" stroke-width="1" points="1213,173 1213,178 "/>
<text x="1509" y="183" dy="0.76em" text-anchor="middle" font-family="sans-serif" font-size="9.67741935483871" opacity="1" fill="#000000">
5000.0
</text>
<polyline fill="none" opacity="1" stroke="#000000" stroke-width="1" points="1509,173 1509,178 "/>
<text x="1806" y="183" dy="0.76em" text-anchor="middle" font-family="sans-serif" font-size="9.67741935483871" opacity="1" fill="#000000">
6000.0
</text>
<polyline fill="none" opacity="1" stroke="#000000" stroke-width="1" points="1806,173 1806,178 "/>
<text x="2102" y="183" dy="0.76em" text-anchor="middle" font-family="sans-serif" font-size="9.67741935483871" opacity="1" fill="#000000">
7000.0
</text>
<polyline fill="none" opacity="1" stroke="#000000" stroke-width="1" points="2102,173 2102,178 "/>
<text x="2399" y="183" dy="0.76em" text-anchor="middle" font-family="sans-serif" font-size="9.67741935483871" opacity="1" fill="#000000">
8000.0
</text>
<polyline fill="none" opacity="1" stroke="#000000" stroke-width="1" points="2399,173 2399,178 "/>
<text x="2695" y="183" dy="0.76em" text-anchor="middle" font-family="sans-serif" font-size="9.67741935483871" opacity="1" fill="#000000">
9000.0
</text>
<polyline fill="none" opacity="1" stroke="#000000" stroke-width="1" points="2695,173 2695,178 "/>
<text x="2992" y="183" dy="0.76em" text-anchor="middle" font-family="sans-serif" font-size="9.67741935483871" opacity="1" fill="#000000">
10000.0
</text>
<polyline fill="none" opacity="1" stroke="#000000" stroke-width="1" points="2992,173 2992,178 "/>
<polyline fill="none" opacity="1" stroke="#FF0000" stroke-width="1" points="27,90 27,7 27,7 27,173 28,173 28,37 28,7 29,37 29,173 29,173 29,7 30,7 30,90 30,173 31,173 31,7 31,7 32,143 32,173 32,143 32,7 33,7 33,173 33,173 34,90 34,7 34,7 35,173 35,173 35,37 35,7 36,37 36,173 36,173 37,7 37,7 37,90 37,173 38,173 38,7 38,7 39,143 39,173 39,143 40,7 40,7 40,173 40,173 41,90 41,7 41,7 42,173 42,173 42,37 43,7 43,37 43,173 43,173 44,7 44,7 44,90 45,173 45,173 45,7 45,7 46,143 46,173 46,143 47,7 47,7 47,173 48,173 48,90 48,7 48,7 49,173 49,173 49,37 50,7 50,37 50,173 51,173 51,7 51,7 51,90 52,173 52,173 52,7 53,7 53,143 53,173 53,143 54,7 54,7 54,173 55,173 55,90 55,7 56,7 56,173 56,173 56,37 57,7 57,37 57,173 58,173 58,7 58,7 59,90 59,173 59,173 59,7 60,7 60,143 60,173 61,143 61,7 61,7 61,173 62,173 62,90 62,7 63,7 63,173 63,173 64,37 64,7 64,37 64,173 65,173 65,7 65,7 66,90 66,173 66,173 67,7 67,7 67,143 67,173 68,143 68,7 68,7 69,173 69,173 69,90 69,7 70,7 70,173 70,173 71,37 71,7 71,37 72,173 72,173 72,7 72,7 73,90 73,173 73,173 74,7 74,7 74,143 75,173 75,143 75,7 75,7 76,173 76,173 76,90 77,7 77,7 77,173 77,173 78,37 78,7 78,37 79,173 79,173 79,7 80,7 80,90 80,173 80,173 81,7 81,7 81,143 82,173 82,143 82,7 83,7 83,173 83,173 83,90 84,7 84,7 84,173 85,173 85,37 85,7 86,37 86,173 86,173 86,7 87,7 87,90 87,173 88,173 88,7 88,7 88,143 89,173 89,143 89,7 90,7 90,173 90,173 91,90 91,7 91,7 91,173 92,173 92,37 92,7 93,37 93,173 93,173 94,7 94,7 94,90 94,173 95,173 95,7 95,7 96,143 96,173 96,143 96,7 97,7 97,173 97,173 98,90 98,7 98,7 99,173 99,173 99,37 99,7 100,37 100,173 100,173 101,7 101,7 101,90 102,173 102,173 102,7 102,7 103,143 103,173 103,143 104,7 104,7 104,173 104,173 105,90 105,7 105,7 106,173 106,173 106,37 107,7 107,37 107,173 107,173 108,7 108,7 108,90 109,173 109,173 109,7 110,7 110,143 110,173 110,143 111,7 111,7 111,173 112,173 112,90 112,7 112,7 113,173 113,173 113,37 114,7 114,37 114,173 115,173 115,7 115,7 115,90 116,173 116,173 116,7 117,7 117,143 117,173 118,143 118,7 118,7 118,173 119,173 119,90 119,7 120,7 120,173 120,173 120,37 121,7 121,37 121,173 122,173 122,7 122,7 123,90 123,173 123,173 123,7 124,7 124,143 124,173 125,143 125,7 125,7 126,173 126,173 126,90 126,7 127,7 127,173 127,173 128,37 128,7 128,37 128,173 129,173 129,7 129,7 130,90 130,173 130,173 131,7 131,7 131,143 131,173 132,143 132,7 132,7 133,173 133,173 133,90 134,7 134,7 134,173 134,173 135,37 135,7 135,37 136,173 136,173 136,7 137,7 137,90 137,173 137,173 138,7 138,7 138,143 139,173 139,143 139,7 139,7 140,173 140,173 140,90 141,7 141,7 141,173 142,173 142,37 142,7 142,37 143,173 143,173 143,7 144,7 144,90 144,173 145,173 145,7 145,7 145,143 146,173 146,143 146,7 147,7 147,173 147,173 147,90 148,7 148,7 148,173 149,173 149,37 149,7 150,37 150,173 150,173 150,7 151,7 151,90 151,173 152,173 152,7 152,7 153,143 153,173 153,143 153,7 154,7 154,173 154,173 155,90 155,7 155,7 155,173 156,173 156,37 156,7 157,37 157,173 157,173 158,7 158,7 158,90 158,173 159,173 159,7 159,7 160,143 160,173 160,143 161,7 161,7 161,173 161,173 162,90 162,7 162,7 163,173 163,173 163,37 163,7 164,37 164,173 164,173 165,7 165,7 165,90 166,173 166,173 166,7 166,7 167,143 167,173 167,143 168,7 168,7 168,173 169,173 169,90 169,7 169,7 170,173 170,173 170,37 171,7 171,37 171,173 171,173 172,7 172,7 172,90 173,173 173,173 173,7 174,7 174,143 174,173 174,143 175,7 175,7 175,173 176,173 176,90 176,7 177,7 177,173 177,173 177,37 178,7 178,37 178,173 179,173 179,7 179,7 179,90 180,173 180,173 180,7 181,7 181,143 181,173 182,143 182,7 182,7 182,173 183,173 183,90 183,7 184,7 184,173 184,173 185,37 185,7 185,37 185,173 186,173 186,7 186,7 187,90 187,173 187,173 188,7 188,7 188,143 188,173 189,143 189,7 189,7 190,173 190,173 190,90 190,7 191,7 191,173 191,173 192,37 192,7 192,37 193,173 193,173 193,7 193,7 194,90 194,173 194,173 195,7 195,7 195,143 196,173 196,143 196,7 196,7 197,173 197,173 197,90 198,7 198,7 198,173 198,173 199,37 199,7 199,37 200,173 200,173 200,7 201,7 201,90 201,173 201,173 202,7 202,7 202,143 203,173 203,143 203,7 204,7 204,173 204,173 204,90 205,7 205,7 205,173 206,173 206,37 206,7 206,37 207,173 207,173 207,7 208,7 208,90 208,173 209,173 209,7 209,7 209,143 210,173 210,143 210,7 211,7 211,173 211,173 212,90 212,7 212,7 212,173 213,173 213,37 213,7 214,37 214,173 214,173 214,7 215,7 215,90 215,173 216,173 216,7 216,7 217,143 217,173 217,143 217,7 218,7 218,173 218,173 219,90 219,7 219,7 220,173 220,173 220,37 220,7 221,37 221,173 221,173 222,7 222,7 222,90 222,173 223,173 223,7 223,7 224,143 224,173 224,143 225,7 225,7 225,173 225,173 226,90 226,7 226,7 227,173 227,173 227,37 228,7 228,37 228,173 228,173 229,7 229,7 229,90 230,173 230,173 230,7 230,7 231,143 231,173 231,143 232,7 232,7 232,173 233,173 233,90 233,7 233,7 234,173 234,173 234,37 235,7 235,37 235,173 236,173 236,7 236,7 236,90 237,173 237,173 237,7 238,7 238,143 238,173 238,143 239,7 239,7 239,173 240,173 240,90 240,7 241,7 241,173 241,173 241,37 242,7 242,37 242,173 243,173 243,7 243,7 244,90 244,173 244,173 244,7 245,7 245,143 245,173 246,143 246,7 246,7 247,173 247,173 247,90 247,7 248,7 248,173 248,173 249,37 249,7 249,37 249,173 250,173 250,7 250,7 251,90 251,173 251,173 252,7 252,7 252,143 252,173 253,143 253,7 253,7 254,173 254,173 254,90 255,7 255,7 255,173 255,173 256,37 256,7 256,37 257,173 257,173 257,7 257,7 258,90 258,173 258,173 259,7 259,7 259,143 260,173 260,143 260,7 260,7 261,173 261,173 261,90 262,7 262,7 262,173 263,173 263,37 263,7 263,37 264,173 264,173 264,7 265,7 265,90 265,173 265,173 266,7 266,7 266,143 267,173 267,143 267,7 268,7 268,173 268,173 268,90 269,7 269,7 269,173 270,173 270,37 270,7 271,37 271,173 271,173 271,7 272,7 272,90 272,173 273,173 273,7 273,7 273,143 274,173 274,143 274,7 275,7 275,173 275,173 276,90 276,7 276,7 276,173 277,173 277,37 277,7 278,37 278,173 278,173 279,7 279,7 279,90 279,173 280,173 280,7 280,7 281,143 281,173 281,143 281,7 282,7 282,173 282,173 283,90 283,7 283,7 284,173 284,173 284,37 284,7 285,37 285,173 285,173 286,7 286,7 286,90 287,173 287,173 287,7 287,7 288,143 288,173 288,143 289,7 289,7 289,173 289,173 290,90 290,7 290,7 291,173 291,173 291,37 292,7 292,37 292,173 292,173 293,7 293,7 293,90 294,173 294,173 294,7 295,7 295,143 295,173 295,143 296,7 296,7 296,173 297,173 297,90 297,7 298,7 298,173 298,173 298,37 299,7 299,37 299,173 300,173 300,7 300,7 300,90 301,173 301,173 301,7 302,7 302,143 302,173 303,143 303,7 303,7 303,173 304,173 304,90 304,7 305,7 305,173 305,173 306,37 306,7 306,37 306,173 307,173 307,7 307,7 308,90 308,173 308,173 308,7 309,7 309,143 309,173 310,143 310,7 310,7 311,173 311,173 311,90 311,7 312,7 312,173 312,173 313,37 313,7 313,37 314,173 314,173 314,7 314,7 315,90 315,173 315,173 316,7 316,7 316,143 316,173 317,143 317,7 317,7 318,173 318,173 318,90 319,7 319,7 319,173 319,173 320,37 320,7 320,37 321,173 321,173 321,7 322,7 322,90 322,173 322,173 323,7 323,90 323,63 324,35 324,8 324,7 324,7 325,7 325,7 325,7 326,7 326,7 326,7 327,7 327,7 327,7 327,7 328,7 328,7 328,32 329,70 329,109 329,148 330,173 330,173 330,173 330,173 331,173 331,173 331,173 332,173 332,173 332,173 332,173 333,148 333,101 333,52 334,7 334,7 334,7 335,7 335,7 335,7 335,7 336,7 336,7 336,7 337,60 337,117 337,172 338,173 338,173 338,173 338,173 339,173 339,173 339,173 340,172 340,111 340,48 340,7 341,7 341,7 341,7 342,7 342,7 342,7 343,17 343,85 343,154 343,173 344,173 344,173 344,173 345,173 345,173 345,165 346,91 346,17 346,7 346,7 347,7 347,7 347,7 348,7 348,63 348,143 349,173 349,173 349,173 349,173 350,173 350,173 350,101 351,17 351,7 351,7 351,7 352,7 352,7 352,45 353,134 353,173 353,173 354,173 354,173 354,173 354,138 355,45 355,7 355,7 356,7 356,7 356,7 357,69 357,166 357,173 357,173 358,173 358,173 358,154 359,52 359,7 359,7 359,7 360,7 360,7 360,111 361,173 361,173 361,173 362,173 362,172 362,63 362,7 363,7 363,7 363,7 364,32 364,145 364,173 365,173 365,173 365,173 365,101 366,7 366,7 366,7 367,7 367,29 367,148 367,173 368,173 368,173 368,173 369,63 369,7 369,7 370,7 370,7 370,101 370,173 371,173 371,173 371,173 372,79 372,7 372,7 373,7 373,7 373,117 373,173 374,173 374,173 374,166 375,32 375,7 375,7 375,7 376,56 376,173 376,173 377,173 377,173 377,63 378,7 378,7 378,7 378,47 379,173 379,173 379,173 380,173 380,45 380,7 381,7 381,7 381,89 381,173 382,173 382,173 382,128 383,7 383,7 383,7 383,26 384,173 384,173 384,173 385,169 385,14 385,7 386,7 386,7 386,163 386,173 387,173 387,172 387,11 388,7 388,7 388,21 389,173 389,173 389,173 389,135 390,7 390,7 390,7 391,79 391,173 391,173 391,173 392,57 392,7 392,7 393,7 393,173 393,173 394,173 394,117 394,7 394,7 395,7 395,135 395,173 396,173 396,145 396,7 397,7 397,7 397,125 397,173 398,173 398,142 398,7 399,7 399,7 399,145 399,173 400,173 400,109 400,7 401,7 401,7 401,173 402,173 402,173 402,45 402,7 403,7 403,80 403,173 404,173 404,148 404,7 405,7 405,7 405,173 405,173 406,173 406,27 406,7 407,7 407,123 407,173 408,173 408,82 408,7 408,7 409,79 409,173 409,173 410,114 410,7 410,7 410,58 411,173 411,173 411,124 412,7 412,7 412,60 413,173 413,173 413,110 413,7 414,7 414,85 414,173 415,173 415,74 415,7 416,7 416,132 416,173 416,173 417,17 417,7 417,7 418,173 418,173 418,163 418,7 419,7 419,63 419,173 420,173 420,63 420,7 421,7 421,173 421,173 421,173 422,7 422,7 422,71 423,173 423,173 423,35 424,7 424,7 424,173 424,173 425,124 425,7 425,7 426,124 426,173 426,173 426,7 427,7 427,12 427,173 428,173 428,117 428,7 429,7 429,111 429,173 429,173 430,28 430,7 430,7 431,173 431,173 431,173 432,7 432,7 432,22 432,173 433,173 433,138 433,7 434,7 434,57 434,173 434,173 435,113 435,7 435,7 436,70 436,173 436,173 437,112 437,7 437,7 437,61 438,173 438,173 438,132 439,7 439,7 439,29 440,173 440,173 440,173 440,7 441,7 441,7 441,173 442,173 442,173 442,41 442,7 443,7 443,96 443,173 444,173 444,134 444,7 445,7 445,7 445,173 445,173 446,173 446,56 446,7 447,7 447,56 447,173 448,173 448,173 448,11 448,7 449,7 449,89 449,173 450,173 450,173 450,7 450,7 451,7 451,92 451,173 452,173 452,173 452,10 453,7 453,7 453,63 453,173 454,173 454,173 454,55 455,7 455,7 455,7 456,173 456,173 456,173 456,132 457,7 457,7 457,7 458,82 458,173 458,173 459,173 459,74 459,7 459,7 460,7 460,120 460,173 461,173 461,173 461,56 461,7 462,7 462,7 462,118 463,173 463,173 463,173 464,79 464,7 464,7 464,7 465,75 465,173 465,173 466,173 466,142 466,7 467,7 467,7 467,7 467,139 468,173 468,173 468,173 469,100 469,7 469,7 469,7 470,12 470,152 470,173 471,173 471,173 471,110 472,7 472,7 472,7 472,7 473,115 473,173 473,173 474,173 474,169 474,37 475,7 475,7 475,7 475,26 476,155 476,173 476,173 477,173 477,154 477,28 477,7 478,7 478,7 478,11 479,134 479,173 479,173 480,173 480,173 480,81 480,7 481,7 481,7 481,7 482,48 482,164 482,173 483,173 483,173 483,173 483,84 484,7 484,7 484,7 485,7 485,12 485,120 485,173 486,173 486,173 486,173 487,163 487,58 487,7 488,7 488,7 488,7 488,7 489,101 489,173 489,173 490,173 490,173 490,173 491,122 491,25 491,7 491,7 492,7 492,7 492,7 493,86 493,173 493,173 493,173 494,173 494,173 494,173 495,98 495,10 495,7 496,7 496,7 496,7 496,7 497,48 497,133 497,173 498,173 498,173 498,173 499,173 499,173 499,117 499,37 500,7 500,7 500,7 501,7 501,7 501,7 501,38 502,113 502,173 502,173 503,173 503,173 503,173 504,173 504,173 504,138 504,69 505,7 505,7 505,7 506,7 506,7 506,7 507,7 507,7 507,58 507,120 508,173 508,173 508,173 509,173 509,173 509,173 509,173 510,173 510,168 510,113 511,58 511,7 511,7 512,7 512,7 512,7 512,7 513,7 513,7 513,7 514,7 514,48 514,96 515,143 515,173 515,173 515,173 516,173 516,173 516,173 517,173 517,173 517,173 518,173 518,173 518,161 518,123 519,84 519,46 519,11 520,7 520,7 520,7 520,7 521,7 521,7 521,7 522,7 522,7 522,7 523,7 523,7 523,7 523,7 524,11 524,37 524,90 525,169 525,173 525,173 526,173 526,173 526,173 526,169 527,90 527,11 527,7 528,7 528,7 528,7 528,7 529,11 529,90 529,169 530,173 530,173 530,173 531,173 531,173 531,169 531,90 532,11 532,7 532,7 533,7 533,7 533,7 534,11 534,90 534,169 534,173 535,173 535,173 535,173 536,173 536,169 536,90 536,11 537,7 537,7 537,7 538,7 538,7 538,11 539,90 539,169 539,173 539,173 540,173 540,173 540,173 541,169 541,90 541,11 542,7 542,7 542,7 542,7 543,7 543,11 543,90 544,11 544,7 544,7 544,7 545,7 545,7 545,11 546,90 546,169 546,173 547,173 547,173 547,173 547,173 548,169 548,90 548,11 549,7 549,7 549,7 550,7 550,7 550,11 550,90 551,169 551,173 551,173 552,173 552,173 552,173 552,169 553,90 553,11 553,7 554,7 554,7 554,7 555,7 555,11 555,90 555,169 556,173 556,173 556,173 557,173 557,173 557,169 558,90 558,11 558,7 558,7 559,7 559,7 559,7 560,11 560,90 560,169 560,173 561,173 561,173 561,173 562,173 562,169 562,90 563,169 563,173 563,173 563,173 564,173 564,173 564,169 565,90 565,11 565,7 566,7 566,7 566,7 566,7 567,11 567,90 567,169 568,173 568,173 568,173 569,173 569,173 569,169 569,90 570,11 570,7 570,7 571,7 571,7 571,7 571,11 572,90 572,11 572,7 573,7 573,7 573,7 574,7 574,11 574,90 574,169 575,173 575,173 575,173 576,173 576,173 576,169 577,90 577,11 577,7 577,7 578,7 578,7 578,7 579,11 579,90 579,169 579,173 580,173 580,173 580,173 581,173 581,169 581,90 582,169 582,173 582,173 582,173 583,173 583,173 583,169 584,90 584,11 584,7 585,7 585,7 585,7 585,7 586,11 586,90 586,169 587,173 587,173 587,173 587,173 588,173 588,169 588,90 589,11 589,7 589,7 590,7 590,7 590,7 590,11 591,90 591,11 591,7 592,7 592,7 592,7 593,7 593,11 593,90 593,169 594,173 594,173 594,173 595,173 595,173 595,169 595,90 596,11 596,7 596,7 597,7 597,7 597,7 598,11 598,90 598,169 598,173 599,173 599,173 599,173 600,173 600,169 600,90 601,11 601,7 601,7 601,7 602,7 602,7 602,11 603,90 603,169 603,173 603,173 604,173 604,173 604,173 605,169 605,90 605,11 606,7 606,7 606,7 606,7 607,7 607,11 607,90 608,169 608,173 608,173 609,173 609,173 609,173 609,169 610,90 610,11 610,7 611,7 611,7 611,7 611,7 612,11 612,90 612,169 613,173 613,173 613,173 614,173 614,173 614,169 614,90 615,11 615,7 615,7 616,7 616,7 616,7 617,11 617,90 617,169 617,173 618,173 618,173 618,173 619,173 619,169 619,90 620,11 620,7 620,7 620,7 621,7 621,7 621,11 622,90 622,169 622,173 622,173 623,173 623,173 623,173 624,169 624,90 624,11 625,7 625,7 625,7 625,7 626,7 626,11 626,90 627,169 627,173 627,173 628,173 628,173 628,173 628,169 629,90 629,11 629,7 630,7 630,7 630,7 630,7 631,11 631,90 631,169 632,173 632,173 632,173 633,173 633,173 633,169 633,90 634,11 634,7 634,7 635,7 635,7 635,7 636,11 636,90 636,169 636,173 637,173 637,173 637,173 638,173 638,169 638,90 638,169 639,173 639,173 639,173 640,173 640,173 640,169 641,90 641,11 641,7 641,7 642,7 642,7 642,7 643,11 643,90 643,169 644,173 644,173 644,173 644,173 645,173 645,169 645,90 646,11 646,7 646,7 646,7 647,7 647,7 647,11 648,90 648,11 648,7 649,7 649,7 649,7 649,7 650,11 650,90 650,169 651,173 651,173 651,173 652,173 652,173 652,169 652,90 653,11 653,7 653,7 654,7 654,7 654,7 654,11 655,90 655,169 655,173 656,173 656,173 656,173 657,173 657,169 657,90 657,11 658,7 658,7 658,7 659,7 659,7 659,11 660,90 660,169 660,173 660,173 661,173 661,173 661,173 662,169 662,90 662,11 662,7 663,7 663,7 663,7 664,7 664,11 664,90 665,169 665,173 665,173 665,173 666,173 666,173 666,169 667,90 667,11 667,7 668,7 668,7 668,7 668,7 669,11 669,90 669,169 670,173 670,173 670,173 670,173 671,173 671,169 671,90 672,11 672,7 672,7 673,7 673,7 673,7 673,11 674,90 674,169 674,173 675,173 675,173 675,173 676,173 676,169 676,90 676,11 677,7 677,7 677,7 678,7 678,7 678,11 679,90 679,169 679,173 679,173 680,173 680,173 680,173 681,169 681,90 681,11 681,7 682,7 682,7 682,7 683,7 683,11 683,90 684,169 684,173 684,173 684,173 685,173 685,173 685,169 686,90 686,11 686,7 687,7 687,7 687,7 687,7 688,11 688,90 688,169 689,173 689,173 689,173 689,173 690,173 690,169 690,90 691,11 691,7 691,7 692,7 692,7 692,7 692,11 693,90 693,169 693,173 694,173 694,173 694,173 695,173 695,169 695,90 695,11 696,7 696,7 696,7 697,7 697,7 697,11 697,90 698,169 698,173 698,173 699,173 699,173 699,173 700,169 700,90 700,11 700,7 701,7 701,7 701,7 702,7 702,11 702,90 703,169 703,173 703,173 703,173 704,173 704,173 704,169 705,90 705,11 705,7 705,7 706,7 706,7 706,7 707,11 707,90 707,169 708,173 708,173 708,173 708,173 709,173 709,169 709,90 710,11 710,7 710,7 711,7 711,7 711,7 711,11 712,90 712,169 712,173 713,173 713,173 713,173 713,173 714,169 714,90 714,11 715,7 715,7 715,7 716,7 716,7 716,11 716,90 717,169 717,173 717,173 718,173 718,173 718,173 719,169 719,90 719,11 719,7 720,7 720,7 720,7 721,7 721,11 721,90 721,169 722,173 722,173 722,173 723,173 723,173 723,169 724,90 724,11 724,7 724,7 725,7 725,7 725,7 726,11 726,90 726,169 727,173 727,173 727,173 727,173 728,173 728,169 728,90 729,11 729,7 729,7 730,7 730,7 730,7 730,11 731,90 731,169 731,173 732,173 732,173 732,173 732,173 733,169 733,90 733,169 734,173 734,173 734,173 735,173 735,173 735,169 735,90 736,11 736,7 736,7 737,7 737,7 737,7 738,11 738,90 738,169 738,173 739,173 739,173 739,173 740,173 740,169 740,90 740,11 741,7 741,7 741,7 742,7 742,7 742,11 743,90 743,169 743,173 743,173 744,173 744,173 744,173 745,169 745,90 745,11 746,7 746,7 746,7 746,7 747,7 747,11 747,90 748,169 748,173 748,173 748,173 749,173 749,173 749,169 750,90 750,11 750,7 751,7 751,7 751,7 751,7 752,11 752,90 752,169 753,173 753,173 753,173 754,173 754,173 754,169 754,90 755,11 755,7 755,7 756,7 756,7 756,7 756,11 757,90 757,169 757,173 758,173 758,173 758,173 759,173 759,169 759,90 759,11 760,7 760,7 760,7 761,7 761,7 761,11 762,90 762,169 762,173 762,173 763,173 763,173 763,173 764,169 764,90 764,11 764,7 765,7 765,7 765,7 766,7 766,11 766,90 767,169 767,173 767,173 767,173 768,173 768,173 768,169 769,90 769,11 769,7 770,7 770,7 770,7 770,7 771,11 771,90 771,11 772,7 772,7 772,7 772,7 773,7 773,11 773,90 774,169 774,173 774,173 775,173 775,173 775,173 775,169 776,90 776,11 776,7 777,7 777,7 777,7 778,7 778,11 778,90 778,169 779,173 779,173 779,173 780,173 780,173 780,169 781,90 781,11 781,7 781,7 782,7 782,7 782,7 783,11 783,90 783,169 783,173 784,173 784,173 784,173 785,173 785,169 785,90 786,11 786,7 786,7 786,7 787,7 787,7 787,11 788,90 788,169 788,173 789,173 789,173 789,173 789,173 790,169 790,90 790,169 791,173 791,173 791,173 791,173 792,173 792,169 792,90 793,11 793,7 793,7 794,7 794,7 794,7 794,11 795,90 795,169 795,173 796,173 796,173 796,173 797,173 797,169 797,90 797,11 798,7 798,7 798,7 799,7 799,7 799,11 799,90 800,169 800,173 800,173 801,173 801,173 801,173 802,169 802,90 802,11 802,7 803,7 803,7 803,7 804,7 804,11 804,90 805,169 805,173 805,173 805,173 806,173 806,173 806,169 807,90 807,11 807,7 807,7 808,7 808,7 808,7 809,11 809,90 809,169 810,173 810,173 810,173 810,173 811,173 811,169 811,90 812,11 812,7 812,7 813,7 813,7 813,7 813,11 814,90 814,169 814,173 815,173 815,173 815,173 815,173 816,169 816,90 816,11 817,7 817,7 817,7 818,7 818,7 818,11 818,90 819,11 819,7 819,7 820,7 820,7 820,7 821,11 821,90 821,169 821,173 822,173 822,173 822,173 823,173 823,169 823,90 823,11 824,7 824,7 824,7 825,7 825,7 825,11 826,90 826,169 826,173 826,173 827,173 827,173 827,173 828,169 828,90 828,11 829,7 829,7 829,7 829,7 830,7 830,11 830,90 831,169 831,173 831,173 831,173 832,173 832,173 832,169 833,90 833,11 833,7 834,7 834,7 834,7 834,7 835,11 835,90 835,169 836,173 836,173 836,173 837,173 837,173 837,169 837,90 838,11 838,7 838,7 839,7 839,7 839,7 840,11 840,90 840,169 840,173 841,173 841,173 841,173 842,173 842,169 842,90 842,11 843,7 843,7 843,7 844,7 844,7 844,11 845,90 845,169 845,173 845,173 846,173 846,173 846,173 847,169 847,90 847,11 848,7 848,7 848,7 848,7 849,7 849,11 849,90 850,169 850,173 850,173 850,173 851,173 851,173 851,169 852,90 852,11 852,7 853,7 853,7 853,7 853,7 854,11 854,90 854,169 855,173 855,173 855,173 856,173 856,173 856,169 856,90 857,11 857,7 857,7 858,7 858,7 858,7 858,11 859,90 859,169 859,173 860,173 860,173 860,173 861,173 861,169 861,90 861,11 862,7 862,7 862,7 863,7 863,7 863,11 864,90 864,169 864,173 864,173 865,173 865,173 865,173 866,169 866,90 866,11 866,7 867,7 867,7 867,7 868,7 868,11 868,90 869,169 869,173 869,173 869,173 870,173 870,173 870,169 871,90 871,11 871,7 872,7 872,7 872,7 872,7 873,11 873,90 873,169 874,173 874,173 874,173 874,173 875,173 875,169 875,90 876,169 876,173 876,173 877,173 877,173 877,173 877,169 878,90 878,11 878,7 879,7 879,7 879,7 880,7 880,11 880,90 880,169 881,173 881,173 881,173 882,173 882,173 882,169 882,90 883,11 883,7 883,7 884,7 884,7 884,7 885,11 885,90 885,11 885,7 886,7 886,7 886,7 887,7 887,11 887,90 888,169 888,173 888,173 888,173 889,173 889,173 889,169 890,90 890,11 890,7 891,7 891,7 891,7 891,7 892,11 892,90 892,169 893,173 893,173 893,173 893,173 894,173 894,169 894,90 895,11 895,7 895,7 896,7 896,7 896,7 896,11 897,90 897,169 897,173 898,173 898,173 898,173 899,173 899,169 899,90 899,11 900,7 900,7 900,7 901,7 901,7 901,11 901,90 902,169 902,173 902,173 903,173 903,173 903,173 904,169 904,90 904,11 904,7 905,7 905,7 905,7 906,7 906,11 906,90 907,169 907,173 907,173 907,173 908,173 908,173 908,169 909,90 909,11 909,7 909,7 910,7 910,7 910,7 911,11 911,90 911,169 912,173 912,173 912,173 912,173 913,173 913,169 913,90 914,169 914,173 914,173 915,173 915,173 915,173 915,169 916,90 916,11 916,7 917,7 917,7 917,7 917,7 918,11 918,90 918,169 919,173 919,173 919,173 920,173 920,173 920,169 920,90 921,11 921,7 921,7 922,7 922,7 922,7 923,11 923,90 923,11 923,7 924,7 924,7 924,7 925,7 925,11 925,90 925,169 926,173 926,173 926,173 927,173 927,173 927,169 928,90 928,11 928,7 928,7 929,7 929,7 929,7 930,11 930,90 930,169 931,173 931,173 931,173 931,173 932,173 932,169 932,90 933,169 933,173 933,173 933,173 934,173 934,173 934,169 935,90 935,11 935,7 936,7 936,7 936,7 936,7 937,11 937,90 937,169 938,173 938,173 938,173 939,173 939,173 939,169 939,90 940,11 940,7 940,7 941,7 941,7 941,7 941,11 942,90 942,11 942,7 943,7 943,7 943,7 944,7 944,11 944,90 944,169 945,173 945,173 945,173 946,173 946,173 946,169 947,90 947,11 947,7 947,7 948,7 948,7 948,7 949,11 949,90 949,169 950,173 950,173 950,173 950,173 951,173 951,169 951,90 952,11 952,7 952,7 952,7 953,7 953,7 953,11 954,90 954,169 954,173 955,173 955,173 955,173 955,173 956,169 956,90 956,11 957,7 957,7 957,7 958,7 958,7 958,11 958,90 959,169 959,173 959,173 960,173 960,173 960,173 960,169 961,90 961,169 961,173 962,173 962,173 962,173 963,173 963,169 963,90 963,11 964,7 964,7 964,7 965,7 965,7 965,11 966,90 966,169 966,173 966,173 967,173 967,173 967,173 968,169 968,90 968,11 968,7 969,7 969,7 969,7 970,7 970,11 970,90 971,11 971,7 971,7 971,7 972,7 972,7 972,11 973,90 973,169 973,173 974,173 974,173 974,173 974,173 975,169 975,90 975,11 976,7 976,7 976,7 976,7 977,7 977,11 977,90 978,169 978,173 978,173 979,173 979,173 979,173 979,169 980,90 980,169 980,173 981,173 981,173 981,173 982,173 982,169 982,90 982,11 983,7 983,7 983,7 984,7 984,7 984,11 984,90 985,169 985,173 985,173 986,173 986,173 986,173 987,169 987,90 987,11 987,7 988,7 988,7 988,7 989,7 989,11 989,90 990,11 990,7 990,7 990,7 991,7 991,7 991,11 992,90 992,169 992,173 992,173 993,173 993,173 993,173 994,169 994,90 994,11 995,7 995,7 995,7 995,7 996,7 996,11 996,90 997,169 997,173 997,173 998,173 998,173 998,173 998,169 999,90 999,169 999,173 1000,173 1000,173 1000,173 1001,173 1001,169 1001,90 1001,11 1002,7 1002,7 1002,7 1003,7 1003,7 1003,11 1003,90 1004,169 1004,173 1004,173 1005,173 1005,173 1005,173 1006,169 1006,90 1006,11 1006,7 1007,7 1007,7 1007,7 1008,7 1008,11 1008,90 1009,169 1009,173 1009,173 1009,173 1010,173 1010,173 1010,169 1011,90 1011,11 1011,7 1011,7 1012,7 1012,7 1012,7 1013,11 1013,90 1013,169 1014,173 1014,173 1014,173 1014,173 1015,173 1015,169 1015,90 1016,11 1016,7 1016,7 1017,7 1017,7 1017,7 1017,11 1018,90 1018,169 1018,173 1019,173 1019,173 1019,173 1019,173 1020,169 1020,90 1020,11 1021,7 1021,7 1021,7 1022,7 1022,7 1022,11 1022,90 1023,169 1023,173 1023,173 1024,173 1024,173 1024,173 1025,169 1025,90 1025,11 1025,7 1026,7 1026,7 1026,7 1027,7 1027,11 1027,90 1027,11 1028,7 1028,7 1028,7 1029,7 1029,7 1029,11 1030,90 1030,169 1030,173 1030,173 1031,173 1031,173 1031,173 1032,169 1032,90 1032,11 1033,7 1033,7 1033,7 1033,7 1034,7 1034,11 1034,90 1035,169 1035,173 1035,173 1035,173 1036,173 1036,173 1036,169 1037,90 1037,11 1037,7 1038,7 1038,7 1038,7 1038,7 1039,11 1039,90 1039,169 1040,173 1040,173 1040,173 1041,173 1041,173 1041,169 1041,90 1042,11 1042,7 1042,7 1043,7 1043,7 1043,7 1043,11 1044,90 1044,169 1044,173 1045,173 1045,173 1045,173 1046,173 1046,169 1046,90 1046,11 1047,7 1047,7 1047,7 1048,7 1048,7 1048,11 1049,90 1049,169 1049,173 1049,173 1050,173 1050,173 1050,173 1051,169 1051,90 1051,11 1052,7 1052,7 1052,7 1052,7 1053,7 1053,11 1053,90 1054,169 1054,173 1054,173 1054,173 1055,173 1055,173 1055,169 1056,90 1056,11 1056,7 1057,7 1057,7 1057,7 1057,7 1058,11 1058,90 1058,169 1059,173 1059,173 1059,173 1060,173 1060,173 1060,169 1060,90 1061,11 1061,7 1061,7 1062,7 1062,7 1062,7 1062,11 1063,90 1063,169 1063,173 1064,173 1064,173 1064,173 1065,173 1065,169 1065,90 1065,169 1066,173 1066,173 1066,173 1067,173 1067,173 1067,169 1068,90 1068,11 1068,7 1068,7 1069,7 1069,7 1069,7 1070,11 1070,90 1070,169 1070,173 1071,173 1071,173 1071,173 1072,173 1072,169 1072,90 1073,11 1073,7 1073,7 1073,7 1074,7 1074,7 1074,11 1075,90 1075,11 1075,7 1076,7 1076,7 1076,7 1076,7 1077,11 1077,90 1077,169 1078,173 1078,173 1078,173 1078,173 1079,173 1079,169 1079,90 1080,11 1080,7 1080,7 1081,7 1081,7 1081,7 1081,11 1082,90 1082,169 1082,173 1083,173 1083,173 1083,173 1084,173 1084,169 1084,90 1084,169 1085,173 1085,173 1085,173 1086,173 1086,173 1086,169 1086,90 1087,11 1087,7 1087,7 1088,7 1088,7 1088,7 1089,11 1089,90 1089,169 1089,173 1090,173 1090,173 1090,173 1091,173 1091,169 1091,90 1092,11 1092,7 1092,7 1092,7 1093,7 1093,7 1093,11 1094,90 1094,169 1094,173 1094,173 1095,173 1095,173 1095,173 1096,169 1096,90 1096,11 1097,7 1097,7 1097,7 1097,7 1098,7 1098,11 1098,90 1099,169 1099,173 1099,173 1100,173 1100,173 1100,173 1100,169 1101,90 1101,11 1101,7 1102,7 1102,7 1102,7 1102,7 1103,11 1103,90 1103,169 1104,173 1104,173 1104,173 1105,173 1105,173 1105,169 1105,90 1106,11 1106,7 1106,7 1107,7 1107,7 1107,7 1108,11 1108,90 1108,169 1108,173 1109,173 1109,173 1109,173 1110,173 1110,169 1110,90 1111,11 1111,7 1111,7 1111,7 1112,7 1112,7 1112,11 1113,90 1113,169 1113,173 1113,173 1114,173 1114,173 1114,173 1115,169 1115,90 1115,11 1116,7 1116,7 1116,7 1116,7 1117,7 1117,11 1117,90 1118,169 1118,173 1118,173 1119,173 1119,173 1119,173 1119,169 1120,90 1120,11 1120,7 1121,7 1121,7 1121,7 1121,7 1122,11 1122,90 1122,169 1123,173 1123,173 1123,173 1124,173 1124,173 1124,169 1124,90 1125,11 1125,7 1125,7 1126,7 1126,7 1126,7 1127,11 1127,90 1127,169 1127,173 1128,173 1128,173 1128,173 1129,173 1129,169 1129,90 1129,11 1130,7 1130,7 1130,7 1131,7 1131,7 1131,11 1132,90 1132,11 1132,7 1132,7 1133,7 1133,7 1133,7 1134,11 1134,90 1134,169 1135,173 1135,173 1135,173 1135,173 1136,173 1136,169 1136,90 1137,11 1137,7 1137,7 1137,7 1138,7 1138,7 1138,11 1139,90 1139,169 1139,173 1140,173 1140,173 1140,173 1140,173 1141,169 1141,90 1141,169 1142,173 1142,173 1142,173 1143,173 1143,173 1143,169 1143,90 1144,11 1144,7 1144,7 1145,7 1145,7 1145,7 1145,11 1146,90 1146,169 1146,173 1147,173 1147,173 1147,173 1148,173 1148,169 1148,90 1148,11 1149,7 1149,7 1149,7 1150,7 1150,7 1150,11 1151,90 1151,11 1151,7 1151,7 1152,7 1152,7 1152,7 1153,11 1153,90 1153,169 1153,173 1154,173 1154,173 1154,173 1155,173 1155,169 1155,90 1156,11 1156,7 1156,7 1156,7 1157,7 1157,7 1157,11 1158,90 1158,169 1158,173 1159,173 1159,173 1159,173 1159,173 1160,169 1160,90 1160,11 1161,7 1161,7 1161,7 1162,7 1162,7 1162,11 1162,90 1163,169 1163,173 1163,173 1164,173 1164,173 1164,173 1164,169 1165,90 1165,11 1165,7 1166,7 1166,7 1166,7 1167,7 1167,11 1167,90 1167,169 1168,173 1168,173 1168,173 1169,173 1169,173 1169,169 1170,90 1170,169 1170,173 1170,173 1171,173 1171,173 1171,173 1172,169 1172,90 1172,11 1172,7 1173,7 1173,7 1173,7 1174,7 1174,11 1174,90 1175,169 1175,173 1175,173 1175,173 1176,173 1176,173 1176,169 1177,90 1177,11 1177,7 1178,7 1178,7 1178,7 1178,7 1179,11 1179,90 1179,169 1180,173 1180,173 1180,173 1180,173 1181,173 1181,169 1181,90 1182,11 1182,7 1182,7 1183,7 1183,7 1183,7 1183,11 1184,90 1184,169 1184,173 1185,173 1185,173 1185,173 1186,173 1186,169 1186,90 1186,11 1187,7 1187,7 1187,7 1188,7 1188,7 1188,11 1188,90 1189,169 1189,173 1189,173 1190,173 1190,173 1190,173 1191,169 1191,90 1191,11 1191,7 1192,7 1192,7 1192,7 1193,7 1193,11 1193,90 1194,169 1194,173 1194,173 1194,173 1195,173 1195,173 1195,169 1196,90 1196,11 1196,7 1196,7 1197,7 1197,7 1197,7 1198,11 1198,90 1198,169 1199,173 1199,173 1199,173 1199,173 1200,173 1200,169 1200,90 1201,11 1201,7 1201,7 1202,7 1202,7 1202,7 1202,11 1203,90 1203,169 1203,173 1204,173 1204,173 1204,173 1204,173 1205,169 1205,90 1205,11 1206,7 1206,7 1206,7 1207,7 1207,7 1207,11 1207,90 1208,11 1208,7 1208,7 1209,7 1209,7 1209,7 1210,11 1210,90 1210,169 1210,173 1211,173 1211,173 1211,173 1212,173 1212,169 1212,90 1213,11 1213,7 1213,7 1213,7 1214,7 1214,7 1214,11 1215,90 1215,169 1215,173 1215,173 1216,173 1216,173 1216,173 1217,169 1217,90 1217,11 1218,7 1218,7 1218,7 1218,7 1219,7 1219,11 1219,90 1220,169 1220,173 1220,173 1221,173 1221,173 1221,173 1221,169 1222,90 1222,11 1222,7 1223,7 1223,7 1223,7 1223,7 1224,11 1224,90 1224,169 1225,173 1225,173 1225,173 1226,173 1226,173 1226,169 1226,90 1227,169 1227,173 1227,173 1228,173 1228,173 1228,173 1229,169 1229,90 1229,11 1229,7 1230,7 1230,7 1230,7 1231,7 1231,11 1231,90 1231,169 1232,173 1232,173 1232,173 1233,173 1233,173 1233,169 1234,90 1234,11 1234,7 1234,7 1235,7 1235,7 1235,7 1236,11 1236,90 1236,169 1237,173 1237,173 1237,173 1237,173 1238,173 1238,169 1238,90 1239,11 1239,7 1239,7 1239,7 1240,7 1240,7 1240,11 1241,90 1241,169 1241,173 1242,173 1242,173 1242,173 1242,173 1243,169 1243,90 1243,11 1244,7 1244,7 1244,7 1245,7 1245,7 1245,11 1245,90 1246,169 1246,173 1246,173 1247,173 1247,173 1247,173 1247,169 1248,90 1248,11 1248,7 1249,7 1249,7 1249,7 1250,7 1250,11 1250,90 1250,169 1251,173 1251,173 1251,173 1252,173 1252,173 1252,169 1253,90 1253,11 1253,7 1253,7 1254,7 1254,7 1254,7 1255,11 1255,90 1255,11 1255,7 1256,7 1256,7 1256,7 1257,7 1257,11 1257,90 1258,169 1258,173 1258,173 1258,173 1259,173 1259,173 1259,169 1260,90 1260,11 1260,7 1261,7 1261,7 1261,7 1261,7 1262,11 1262,90 1262,169 1263,173 1263,173 1263,173 1263,173 1264,173 1264,169 1264,90 1265,169 1265,173 1265,173 1266,173 1266,173 1266,173 1266,169 1267,90 1267,11 1267,7 1268,7 1268,7 1268,7 1269,7 1269,11 1269,90 1269,169 1270,173 1270,173 1270,173 1271,173 1271,173 1271,169 1272,90 1272,11 1272,7 1272,7 1273,7 1273,7 1273,7 1274,11 1274,90 1274,11 1274,7 1275,7 1275,7 1275,7 1276,7 1276,11 1276,90 1277,169 1277,173 1277,173 1277,173 1278,173 1278,173 1278,169 1279,90 1279,11 1279,7 1280,7 1280,7 1280,7 1280,7 1281,11 1281,90 1281,169 1282,173 1282,173 1282,173 1282,173 1283,173 1283,169 1283,90 1284,11 1284,7 1284,7 1285,7 1285,7 1285,7 1285,11 1286,90 1286,169 1286,173 1287,173 1287,173 1287,173 1288,173 1288,169 1288,90 1288,11 1289,7 1289,7 1289,7 1290,7 1290,7 1290,11 1290,90 1291,169 1291,173 1291,173 1292,173 1292,173 1292,173 1293,169 1293,90 1293,169 1293,173 1294,173 1294,173 1294,173 1295,173 1295,169 1295,90 1296,11 1296,7 1296,7 1296,7 1297,7 1297,7 1297,11 1298,90 1298,169 1298,173 1298,173 1299,173 1299,173 1299,173 1300,169 1300,90 1300,11 1301,7 1301,7 1301,7 1301,7 1302,7 1302,11 1302,90 1303,169 1303,173 1303,173 1304,173 1304,173 1304,173 1304,169 1305,90 1305,11 1305,7 1306,7 1306,7 1306,7 1306,7 1307,11 1307,90 1307,169 1308,173 1308,173 1308,173 1309,173 1309,173 1309,169 1309,90 1310,11 1310,7 1310,7 1311,7 1311,7 1311,7 1312,11 1312,90 1312,169 1312,173 1313,173 1313,173 1313,173 1314,173 1314,169 1314,90 1314,11 1315,7 1315,7 1315,7 1316,7 1316,7 1316,11 1317,90 1317,169 1317,173 1317,173 1318,173 1318,173 1318,173 1319,169 1319,90 1319,11 1320,7 1320,7 1320,7 1320,7 1321,7 1321,11 1321,90 1322,11 1322,7 1322,7 1323,7 1323,7 1323,7 1323,11 1324,90 1324,169 1324,173 1325,173 1325,173 1325,173 1325,173 1326,169 1326,90 1326,11 1327,7 1327,7 1327,7 1328,7 1328,7 1328,11 1328,90 1329,169 1329,173 1329,173 1330,173 1330,173 1330,173 1331,169 1331,90 1331,11 1331,7 1332,7 1332,7 1332,7 1333,7 1333,11 1333,90 1333,169 1334,173 1334,173 1334,173 1335,173 1335,173 1335,169 1336,90 1336,11 1336,7 1336,7 1337,7 1337,7 1337,7 1338,11 1338,90 1338,169 1339,173 1339,173 1339,173 1339,173 1340,173 1340,169 1340,90 1341,11 1341,7 1341,7 1341,7 1342,7 1342,7 1342,11 1343,90 1343,169 1343,173 1344,173 1344,173 1344,173 1344,173 1345,169 1345,90 1345,11 1346,7 1346,7 1346,7 1347,7 1347,7 1347,11 1347,90 1348,169 1348,173 1348,173 1349,173 1349,173 1349,173 1349,169 1350,90 1350,169 1350,173 1351,173 1351,173 1351,173 1352,173 1352,169 1352,90 1352,11 1353,7 1353,7 1353,7 1354,7 1354,7 1354,11 1355,90 1355,169 1355,173 1355,173 1356,173 1356,173 1356,173 1357,169 1357,90 1357,11 1357,7 1358,7 1358,7 1358,7 1359,7 1359,11 1359,90 1360,169 1360,173 1360,173 1360,173 1361,173 1361,173 1361,169 1362,90 1362,11 1362,7 1363,7 1363,7 1363,7 1363,7 1364,11 1364,90 1364,169 1365,173 1365,173 1365,173 1365,173 1366,173 1366,169 1366,90 1367,11 1367,7 1367,7 1368,7 1368,7 1368,7 1368,11 1369,90 1369,11 1369,7 1370,7 1370,7 1370,7 1371,7 1371,11 1371,90 1371,169 1372,173 1372,173 1372,173 1373,173 1373,173 1373,169 1374,90 1374,11 1374,7 1374,7 1375,7 1375,7 1375,7 1376,11 1376,90 1376,169 1376,173 1377,173 1377,173 1377,173 1378,173 1378,169 1378,90 1379,169 1379,173 1379,173 1379,173 1380,173 1380,173 1380,169 1381,90 1381,11 1381,7 1382,7 1382,7 1382,7 1382,7 1383,11 1383,90 1383,169 1384,173 1384,173 1384,173 1384,173 1385,173 1385,169 1385,90 1386,11 1386,7 1386,7 1387,7 1387,7 1387,7 1387,11 1388,90 1388,169 1388,173 1389,173 1389,173 1389,173 1390,173 1390,169 1390,90 1390,11 1391,7 1391,7 1391,7 1392,7 1392,7 1392,11 1392,90 1393,169 1393,173 1393,173 1394,173 1394,173 1394,173 1395,169 1395,90 1395,11 1395,7 1396,7 1396,7 1396,7 1397,7 1397,11 1397,90 1398,11 1398,7 1398,7 1398,7 1399,7 1399,7 1399,11 1400,90 1400,169 1400,173 1400,173 1401,173 1401,173 1401,173 1402,169 1402,90 1402,11 1403,7 1403,7 1403,7 1403,7 1404,7 1404,11 1404,90 1405,169 1405,173 1405,173 1406,173 1406,173 1406,173 1406,169 1407,90 1407,169 1407,173 1408,173 1408,173 1408,173 1408,173 1409,169 1409,90 1409,11 1410,7 1410,7 1410,7 1411,7 1411,7 1411,11 1411,90 1412,169 1412,173 1412,173 1413,173 1413,173 1413,173 1414,169 1414,90 1414,11 1414,7 1415,7 1415,7 1415,7 1416,7 1416,11 1416,90 1416,11 1417,7 1417,7 1417,7 1418,7 1418,7 1418,11 1419,90 1419,169 1419,173 1419,173 1420,173 1420,173 1420,173 1421,169 1421,90 1421,11 1422,7 1422,7 1422,7 1422,7 1423,7 1423,11 1423,90 1424,169 1424,173 1424,173 1424,173 1425,173 1425,173 1425,169 1426,90 1426,11 1426,7 1427,7 1427,7 1427,7 1427,7 1428,11 1428,90 1428,169 1429,173 1429,173 1429,173 1430,173 1430,173 1430,169 1430,90 1431,11 1431,7 1431,7 1432,7 1432,7 1432,7 1433,11 1433,90 1433,169 1433,173 1434,173 1434,173 1434,173 1435,173 1435,169 1435,90 1435,11 1436,7 1436,7 1436,7 1437,7 1437,7 1437,11 1438,90 1438,169 1438,173 1438,173 1439,173 1439,173 1439,173 1440,169 1440,90 1440,11 1441,7 1441,7 1441,7 1441,7 1442,7 1442,11 1442,90 1443,169 1443,173 1443,173 1443,173 1444,173 1444,173 1444,169 1445,90 1445,11 1445,7 1446,7 1446,7 1446,7 1446,7 1447,11 1447,90 1447,169 1448,173 1448,173 1448,173 1449,173 1449,173 1449,169 1449,90 1450,11 1450,7 1450,7 1451,7 1451,7 1451,7 1451,11 1452,90 1452,169 1452,173 1453,173 1453,173 1453,173 1454,173 1454,169 1454,90 1454,11 1455,7 1455,7 1455,7 1456,7 1456,7 1456,11 1457,90 1457,169 1457,173 1457,173 1458,173 1458,173 1458,173 1459,169 1459,90 1459,11 1459,7 1460,7 1460,7 1460,7 1461,7 1461,11 1461,90 1462,169 1462,173 1462,173 1462,173 1463,173 1463,173 1463,169 1464,90 1464,169 1464,173 1465,173 1465,173 1465,173 1465,173 1466,169 1466,90 1466,11 1467,7 1467,7 1467,7 1467,7 1468,7 1468,11 1468,90 1469,169 1469,173 1469,173 1470,173 1470,173 1470,173 1470,169 1471,90 1471,11 1471,7 1472,7 1472,7 1472,7 1473,7 1473,11 "/>
<rect x="2943" y="12" width="45" height="40" opacity="0.1" fill="#0000FF" stroke="none"/>
<rect x="2943" y="12" width="45" height="40" opacity="1" fill="none" stroke="#0000FF"/>
</svg>
