<svg width="3000" height="200" viewBox="0 0 3000 200" xmlns="http://www.w3.org/2000/svg">
<rect x="0" y="0" width="3000" height="200" opacity="1" fill="#FFFFFF" stroke="none"/>
<line opacity="0.1" stroke="#000000" stroke-width="1" x1="27" y1="172" x2="27" y2="7"/>
<line opacity="0.1" stroke="#000000" stroke-width="1" x1="56" y1="172" x2="56" y2="7"/>
<line opacity="0.1" stroke="#000000" stroke-width="1" x1="86" y1="172" x2="86" y2="7"/>
<line opacity="0.1" stroke="#000000" stroke-width="1" x1="115" y1="172" x2="115" y2="7"/>
<line opacity="0.1" stroke="#000000" stroke-width="1" x1="145" y1="172" x2="145" y2="7"/>
<line opacity="0.1" stroke="#000000" stroke-width="1" x1="175" y1="172" x2="175" y2="7"/>
<line opacity="0.1" stroke="#000000" stroke-width="1" x1="204" y1="172" x2="204" y2="7"/>
<line opacity="0.1" stroke="#000000" stroke-width="1" x1="234" y1="172" x2="234" y2="7"/>
<line opacity="0.1" stroke="#000000" stroke-width="1" x1="264" y1="172" x2="264" y2="7"/>
<line opacity="0.1" stroke="#000000" stroke-width="1" x1="293" y1="172" x2="293" y2="7"/>
<line opacity="0.1" stroke="#000000" stroke-width="1" x1="323" y1="172" x2="323" y2="7"/>
<line opacity="0.1" stroke="#000000" stroke-width="1" x1="353" y1="172" x2="353" y2="7"/>
<line opacity="0.1" stroke="#000000" stroke-width="1" x1="382" y1="172" x2="382" y2="7"/>
<line opacity="0.1" stroke="#000000" stroke-width="1" x1="412" y1="172" x2="412" y2="7"/>
<line opacity="0.1" stroke="#000000" stroke-width="1" x1="442" y1="172" x2="442" y2="7"/>
<line opacity="0.1" stroke="#000000" stroke-width="1" x1="471" y1="172" x2="471" y2="7"/>
<line opacity="0.1" stroke="#000000" stroke-width="1" x1="501" y1="172" x2="501" y2="7"/>
<line opacity="0.1" stroke="#000000" stroke-width="1" x1="531" y1="172" x2="531" y2="7"/>
<line opacity="0.1" stroke="#000000" stroke-width="1" x1="560" y1="172" x2="560" y2="7"/>
<line opacity="0.1" stroke="#000000" stroke-width="1" x1="590" y1="172" x2="590" y2="7"/>
<line opacity="0.1" stroke="#000000" stroke-width="1" x1="620" y1="172" x2="620" y2="7"/>
<line opacity="0.1" stroke="#000000" stroke-width="1" x1="649" y1="172" x2="649" y2="7"/>
<line opacity="0.1" stroke="#000000" stroke-width="1" x1="679" y1="172" x2="679" y2="7"/>
<line opacity="0.1" stroke="#000000" stroke-width="1" x1="708" y1="172" x2="708" y2="7"/>
<line opacity="0.1" stroke="#000000" stroke-width="1" x1="738" y1="172" x2="738" y2="7"/>
<line opacity="0.1" stroke="#000000" stroke-width="1" x1="768" y1="172" x2="768" y2="7"/>
<line opacity="0.1" stroke="#000000" stroke-width="1" x1="797" y1="172" x2="797" y2="7"/>
<line opacity="0.1" stroke="#000000" stroke-width="1" x1="827" y1="172" x2="827" y2="7"/>
<line opacity="0.1" stroke="#000000" stroke-width="1" x1="857" y1="172" x2="857" y2="7"/>
<line opacity="0.1" stroke="#000000" stroke-width="1" x1="886" y1="172" x2="886" y2="7"/>
<line opacity="0.1" stroke="#000000" stroke-width="1" x1="916" y1="172" x2="916" y2="7"/>
<line opacity="0.1" stroke="#000000" stroke-width="1" x1="946" y1="172" x2="946" y2="7"/>
<line opacity="0.1" stroke="#000000" stroke-width="1" x1="975" y1="172" x2="975" y2="7"/>
<line opacity="0.1" stroke="#000000" stroke-width="1" x1="1005" y1="172" x2="1005" y2="7"/>
<line opacity="0.1" stroke="#000000" stroke-width="1" x1="1035" y1="172" x2="1035" y2="7"/>
<line opacity="0.1" stroke="#000000" stroke-width="1" x1="1064" y1="172" x2="1064" y2="7"/>
<line opacity="0.1" stroke="#000000" stroke-width="1" x1="1094" y1="172" x2="1094" y2="7"/>
<line opacity="0.1" stroke="#000000" stroke-width="1" x1="1124" y1="172" x2="1124" y2="7"/>
<line opacity="0.1" stroke="#000000" stroke-width="1" x1="1153" y1="172" x2="1153" y2="7"/>
<line opacity="0.1" stroke="#000000" stroke-width="1" x1="1183" y1="172" x2="1183" y2="7"/>
<line opacity="0.1" stroke="#000000" stroke-width="1" x1="1213" y1="172" x2="1213" y2="7"/>
<line opacity="0.1" stroke="#000000" stroke-width="1" x1="1242" y1="172" x2="1242" y2="7"/>
<line opacity="0.1" stroke="#000000" stroke-width="1" x1="1272" y1="172" x2="1272" y2="7"/>
<line opacity="0.1" stroke="#000000" stroke-width="1" x1="1301" y1="172" x2="1301" y2="7"/>
<line opacity="0.1" stroke="#000000" stroke-width="1" x1="1331" y1="172" x2="1331" y2="7"/>
<line opacity="0.1" stroke="#000000" stroke-width="1" x1="1361" y1="172" x2="1361" y2="7"/>
<line opacity="0.1" stroke="#000000" stroke-width="1" x1="1390" y1="172" x2="1390" y2="7"/>
<line opacity="0.1" stroke="#000000" stroke-width="1" x1="1420" y1="172" x2="1420" y2="7"/>
<line opacity="0.1" stroke="#000000" stroke-width="1" x1="1450" y1="172" x2="1450" y2="7"/>
<line opacity="0.1" stroke="#000000" stroke-width="1" x1="1479" y1="172" x2="1479" y2="7"/>
<line opacity="0.1" stroke="#000000" stroke-width="1" x1="1509" y1="172" x2="1509" y2="7"/>
<line opacity="0.1" stroke="#000000" stroke-width="1" x1="1539" y1="172" x2="1539" y2="7"/>
<line opacity="0.1" stroke="#000000" stroke-width="1" x1="1568" y1="172" x2="1568" y2="7"/>
<line opacity="0.1" stroke="#000000" stroke-width="1" x1="1598" y1="172" x2="1598" y2="7"/>
<line opacity="0.1" stroke="#000000" stroke-width="1" x1="1628" y1="172" x2="1628" y2="7"/>
<line opacity="0.1" stroke="#000000" stroke-width="1" x1="1657" y1="172" x2="1657" y2="7"/>
<line opacity="0.1" stroke="#000000" stroke-width="1" x1="1687" y1="172" x2="1687" y2="7"/>
<line opacity="0.1" stroke="#000000" stroke-width="1" x1="1717" y1="172" x2="1717" y2="7"/>
<line opacity="0.1" stroke="#000000" stroke-width="1" x1="1746" y1="172" x2="1746" y2="7"/>
<line opacity="0.1" stroke="#000000" stroke-width="1" x1="1776" y1="172" x2="1776" y2="7"/>
<line opacity="0.1" stroke="#000000" stroke-width="1" x1="1806" y1="172" x2="1806" y2="7"/>
<line opacity="0.1" stroke="#000000" stroke-width="1" x1="1835" y1="172" x2="1835" y2="7"/>
<line opacity="0.1" stroke="#000000" stroke-width="1" x1="1865" y1="172" x2="1865" y2="7"/>
<line opacity="0.1" stroke="#000000" stroke-width="1" x1="1894" y1="172" x2="1894" y2="7"/>
<line opacity="0.1" stroke="#000000" stroke-width="1" x1="1924" y1="172" x2="1924" y2="7"/>
<line opacity="0.1" stroke="#000000" stroke-width="1" x1="1954" y1="172" x2="1954" y2="7"/>
<line opacity="0.1" stroke="#000000" stroke-width="1" x1="1983" y1="172" x2="1983" y2="7"/>
<line opacity="0.1" stroke="#000000" stroke-width="1" x1="2013" y1="172" x2="2013" y2="7"/>
<line opacity="0.1" stroke="#000000" stroke-width="1" x1="2043" y1="172" x2="2043" y2="7"/>
<line opacity="0.1" stroke="#000000" stroke-width="1" x1="2072" y1="172" x2="2072" y2="7"/>
<line opacity="0.1" stroke="#000000" stroke-width="1" x1="2102" y1="172" x2="2102" y2="7"/>
<line opacity="0.1" stroke="#000000" stroke-width="1" x1="2132" y1="172" x2="2132" y2="7"/>
<line opacity="0.1" stroke="#000000" stroke-width="1" x1="2161" y1="172" x2="2161" y2="7"/>
<line opacity="0.1" stroke="#000000" stroke-width="1" x1="2191" y1="172" x2="2191" y2="7"/>
<line opacity="0.1" stroke="#000000" stroke-width="1" x1="2221" y1="172" x2="2221" y2="7"/>
<line opacity="0.1" stroke="#000000" stroke-width="1" x1="2250" y1="172" x2="2250" y2="7"/>
<line opacity="0.1" stroke="#000000" stroke-width="1" x1="2280" y1="172" x2="2280" y2="7"/>
<line opacity="0.1" stroke="#000000" stroke-width="1" x1="2310" y1="172" x2="2310" y2="7"/>
<line opacity="0.1" stroke="#000000" stroke-width="1" x1="2339" y1="172" x2="2339" y2="7"/>
<line opacity="0.1" stroke="#000000" stroke-width="1" x1="2369" y1="172" x2="2369" y2="7"/>
<line opacity="0.1" stroke="#000000" stroke-width="1" x1="2399" y1="172" x2="2399" y2="7"/>
<line opacity="0.1" stroke="#000000" stroke-width="1" x1="2428" y1="172" x2="2428" y2="7"/>
<line opacity="0.1" stroke="#000000" stroke-width="1" x1="2458" y1="172" x2="2458" y2="7"/>
<line opacity="0.1" stroke="#000000" stroke-width="1" x1="2487" y1="172" x2="2487" y2="7"/>
<line opacity="0.1" stroke="#000000" stroke-width="1" x1="2517" y1="172" x2="2517" y2="7"/>
<line opacity="0.1" stroke="#000000" stroke-width="1" x1="2547" y1="172" x2="2547" y2="7"/>
<line opacity="0.1" stroke="#000000" stroke-width="1" x1="2576" y1="172" x2="2576" y2="7"/>
<line opacity="0.1" stroke="#000000" stroke-width="1" x1="2606" y1="172" x2="2606" y2="7"/>
<line opacity="0.1" stroke="#000000" stroke-width="1" x1="2636" y1="172" x2="2636" y2="7"/>
<line opacity="0.1" stroke="#000000" stroke-width="1" x1="2665" y1="172" x2="2665" y2="7"/>
<line opacity="0.1" stroke="#000000" stroke-width="1" x1="2695" y1="172" x2="2695" y2="7"/>
<line opacity="0.1" stroke="#000000" stroke-width="1" x1="2725" y1="172" x2="2725" y2="7"/>
<line opacity="0.1" stroke="#000000" stroke-width="1" x1="2754" y1="172" x2="2754" y2="7"/>
<line opacity="0.1" stroke="#000000" stroke-width="1" x1="2784" y1="172" x2="2784" y2="7"/>
<line opacity="0.1" stroke="#000000" stroke-width="1" x1="2814" y1="172" x2="2814" y2="7"/>
<line opacity="0.1" stroke="#000000" stroke-width="1" x1="2843" y1="172" x2="2843" y2="7"/>
<line opacity="0.1" stroke="#000000" stroke-width="1" x1="2873" y1="172" x2="2873" y2="7"/>
<line opacity="0.1" stroke="#000000" stroke-width="1" x1="2903" y1="172" x2="2903" y2="7"/>
<line opacity="0.1" stroke="#000000" stroke-width="1" x1="2932" y1="172" x2="2932" y2="7"/>
<line opacity="0.1" stroke="#000000" stroke-width="1" x1="2962" y1="172" x2="2962" y2="7"/>
<line opacity="0.1" stroke="#000000" stroke-width="1" x1="2992" y1="172" x2="2992" y2="7"/>
<line opacity="0.1" stroke="#000000" stroke-width="1" x1="27" y1="172" x2="2992" y2="172"/>
<line opacity="0.1" stroke="#000000" stroke-width="1" x1="27" y1="169" x2="2992" y2="169"/>
<line opacity="0.1" stroke="#000000" stroke-width="1" x1="27" y1="165" x2="2992" y2="165"/>
<line opacity="0.1" stroke="#000000" stroke-width="1" x1="27" y1="161" x2="2992" y2="161"/>
<line opacity="0.1" stroke="#000000" stroke-width="1" x1="27" y1="157" x2="2992" y2="157"/>
<line opacity="0.1" stroke="#000000" stroke-width="1" x1="27" y1="154" x2="2992" y2="154"/>
<line opacity="0.1" stroke="#000000" stroke-width="1" x1="27" y1="150" x2="2992" y2="150"/>
<line opacity="0.1" stroke="#000000" stroke-width="1" x1="27" y1="146" x2="2992" y2="146"/>
<line opacity="0.1" stroke="#000000" stroke-width="1" x1="27" y1="142" x2="2992" y2="142"/>
<line opacity="0.1" stroke="#000000" stroke-width="1" x1="27" y1="139" x2="2992" y2="139"/>
<line opacity="0.1" stroke="#000000" stroke-width="1" x1="27" y1="135" x2="2992" y2="135"/>
<line opacity="0.1" stroke="#000000" stroke-width="1" x1="27" y1="131" x2="2992" y2="131"/>
<line opacity="0.1" stroke="#000000" stroke-width="1" x1="27" y1="127" x2="2992" y2="127"/>
<line opacity="0.1" stroke="#000000" stroke-width="1" x1="27" y1="124" x2="2992" y2="124"/>
<line opacity="0.1" stroke="#000000" stroke-width="1" x1="27" y1="120" x2="2992" y2="120"/>
<line opacity="0.1" stroke="#000000" stroke-width="1" x1="27" y1="116" x2="2992" y2="116"/>
<line opacity="0.1" stroke="#000000" stroke-width="1" x1="27" y1="112" x2="2992" y2="112"/>
<line opacity="0.1" stroke="#000000" stroke-width="1" x1="27" y1="109" x2="2992" y2="109"/>
<line opacity="0.1" stroke="#000000" stroke-width="1" x1="27" y1="105" x2="2992" y2="105"/>
<line opacity="0.1" stroke="#000000" stroke-width="1" x1="27" y1="101" x2="2992" y2="101"/>
<line opacity="0.1" stroke="#000000" stroke-width="1" x1="27" y1="97" x2="2992" y2="97"/>
<line opacity="0.1" stroke="#000000" stroke-width="1" x1="27" y1="94" x2="2992" y2="94"/>
<line opacity="0.1" stroke="#000000" stroke-width="1" x1="27" y1="90" x2="2992" y2="90"/>
<line opacity="0.1" stroke="#000000" stroke-width="1" x1="27" y1="86" x2="2992" y2="86"/>
<line opacity="0.1" stroke="#000000" stroke-width="1" x1="27" y1="82" x2="2992" y2="82"/>
<line opacity="0.1" stroke="#000000" stroke-width="1" x1="27" y1="79" x2="2992" y2="79"/>
<line opacity="0.1" stroke="#000000" stroke-width="1" x1="27" y1="75" x2="2992" y2="75"/>
<line opacity="0.1" stroke="#000000" stroke-width="1" x1="27" y1="71" x2="2992" y2="71"/>
<line opacity="0.1" stroke="#000000" stroke-width="1" x1="27" y1="67" x2="2992" y2="67"/>
<line opacity="0.1" stroke="#000000" stroke-width="1" x1="27" y1="64" x2="2992" y2="64"/>
<line opacity="0.1" stroke="#000000" stroke-width="1" x1="27" y1="60" x2="2992" y2="60"/>
<line opacity="0.1" stroke="#000000" stroke-width="1" x1="27" y1="56" x2="2992" y2="56"/>
<line opacity="0.1" stroke="#000000" stroke-width="1" x1="27" y1="52" x2="2992" y2="52"/>
<line opacity="0.1" stroke="#000000" stroke-width="1" x1="27" y1="49" x2="2992" y2="49"/>
<line opacity="0.1" stroke="#000000" stroke-width="1" x1="27" y1="45" x2="2992" y2="45"/>
<line opacity="0.1" stroke="#000000" stroke-width="1" x1="27" y1="41" x2="2992" y2="41"/>
<line opacity="0.1" stroke="#000000" stroke-width="1" x1="27" y1="37" x2="2992" y2="37"/>
<line opacity="0.1" stroke="#000000" stroke-width="1" x1="27" y1="34" x2="2992" y2="34"/>
<line opacity="0.1" stroke="#000000" stroke-width="1" x1="27" y1="30" x2="2992" y2="30"/>
<line opacity="0.1" stroke="#000000" stroke-width="1" x1="27" y1="26" x2="2992" y2="26"/>
<line opacity="0.1" stroke="#000000" stroke-width="1" x1="27" y1="22" x2="2992" y2="22"/>
<line opacity="0.1" stroke="#000000" stroke-width="1" x1="27" y1="19" x2="2992" y2="19"/>
<line opacity="0.1" stroke="#000000" stroke-width="1" x1="27" y1="15" x2="2992" y2="15"/>
<line opacity="0.1" stroke="#000000" stroke-width="1" x1="27" y1="11" x2="2992" y2="11"/>
<line opacity="0.1" stroke="#000000" stroke-width="1" x1="27" y1="7" x2="2992" y2="7"/>
<line opacity="0.2" stroke="#000000" stroke-width="1" x1="27" y1="172" x2="27" y2="7"/>
<line opacity="0.2" stroke="#000000" stroke-width="1" x1="323" y1="172" x2="323" y2="7"/>
<line opacity="0.2" stroke="#000000" stroke-width="1" x1="620" y1="172" x2="620" y2="7"/>
<line opacity="0.2" stroke="#000000" stroke-width="1" x1="916" y1="172" x2="916" y2="7"/>
<line opacity="0.2" stroke="#000000" stroke-width="1" x1="1213" y1="172" x2="1213" y2="7"/>
<line opacity="0.2" stroke="#000000" stroke-width="1" x1="1509" y1="172" x2="1509" y2="7"/>
<line opacity="0.2" stroke="#000000" stroke-width="1" x1="1806" y1="172" x2="1806" y2="7"/>
<line opacity="0.2" stroke="#000000" stroke-width="1" x1="2102" y1="172" x2="2102" y2="7"/>
<line opacity="0.2" stroke="#000000" stroke-width="1" x1="2399" y1="172" x2="2399" y2="7"/>
<line opacity="0.2" stroke="#000000" stroke-width="1" x1="2695" y1="172" x2="2695" y2="7"/>
<line opacity="0.2" stroke="#000000" stroke-width="1" x1="2992" y1="172" x2="2992" y2="7"/>
<line opacity="0.2" stroke="#000000" stroke-width="1" x1="27" y1="165" x2="2992" y2="165"/>
<line opacity="0.2" stroke="#000000" stroke-width="1" x1="27" y1="150" x2="2992" y2="150"/>
<line opacity="0.2" stroke="#000000" stroke-width="1" x1="27" y1="135" x2="2992" y2="135"/>
<line opacity="0.2" stroke="#000000" stroke-width="1" x1="27" y1="120" x2="2992" y2="120"/>
<line opacity="0.2" stroke="#000000" stroke-width="1" x1="27" y1="105" x2="2992" y2="105"/>
<line opacity="0.2" stroke="#000000" stroke-width="1" x1="27" y1="90" x2="2992" y2="90"/>
<line opacity="0.2" stroke="#000000" stroke-width="1" x1="27" y1="75" x2="2992" y2="75"/>
<line opacity="0.2" stroke="#000000" stroke-width="1" x1="27" y1="60" x2="2992" y2="60"/>
<line opacity="0.2" stroke="#000000" stroke-width="1" x1="27" y1="45" x2="2992" y2="45"/>
<line opacity="0.2" stroke="#000000" stroke-width="1" x1="27" y1="30" x2="2992" y2="30"/>
<line opacity="0.2" stroke="#000000" stroke-width="1" x1="27" y1="15" x2="2992" y2="15"/>
<polyline fill="none" opacity="1" stroke="#000000" stroke-width="1" points="26,7 26,172 "/>
<text x="17" y="165" dy="0.5ex" text-anchor="end" font-family="sans-serif" font-size="9.67741935483871" opacity="1" fill="#000000">
-1.0
</text>
<polyline fill="none" opacity="1" stroke="#000000" stroke-width="1" points="21,165 26,165 "/>
<text x="17" y="150" dy="0.5ex" text-anchor="end" font-family="sans-serif" font-size="9.67741935483871" opacity="1" fill="#000000">
-0.8
</text>
<polyline fill="none" opacity="1" stroke="#000000" stroke-width="1" points="21,150 26,150 "/>
<text x="17" y="135" dy="0.5ex" text-anchor="end" font-family="sans-serif" font-size="9.67741935483871" opacity="1" fill="#000000">
-0.6
</text>
<polyline fill="none" opacity="1" stroke="#000000" stroke-width="1" points="21,135 26,135 "/>
<text x="17" y="120" dy="0.5ex" text-anchor="end" font-family="sans-serif" font-size="9.67741935483871" opacity="1" fill="#000000">
-0.4
</text>
<polyline fill="none" opacity="1" stroke="#000000" stroke-width="1" points="21,120 26,120 "/>
<text x="17" y="105" dy="0.5ex" text-anchor="end" font-family="sans-serif" font-size="9.67741935483871" opacity="1" fill="#000000">
-0.2
</text>
<polyline fill="none" opacity="1" stroke="#000000" stroke-width="1" points="21,105 26,105 "/>
<text x="17" y="90" dy="0.5ex" text-anchor="end" font-family="sans-serif" font-size="9.67741935483871" opacity="1" fill="#000000">
-0.0
</text>
<polyline fill="none" opacity="1" stroke="#000000" stroke-width="1" points="21,90 26,90 "/>
<text x="17" y="75" dy="0.5ex" text-anchor="end" font-family="sans-serif" font-size="9.67741935483871" opacity="1" fill="#000000">
0.2
</text>
<polyline fill="none" opacity="1" stroke="#000000" stroke-width="1" points="21,75 26,75 "/>
<text x="17" y="60" dy="0.5ex" text-anchor="end" font-family="sans-serif" font-size="9.67741935483871" opacity="1" fill="#000000">
0.4
</text>
<polyline fill="none" opacity="1" stroke="#000000" stroke-width="1" points="21,60 26,60 "/>
<text x="17" y="45" dy="0.5ex" text-anchor="end" font-family="sans-serif" font-size="9.67741935483871" opacity="1" fill="#000000">
0.6
</text>
<polyline fill="none" opacity="1" stroke="#000000" stroke-width="1" points="21,45 26,45 "/>
<text x="17" y="30" dy="0.5ex" text-anchor="end" font-family="sans-serif" font-size="9.67741935483871" opacity="1" fill="#000000">
0.8
</text>
<polyline fill="none" opacity="1" stroke="#000000" stroke-width="1" points="21,30 26,30 "/>
<text x="17" y="15" dy="0.5ex" text-anchor="end" font-family="sans-serif" font-size="9.67741935483871" opacity="1" fill="#000000">
1.0
</text>
<polyline fill="none" opacity="1" stroke="#000000" stroke-width="1" points="21,15 26,15 "/>
<polyline fill="none" opacity="1" stroke="#000000" stroke-width="1" points="27,173 2992,173 "/>
<text x="27" y="183" dy="0.76em" text-anchor="middle" font-family="sans-serif" font-size="9.67741935483871" opacity="1" fill="#000000">
0.0
</text>
<polyline fill="none" opacity="1" stroke="#000000" stroke-width="1" points="27,173 27,178 "/>
<text x="323" y="183" dy="0.76em" text-anchor="middle" font-family="sans-serif" font-size="9.67741935483871" opacity="1" fill="#000000">
1000.0
</text>
<polyline fill="none" opacity="1" stroke="#000000" stroke-width="1" points="323,173 323,178 "/>
<text x="620" y="183" dy="0.76em" text-anchor="middle" font-family="sans-serif" font-size="9.67741935483871" opacity="1" fill="#000000">
2000.0
</text>
<polyline fill="none" opacity="1" stroke="#000000" stroke-width="1" points="620,173 620,178 "/>
<text x="916" y="183" dy="0.76em" text-anchor="middle" font-family="sans-serif" font-size="9.67741935483871" opacity="1" fill="#000000">
3000.0
</text>
<polyline fill="none" opacity="1" stroke="#000000" stroke-width="1" points="916,173 916,178 "/>
<text x="1213" y="183" dy="0.76em" text-anchor="middle" font-family="sans-serif" font-size="9.67741935483871" opacity="1" fill="#000000">
4000.0
</text>
<polyline fill="none" opacity="1" stroke="#000000" stroke-width="1" points="1213,173 1213,178 "/>
<text x="1509" y="183" dy="0.76em" text-anchor="middle" font-family="sans-serif" font-size="9.67741935483871" opacity="1" fill="#000000">
5000.0
</text>
<polyline fill="none" opacity="1" stroke="#000000" stroke-width="1" points="1509,173 1509,178 "/>
<text x="1806" y="183" dy="0.76em" text-anchor="middle" font-family="sans-serif" font-size="9.67741935483871" opacity="1" fill="#000000">
6000.0
</text>
<polyline fill="none" opacity="1" stroke="#000000" stroke-width="1" points="1806,173 1806,178 "/>
<text x="2102" y="183" dy="0.76em" text-anchor="middle" font-family="sans-serif" font-size="9.67741935483871" opacity="1" fill="#000000">
7000.0
</text>
<polyline fill="none" opacity="1" stroke="#000000" stroke-width="1" points="2102,173 2102,178 "/>
<text x="2399" y="183" dy="0.76em" text-anchor="middle" font-family="sans-serif" font-size="9.67741935483871" opacity="1" fill="#000000">
8000.0
</text>
<polyline fill="none" opacity="1" stroke="#000000" stroke-width="1" points="2399,173 2399,178 "/>
<text x="2695" y="183" dy="0.76em" text-anchor="middle" font-family="sans-serif" font-size="9.67741935483871" opacity="1" fill="#000000">
9000.0
</text>
<polyline fill="none" opacity="1" stroke="#000000" stroke-width="1" points="2695,173 2695,178 "/>
<text x="2992" y="183" dy="0.76em" text-anchor="middle" font-family="sans-serif" font-size="9.67741935483871" opacity="1" fill="#000000">
10000.0
</text>
<polyline fill="none" opacity="1" stroke="#000000" stroke-width="1" points="2992,173 2992,178 "/>
<polyline fill="none" opacity="1" stroke="#FF0000" stroke-width="1" points="27,90 27,18 27,52 27,143 28,155 28,71 28,15 29,71 29,155 29,143 29,52 30,18 30,90 30,162 31,127 31,37 31,25 32,109 32,165 32,109 32,25 33,37 33,127 33,162 34,90 34,18 34,52 35,143 35,155 35,71 35,15 36,71 36,155 36,143 37,52 37,18 37,90 37,162 38,127 38,37 38,25 39,109 39,165 39,109 40,25 40,37 40,127 40,162 41,90 41,18 41,52 42,143 42,155 42,71 43,15 43,71 43,155 43,143 44,52 44,18 44,90 45,162 45,127 45,37 45,25 46,109 46,165 46,109 47,25 47,37 47,127 48,162 48,90 48,18 48,52 49,143 49,155 49,71 50,15 50,71 50,155 51,143 51,52 51,18 51,90 52,162 52,127 52,37 53,25 53,109 53,165 53,109 54,25 54,37 54,127 55,162 55,90 55,18 56,52 56,143 56,155 56,71 57,15 57,71 57,155 58,143 58,52 58,18 59,90 59,162 59,127 59,37 60,25 60,109 60,165 61,109 61,25 61,37 61,127 62,162 62,90 62,18 63,52 63,143 63,155 64,71 64,15 64,71 64,155 65,143 65,52 65,18 66,90 66,162 66,127 67,37 67,25 67,109 67,165 68,109 68,25 68,37 69,127 69,162 69,90 69,18 70,52 70,143 70,155 71,71 71,15 71,71 72,155 72,143 72,52 72,18 73,90 73,162 73,127 74,37 74,25 74,109 75,165 75,109 75,25 75,37 76,127 76,162 76,90 77,18 77,52 77,143 77,155 78,71 78,15 78,71 79,155 79,143 79,52 80,18 80,90 80,162 80,127 81,37 81,25 81,109 82,165 82,109 82,25 83,37 83,127 83,162 83,90 84,18 84,52 84,143 85,155 85,71 85,15 86,71 86,155 86,143 86,52 87,18 87,90 87,162 88,127 88,37 88,25 88,109 89,165 89,109 89,25 90,37 90,127 90,162 91,90 91,18 91,52 91,143 92,155 92,71 92,15 93,71 93,155 93,143 94,52 94,18 94,90 94,162 95,127 95,37 95,25 96,109 96,165 96,109 96,25 97,37 97,128 97,162 98,90 98,18 98,52 99,143 99,155 99,71 99,15 100,71 100,155 100,143 101,52 101,18 101,90 102,162 102,128 102,37 102,25 103,109 103,165 103,109 104,25 104,37 104,127 104,162 105,90 105,18 105,53 106,143 106,155 106,71 107,15 107,71 107,155 107,143 108,52 108,18 108,90 109,162 109,127 109,37 110,25 110,109 110,165 110,109 111,25 111,37 111,128 112,162 112,90 112,18 112,53 113,143 113,155 113,71 114,15 114,71 114,155 115,143 115,52 115,18 115,90 116,162 116,127 116,37 117,25 117,109 117,165 118,109 118,25 118,37 118,127 119,162 119,90 119,18 120,53 120,143 120,155 120,71 121,15 121,71 121,155 122,143 122,52 122,18 123,90 123,162 123,127 123,37 124,25 124,109 124,165 125,109 125,25 125,37 126,127 126,162 126,90 126,18 127,52 127,143 127,155 128,71 128,15 128,71 128,155 129,143 129,52 129,18 130,90 130,162 130,127 131,37 131,25 131,109 131,165 132,109 132,25 132,37 133,127 133,162 133,90 134,18 134,53 134,143 134,155 135,71 135,15 135,71 136,155 136,143 136,52 137,18 137,90 137,162 137,127 138,37 138,25 138,109 139,165 139,109 139,25 139,37 140,127 140,162 140,90 141,18 141,52 141,143 142,155 142,71 142,15 142,71 143,155 143,143 143,52 144,18 144,90 144,162 145,127 145,37 145,25 145,109 146,165 146,109 146,25 147,37 147,127 147,162 147,90 148,18 148,53 148,143 149,155 149,71 149,15 150,71 150,155 150,143 150,52 151,18 151,90 151,162 152,127 152,37 152,25 153,109 153,165 153,109 153,25 154,37 154,128 154,162 155,90 155,18 155,53 155,143 156,155 156,71 156,15 157,71 157,155 157,143 158,52 158,18 158,90 158,162 159,127 159,37 159,25 160,109 160,165 160,109 161,25 161,37 161,127 161,162 162,90 162,18 162,53 163,143 163,155 163,71 163,15 164,71 164,155 164,143 165,53 165,18 165,90 166,162 166,127 166,37 166,25 167,109 167,165 167,109 168,25 168,37 168,127 169,162 169,90 169,18 169,52 170,143 170,155 170,71 171,15 171,71 171,155 171,143 172,52 172,18 172,90 173,162 173,128 173,37 174,25 174,109 174,165 174,109 175,25 175,37 175,127 176,162 176,90 176,18 177,52 177,143 177,155 177,71 178,15 178,71 178,155 179,143 179,52 179,18 179,90 180,162 180,127 180,37 181,25 181,109 181,165 182,109 182,25 182,37 182,128 183,162 183,90 183,18 184,53 184,143 184,155 185,71 185,15 185,71 185,155 186,143 186,52 186,18 187,90 187,162 187,127 188,37 188,25 188,109 188,165 189,109 189,25 189,37 190,128 190,162 190,90 190,18 191,53 191,143 191,155 192,71 192,15 192,71 193,155 193,143 193,53 193,18 194,90 194,162 194,127 195,37 195,25 195,109 196,165 196,109 196,25 196,37 197,128 197,162 197,90 198,18 198,53 198,143 198,155 199,71 199,15 199,71 200,155 200,143 200,52 201,18 201,90 201,162 201,128 202,37 202,25 202,109 203,165 203,109 203,25 204,37 204,128 204,162 204,90 205,18 205,53 205,143 206,155 206,71 206,15 206,71 207,155 207,143 207,52 208,18 208,90 208,162 209,127 209,37 209,25 209,109 210,165 210,109 210,25 211,37 211,127 211,162 212,90 212,18 212,53 212,143 213,155 213,71 213,15 214,71 214,155 214,143 214,52 215,18 215,90 215,162 216,127 216,37 216,25 217,109 217,165 217,109 217,25 218,37 218,128 218,162 219,90 219,18 219,52 220,143 220,155 220,71 220,15 221,71 221,155 221,143 222,53 222,18 222,90 222,162 223,127 223,37 223,25 224,109 224,165 224,109 225,25 225,37 225,127 225,162 226,90 226,18 226,53 227,143 227,155 227,71 228,15 228,71 228,155 228,143 229,53 229,18 229,90 230,162 230,127 230,37 230,25 231,109 231,165 231,109 232,25 232,37 232,128 233,162 233,90 233,18 233,52 234,143 234,155 234,71 235,15 235,71 235,155 236,143 236,52 236,18 236,90 237,162 237,127 237,37 238,25 238,109 238,165 238,109 239,25 239,37 239,127 240,162 240,90 240,18 241,52 241,143 241,155 241,71 242,15 242,71 242,155 243,143 243,52 243,18 244,90 244,162 244,128 244,37 245,25 245,109 245,165 246,109 246,25 246,37 247,127 247,162 247,90 247,18 248,53 248,143 248,155 249,71 249,15 249,71 249,155 250,143 250,52 250,18 251,90 251,162 251,127 252,37 252,25 252,109 252,165 253,109 253,25 253,37 254,128 254,162 254,90 255,18 255,53 255,143 255,155 256,71 256,15 256,71 257,155 257,143 257,52 257,18 258,90 258,162 258,127 259,37 259,25 259,109 260,165 260,109 260,25 260,37 261,127 261,162 261,90 262,18 262,52 262,143 263,155 263,71 263,15 263,71 264,155 264,143 264,52 265,18 265,90 265,162 265,127 266,37 266,25 266,109 267,165 267,109 267,25 268,37 268,128 268,162 268,90 269,18 269,52 269,143 270,155 270,71 270,15 271,71 271,155 271,143 271,53 272,18 272,90 272,162 273,127 273,37 273,25 273,109 274,165 274,109 274,25 275,37 275,128 275,162 276,90 276,18 276,53 276,143 277,155 277,71 277,15 278,71 278,155 278,143 279,52 279,18 279,90 279,162 280,127 280,37 280,25 281,109 281,165 281,109 281,25 282,37 282,128 282,162 283,90 283,18 283,53 284,143 284,155 284,71 284,15 285,71 285,155 285,143 286,52 286,18 286,90 287,162 287,127 287,37 287,25 288,109 288,165 288,109 289,25 289,37 289,128 289,162 290,90 290,18 290,53 291,143 291,155 291,71 292,15 292,71 292,155 292,143 293,52 293,18 293,90 294,162 294,128 294,37 295,25 295,109 295,165 295,109 296,25 296,37 296,128 297,162 297,90 297,18 298,53 298,143 298,155 298,71 299,15 299,71 299,155 300,143 300,52 300,18 300,90 301,162 301,127 301,37 302,25 302,109 302,165 303,109 303,25 303,37 303,127 304,162 304,90 304,18 305,52 305,143 305,155 306,71 306,15 306,71 306,155 307,143 307,52 307,18 308,90 308,162 308,127 308,37 309,25 309,109 309,165 310,109 310,25 310,37 311,127 311,162 311,90 311,18 312,53 312,143 312,155 313,71 313,15 313,71 314,155 314,143 314,52 314,18 315,90 315,162 315,127 316,37 316,25 316,109 316,165 317,109 317,25 317,37 318,128 318,162 318,90 319,18 319,52 319,143 319,155 320,71 320,15 320,71 321,155 321,143 321,52 322,18 322,90 322,162 322,127 323,37 323,90 323,80 324,70 324,61 324,52 324,43 325,35 325,28 325,23 326,19 326,16 326,15 327,16 327,18 327,22 327,28 328,36 328,45 328,56 329,67 329,80 329,92 330,105 330,118 330,129 330,140 331,149 331,157 331,162 332,165 332,165 332,162 332,157 333,149 333,139 333,127 334,114 334,99 334,84 335,69 335,55 335,42 335,31 336,22 336,17 336,15 337,17 337,22 337,30 338,42 338,56 338,72 338,89 339,106 339,123 339,138 340,150 340,159 340,164 340,165 341,161 341,153 341,141 342,126 342,108 342,89 343,70 343,52 343,37 343,25 344,17 344,15 344,18 345,26 345,39 345,56 346,75 346,96 346,116 346,135 347,150 347,160 347,165 348,163 348,156 348,142 349,124 349,103 349,81 349,59 350,40 350,26 350,17 351,15 351,21 351,33 351,51 352,72 352,96 352,119 353,140 353,155 353,164 354,164 354,157 354,143 354,122 355,98 355,73 355,49 356,31 356,19 356,15 357,20 357,34 357,55 357,80 358,106 358,131 358,150 359,162 359,165 359,158 359,141 360,118 360,91 360,64 361,40 361,23 361,15 362,18 362,32 362,54 362,81 363,110 363,136 363,155 364,164 364,162 364,149 365,126 365,98 365,68 365,42 366,23 366,15 366,20 367,36 367,62 367,92 367,123 368,147 368,162 368,164 369,153 369,130 369,100 370,68 370,40 370,21 370,15 371,23 371,44 371,74 372,107 372,137 372,158 373,165 373,157 373,136 373,105 374,71 374,40 374,20 375,15 375,26 375,51 375,84 376,118 376,147 376,163 377,163 377,146 377,116 378,81 378,47 378,23 378,15 379,24 379,50 379,85 380,121 380,150 380,164 381,160 381,139 381,105 381,67 382,35 382,17 382,18 383,37 383,71 383,109 383,143 384,162 384,162 384,143 385,108 385,69 385,35 386,17 386,19 386,41 386,78 387,118 387,150 387,165 388,158 388,130 388,91 389,51 389,23 389,15 389,30 390,64 390,105 390,142 391,163 391,161 391,136 391,96 392,55 392,24 392,15 393,31 393,66 393,109 394,146 394,164 394,157 394,127 395,84 395,43 395,18 396,19 396,44 396,86 397,129 397,159 397,163 397,141 398,100 398,55 398,23 399,16 399,36 399,77 399,123 400,156 400,164 400,144 401,102 401,56 401,23 402,16 402,39 402,82 402,128 403,160 403,162 403,136 404,90 404,44 404,17 405,21 405,54 405,102 405,145 406,165 406,153 406,113 407,64 407,26 407,16 408,39 408,85 408,133 408,162 409,159 409,124 409,74 410,31 410,15 410,34 410,79 411,129 411,161 411,159 412,124 412,73 412,29 413,15 413,37 413,85 413,136 414,164 414,155 414,114 415,61 415,22 415,18 416,51 416,103 416,149 416,165 417,141 417,91 417,40 418,15 418,30 418,77 418,131 419,163 419,156 419,113 420,57 420,20 420,21 421,60 421,116 421,158 421,161 422,124 422,68 422,24 423,18 423,53 423,110 424,155 424,162 424,128 424,72 425,26 425,17 425,50 426,105 426,152 426,164 426,135 427,81 427,32 427,15 428,40 428,91 428,142 429,165 429,147 429,99 429,46 430,17 430,26 430,69 431,122 431,159 431,161 432,125 432,72 432,28 432,16 433,40 433,90 433,140 434,164 434,152 434,110 434,58 435,21 435,18 435,50 436,100 436,146 436,165 437,149 437,105 437,54 437,20 438,19 438,49 438,99 439,144 439,165 439,152 440,112 440,62 440,24 440,16 441,40 441,86 441,133 442,162 442,160 442,128 442,81 443,37 443,16 443,25 444,61 444,109 444,149 445,165 445,150 445,112 445,64 446,27 446,15 446,32 447,72 447,118 447,154 448,165 448,147 448,108 448,62 449,27 449,15 449,31 450,68 450,114 450,150 450,165 451,153 451,118 451,74 452,35 452,16 452,22 453,52 453,95 453,136 453,161 454,162 454,140 454,100 455,58 455,26 455,15 456,28 456,62 456,104 456,141 457,163 457,161 457,137 458,99 458,58 458,27 459,15 459,26 459,56 459,96 460,134 460,159 460,164 461,148 461,115 461,75 461,39 462,18 462,17 462,36 463,70 463,109 463,143 464,162 464,162 464,143 464,110 465,72 465,38 465,18 466,17 466,34 466,65 467,103 467,137 467,159 467,165 468,152 468,124 468,89 469,53 469,27 469,15 469,21 470,43 470,75 470,111 471,141 471,161 471,164 472,152 472,125 472,92 472,58 473,31 473,16 473,18 474,34 474,61 474,95 475,127 475,152 475,164 475,162 476,145 476,118 476,86 477,54 477,30 477,17 477,17 478,31 478,56 478,86 479,118 479,144 479,161 480,165 480,156 480,136 480,108 481,77 481,49 481,27 482,16 482,17 482,30 483,52 483,80 483,109 483,136 484,155 484,164 484,162 485,150 485,128 485,101 485,73 486,47 486,27 486,17 487,16 487,26 487,44 488,68 488,96 488,122 488,144 489,159 489,165 489,161 490,149 490,129 490,105 491,79 491,54 491,34 491,21 492,15 492,18 492,30 493,47 493,70 493,95 493,119 494,140 494,155 494,164 495,164 495,158 495,144 496,125 496,103 496,80 496,58 497,39 497,24 497,17 498,15 498,21 498,33 499,49 499,70 499,91 499,113 500,132 500,148 500,159 501,165 501,164 501,158 501,146 502,130 502,112 502,92 503,72 503,53 503,37 504,25 504,18 504,15 504,18 505,25 505,36 505,51 506,68 506,87 506,105 507,122 507,138 507,150 507,159 508,164 508,165 508,161 509,154 509,144 509,131 509,115 510,99 510,82 510,66 511,51 511,39 511,28 512,21 512,16 512,15 512,17 513,22 513,30 513,40 514,53 514,66 514,80 515,95 515,109 515,122 515,134 516,145 516,153 516,159 517,163 517,165 517,164 518,161 518,156 518,149 518,140 519,131 519,120 519,108 520,96 520,84 520,73 520,62 521,51 521,42 521,34 522,27 522,22 522,18 523,16 523,15 523,16 523,18 524,21 524,25 524,90 525,143 525,165 525,143 526,90 526,37 526,15 526,37 527,90 527,143 527,165 528,143 528,90 528,37 528,15 529,37 529,90 529,143 530,165 530,143 530,90 531,37 531,15 531,37 531,90 532,143 532,165 532,143 533,90 533,37 533,15 534,37 534,90 534,143 534,165 535,143 535,90 535,37 536,15 536,37 536,90 536,143 537,165 537,143 537,90 538,37 538,15 538,37 539,90 539,143 539,165 539,143 540,90 540,37 540,15 541,37 541,90 541,143 542,165 542,143 542,90 542,37 543,15 543,37 543,90 544,37 544,15 544,37 544,90 545,143 545,165 545,143 546,90 546,37 546,15 547,37 547,90 547,143 547,165 548,143 548,90 548,37 549,15 549,37 549,90 550,143 550,165 550,143 550,90 551,37 551,15 551,37 552,90 552,143 552,165 552,143 553,90 553,143 553,165 554,143 554,90 554,37 555,15 555,37 555,90 555,143 556,165 556,143 556,90 557,37 557,15 557,37 558,90 558,143 558,165 558,143 559,90 559,37 559,15 560,37 560,90 560,143 560,165 561,143 561,90 561,37 562,15 562,37 562,90 563,37 563,15 563,37 563,90 564,143 564,165 564,143 565,90 565,37 565,15 566,37 566,90 566,143 566,165 567,143 567,90 567,37 568,15 568,37 568,90 569,143 569,165 569,143 569,90 570,37 570,15 570,37 571,90 571,143 571,165 571,143 572,90 572,37 572,15 573,37 573,90 573,143 574,165 574,143 574,90 574,37 575,15 575,37 575,90 576,143 576,165 576,143 577,90 577,37 577,15 577,37 578,90 578,143 578,165 579,143 579,90 579,37 579,15 580,37 580,90 580,143 581,165 581,143 581,90 582,37 582,15 582,37 582,90 583,143 583,165 583,143 584,90 584,37 584,15 585,37 585,90 585,143 585,165 586,143 586,90 586,37 587,15 587,37 587,90 587,143 588,165 588,143 588,90 589,37 589,15 589,37 590,90 590,143 590,165 590,143 591,90 591,37 591,15 592,37 592,90 592,143 593,165 593,143 593,90 593,37 594,15 594,37 594,90 595,143 595,165 595,143 595,90 596,37 596,15 596,37 597,90 597,143 597,165 598,143 598,90 598,37 598,15 599,37 599,90 599,143 600,165 600,143 600,90 601,143 601,165 601,143 601,90 602,37 602,15 602,37 603,90 603,143 603,165 603,143 604,90 604,37 604,15 605,37 605,90 605,143 606,165 606,143 606,90 606,37 607,15 607,37 607,90 608,143 608,165 608,143 609,90 609,37 609,15 609,37 610,90 610,37 610,15 611,37 611,90 611,143 611,165 612,143 612,90 612,37 613,15 613,37 613,90 614,143 614,165 614,143 614,90 615,37 615,15 615,37 616,90 616,143 616,165 617,143 617,90 617,37 617,15 618,37 618,90 618,143 619,165 619,143 619,90 620,143 620,165 620,143 620,90 621,37 621,15 621,37 622,90 622,143 622,165 622,143 623,90 623,37 623,15 624,37 624,90 624,143 625,165 625,143 625,90 625,37 626,15 626,37 626,90 627,143 627,165 627,143 628,90 628,37 628,15 628,37 629,90 629,143 629,165 630,143 630,90 630,37 630,15 631,37 631,90 631,143 632,165 632,143 632,90 633,37 633,15 633,37 633,90 634,143 634,165 634,143 635,90 635,37 635,15 636,37 636,90 636,143 636,165 637,143 637,90 637,37 638,15 638,37 638,90 638,37 639,15 639,37 639,90 640,143 640,165 640,143 641,90 641,37 641,15 641,37 642,90 642,143 642,165 643,143 643,90 643,37 644,15 644,37 644,90 644,143 645,165 645,143 645,90 646,37 646,15 646,37 646,90 647,143 647,165 647,143 648,90 648,143 648,165 649,143 649,90 649,37 649,15 650,37 650,90 650,143 651,165 651,143 651,90 652,37 652,15 652,37 652,90 653,143 653,165 653,143 654,90 654,37 654,15 654,37 655,90 655,143 655,165 656,143 656,90 656,37 657,15 657,37 657,90 657,37 658,15 658,37 658,90 659,143 659,165 659,143 660,90 660,37 660,15 660,37 661,90 661,143 661,165 662,143 662,90 662,37 662,15 663,37 663,90 663,143 664,165 664,143 664,90 665,37 665,15 665,37 665,90 666,143 666,165 666,143 667,90 667,37 667,15 668,37 668,90 668,143 668,165 669,143 669,90 669,37 670,15 670,37 670,90 670,143 671,165 671,143 671,90 672,37 672,15 672,37 673,90 673,143 673,165 673,143 674,90 674,37 674,15 675,37 675,90 675,143 676,165 676,143 676,90 676,37 677,15 677,37 677,90 678,143 678,165 678,143 679,90 679,37 679,15 679,37 680,90 680,143 680,165 681,143 681,90 681,37 681,15 682,37 682,90 682,143 683,165 683,143 683,90 684,37 684,15 684,37 684,90 685,143 685,165 685,143 686,90 686,37 686,15 687,37 687,90 687,143 687,165 688,143 688,90 688,37 689,15 689,37 689,90 689,143 690,165 690,143 690,90 691,37 691,15 691,37 692,90 692,143 692,165 692,143 693,90 693,37 693,15 694,37 694,90 694,143 695,165 695,143 695,90 695,37 696,15 696,37 696,90 697,143 697,165 697,143 697,90 698,37 698,15 698,37 699,90 699,143 699,165 700,143 700,90 700,37 700,15 701,37 701,90 701,143 702,165 702,143 702,90 703,37 703,15 703,37 703,90 704,143 704,165 704,143 705,90 705,143 705,165 705,143 706,90 706,37 706,15 707,37 707,90 707,143 708,165 708,143 708,90 708,37 709,15 709,37 709,90 710,143 710,165 710,143 711,90 711,37 711,15 711,37 712,90 712,143 712,165 713,143 713,90 713,37 713,15 714,37 714,90 714,143 715,165 715,143 715,90 716,37 716,15 716,37 716,90 717,143 717,165 717,143 718,90 718,37 718,15 719,37 719,90 719,143 719,165 720,143 720,90 720,37 721,15 721,37 721,90 721,143 722,165 722,143 722,90 723,37 723,15 723,37 724,90 724,37 724,15 724,37 725,90 725,143 725,165 726,143 726,90 726,37 727,15 727,37 727,90 727,143 728,165 728,143 728,90 729,37 729,15 729,37 730,90 730,143 730,165 730,143 731,90 731,37 731,15 732,37 732,90 732,143 732,165 733,143 733,90 733,37 734,15 734,37 734,90 735,143 735,165 735,143 735,90 736,37 736,15 736,37 737,90 737,143 737,165 738,143 738,90 738,37 738,15 739,37 739,90 739,143 740,165 740,143 740,90 740,37 741,15 741,37 741,90 742,143 742,165 742,143 743,90 743,37 743,15 743,37 744,90 744,143 744,165 745,143 745,90 745,37 746,15 746,37 746,90 746,143 747,165 747,143 747,90 748,37 748,15 748,37 748,90 749,143 749,165 749,143 750,90 750,37 750,15 751,37 751,90 751,143 751,165 752,143 752,90 752,37 753,15 753,37 753,90 754,143 754,165 754,143 754,90 755,37 755,15 755,37 756,90 756,143 756,165 756,143 757,90 757,37 757,15 758,37 758,90 758,143 759,165 759,143 759,90 759,37 760,15 760,37 760,90 761,143 761,165 761,143 762,90 762,143 762,165 762,143 763,90 763,37 763,15 764,37 764,90 764,143 764,165 765,143 765,90 765,37 766,15 766,37 766,90 767,143 767,165 767,143 767,90 768,37 768,15 768,37 769,90 769,143 769,165 770,143 770,90 770,37 770,15 771,37 771,90 771,143 772,165 772,143 772,90 772,37 773,15 773,37 773,90 774,143 774,165 774,143 775,90 775,37 775,15 775,37 776,90 776,143 776,165 777,143 777,90 777,37 778,15 778,37 778,90 778,143 779,165 779,143 779,90 780,37 780,15 780,37 781,90 781,37 781,15 781,37 782,90 782,143 782,165 783,143 783,90 783,37 783,15 784,37 784,90 784,143 785,165 785,143 785,90 786,37 786,15 786,37 786,90 787,143 787,165 787,143 788,90 788,37 788,15 789,37 789,90 789,143 789,165 790,143 790,90 790,143 791,165 791,143 791,90 791,37 792,15 792,37 792,90 793,143 793,165 793,143 794,90 794,37 794,15 794,37 795,90 795,143 795,165 796,143 796,90 796,37 797,15 797,37 797,90 797,143 798,165 798,143 798,90 799,37 799,15 799,37 799,90 800,37 800,15 800,37 801,90 801,143 801,165 802,143 802,90 802,37 802,15 803,37 803,90 803,143 804,165 804,143 804,90 805,37 805,15 805,37 805,90 806,143 806,165 806,143 807,90 807,37 807,15 807,37 808,90 808,143 808,165 809,143 809,90 809,37 810,15 810,37 810,90 810,143 811,165 811,143 811,90 812,37 812,15 812,37 813,90 813,143 813,165 813,143 814,90 814,37 814,15 815,37 815,90 815,143 815,165 816,143 816,90 816,37 817,15 817,37 817,90 818,143 818,165 818,143 818,90 819,37 819,15 819,37 820,90 820,143 820,165 821,143 821,90 821,37 821,15 822,37 822,90 822,143 823,165 823,143 823,90 823,37 824,15 824,37 824,90 825,143 825,165 825,143 826,90 826,37 826,15 826,37 827,90 827,143 827,165 828,143 828,90 828,37 829,15 829,37 829,90 829,143 830,165 830,143 830,90 831,37 831,15 831,37 831,90 832,143 832,165 832,143 833,90 833,37 833,15 834,37 834,90 834,143 834,165 835,143 835,90 835,37 836,15 836,37 836,90 837,143 837,165 837,143 837,90 838,37 838,15 838,37 839,90 839,143 839,165 840,143 840,90 840,37 840,15 841,37 841,90 841,143 842,165 842,143 842,90 842,37 843,15 843,37 843,90 844,143 844,165 844,143 845,90 845,37 845,15 845,37 846,90 846,143 846,165 847,143 847,90 847,143 848,165 848,143 848,90 848,37 849,15 849,37 849,90 850,143 850,165 850,143 850,90 851,37 851,15 851,37 852,90 852,143 852,165 853,143 853,90 853,37 853,15 854,37 854,90 854,143 855,165 855,143 855,90 856,37 856,15 856,37 856,90 857,37 857,15 857,37 858,90 858,143 858,165 858,143 859,90 859,37 859,15 860,37 860,90 860,143 861,165 861,143 861,90 861,37 862,15 862,37 862,90 863,143 863,165 863,143 864,90 864,37 864,15 864,37 865,90 865,143 865,165 866,143 866,90 866,37 866,15 867,37 867,90 867,143 868,165 868,143 868,90 869,37 869,15 869,37 869,90 870,143 870,165 870,143 871,90 871,37 871,15 872,37 872,90 872,143 872,165 873,143 873,90 873,37 874,15 874,37 874,90 874,143 875,165 875,143 875,90 876,37 876,15 876,37 877,90 877,143 877,165 877,143 878,90 878,37 878,15 879,37 879,90 879,143 880,165 880,143 880,90 880,37 881,15 881,37 881,90 882,143 882,165 882,143 882,90 883,37 883,15 883,37 884,90 884,143 884,165 885,143 885,90 885,37 885,15 886,37 886,90 886,143 887,165 887,143 887,90 888,37 888,15 888,37 888,90 889,143 889,165 889,143 890,90 890,37 890,15 891,37 891,90 891,143 891,165 892,143 892,90 892,37 893,15 893,37 893,90 893,143 894,165 894,143 894,90 895,143 895,165 895,143 896,90 896,37 896,15 896,37 897,90 897,143 897,165 898,143 898,90 898,37 899,15 899,37 899,90 899,143 900,165 900,143 900,90 901,37 901,15 901,37 901,90 902,143 902,165 902,143 903,90 903,37 903,15 904,37 904,90 904,37 904,15 905,37 905,90 905,143 906,165 906,143 906,90 907,37 907,15 907,37 907,90 908,143 908,165 908,143 909,90 909,37 909,15 909,37 910,90 910,143 910,165 911,143 911,90 911,37 912,15 912,37 912,90 912,143 913,165 913,143 913,90 914,37 914,15 914,37 915,90 915,143 915,165 915,143 916,90 916,37 916,15 917,37 917,90 917,143 917,165 918,143 918,90 918,37 919,15 919,37 919,90 920,143 920,165 920,143 920,90 921,37 921,15 921,37 922,90 922,143 922,165 923,143 923,90 923,37 923,15 924,37 924,90 924,143 925,165 925,143 925,90 925,37 926,15 926,37 926,90 927,143 927,165 927,143 928,90 928,37 928,15 928,37 929,90 929,143 929,165 930,143 930,90 930,37 931,15 931,37 931,90 931,143 932,165 932,143 932,90 933,143 933,165 933,143 933,90 934,37 934,15 934,37 935,90 935,143 935,165 936,143 936,90 936,37 936,15 937,37 937,90 937,143 938,165 938,143 938,90 939,37 939,15 939,37 939,90 940,143 940,165 940,143 941,90 941,37 941,15 941,37 942,90 942,143 942,165 943,143 943,90 943,37 944,15 944,37 944,90 944,143 945,165 945,143 945,90 946,37 946,15 946,37 947,90 947,143 947,165 947,143 948,90 948,37 948,15 949,37 949,90 949,143 950,165 950,143 950,90 950,37 951,15 951,37 951,90 952,37 952,15 952,37 952,90 953,143 953,165 953,143 954,90 954,37 954,15 955,37 955,90 955,143 955,165 956,143 956,90 956,37 957,15 957,37 957,90 958,143 958,165 958,143 958,90 959,37 959,15 959,37 960,90 960,143 960,165 960,143 961,90 961,143 961,165 962,143 962,90 962,37 963,15 963,37 963,90 963,143 964,165 964,143 964,90 965,37 965,15 965,37 966,90 966,143 966,165 966,143 967,90 967,37 967,15 968,37 968,90 968,143 968,165 969,143 969,90 969,37 970,15 970,37 970,90 971,143 971,165 971,143 971,90 972,37 972,15 972,37 973,90 973,143 973,165 974,143 974,90 974,37 974,15 975,37 975,90 975,143 976,165 976,143 976,90 976,37 977,15 977,37 977,90 978,143 978,165 978,143 979,90 979,37 979,15 979,37 980,90 980,143 980,165 981,143 981,90 981,37 982,15 982,37 982,90 982,143 983,165 983,143 983,90 984,37 984,15 984,37 984,90 985,143 985,165 985,143 986,90 986,37 986,15 987,37 987,90 987,143 987,165 988,143 988,90 988,37 989,15 989,37 989,90 990,37 990,15 990,37 990,90 991,143 991,165 991,143 992,90 992,37 992,15 992,37 993,90 993,143 993,165 994,143 994,90 994,37 995,15 995,37 995,90 995,143 996,165 996,143 996,90 997,37 997,15 997,37 998,90 998,143 998,165 998,143 999,90 999,37 999,15 1000,37 1000,90 1000,143 1001,165 1001,143 1001,90 1001,37 1002,15 1002,37 1002,90 1003,143 1003,165 1003,143 1003,90 1004,37 1004,15 1004,37 1005,90 1005,143 1005,165 1006,143 1006,90 1006,37 1006,15 1007,37 1007,90 1007,143 1008,165 1008,143 1008,90 1009,37 1009,15 1009,37 1009,90 1010,143 1010,165 1010,143 1011,90 1011,37 1011,15 1011,37 1012,90 1012,143 1012,165 1013,143 1013,90 1013,37 1014,15 1014,37 1014,90 1014,143 1015,165 1015,143 1015,90 1016,37 1016,15 1016,37 1017,90 1017,143 1017,165 1017,143 1018,90 1018,143 1018,165 1019,143 1019,90 1019,37 1019,15 1020,37 1020,90 1020,143 1021,165 1021,143 1021,90 1022,37 1022,15 1022,37 1022,90 1023,143 1023,165 1023,143 1024,90 1024,37 1024,15 1025,37 1025,90 1025,143 1025,165 1026,143 1026,90 1026,37 1027,15 1027,37 1027,90 1027,37 1028,15 1028,37 1028,90 1029,143 1029,165 1029,143 1030,90 1030,37 1030,15 1030,37 1031,90 1031,143 1031,165 1032,143 1032,90 1032,37 1033,15 1033,37 1033,90 1033,143 1034,165 1034,143 1034,90 1035,37 1035,15 1035,37 1035,90 1036,143 1036,165 1036,143 1037,90 1037,143 1037,165 1038,143 1038,90 1038,37 1038,15 1039,37 1039,90 1039,143 1040,165 1040,143 1040,90 1041,37 1041,15 1041,37 1041,90 1042,143 1042,165 1042,143 1043,90 1043,37 1043,15 1043,37 1044,90 1044,143 1044,165 1045,143 1045,90 1045,37 1046,15 1046,37 1046,90 1046,143 1047,165 1047,143 1047,90 1048,37 1048,15 1048,37 1049,90 1049,143 1049,165 1049,143 1050,90 1050,37 1050,15 1051,37 1051,90 1051,143 1052,165 1052,143 1052,90 1052,37 1053,15 1053,37 1053,90 1054,143 1054,165 1054,143 1054,90 1055,37 1055,15 1055,37 1056,90 1056,143 1056,165 1057,143 1057,90 1057,37 1057,15 1058,37 1058,90 1058,143 1059,165 1059,143 1059,90 1060,37 1060,15 1060,37 1060,90 1061,143 1061,165 1061,143 1062,90 1062,37 1062,15 1062,37 1063,90 1063,143 1063,165 1064,143 1064,90 1064,37 1065,15 1065,37 1065,90 1065,37 1066,15 1066,37 1066,90 1067,143 1067,165 1067,143 1068,90 1068,37 1068,15 1068,37 1069,90 1069,143 1069,165 1070,143 1070,90 1070,37 1070,15 1071,37 1071,90 1071,143 1072,165 1072,143 1072,90 1073,37 1073,15 1073,37 1073,90 1074,143 1074,165 1074,143 1075,90 1075,143 1075,165 1076,143 1076,90 1076,37 1076,15 1077,37 1077,90 1077,143 1078,165 1078,143 1078,90 1078,37 1079,15 1079,37 1079,90 1080,143 1080,165 1080,143 1081,90 1081,37 1081,15 1081,37 1082,90 1082,143 1082,165 1083,143 1083,90 1083,37 1084,15 1084,37 1084,90 1084,143 1085,165 1085,143 1085,90 1086,37 1086,15 1086,37 1086,90 1087,143 1087,165 1087,143 1088,90 1088,37 1088,15 1089,37 1089,90 1089,143 1089,165 1090,143 1090,90 1090,37 1091,15 1091,37 1091,90 1092,143 1092,165 1092,143 1092,90 1093,37 1093,15 1093,37 1094,90 1094,143 1094,165 1094,143 1095,90 1095,37 1095,15 1096,37 1096,90 1096,143 1097,165 1097,143 1097,90 1097,37 1098,15 1098,37 1098,90 1099,143 1099,165 1099,143 1100,90 1100,37 1100,15 1100,37 1101,90 1101,143 1101,165 1102,143 1102,90 1102,37 1102,15 1103,37 1103,90 1103,143 1104,165 1104,143 1104,90 1105,37 1105,15 1105,37 1105,90 1106,143 1106,165 1106,143 1107,90 1107,37 1107,15 1108,37 1108,90 1108,143 1108,165 1109,143 1109,90 1109,37 1110,15 1110,37 1110,90 1111,143 1111,165 1111,143 1111,90 1112,37 1112,15 1112,37 1113,90 1113,143 1113,165 1113,143 1114,90 1114,37 1114,15 1115,37 1115,90 1115,143 1116,165 1116,143 1116,90 1116,37 1117,15 1117,37 1117,90 1118,143 1118,165 1118,143 1119,90 1119,37 1119,15 1119,37 1120,90 1120,143 1120,165 1121,143 1121,90 1121,37 1121,15 1122,37 1122,90 1122,143 1123,165 1123,143 1123,90 1124,37 1124,15 1124,37 1124,90 1125,143 1125,165 1125,143 1126,90 1126,37 1126,15 1127,37 1127,90 1127,143 1127,165 1128,143 1128,90 1128,37 1129,15 1129,37 1129,90 1129,143 1130,165 1130,143 1130,90 1131,37 1131,15 1131,37 1132,90 1132,143 1132,165 1132,143 1133,90 1133,37 1133,15 1134,37 1134,90 1134,143 1135,165 1135,143 1135,90 1135,37 1136,15 1136,37 1136,90 1137,143 1137,165 1137,143 1137,90 1138,37 1138,15 1138,37 1139,90 1139,143 1139,165 1140,143 1140,90 1140,37 1140,15 1141,37 1141,90 1141,37 1142,15 1142,37 1142,90 1143,143 1143,165 1143,143 1143,90 1144,37 1144,15 1144,37 1145,90 1145,143 1145,165 1145,143 1146,90 1146,37 1146,15 1147,37 1147,90 1147,143 1148,165 1148,143 1148,90 1148,37 1149,15 1149,37 1149,90 1150,143 1150,165 1150,143 1151,90 1151,143 1151,165 1151,143 1152,90 1152,37 1152,15 1153,37 1153,90 1153,143 1153,165 1154,143 1154,90 1154,37 1155,15 1155,37 1155,90 1156,143 1156,165 1156,143 1156,90 1157,37 1157,15 1157,37 1158,90 1158,143 1158,165 1159,143 1159,90 1159,37 1159,15 1160,37 1160,90 1160,37 1161,15 1161,37 1161,90 1162,143 1162,165 1162,143 1162,90 1163,37 1163,15 1163,37 1164,90 1164,143 1164,165 1164,143 1165,90 1165,37 1165,15 1166,37 1166,90 1166,143 1167,165 1167,143 1167,90 1167,37 1168,15 1168,37 1168,90 1169,143 1169,165 1169,143 1170,90 1170,37 1170,15 1170,37 1171,90 1171,143 1171,165 1172,143 1172,90 1172,37 1172,15 1173,37 1173,90 1173,143 1174,165 1174,143 1174,90 1175,37 1175,15 1175,37 1175,90 1176,143 1176,165 1176,143 1177,90 1177,37 1177,15 1178,37 1178,90 1178,143 1178,165 1179,143 1179,90 1179,37 1180,15 1180,37 1180,90 1180,143 1181,165 1181,143 1181,90 1182,37 1182,15 1182,37 1183,90 1183,143 1183,165 1183,143 1184,90 1184,37 1184,15 1185,37 1185,90 1185,143 1186,165 1186,143 1186,90 1186,37 1187,15 1187,37 1187,90 1188,143 1188,165 1188,143 1188,90 1189,37 1189,15 1189,37 1190,90 1190,143 1190,165 1191,143 1191,90 1191,37 1191,15 1192,37 1192,90 1192,143 1193,165 1193,143 1193,90 1194,37 1194,15 1194,37 1194,90 1195,143 1195,165 1195,143 1196,90 1196,37 1196,15 1196,37 1197,90 1197,143 1197,165 1198,143 1198,90 1198,143 1199,165 1199,143 1199,90 1199,37 1200,15 1200,37 1200,90 1201,143 1201,165 1201,143 1202,90 1202,37 1202,15 1202,37 1203,90 1203,143 1203,165 1204,143 1204,90 1204,37 1204,15 1205,37 1205,90 1205,143 1206,165 1206,143 1206,90 1207,37 1207,15 1207,37 1207,90 1208,37 1208,15 1208,37 1209,90 1209,143 1209,165 1210,143 1210,90 1210,37 1210,15 1211,37 1211,90 1211,143 1212,165 1212,143 1212,90 1213,37 1213,15 1213,37 1213,90 1214,143 1214,165 1214,143 1215,90 1215,37 1215,15 1215,37 1216,90 1216,143 1216,165 1217,143 1217,90 1217,143 1218,165 1218,143 1218,90 1218,37 1219,15 1219,37 1219,90 1220,143 1220,165 1220,143 1221,90 1221,37 1221,15 1221,37 1222,90 1222,143 1222,165 1223,143 1223,90 1223,37 1223,15 1224,37 1224,90 1224,143 1225,165 1225,143 1225,90 1226,37 1226,15 1226,37 1226,90 1227,37 1227,15 1227,37 1228,90 1228,143 1228,165 1229,143 1229,90 1229,37 1229,15 1230,37 1230,90 1230,143 1231,165 1231,143 1231,90 1231,37 1232,15 1232,37 1232,90 1233,143 1233,165 1233,143 1234,90 1234,37 1234,15 1234,37 1235,90 1235,143 1235,165 1236,143 1236,90 1236,37 1237,15 1237,37 1237,90 1237,143 1238,165 1238,143 1238,90 1239,37 1239,15 1239,37 1239,90 1240,143 1240,165 1240,143 1241,90 1241,37 1241,15 1242,37 1242,90 1242,143 1242,165 1243,143 1243,90 1243,37 1244,15 1244,37 1244,90 1245,143 1245,165 1245,143 1245,90 1246,143 1246,165 1246,143 1247,90 1247,37 1247,15 1247,37 1248,90 1248,143 1248,165 1249,143 1249,90 1249,37 1250,15 1250,37 1250,90 1250,143 1251,165 1251,143 1251,90 1252,37 1252,15 1252,37 1253,90 1253,143 1253,165 1253,143 1254,90 1254,37 1254,15 1255,37 1255,90 1255,143 1255,165 1256,143 1256,90 1256,37 1257,15 1257,37 1257,90 1258,143 1258,165 1258,143 1258,90 1259,37 1259,15 1259,37 1260,90 1260,143 1260,165 1261,143 1261,90 1261,37 1261,15 1262,37 1262,90 1262,143 1263,165 1263,143 1263,90 1263,37 1264,15 1264,37 1264,90 1265,143 1265,165 1265,143 1266,90 1266,37 1266,15 1266,37 1267,90 1267,143 1267,165 1268,143 1268,90 1268,37 1269,15 1269,37 1269,90 1269,143 1270,165 1270,143 1270,90 1271,37 1271,15 1271,37 1272,90 1272,143 1272,165 1272,143 1273,90 1273,37 1273,15 1274,37 1274,90 1274,143 1274,165 1275,143 1275,90 1275,37 1276,15 1276,37 1276,90 1277,143 1277,165 1277,143 1277,90 1278,37 1278,15 1278,37 1279,90 1279,143 1279,165 1280,143 1280,90 1280,37 1280,15 1281,37 1281,90 1281,143 1282,165 1282,143 1282,90 1282,37 1283,15 1283,37 1283,90 1284,37 1284,15 1284,37 1285,90 1285,143 1285,165 1285,143 1286,90 1286,37 1286,15 1287,37 1287,90 1287,143 1288,165 1288,143 1288,90 1288,37 1289,15 1289,37 1289,90 1290,143 1290,165 1290,143 1290,90 1291,37 1291,15 1291,37 1292,90 1292,143 1292,165 1293,143 1293,90 1293,37 1293,15 1294,37 1294,90 1294,143 1295,165 1295,143 1295,90 1296,37 1296,15 1296,37 1296,90 1297,143 1297,165 1297,143 1298,90 1298,37 1298,15 1298,37 1299,90 1299,143 1299,165 1300,143 1300,90 1300,37 1301,15 1301,37 1301,90 1301,143 1302,165 1302,143 1302,90 1303,143 1303,165 1303,143 1304,90 1304,37 1304,15 1304,37 1305,90 1305,143 1305,165 1306,143 1306,90 1306,37 1306,15 1307,37 1307,90 1307,143 1308,165 1308,143 1308,90 1309,37 1309,15 1309,37 1309,90 1310,143 1310,165 1310,143 1311,90 1311,37 1311,15 1312,37 1312,90 1312,37 1312,15 1313,37 1313,90 1313,143 1314,165 1314,143 1314,90 1314,37 1315,15 1315,37 1315,90 1316,143 1316,165 1316,143 1317,90 1317,37 1317,15 1317,37 1318,90 1318,143 1318,165 1319,143 1319,90 1319,37 1320,15 1320,37 1320,90 1320,143 1321,165 1321,143 1321,90 1322,143 1322,165 1322,143 1323,90 1323,37 1323,15 1323,37 1324,90 1324,143 1324,165 1325,143 1325,90 1325,37 1325,15 1326,37 1326,90 1326,143 1327,165 1327,143 1327,90 1328,37 1328,15 1328,37 1328,90 1329,143 1329,165 1329,143 1330,90 1330,37 1330,15 1331,37 1331,90 1331,143 1331,165 1332,143 1332,90 1332,37 1333,15 1333,37 1333,90 1333,143 1334,165 1334,143 1334,90 1335,37 1335,15 1335,37 1336,90 1336,143 1336,165 1336,143 1337,90 1337,37 1337,15 1338,37 1338,90 1338,143 1339,165 1339,143 1339,90 1339,37 1340,15 1340,37 1340,90 1341,143 1341,165 1341,143 1341,90 1342,37 1342,15 1342,37 1343,90 1343,143 1343,165 1344,143 1344,90 1344,37 1344,15 1345,37 1345,90 1345,143 1346,165 1346,143 1346,90 1347,37 1347,15 1347,37 1347,90 1348,143 1348,165 1348,143 1349,90 1349,37 1349,15 1349,37 1350,90 1350,143 1350,165 1351,143 1351,90 1351,37 1352,15 1352,37 1352,90 1352,143 1353,165 1353,143 1353,90 1354,37 1354,15 1354,37 1355,90 1355,143 1355,165 1355,143 1356,90 1356,37 1356,15 1357,37 1357,90 1357,143 1357,165 1358,143 1358,90 1358,37 1359,15 1359,37 1359,90 1360,143 1360,165 1360,143 1360,90 1361,37 1361,15 1361,37 1362,90 1362,143 1362,165 1363,143 1363,90 1363,37 1363,15 1364,37 1364,90 1364,143 1365,165 1365,143 1365,90 1365,37 1366,15 1366,37 1366,90 1367,143 1367,165 1367,143 1368,90 1368,37 1368,15 1368,37 1369,90 1369,37 1369,15 1370,37 1370,90 1370,143 1371,165 1371,143 1371,90 1371,37 1372,15 1372,37 1372,90 1373,143 1373,165 1373,143 1374,90 1374,37 1374,15 1374,37 1375,90 1375,143 1375,165 1376,143 1376,90 1376,37 1376,15 1377,37 1377,90 1377,143 1378,165 1378,143 1378,90 1379,143 1379,165 1379,143 1379,90 1380,37 1380,15 1380,37 1381,90 1381,143 1381,165 1382,143 1382,90 1382,37 1382,15 1383,37 1383,90 1383,143 1384,165 1384,143 1384,90 1384,37 1385,15 1385,37 1385,90 1386,143 1386,165 1386,143 1387,90 1387,37 1387,15 1387,37 1388,90 1388,143 1388,165 1389,143 1389,90 1389,37 1390,15 1390,37 1390,90 1390,143 1391,165 1391,143 1391,90 1392,37 1392,15 1392,37 1392,90 1393,143 1393,165 1393,143 1394,90 1394,37 1394,15 1395,37 1395,90 1395,143 1395,165 1396,143 1396,90 1396,37 1397,15 1397,37 1397,90 1398,143 1398,165 1398,143 1398,90 1399,37 1399,15 1399,37 1400,90 1400,143 1400,165 1400,143 1401,90 1401,37 1401,15 1402,37 1402,90 1402,143 1403,165 1403,143 1403,90 1403,37 1404,15 1404,37 1404,90 1405,143 1405,165 1405,143 1406,90 1406,37 1406,15 1406,37 1407,90 1407,37 1407,15 1408,37 1408,90 1408,143 1408,165 1409,143 1409,90 1409,37 1410,15 1410,37 1410,90 1411,143 1411,165 1411,143 1411,90 1412,37 1412,15 1412,37 1413,90 1413,143 1413,165 1414,143 1414,90 1414,37 1414,15 1415,37 1415,90 1415,143 1416,165 1416,143 1416,90 1416,37 1417,15 1417,37 1417,90 1418,143 1418,165 1418,143 1419,90 1419,37 1419,15 1419,37 1420,90 1420,143 1420,165 1421,143 1421,90 1421,37 1422,15 1422,37 1422,90 1422,143 1423,165 1423,143 1423,90 1424,37 1424,15 1424,37 1424,90 1425,143 1425,165 1425,143 1426,90 1426,143 1426,165 1427,143 1427,90 1427,37 1427,15 1428,37 1428,90 1428,143 1429,165 1429,143 1429,90 1430,37 1430,15 1430,37 1430,90 1431,143 1431,165 1431,143 1432,90 1432,37 1432,15 1433,37 1433,90 1433,143 1433,165 1434,143 1434,90 1434,37 1435,15 1435,37 1435,90 1435,143 1436,165 1436,143 1436,90 1437,37 1437,15 1437,37 1438,90 1438,143 1438,165 1438,143 1439,90 1439,37 1439,15 1440,37 1440,90 1440,143 1441,165 1441,143 1441,90 1441,37 1442,15 1442,37 1442,90 1443,143 1443,165 1443,143 1443,90 1444,37 1444,15 1444,37 1445,90 1445,143 1445,165 1446,143 1446,90 1446,37 1446,15 1447,37 1447,90 1447,143 1448,165 1448,143 1448,90 1449,37 1449,15 1449,37 1449,90 1450,143 1450,165 1450,143 1451,90 1451,37 1451,15 1451,37 1452,90 1452,143 1452,165 1453,143 1453,90 1453,37 1454,15 1454,37 1454,90 1454,143 1455,165 1455,143 1455,90 1456,37 1456,15 1456,37 1457,90 1457,143 1457,165 1457,143 1458,90 1458,37 1458,15 1459,37 1459,90 1459,143 1459,165 1460,143 1460,90 1460,37 1461,15 1461,37 1461,90 1462,143 1462,165 1462,143 1462,90 1463,37 1463,15 1463,37 1464,90 1464,37 1464,15 1465,37 1465,90 1465,143 1465,165 1466,143 1466,90 1466,37 1467,15 1467,37 1467,90 1467,143 1468,165 1468,143 1468,90 1469,37 1469,15 1469,37 1470,90 1470,143 1470,165 1470,143 1471,90 1471,37 1471,15 1472,37 1472,90 1472,143 1473,165 1473,143 "/>
<rect x="2943" y="12" width="45" height="40" opacity="0.1" fill="#0000FF" stroke="none"/>
<rect x="2943" y="12" width="45" height="40" opacity="1" fill="none" stroke="#0000FF"/>
</svg>
