<svg width="3000" height="200" viewBox="0 0 3000 200" xmlns="http://www.w3.org/2000/svg">
<rect x="0" y="0" width="3000" height="200" opacity="1" fill="#FFFFFF" stroke="none"/>
<line opacity="0.1" stroke="#000000" stroke-width="1" x1="27" y1="172" x2="27" y2="7"/>
<line opacity="0.1" stroke="#000000" stroke-width="1" x1="56" y1="172" x2="56" y2="7"/>
<line opacity="0.1" stroke="#000000" stroke-width="1" x1="86" y1="172" x2="86" y2="7"/>
<line opacity="0.1" stroke="#000000" stroke-width="1" x1="115" y1="172" x2="115" y2="7"/>
<line opacity="0.1" stroke="#000000" stroke-width="1" x1="145" y1="172" x2="145" y2="7"/>
<line opacity="0.1" stroke="#000000" stroke-width="1" x1="175" y1="172" x2="175" y2="7"/>
<line opacity="0.1" stroke="#000000" stroke-width="1" x1="204" y1="172" x2="204" y2="7"/>
<line opacity="0.1" stroke="#000000" stroke-width="1" x1="234" y1="172" x2="234" y2="7"/>
<line opacity="0.1" stroke="#000000" stroke-width="1" x1="264" y1="172" x2="264" y2="7"/>
<line opacity="0.1" stroke="#000000" stroke-width="1" x1="293" y1="172" x2="293" y2="7"/>
<line opacity="0.1" stroke="#000000" stroke-width="1" x1="323" y1="172" x2="323" y2="7"/>
<line opacity="0.1" stroke="#000000" stroke-width="1" x1="353" y1="172" x2="353" y2="7"/>
<line opacity="0.1" stroke="#000000" stroke-width="1" x1="382" y1="172" x2="382" y2="7"/>
<line opacity="0.1" stroke="#000000" stroke-width="1" x1="412" y1="172" x2="412" y2="7"/>
<line opacity="0.1" stroke="#000000" stroke-width="1" x1="442" y1="172" x2="442" y2="7"/>
<line opacity="0.1" stroke="#000000" stroke-width="1" x1="471" y1="172" x2="471" y2="7"/>
<line opacity="0.1" stroke="#000000" stroke-width="1" x1="501" y1="172" x2="501" y2="7"/>
<line opacity="0.1" stroke="#000000" stroke-width="1" x1="531" y1="172" x2="531" y2="7"/>
<line opacity="0.1" stroke="#000000" stroke-width="1" x1="560" y1="172" x2="560" y2="7"/>
<line opacity="0.1" stroke="#000000" stroke-width="1" x1="590" y1="172" x2="590" y2="7"/>
<line opacity="0.1" stroke="#000000" stroke-width="1" x1="620" y1="172" x2="620" y2="7"/>
<line opacity="0.1" stroke="#000000" stroke-width="1" x1="649" y1="172" x2="649" y2="7"/>
<line opacity="0.1" stroke="#000000" stroke-width="1" x1="679" y1="172" x2="679" y2="7"/>
<line opacity="0.1" stroke="#000000" stroke-width="1" x1="708" y1="172" x2="708" y2="7"/>
<line opacity="0.1" stroke="#000000" stroke-width="1" x1="738" y1="172" x2="738" y2="7"/>
<line opacity="0.1" stroke="#000000" stroke-width="1" x1="768" y1="172" x2="768" y2="7"/>
<line opacity="0.1" stroke="#000000" stroke-width="1" x1="797" y1="172" x2="797" y2="7"/>
<line opacity="0.1" stroke="#000000" stroke-width="1" x1="827" y1="172" x2="827" y2="7"/>
<line opacity="0.1" stroke="#000000" stroke-width="1" x1="857" y1="172" x2="857" y2="7"/>
<line opacity="0.1" stroke="#000000" stroke-width="1" x1="886" y1="172" x2="886" y2="7"/>
<line opacity="0.1" stroke="#000000" stroke-width="1" x1="916" y1="172" x2="916" y2="7"/>
<line opacity="0.1" stroke="#000000" stroke-width="1" x1="946" y1="172" x2="946" y2="7"/>
<line opacity="0.1" stroke="#000000" stroke-width="1" x1="975" y1="172" x2="975" y2="7"/>
<line opacity="0.1" stroke="#000000" stroke-width="1" x1="1005" y1="172" x2="1005" y2="7"/>
<line opacity="0.1" stroke="#000000" stroke-width="1" x1="1035" y1="172" x2="1035" y2="7"/>
<line opacity="0.1" stroke="#000000" stroke-width="1" x1="1064" y1="172" x2="1064" y2="7"/>
<line opacity="0.1" stroke="#000000" stroke-width="1" x1="1094" y1="172" x2="1094" y2="7"/>
<line opacity="0.1" stroke="#000000" stroke-width="1" x1="1124" y1="172" x2="1124" y2="7"/>
<line opacity="0.1" stroke="#000000" stroke-width="1" x1="1153" y1="172" x2="1153" y2="7"/>
<line opacity="0.1" stroke="#000000" stroke-width="1" x1="1183" y1="172" x2="1183" y2="7"/>
<line opacity="0.1" stroke="#000000" stroke-width="1" x1="1213" y1="172" x2="1213" y2="7"/>
<line opacity="0.1" stroke="#000000" stroke-width="1" x1="1242" y1="172" x2="1242" y2="7"/>
<line opacity="0.1" stroke="#000000" stroke-width="1" x1="1272" y1="172" x2="1272" y2="7"/>
<line opacity="0.1" stroke="#000000" stroke-width="1" x1="1301" y1="172" x2="1301" y2="7"/>
<line opacity="0.1" stroke="#000000" stroke-width="1" x1="1331" y1="172" x2="1331" y2="7"/>
<line opacity="0.1" stroke="#000000" stroke-width="1" x1="1361" y1="172" x2="1361" y2="7"/>
<line opacity="0.1" stroke="#000000" stroke-width="1" x1="1390" y1="172" x2="1390" y2="7"/>
<line opacity="0.1" stroke="#000000" stroke-width="1" x1="1420" y1="172" x2="1420" y2="7"/>
<line opacity="0.1" stroke="#000000" stroke-width="1" x1="1450" y1="172" x2="1450" y2="7"/>
<line opacity="0.1" stroke="#000000" stroke-width="1" x1="1479" y1="172" x2="1479" y2="7"/>
<line opacity="0.1" stroke="#000000" stroke-width="1" x1="1509" y1="172" x2="1509" y2="7"/>
<line opacity="0.1" stroke="#000000" stroke-width="1" x1="1539" y1="172" x2="1539" y2="7"/>
<line opacity="0.1" stroke="#000000" stroke-width="1" x1="1568" y1="172" x2="1568" y2="7"/>
<line opacity="0.1" stroke="#000000" stroke-width="1" x1="1598" y1="172" x2="1598" y2="7"/>
<line opacity="0.1" stroke="#000000" stroke-width="1" x1="1628" y1="172" x2="1628" y2="7"/>
<line opacity="0.1" stroke="#000000" stroke-width="1" x1="1657" y1="172" x2="1657" y2="7"/>
<line opacity="0.1" stroke="#000000" stroke-width="1" x1="1687" y1="172" x2="1687" y2="7"/>
<line opacity="0.1" stroke="#000000" stroke-width="1" x1="1717" y1="172" x2="1717" y2="7"/>
<line opacity="0.1" stroke="#000000" stroke-width="1" x1="1746" y1="172" x2="1746" y2="7"/>
<line opacity="0.1" stroke="#000000" stroke-width="1" x1="1776" y1="172" x2="1776" y2="7"/>
<line opacity="0.1" stroke="#000000" stroke-width="1" x1="1806" y1="172" x2="1806" y2="7"/>
<line opacity="0.1" stroke="#000000" stroke-width="1" x1="1835" y1="172" x2="1835" y2="7"/>
<line opacity="0.1" stroke="#000000" stroke-width="1" x1="1865" y1="172" x2="1865" y2="7"/>
<line opacity="0.1" stroke="#000000" stroke-width="1" x1="1894" y1="172" x2="1894" y2="7"/>
<line opacity="0.1" stroke="#000000" stroke-width="1" x1="1924" y1="172" x2="1924" y2="7"/>
<line opacity="0.1" stroke="#000000" stroke-width="1" x1="1954" y1="172" x2="1954" y2="7"/>
<line opacity="0.1" stroke="#000000" stroke-width="1" x1="1983" y1="172" x2="1983" y2="7"/>
<line opacity="0.1" stroke="#000000" stroke-width="1" x1="2013" y1="172" x2="2013" y2="7"/>
<line opacity="0.1" stroke="#000000" stroke-width="1" x1="2043" y1="172" x2="2043" y2="7"/>
<line opacity="0.1" stroke="#000000" stroke-width="1" x1="2072" y1="172" x2="2072" y2="7"/>
<line opacity="0.1" stroke="#000000" stroke-width="1" x1="2102" y1="172" x2="2102" y2="7"/>
<line opacity="0.1" stroke="#000000" stroke-width="1" x1="2132" y1="172" x2="2132" y2="7"/>
<line opacity="0.1" stroke="#000000" stroke-width="1" x1="2161" y1="172" x2="2161" y2="7"/>
<line opacity="0.1" stroke="#000000" stroke-width="1" x1="2191" y1="172" x2="2191" y2="7"/>
<line opacity="0.1" stroke="#000000" stroke-width="1" x1="2221" y1="172" x2="2221" y2="7"/>
<line opacity="0.1" stroke="#000000" stroke-width="1" x1="2250" y1="172" x2="2250" y2="7"/>
<line opacity="0.1" stroke="#000000" stroke-width="1" x1="2280" y1="172" x2="2280" y2="7"/>
<line opacity="0.1" stroke="#000000" stroke-width="1" x1="2310" y1="172" x2="2310" y2="7"/>
<line opacity="0.1" stroke="#000000" stroke-width="1" x1="2339" y1="172" x2="2339" y2="7"/>
<line opacity="0.1" stroke="#000000" stroke-width="1" x1="2369" y1="172" x2="2369" y2="7"/>
<line opacity="0.1" stroke="#000000" stroke-width="1" x1="2399" y1="172" x2="2399" y2="7"/>
<line opacity="0.1" stroke="#000000" stroke-width="1" x1="2428" y1="172" x2="2428" y2="7"/>
<line opacity="0.1" stroke="#000000" stroke-width="1" x1="2458" y1="172" x2="2458" y2="7"/>
<line opacity="0.1" stroke="#000000" stroke-width="1" x1="2487" y1="172" x2="2487" y2="7"/>
<line opacity="0.1" stroke="#000000" stroke-width="1" x1="2517" y1="172" x2="2517" y2="7"/>
<line opacity="0.1" stroke="#000000" stroke-width="1" x1="2547" y1="172" x2="2547" y2="7"/>
<line opacity="0.1" stroke="#000000" stroke-width="1" x1="2576" y1="172" x2="2576" y2="7"/>
<line opacity="0.1" stroke="#000000" stroke-width="1" x1="2606" y1="172" x2="2606" y2="7"/>
<line opacity="0.1" stroke="#000000" stroke-width="1" x1="2636" y1="172" x2="2636" y2="7"/>
<line opacity="0.1" stroke="#000000" stroke-width="1" x1="2665" y1="172" x2="2665" y2="7"/>
<line opacity="0.1" stroke="#000000" stroke-width="1" x1="2695" y1="172" x2="2695" y2="7"/>
<line opacity="0.1" stroke="#000000" stroke-width="1" x1="2725" y1="172" x2="2725" y2="7"/>
<line opacity="0.1" stroke="#000000" stroke-width="1" x1="2754" y1="172" x2="2754" y2="7"/>
<line opacity="0.1" stroke="#000000" stroke-width="1" x1="2784" y1="172" x2="2784" y2="7"/>
<line opacity="0.1" stroke="#000000" stroke-width="1" x1="2814" y1="172" x2="2814" y2="7"/>
<line opacity="0.1" stroke="#000000" stroke-width="1" x1="2843" y1="172" x2="2843" y2="7"/>
<line opacity="0.1" stroke="#000000" stroke-width="1" x1="2873" y1="172" x2="2873" y2="7"/>
<line opacity="0.1" stroke="#000000" stroke-width="1" x1="2903" y1="172" x2="2903" y2="7"/>
<line opacity="0.1" stroke="#000000" stroke-width="1" x1="2932" y1="172" x2="2932" y2="7"/>
<line opacity="0.1" stroke="#000000" stroke-width="1" x1="2962" y1="172" x2="2962" y2="7"/>
<line opacity="0.1" stroke="#000000" stroke-width="1" x1="2992" y1="172" x2="2992" y2="7"/>
<line opacity="0.1" stroke="#000000" stroke-width="1" x1="27" y1="172" x2="2992" y2="172"/>
<line opacity="0.1" stroke="#000000" stroke-width="1" x1="27" y1="169" x2="2992" y2="169"/>
<line opacity="0.1" stroke="#000000" stroke-width="1" x1="27" y1="165" x2="2992" y2="165"/>
<line opacity="0.1" stroke="#000000" stroke-width="1" x1="27" y1="161" x2="2992" y2="161"/>
<line opacity="0.1" stroke="#000000" stroke-width="1" x1="27" y1="157" x2="2992" y2="157"/>
<line opacity="0.1" stroke="#000000" stroke-width="1" x1="27" y1="154" x2="2992" y2="154"/>
<line opacity="0.1" stroke="#000000" stroke-width="1" x1="27" y1="150" x2="2992" y2="150"/>
<line opacity="0.1" stroke="#000000" stroke-width="1" x1="27" y1="146" x2="2992" y2="146"/>
<line opacity="0.1" stroke="#000000" stroke-width="1" x1="27" y1="142" x2="2992" y2="142"/>
<line opacity="0.1" stroke="#000000" stroke-width="1" x1="27" y1="139" x2="2992" y2="139"/>
<line opacity="0.1" stroke="#000000" stroke-width="1" x1="27" y1="135" x2="2992" y2="135"/>
<line opacity="0.1" stroke="#000000" stroke-width="1" x1="27" y1="131" x2="2992" y2="131"/>
<line opacity="0.1" stroke="#000000" stroke-width="1" x1="27" y1="127" x2="2992" y2="127"/>
<line opacity="0.1" stroke="#000000" stroke-width="1" x1="27" y1="124" x2="2992" y2="124"/>
<line opacity="0.1" stroke="#000000" stroke-width="1" x1="27" y1="120" x2="2992" y2="120"/>
<line opacity="0.1" stroke="#000000" stroke-width="1" x1="27" y1="116" x2="2992" y2="116"/>
<line opacity="0.1" stroke="#000000" stroke-width="1" x1="27" y1="112" x2="2992" y2="112"/>
<line opacity="0.1" stroke="#000000" stroke-width="1" x1="27" y1="109" x2="2992" y2="109"/>
<line opacity="0.1" stroke="#000000" stroke-width="1" x1="27" y1="105" x2="2992" y2="105"/>
<line opacity="0.1" stroke="#000000" stroke-width="1" x1="27" y1="101" x2="2992" y2="101"/>
<line opacity="0.1" stroke="#000000" stroke-width="1" x1="27" y1="97" x2="2992" y2="97"/>
<line opacity="0.1" stroke="#000000" stroke-width="1" x1="27" y1="94" x2="2992" y2="94"/>
<line opacity="0.1" stroke="#000000" stroke-width="1" x1="27" y1="90" x2="2992" y2="90"/>
<line opacity="0.1" stroke="#000000" stroke-width="1" x1="27" y1="86" x2="2992" y2="86"/>
<line opacity="0.1" stroke="#000000" stroke-width="1" x1="27" y1="82" x2="2992" y2="82"/>
<line opacity="0.1" stroke="#000000" stroke-width="1" x1="27" y1="79" x2="2992" y2="79"/>
<line opacity="0.1" stroke="#000000" stroke-width="1" x1="27" y1="75" x2="2992" y2="75"/>
<line opacity="0.1" stroke="#000000" stroke-width="1" x1="27" y1="71" x2="2992" y2="71"/>
<line opacity="0.1" stroke="#000000" stroke-width="1" x1="27" y1="67" x2="2992" y2="67"/>
<line opacity="0.1" stroke="#000000" stroke-width="1" x1="27" y1="64" x2="2992" y2="64"/>
<line opacity="0.1" stroke="#000000" stroke-width="1" x1="27" y1="60" x2="2992" y2="60"/>
<line opacity="0.1" stroke="#000000" stroke-width="1" x1="27" y1="56" x2="2992" y2="56"/>
<line opacity="0.1" stroke="#000000" stroke-width="1" x1="27" y1="52" x2="2992" y2="52"/>
<line opacity="0.1" stroke="#000000" stroke-width="1" x1="27" y1="49" x2="2992" y2="49"/>
<line opacity="0.1" stroke="#000000" stroke-width="1" x1="27" y1="45" x2="2992" y2="45"/>
<line opacity="0.1" stroke="#000000" stroke-width="1" x1="27" y1="41" x2="2992" y2="41"/>
<line opacity="0.1" stroke="#000000" stroke-width="1" x1="27" y1="37" x2="2992" y2="37"/>
<line opacity="0.1" stroke="#000000" stroke-width="1" x1="27" y1="34" x2="2992" y2="34"/>
<line opacity="0.1" stroke="#000000" stroke-width="1" x1="27" y1="30" x2="2992" y2="30"/>
<line opacity="0.1" stroke="#000000" stroke-width="1" x1="27" y1="26" x2="2992" y2="26"/>
<line opacity="0.1" stroke="#000000" stroke-width="1" x1="27" y1="22" x2="2992" y2="22"/>
<line opacity="0.1" stroke="#000000" stroke-width="1" x1="27" y1="19" x2="2992" y2="19"/>
<line opacity="0.1" stroke="#000000" stroke-width="1" x1="27" y1="15" x2="2992" y2="15"/>
<line opacity="0.1" stroke="#000000" stroke-width="1" x1="27" y1="11" x2="2992" y2="11"/>
<line opacity="0.1" stroke="#000000" stroke-width="1" x1="27" y1="7" x2="2992" y2="7"/>
<line opacity="0.2" stroke="#000000" stroke-width="1" x1="27" y1="172" x2="27" y2="7"/>
<line opacity="0.2" stroke="#000000" stroke-width="1" x1="323" y1="172" x2="323" y2="7"/>
<line opacity="0.2" stroke="#000000" stroke-width="1" x1="620" y1="172" x2="620" y2="7"/>
<line opacity="0.2" stroke="#000000" stroke-width="1" x1="916" y1="172" x2="916" y2="7"/>
<line opacity="0.2" stroke="#000000" stroke-width="1" x1="1213" y1="172" x2="1213" y2="7"/>
<line opacity="0.2" stroke="#000000" stroke-width="1" x1="1509" y1="172" x2="1509" y2="7"/>
<line opacity="0.2" stroke="#000000" stroke-width="1" x1="1806" y1="172" x2="1806" y2="7"/>
<line opacity="0.2" stroke="#000000" stroke-width="1" x1="2102" y1="172" x2="2102" y2="7"/>
<line opacity="0.2" stroke="#000000" stroke-width="1" x1="2399" y1="172" x2="2399" y2="7"/>
<line opacity="0.2" stroke="#000000" stroke-width="1" x1="2695" y1="172" x2="2695" y2="7"/>
<line opacity="0.2" stroke="#000000" stroke-width="1" x1="2992" y1="172" x2="2992" y2="7"/>
<line opacity="0.2" stroke="#000000" stroke-width="1" x1="27" y1="165" x2="2992" y2="165"/>
<line opacity="0.2" stroke="#000000" stroke-width="1" x1="27" y1="150" x2="2992" y2="150"/>
<line opacity="0.2" stroke="#000000" stroke-width="1" x1="27" y1="135" x2="2992" y2="135"/>
<line opacity="0.2" stroke="#000000" stroke-width="1" x1="27" y1="120" x2="2992" y2="120"/>
<line opacity="0.2" stroke="#000000" stroke-width="1" x1="27" y1="105" x2="2992" y2="105"/>
<line opacity="0.2" stroke="#000000" stroke-width="1" x1="27" y1="90" x2="2992" y2="90"/>
<line opacity="0.2" stroke="#000000" stroke-width="1" x1="27" y1="75" x2="2992" y2="75"/>
<line opacity="0.2" stroke="#000000" stroke-width="1" x1="27" y1="60" x2="2992" y2="60"/>
<line opacity="0.2" stroke="#000000" stroke-width="1" x1="27" y1="45" x2="2992" y2="45"/>
<line opacity="0.2" stroke="#000000" stroke-width="1" x1="27" y1="30" x2="2992" y2="30"/>
<line opacity="0.2" stroke="#000000" stroke-width="1" x1="27" y1="15" x2="2992" y2="15"/>
<polyline fill="none" opacity="1" stroke="#000000" stroke-width="1" points="26,7 26,172 "/>
<text x="17" y="165" dy="0.5ex" text-anchor="end" font-family="sans-serif" font-size="9.67741935483871" opacity="1" fill="#000000">
-1.0
</text>
<polyline fill="none" opacity="1" stroke="#000000" stroke-width="1" points="21,165 26,165 "/>
<text x="17" y="150" dy="0.5ex" text-anchor="end" font-family="sans-serif" font-size="9.67741935483871" opacity="1" fill="#000000">
-0.8
</text>
<polyline fill="none" opacity="1" stroke="#000000" stroke-width="1" points="21,150 26,150 "/>
<text x="17" y="135" dy="0.5ex" text-anchor="end" font-family="sans-serif" font-size="9.67741935483871" opacity="1" fill="#000000">
-0.6
</text>
<polyline fill="none" opacity="1" stroke="#000000" stroke-width="1" points="21,135 26,135 "/>
<text x="17" y="120" dy="0.5ex" text-anchor="end" font-family="sans-serif" font-size="9.67741935483871" opacity="1" fill="#000000">
-0.4
</text>
<polyline fill="none" opacity="1" stroke="#000000" stroke-width="1" points="21,120 26,120 "/>
<text x="17" y="105" dy="0.5ex" text-anchor="end" font-family="sans-serif" font-size="9.67741935483871" opacity="1" fill="#000000">
-0.2
</text>
<polyline fill="none" opacity="1" stroke="#000000" stroke-width="1" points="21,105 26,105 "/>
<text x="17" y="90" dy="0.5ex" text-anchor="end" font-family="sans-serif" font-size="9.67741935483871" opacity="1" fill="#000000">
-0.0
</text>
<polyline fill="none" opacity="1" stroke="#000000" stroke-width="1" points="21,90 26,90 "/>
<text x="17" y="75" dy="0.5ex" text-anchor="end" font-family="sans-serif" font-size="9.67741935483871" opacity="1" fill="#000000">
0.2
</text>
<polyline fill="none" opacity="1" stroke="#000000" stroke-width="1" points="21,75 26,75 "/>
<text x="17" y="60" dy="0.5ex" text-anchor="end" font-family="sans-serif" font-size="9.67741935483871" opacity="1" fill="#000000">
0.4
</text>
<polyline fill="none" opacity="1" stroke="#000000" stroke-width="1" points="21,60 26,60 "/>
<text x="17" y="45" dy="0.5ex" text-anchor="end" font-family="sans-serif" font-size="9.67741935483871" opacity="1" fill="#000000">
0.6
</text>
<polyline fill="none" opacity="1" stroke="#000000" stroke-width="1" points="21,45 26,45 "/>
<text x="17" y="30" dy="0.5ex" text-anchor="end" font-family="sans-serif" font-size="9.67741935483871" opacity="1" fill="#000000">
0.8
</text>
<polyline fill="none" opacity="1" stroke="#000000" stroke-width="1" points="21,30 26,30 "/>
<text x="17" y="15" dy="0.5ex" text-anchor="end" font-family="sans-serif" font-size="9.67741935483871" opacity="1" fill="#000000">
1.0
</text>
<polyline fill="none" opacity="1" stroke="#000000" stroke-width="1" points="21,15 26,15 "/>
<polyline fill="none" opacity="1" stroke="#000000" stroke-width="1" points="27,173 2992,173 "/>
<text x="27" y="183" dy="0.76em" text-anchor="middle" font-family="sans-serif" font-size="9.67741935483871" opacity="1" fill="#000000">
0.0
</text>
<polyline fill="none" opacity="1" stroke="#000000" stroke-width="1" points="27,173 27,178 "/>
<text x="323" y="183" dy="0.76em" text-anchor="middle" font-family="sans-serif" font-size="9.67741935483871" opacity="1" fill="#000000">
1000.0
</text>
<polyline fill="none" opacity="1" stroke="#000000" stroke-width="1" points="323,173 323,178 "/>
<text x="620" y="183" dy="0.76em" text-anchor="middle" font-family="sans-serif" font-size="9.67741935483871" opacity="1" fill="#000000">
2000.0
</text>
<polyline fill="none" opacity="1" stroke="#000000" stroke-width="1" points="620,173 620,178 "/>
<text x="916" y="183" dy="0.76em" text-anchor="middle" font-family="sans-serif" font-size="9.67741935483871" opacity="1" fill="#000000">
3000.0
</text>
<polyline fill="none" opacity="1" stroke="#000000" stroke-width="1" points="916,173 916,178 "/>
<text x="1213" y="183" dy="0.76em" text-anchor="middle" font-family="sans-serif" font-size="9.67741935483871" opacity="1" fill="#000000">
4000.0
</text>
<polyline fill="none" opacity="1" stroke="#000000" stroke-width="1" points="1213,173 1213,178 "/>
<text x="1509" y="183" dy="0.76em" text-anchor="middle" font-family="sans-serif" font-size="9.67741935483871" opacity="1" fill="#000000">
5000.0
</text>
<polyline fill="none" opacity="1" stroke="#000000" stroke-width="1" points="1509,173 1509,178 "/>
<text x="1806" y="183" dy="0.76em" text-anchor="middle" font-family="sans-serif" font-size="9.67741935483871" opacity="1" fill="#000000">
6000.0
</text>
<polyline fill="none" opacity="1" stroke="#000000" stroke-width="1" points="1806,173 1806,178 "/>
<text x="2102" y="183" dy="0.76em" text-anchor="middle" font-family="sans-serif" font-size="9.67741935483871" opacity="1" fill="#000000">
7000.0
</text>
<polyline fill="none" opacity="1" stroke="#000000" stroke-width="1" points="2102,173 2102,178 "/>
<text x="2399" y="183" dy="0.76em" text-anchor="middle" font-family="sans-serif" font-size="9.67741935483871" opacity="1" fill="#000000">
8000.0
</text>
<polyline fill="none" opacity="1" stroke="#000000" stroke-width="1" points="2399,173 2399,178 "/>
<text x="2695" y="183" dy="0.76em" text-anchor="middle" font-family="sans-serif" font-size="9.67741935483871" opacity="1" fill="#000000">
9000.0
</text>
<polyline fill="none" opacity="1" stroke="#000000" stroke-width="1" points="2695,173 2695,178 "/>
<text x="2992" y="183" dy="0.76em" text-anchor="middle" font-family="sans-serif" font-size="9.67741935483871" opacity="1" fill="#000000">
10000.0
</text>
<polyline fill="none" opacity="1" stroke="#000000" stroke-width="1" points="2992,173 2992,178 "/>
<polyline fill="none" opacity="1" stroke="#FF0000" stroke-width="1" points="27,90 27,90 27,90 27,90 28,89 28,90 28,90 29,90 29,89 29,89 29,90 30,90 30,89 30,89 31,90 31,90 31,90 32,89 32,90 32,90 32,90 33,90 33,90 33,90 34,90 34,90 34,90 35,90 35,90 35,90 35,90 36,90 36,90 36,90 37,90 37,90 37,89 37,90 38,90 38,90 38,89 39,89 39,89 39,89 40,89 40,89 40,89 40,90 41,90 41,90 41,90 42,90 42,90 42,90 43,90 43,90 43,90 43,91 44,91 44,91 44,91 45,91 45,90 45,90 45,90 46,90 46,90 46,90 47,90 47,89 47,89 48,88 48,88 48,88 48,88 49,88 49,89 49,90 50,91 50,91 50,91 51,91 51,92 51,92 51,92 52,92 52,92 52,91 53,91 53,90 53,89 53,88 54,88 54,88 54,87 55,87 55,88 55,89 56,89 56,90 56,91 56,92 57,92 57,93 57,92 58,92 58,92 58,91 59,90 59,90 59,89 59,89 60,88 60,87 60,88 61,88 61,89 61,90 61,90 62,91 62,91 62,92 63,91 63,91 63,90 64,90 64,89 64,89 64,88 65,88 65,89 65,89 66,90 66,91 66,92 67,93 67,93 67,93 67,92 68,91 68,90 68,89 69,88 69,87 69,87 69,87 70,87 70,88 70,90 71,91 71,92 71,93 72,93 72,93 72,92 72,91 73,89 73,88 73,88 74,88 74,88 74,88 75,89 75,91 75,92 75,93 76,93 76,93 76,92 77,91 77,90 77,89 77,88 78,88 78,88 78,88 79,89 79,89 79,90 80,91 80,90 80,90 80,90 81,90 81,90 81,89 82,90 82,91 82,92 83,92 83,92 83,92 83,91 84,91 84,89 84,88 85,87 85,87 85,88 86,88 86,89 86,90 86,91 87,92 87,91 87,91 88,91 88,90 88,89 88,89 89,89 89,90 89,91 90,91 90,91 90,92 91,91 91,90 91,89 91,88 92,88 92,88 92,89 93,89 93,90 93,91 94,91 94,91 94,91 94,90 95,90 95,89 95,89 96,88 96,89 96,89 96,90 97,90 97,90 97,90 98,91 98,91 98,91 99,91 99,91 99,92 99,91 100,90 100,90 100,91 101,91 101,91 101,90 102,90 102,90 102,90 102,88 103,87 103,87 103,88 104,89 104,89 104,89 104,90 105,90 105,90 105,89 106,89 106,90 106,92 107,93 107,94 107,94 107,93 108,92 108,90 108,88 109,88 109,88 109,89 110,89 110,89 110,89 110,90 111,89 111,88 111,88 112,89 112,91 112,92 112,92 113,91 113,90 113,90 114,89 114,88 114,89 115,91 115,92 115,93 115,92 116,91 116,90 116,89 117,89 117,89 117,91 118,92 118,93 118,91 118,90 119,89 119,88 119,88 120,88 120,88 120,89 120,90 121,90 121,89 121,90 122,91 122,93 122,93 123,93 123,92 123,91 123,90 124,89 124,88 124,89 125,90 125,90 125,89 126,88 126,88 126,88 126,89 127,90 127,90 127,91 128,91 128,89 128,88 128,88 129,89 129,91 129,93 130,94 130,93 130,92 131,91 131,89 131,87 131,87 132,89 132,90 132,90 133,90 133,90 133,89 134,89 134,89 134,90 134,91 135,92 135,91 135,89 136,88 136,87 136,88 137,89 137,90 137,92 137,94 138,94 138,93 138,91 139,89 139,88 139,88 139,88 140,89 140,90 140,91 141,91 141,91 141,90 142,90 142,90 142,90 142,90 143,90 143,90 143,90 144,89 144,89 144,88 145,88 145,88 145,89 145,90 146,91 146,92 146,92 147,92 147,91 147,90 147,89 148,89 148,89 148,90 149,91 149,91 149,91 150,90 150,90 150,89 150,90 151,90 151,90 151,91 152,91 152,91 152,90 153,89 153,89 153,88 153,88 154,88 154,88 154,89 155,89 155,90 155,89 155,90 156,90 156,91 156,91 157,91 157,91 157,92 158,92 158,91 158,90 158,89 159,89 159,89 159,88 160,89 160,90 160,91 161,91 161,90 161,89 161,88 162,88 162,89 162,89 163,90 163,91 163,92 163,92 164,90 164,89 164,88 165,88 165,88 165,89 166,91 166,92 166,93 166,93 167,93 167,92 167,91 168,90 168,89 168,87 169,87 169,87 169,87 169,87 170,89 170,90 170,92 171,93 171,93 171,92 171,91 172,90 172,88 172,87 173,86 173,87 173,88 174,89 174,90 174,91 174,92 175,92 175,92 175,91 176,90 176,89 176,88 177,88 177,88 177,89 177,90 178,91 178,92 178,92 179,93 179,93 179,92 179,90 180,90 180,89 180,88 181,87 181,87 181,87 182,88 182,88 182,89 182,90 183,91 183,92 183,93 184,93 184,92 184,91 185,90 185,88 185,87 185,86 186,87 186,87 186,88 187,90 187,91 187,93 188,94 188,93 188,93 188,91 189,90 189,89 189,87 190,87 190,87 190,88 190,89 191,90 191,91 191,92 192,93 192,92 192,91 193,91 193,91 193,90 193,90 194,89 194,89 194,90 195,89 195,88 195,88 196,87 196,87 196,87 196,87 197,88 197,90 197,92 198,93 198,93 198,93 198,93 199,93 199,92 199,90 200,90 200,90 200,89 201,89 201,89 201,89 201,90 202,90 202,90 202,90 203,90 203,90 203,90 204,89 204,89 204,89 204,89 205,90 205,90 205,90 206,91 206,91 206,91 206,91 207,91 207,91 207,91 208,90 208,89 208,89 209,90 209,89 209,89 209,89 210,89 210,90 210,90 211,90 211,91 211,91 212,92 212,91 212,90 212,90 213,90 213,90 213,89 214,90 214,90 214,91 214,91 215,90 215,89 215,89 216,89 216,88 216,88 217,88 217,89 217,90 217,90 218,90 218,91 218,92 219,92 219,92 219,92 220,91 220,90 220,89 220,88 221,88 221,89 221,90 222,91 222,91 222,91 222,91 223,90 223,88 223,87 224,87 224,88 224,90 225,91 225,92 225,92 225,92 226,92 226,91 226,91 227,91 227,91 227,90 228,89 228,88 228,88 228,88 229,89 229,91 229,93 230,93 230,92 230,90 230,89 231,89 231,89 231,90 232,91 232,91 232,91 233,90 233,88 233,88 233,89 234,90 234,91 234,91 235,91 235,90 235,90 236,89 236,89 236,89 236,90 237,92 237,93 237,93 238,92 238,91 238,90 238,89 239,89 239,88 239,88 240,89 240,89 240,89 241,90 241,90 241,90 241,91 242,92 242,92 242,92 243,91 243,90 243,89 244,88 244,88 244,89 244,91 245,91 245,91 245,91 246,90 246,90 246,89 247,89 247,89 247,89 247,89 248,89 248,90 248,92 249,93 249,93 249,93 249,93 250,92 250,90 250,88 251,87 251,87 251,87 252,87 252,87 252,87 252,88 253,90 253,91 253,93 254,94 254,94 254,93 255,92 255,91 255,90 255,89 256,89 256,88 256,88 257,88 257,89 257,90 257,90 258,90 258,90 258,90 259,90 259,91 259,92 260,92 260,91 260,91 260,90 261,89 261,89 261,88 262,88 262,88 262,89 263,90 263,90 263,90 263,91 264,92 264,92 264,92 265,90 265,89 265,89 265,89 266,89 266,89 266,90 267,90 267,89 267,89 268,89 268,90 268,91 268,92 269,91 269,90 269,90 270,90 270,91 270,91 271,91 271,91 271,91 271,90 272,89 272,89 272,88 273,88 273,89 273,89 273,89 274,89 274,90 274,91 275,92 275,93 275,93 276,92 276,90 276,88 276,89 277,89 277,90 277,91 278,92 278,92 278,92 279,92 279,91 279,90 279,89 280,88 280,86 280,85 281,85 281,86 281,88 281,90 282,91 282,93 282,93 283,93 283,92 283,91 284,91 284,90 284,90 284,89 285,89 285,90 285,90 286,91 286,92 286,92 287,92 287,90 287,89 287,88 288,88 288,88 288,89 289,89 289,90 289,90 289,90 290,89 290,89 290,89 291,90 291,91 291,92 292,91 292,90 292,90 292,90 293,90 293,91 293,91 294,92 294,91 294,90 295,89 295,89 295,89 295,90 296,90 296,91 296,91 297,90 297,89 297,88 298,88 298,89 298,91 298,92 299,92 299,92 299,91 300,90 300,89 300,89 300,89 301,90 301,90 301,90 302,89 302,89 302,90 303,90 303,90 303,91 303,91 304,90 304,89 304,88 305,88 305,89 305,91 306,91 306,91 306,90 306,89 307,88 307,88 307,89 308,90 308,91 308,91 308,90 309,89 309,89 309,89 310,90 310,91 310,92 311,91 311,90 311,89 311,87 312,87 312,88 312,90 313,91 313,91 313,91 314,90 314,89 314,89 314,89 315,90 315,91 315,91 316,90 316,88 316,87 316,88 317,89 317,90 317,91 318,92 318,93 318,93 319,92 319,90 319,90 319,90 320,89 320,89 320,89 321,89 321,89 321,89 322,89 322,89 322,90 322,91 323,91 323,90 323,89 324,88 324,87 324,87 324,88 325,90 325,93 325,94 326,94 326,93 326,92 327,91 327,90 327,90 327,90 328,90 328,89 328,88 329,87 329,88 329,89 330,91 330,91 330,91 330,90 331,89 331,88 331,87 332,88 332,89 332,90 332,91 333,91 333,91 333,91 334,92 334,92 334,92 335,92 335,90 335,89 335,88 336,88 336,89 336,90 337,91 337,92 337,92 338,91 338,91 338,90 338,89 339,89 339,90 339,91 340,91 340,91 340,91 340,90 341,89 341,88 341,88 342,88 342,89 342,90 343,91 343,91 343,91 343,91 344,91 344,91 344,91 345,90 345,90 345,90 346,90 346,90 346,91 346,91 347,91 347,91 347,91 348,91 348,92 348,91 349,91 349,90 349,89 349,89 350,88 350,88 350,89 351,90 351,91 351,90 351,90 352,90 352,90 352,90 353,91 353,92 353,93 354,93 354,93 354,92 354,90 355,89 355,88 355,87 356,87 356,88 356,89 357,90 357,91 357,92 357,92 358,91 358,90 358,90 359,90 359,90 359,90 359,89 360,88 360,88 360,89 361,90 361,91 361,92 362,93 362,93 362,91 362,90 363,89 363,90 363,91 364,91 364,90 364,89 365,89 365,88 365,88 365,88 366,89 366,90 366,91 367,91 367,91 367,91 367,91 368,91 368,92 368,92 369,92 369,91 369,90 370,90 370,89 370,89 370,89 371,88 371,88 371,89 372,90 372,90 372,90 373,90 373,90 373,90 373,89 374,90 374,90 374,91 375,91 375,90 375,90 375,90 376,91 376,91 376,91 377,90 377,90 377,90 378,90 378,90 378,90 378,90 379,90 379,90 379,89 380,89 380,89 380,89 381,90 381,90 381,91 381,91 382,90 382,90 382,90 383,90 383,90 383,89 383,88 384,88 384,88 384,90 385,91 385,93 385,93 386,92 386,91 386,90 386,89 387,90 387,90 387,91 388,90 388,90 388,90 389,90 389,91 389,90 389,90 390,89 390,90 390,90 391,90 391,89 391,90 391,90 392,90 392,89 392,89 393,89 393,90 393,91 394,91 394,91 394,90 394,89 395,90 395,91 395,92 396,93 396,92 396,91 397,89 397,88 397,88 397,89 398,91 398,91 398,90 399,89 399,88 399,87 399,88 400,90 400,91 400,92 401,92 401,91 401,90 402,90 402,90 402,90 402,91 403,91 403,91 403,89 404,87 404,87 404,88 405,90 405,92 405,93 405,92 406,91 406,90 406,89 407,88 407,89 407,89 408,90 408,89 408,89 408,89 409,89 409,89 409,90 410,91 410,92 410,92 410,91 411,89 411,89 411,89 412,89 412,90 412,91 413,92 413,92 413,92 413,91 414,89 414,88 414,88 415,89 415,89 415,89 416,90 416,90 416,90 416,90 417,90 417,91 417,91 418,92 418,91 418,91 418,90 419,89 419,88 419,88 420,89 420,90 420,90 421,90 421,90 421,89 421,89 422,89 422,89 422,91 423,92 423,92 423,91 424,90 424,90 424,90 424,90 425,90 425,89 425,90 426,90 426,90 426,90 426,90 427,90 427,91 427,91 428,90 428,89 428,88 429,88 429,89 429,90 429,91 430,91 430,91 430,90 431,89 431,89 431,90 432,90 432,90 432,90 432,90 433,89 433,89 433,89 434,90 434,91 434,92 434,92 435,91 435,90 435,89 436,88 436,87 436,87 437,89 437,91 437,92 437,93 438,92 438,90 438,90 439,89 439,89 439,89 440,89 440,89 440,90 440,89 441,89 441,89 441,90 442,90 442,91 442,91 442,92 443,91 443,91 443,89 444,89 444,89 444,89 445,89 445,90 445,90 445,91 446,91 446,91 446,90 447,91 447,91 447,90 448,90 448,89 448,90 448,90 449,90 449,90 449,89 450,89 450,89 450,89 450,89 451,90 451,91 451,91 452,91 452,91 452,90 453,90 453,90 453,90 453,90 454,91 454,91 454,90 455,89 455,89 455,89 456,89 456,89 456,90 456,90 457,91 457,90 457,90 458,90 458,90 458,91 459,91 459,90 459,90 459,89 460,89 460,89 460,89 461,90 461,91 461,91 461,91 462,90 462,90 462,90 463,91 463,91 463,91 464,90 464,89 464,88 464,87 465,88 465,90 465,92 466,93 466,92 466,91 467,89 467,88 467,88 467,90 468,91 468,93 468,92 469,91 469,89 469,88 469,88 470,89 470,91 470,91 471,91 471,91 471,90 472,90 472,89 472,89 472,89 473,90 473,91 473,91 474,91 474,91 474,90 475,89 475,89 475,89 475,90 476,91 476,91 476,91 477,90 477,89 477,87 477,87 478,88 478,90 478,92 479,93 479,92 479,90 480,89 480,88 480,89 480,90 481,91 481,91 481,90 482,89 482,89 482,89 483,90 483,90 483,91 483,91 484,90 484,90 484,89 485,89 485,90 485,90 485,91 486,91 486,91 486,90 487,89 487,89 487,89 488,90 488,90 488,91 488,91 489,91 489,90 489,90 490,90 490,90 490,90 491,90 491,90 491,89 491,89 492,88 492,88 492,89 493,91 493,92 493,92 493,91 494,90 494,89 494,89 495,90 495,91 495,92 496,91 496,90 496,89 496,89 497,90 497,91 497,91 498,91 498,91 498,90 499,89 499,88 499,89 499,91 500,92 500,92 500,91 501,89 501,88 501,88 501,88 502,89 502,90 502,91 503,91 503,90 503,90 504,90 504,91 504,92 504,92 505,91 505,91 505,90 506,89 506,89 506,89 507,90 507,90 507,91 507,91 508,91 508,92 508,91 509,90 509,89 509,89 509,89 510,89 510,88 510,89 511,89 511,90 511,90 512,90 512,90 512,91 512,91 513,91 513,91 513,91 514,90 514,90 514,90 515,90 515,91 515,91 515,90 516,90 516,89 516,88 517,89 517,90 517,92 518,92 518,91 518,90 518,89 519,88 519,89 519,89 520,90 520,90 520,90 520,90 521,90 521,90 521,90 522,91 522,92 522,92 523,91 523,90 523,89 523,89 524,89 524,90 524,90 525,90 525,89 525,88 526,88 526,89 526,90 526,91 527,92 527,91 527,90 528,89 528,89 528,90 528,90 529,91 529,90 529,90 530,89 530,89 530,89 531,90 531,91 531,92 531,91 532,90 532,89 532,88 533,89 533,89 533,90 534,90 534,90 534,89 534,89 535,89 535,90 535,92 536,92 536,92 536,91 536,90 537,89 537,89 537,89 538,91 538,91 538,91 539,89 539,88 539,88 539,88 540,90 540,92 540,93 541,92 541,91 541,89 542,89 542,89 542,90 542,90 543,90 543,90 543,90 544,89 544,89 544,88 544,89 545,90 545,91 545,91 546,92 546,91 546,91 547,90 547,90 547,89 547,89 548,90 548,91 548,91 549,91 549,91 549,89 550,88 550,89 550,90 550,91 551,91 551,90 551,89 552,88 552,88 552,89 552,90 553,92 553,93 553,92 554,91 554,90 554,89 555,90 555,90 555,90 555,90 556,90 556,89 556,89 557,89 557,89 557,90 558,92 558,92 558,92 558,91 559,89 559,89 559,89 560,89 560,90 560,91 560,91 561,91 561,90 561,88 562,88 562,89 562,90 563,91 563,92 563,92 563,91 564,89 564,88 564,89 565,90 565,92 565,92 566,92 566,91 566,90 566,89 567,88 567,88 567,90 568,91 568,92 568,92 569,91 569,90 569,89 569,89 570,89 570,90 570,90 571,91 571,91 571,91 571,90 572,90 572,90 572,89 573,90 573,91 573,91 574,91 574,90 574,89 574,89 575,89 575,90 575,91 576,91 576,91 576,90 577,89 577,88 577,89 577,90 578,91 578,92 578,92 579,92 579,91 579,90 579,89 580,89 580,89 580,90 581,90 581,90 581,89 582,89 582,89 582,91 582,92 583,93 583,92 583,91 584,90 584,88 584,88 585,88 585,90 585,90 585,91 586,90 586,89 586,89 587,89 587,90 587,91 587,92 588,92 588,91 588,90 589,88 589,88 589,88 590,90 590,91 590,92 590,92 591,91 591,89 591,88 592,88 592,89 592,90 593,91 593,91 593,90 593,90 594,89 594,89 594,89 595,90 595,90 595,90 595,90 596,90 596,90 596,90 597,90 597,90 597,91 598,91 598,90 598,89 598,89 599,89 599,90 599,91 600,91 600,91 600,90 601,89 601,88 601,88 601,89 602,91 602,91 602,91 603,90 603,89 603,89 603,89 604,90 604,91 604,91 605,91 605,90 605,89 606,88 606,89 606,91 606,92 607,93 607,92 607,91 608,89 608,88 608,88 609,90 609,91 609,91 609,91 610,90 610,89 610,88 611,89 611,90 611,91 611,92 612,92 612,91 612,90 613,89 613,89 613,89 614,90 614,91 614,91 614,92 615,91 615,90 615,90 616,90 616,90 616,91 617,91 617,91 617,90 617,89 618,89 618,89 618,90 619,91 619,92 619,91 620,90 620,89 620,88 620,89 621,90 621,91 621,91 622,91 622,89 622,88 622,88 623,89 623,91 623,92 624,92 624,91 624,90 625,89 625,89 625,90 625,91 626,92 626,92 626,92 627,91 627,89 627,89 628,88 628,89 628,89 628,90 629,90 629,90 629,90 630,90 630,90 630,90 630,91 631,91 631,91 631,91 632,91 632,90 632,89 633,88 633,89 633,90 633,91 634,91 634,91 634,91 635,91 635,90 635,90 636,90 636,90 636,90 636,90 637,89 637,89 637,89 638,90 638,90 638,90 638,91 639,91 639,90 639,90 640,90 640,91 640,92 641,92 641,92 641,91 641,90 642,89 642,89 642,89 643,90 643,90 643,91 644,90 644,90 644,90 644,90 645,91 645,92 645,92 646,91 646,90 646,89 646,88 647,87 647,88 647,90 648,92 648,93 648,92 649,91 649,89 649,88 649,88 650,89 650,90 650,91 651,91 651,90 651,89 652,88 652,89 652,90 652,92 653,93 653,92 653,91 654,89 654,87 654,87 654,89 655,91 655,93 655,93 656,92 656,90 656,88 657,87 657,87 657,89 657,92 658,93 658,92 658,90 659,89 659,87 659,88 660,89 660,92 660,93 660,93 661,91 661,89 661,88 662,88 662,89 662,92 662,94 663,94 663,92 663,90 664,88 664,87 664,88 665,89 665,91 665,92 665,92 666,91 666,89 666,88 667,88 667,90 667,91 668,92 668,91 668,90 668,88 669,88 669,88 669,90 670,92 670,93 670,92 670,91 671,89 671,88 671,88 672,89 672,90 672,91 673,91 673,91 673,90 673,89 674,88 674,89 674,90 675,91 675,92 675,91 676,90 676,89 676,88 676,89 677,90 677,91 677,92 678,92 678,91 678,90 679,89 679,89 679,89 679,89 680,90 680,91 680,91 681,90 681,90 681,90 681,90 682,91 682,91 682,92 683,92 683,91 683,90 684,89 684,90 684,90 684,90 685,89 685,89 685,89 686,91 686,91 686,91 687,91 687,90 687,89 687,89 688,89 688,90 688,90 689,91 689,91 689,90 689,90 690,89 690,89 690,90 691,91 691,92 691,92 692,90 692,89 692,88 692,88 693,89 693,90 693,91 694,92 694,91 694,90 695,89 695,90 695,90 695,91 696,92 696,91 696,91 697,90 697,90 697,89 697,89 698,88 698,88 698,89 699,90 699,91 699,91 700,91 700,90 700,90 700,89 701,89 701,89 701,91 702,92 702,92 702,91 703,90 703,89 703,89 703,91 704,91 704,91 704,91 705,90 705,89 705,88 705,89 706,90 706,91 706,91 707,90 707,89 707,89 708,89 708,89 708,90 708,90 709,90 709,90 709,91 710,91 710,91 710,91 711,90 711,89 711,89 711,89 712,89 712,90 712,90 713,91 713,91 713,90 713,90 714,89 714,90 714,91 715,92 715,92 715,90 716,89 716,88 716,88 716,89 717,90 717,91 717,91 718,90 718,89 718,89 719,89 719,90 719,90 719,90 720,90 720,90 720,90 721,90 721,91 721,90 721,90 722,90 722,89 722,89 723,89 723,90 723,90 724,91 724,91 724,91 724,90 725,89 725,89 725,90 726,90 726,90 726,90 727,89 727,88 727,88 727,89 728,90 728,91 728,91 729,91 729,90 729,89 730,89 730,90 730,90 730,90 731,90 731,90 731,90 732,90 732,89 732,89 732,89 733,90 733,90 733,90 734,90 734,90 734,90 735,90 735,90 735,90 735,90 736,90 736,89 736,89 737,89 737,89 737,89 738,90 738,90 738,90 738,90 739,89 739,89 739,88 740,89 740,89 740,90 740,90 741,90 741,89 741,88 742,88 742,89 742,91 743,91 743,91 743,91 743,90 744,89 744,88 744,88 745,89 745,91 745,92 746,93 746,91 746,89 746,88 747,87 747,88 747,90 748,91 748,92 748,92 748,90 749,88 749,87 749,88 750,90 750,92 750,93 751,93 751,91 751,89 751,88 752,88 752,89 752,90 753,92 753,93 753,92 754,90 754,88 754,88 754,89 755,91 755,92 755,92 756,91 756,90 756,89 756,88 757,88 757,89 757,90 758,90 758,90 758,89 759,88 759,88 759,89 759,90 760,92 760,92 760,92 761,91 761,90 761,89 762,89 762,90 762,91 762,91 763,91 763,90 763,89 764,89 764,89 764,90 764,91 765,91 765,91 765,90 766,88 766,88 766,89 767,90 767,91 767,91 767,91 768,91 768,90 768,89 769,88 769,89 769,90 770,91 770,91 770,91 770,90 771,90 771,91 771,91 772,91 772,90 772,90 772,89 773,89 773,89 773,89 774,89 774,89 774,89 775,90 775,91 775,92 775,92 776,92 776,91 776,90 777,89 777,88 777,89 778,90 778,91 778,91 778,90 779,89 779,89 779,88 780,89 780,90 780,91 781,92 781,91 781,90 781,89 782,89 782,90 782,90 783,90 783,89 783,88 783,88 784,89 784,90 784,91 785,92 785,91 785,91 786,90 786,90 786,91 786,91 787,91 787,91 787,90 788,90 788,89 788,89 789,90 789,91 789,91 789,91 790,90 790,90 790,90 791,90 791,90 791,91 791,91 792,90 792,89 792,88 793,88 793,89 793,90 794,91 794,92 794,92 794,91 795,91 795,91 795,91 796,91 796,90 796,90 797,89 797,89 797,89 797,89 798,89 798,89 798,90 799,91 799,91 799,90 799,90 800,90 800,90 800,90 801,90 801,91 801,91 802,90 802,89 802,89 802,89 803,89 803,90 803,91 804,91 804,91 804,90 805,89 805,89 805,90 805,90 806,90 806,90 806,89 807,88 807,88 807,88 807,90 808,92 808,93 808,93 809,91 809,90 809,88 810,88 810,89 810,90 810,91 811,91 811,91 811,90 812,89 812,89 812,89 813,90 813,91 813,91 813,91 814,90 814,90 814,90 815,90 815,90 815,91 815,91 816,91 816,90 816,89 817,89 817,88 817,89 818,90 818,91 818,92 818,91 819,91 819,89 819,89 820,89 820,90 820,91 821,91 821,91 821,91 821,90 822,89 822,89 822,90 823,91 823,91 823,91 823,90 824,88 824,88 824,88 825,90 825,92 825,92 826,92 826,90 826,88 826,87 827,88 827,89 827,91 828,92 828,92 828,91 829,90 829,88 829,88 829,89 830,90 830,90 830,90 831,90 831,89 831,89 831,89 832,90 832,91 832,92 833,92 833,91 833,91 834,90 834,89 834,88 834,88 835,89 835,91 835,91 836,90 836,89 836,89 837,89 837,89 837,90 837,91 838,91 838,91 838,90 839,89 839,90 839,90 840,91 840,90 840,90 840,89 841,89 841,89 841,90 842,91 842,92 842,92 842,92 843,90 843,89 843,88 844,89 844,90 844,91 845,91 845,90 845,88 845,88 846,89 846,91 846,92 847,92 847,91 847,90 848,88 848,87 848,88 848,91 849,92 849,93 849,93 850,91 850,90 850,89 850,89 851,90 851,91 851,92 852,92 852,91 852,89 853,88 853,88 853,88 853,90 854,91 854,91 854,91 855,90 855,90 855,90 856,90 856,91 856,91 856,92 857,92 857,91 857,90 858,89 858,88 858,89 858,90 859,91 859,91 859,91 860,90 860,89 860,89 861,89 861,89 861,90 861,91 862,91 862,90 862,90 863,90 863,90 863,91 864,92 864,92 864,92 864,90 865,89 865,89 865,89 866,90 866,91 866,91 866,91 867,90 867,89 867,88 868,88 868,89 868,90 869,91 869,90 869,90 869,89 870,89 870,90 870,91 871,92 871,92 871,92 872,91 872,90 872,90 872,90 873,90 873,91 873,91 874,91 874,90 874,90 874,90 875,89 875,89 875,89 876,89 876,90 876,90 877,90 877,90 877,90 877,89 878,89 878,90 878,91 879,91 879,91 879,91 880,90 880,89 880,89 880,90 881,90 881,91 881,90 882,90 882,89 882,89 882,89 883,90 883,91 883,91 884,91 884,90 884,89 885,88 885,89 885,90 885,91 886,91 886,91 886,90 887,90 887,89 887,89 888,90 888,91 888,92 888,92 889,90 889,89 889,89 890,90 890,90 890,90 891,90 891,90 891,89 891,89 892,89 892,89 892,89 893,90 893,91 893,92 893,92 894,91 894,89 894,89 895,89 895,90 895,91 896,91 896,91 896,90 896,89 897,89 897,89 897,90 898,91 898,91 898,90 899,89 899,89 899,89 899,90 900,90 900,90 900,90 901,90 901,89 901,89 901,88 902,89 902,89 902,90 903,91 903,91 903,90 904,90 904,90 904,90 904,91 905,91 905,91 905,89 906,89 906,89 906,89 907,90 907,91 907,92 907,91 908,91 908,90 908,89 909,89 909,90 909,90 909,91 910,91 910,91 910,91 911,90 911,89 911,89 912,90 912,91 912,92 912,92 913,91 913,91 913,90 914,91 914,91 914,91 915,91 915,91 915,90 915,89 916,88 916,88 916,88 917,89 917,91 917,92 917,92 918,91 918,91 918,90 919,90 919,90 919,90 920,91 920,91 920,90 920,90 921,89 921,90 921,90 922,90 922,90 922,90 923,91 923,91 923,91 923,90 924,89 924,89 924,89 925,89 925,89 925,90 925,91 926,91 926,91 926,91 927,91 927,90 927,90 928,91 928,91 928,92 928,91 929,90 929,88 929,88 930,89 930,89 930,90 931,91 931,91 931,91 931,89 932,88 932,89 932,90 933,91 933,92 933,92 933,91 934,90 934,89 934,89 935,89 935,90 935,91 936,91 936,91 936,90 936,90 937,90 937,90 937,91 938,91 938,90 938,89 939,88 939,88 939,89 939,89 940,90 940,90 940,90 941,90 941,90 941,90 941,90 942,90 942,91 942,90 943,90 943,90 943,91 944,91 944,91 944,90 944,90 945,90 945,90 945,90 946,90 946,90 946,90 947,91 947,91 947,90 947,89 948,89 948,90 948,90 949,90 949,90 949,89 950,89 950,90 950,91 950,92 951,92 951,91 951,90 952,90 952,90 952,89 952,89 953,89 953,89 953,90 954,90 954,90 954,90 955,90 955,90 955,89 955,89 956,90 956,91 956,91 957,90 957,90 957,89 958,90 958,91 958,91 958,90 959,90 959,89 959,90 960,90 960,90 960,90 960,91 961,92 961,92 961,91 962,90 962,89 962,88 963,89 963,90 963,91 963,91 964,91 964,90 964,90 965,90 965,90 965,90 966,90 966,90 966,90 966,90 967,90 967,91 967,91 968,91 968,91 968,91 968,91 969,91 969,90 969,90 970,89 970,89 970,90 971,91 971,91 971,90 971,90 972,89 972,89 972,89 973,89 973,89 973,90 974,91 974,91 974,91 974,90 975,90 975,90 975,91 976,91 976,91 976,89 976,88 977,88 977,88 977,90 978,91 978,91 978,91 979,90 979,88 979,88 979,89 980,90 980,91 980,92 981,91 981,90 981,89 982,89 982,89 982,90 982,92 983,92 983,92 983,90 984,89 984,89 984,89 984,91 985,92 985,93 985,91 986,89 986,88 986,87 987,88 987,90 987,92 987,92 988,92 988,90 988,89 989,88 989,89 989,90 990,91 990,92 990,92 990,91 991,90 991,89 991,89 992,90 992,90 992,91 992,90 993,90 993,90 993,90 994,89 994,89 994,88 995,89 995,90 995,91 995,91 996,91 996,90 996,90 997,89 997,89 997,89 998,91 998,92 998,92 998,91 999,90 999,88 999,87 1000,88 1000,90 1000,91 1001,92 1001,91 1001,90 1001,89 1002,88 1002,89 1002,90 1003,91 1003,91 1003,91 1003,90 1004,89 1004,89 1004,89 1005,90 1005,91 1005,91 1006,91 1006,90 1006,90 1006,89 1007,89 1007,90 1007,91 1008,91 1008,91 1008,90 1009,89 1009,89 1009,89 1009,90 1010,90 1010,90 1010,90 1011,89 1011,89 1011,89 1011,89 1012,90 1012,90 1012,90 1013,90 1013,89 1013,89 1014,89 1014,89 1014,90 1014,90 1015,91 1015,91 1015,90 1016,90 1016,89 1016,90 1017,90 1017,89 1017,90 1017,90 1018,91 1018,91 1018,90 1019,89 1019,89 1019,88 1019,88 1020,88 1020,89 1020,90 1021,90 1021,91 1021,91 1022,91 1022,91 1022,90 1022,90 1023,90 1023,91 1023,90 1024,90 1024,89 1024,89 1025,89 1025,90 1025,90 1025,91 1026,91 1026,91 1026,90 1027,89 1027,88 1027,89 1027,89 1028,90 1028,90 1028,90 1029,90 1029,89 1029,89 1030,90 1030,91 1030,91 1030,91 1031,90 1031,89 1031,89 1032,90 1032,91 1032,92 1033,92 1033,91 1033,89 1033,88 1034,88 1034,89 1034,90 1035,91 1035,91 1035,91 1035,89 1036,88 1036,88 1036,89 1037,91 1037,92 1037,91 1038,90 1038,88 1038,88 1038,88 1039,90 1039,92 1039,92 1040,91 1040,90 1040,89 1041,89 1041,90 1041,91 1041,91 1042,90 1042,89 1042,89 1043,89 1043,89 1043,90 1043,91 1044,91 1044,91 1044,90 1045,89 1045,89 1045,90 1046,91 1046,92 1046,91 1046,90 1047,88 1047,88 1047,89 1048,91 1048,92 1048,91 1049,90 1049,89 1049,88 1049,88 1050,89 1050,90 1050,91 1051,91 1051,91 1051,90 1052,90 1052,90 1052,90 1052,90 1053,90 1053,90 1053,90 1054,90 1054,90 1054,90 1054,90 1055,91 1055,91 1055,91 1056,90 1056,89 1056,88 1057,88 1057,89 1057,90 1057,90 1058,91 1058,90 1058,90 1059,90 1059,90 1059,91 1060,91 1060,91 1060,91 1060,90 1061,89 1061,88 1061,88 1062,90 1062,91 1062,92 1062,92 1063,90 1063,88 1063,88 1064,89 1064,90 1064,91 1065,91 1065,91 1065,90 1065,90 1066,89 1066,89 1066,89 1067,90 1067,90 1067,90 1068,90 1068,90 1068,90 1068,91 1069,91 1069,90 1069,90 1070,90 1070,90 1070,91 1070,91 1071,90 1071,89 1071,88 1072,88 1072,89 1072,90 1073,90 1073,91 1073,91 1073,90 1074,89 1074,89 1074,89 1075,90 1075,91 1075,90 1076,90 1076,89 1076,90 1076,90 1077,90 1077,90 1077,90 1078,89 1078,89 1078,90 1078,90 1079,91 1079,92 1079,92 1080,91 1080,90 1080,89 1081,89 1081,89 1081,90 1081,91 1082,91 1082,90 1082,89 1083,89 1083,90 1083,91 1084,92 1084,92 1084,92 1084,91 1085,89 1085,88 1085,88 1086,90 1086,91 1086,92 1086,92 1087,91 1087,90 1087,90 1088,89 1088,89 1088,90 1089,90 1089,91 1089,91 1089,90 1090,90 1090,89 1090,89 1091,90 1091,90 1091,90 1092,90 1092,90 1092,90 1092,90 1093,90 1093,91 1093,90 1094,90 1094,90 1094,91 1094,90 1095,90 1095,89 1095,89 1096,89 1096,90 1096,90 1097,90 1097,91 1097,90 1097,90 1098,89 1098,89 1098,90 1099,90 1099,90 1099,90 1100,90 1100,90 1100,91 1100,91 1101,91 1101,91 1101,90 1102,90 1102,90 1102,90 1102,90 1103,90 1103,90 1103,90 1104,90 1104,90 1104,89 1105,89 1105,90 1105,90 1105,91 1106,91 1106,91 1106,90 1107,90 1107,89 1107,90 1108,90 1108,91 1108,92 1108,92 1109,91 1109,90 1109,90 1110,90 1110,90 1110,90 1111,90 1111,90 1111,90 1111,90 1112,90 1112,89 1112,89 1113,89 1113,89 1113,90 1113,90 1114,91 1114,91 1114,90 1115,90 1115,90 1115,90 1116,91 1116,91 1116,91 1116,91 1117,90 1117,89 1117,89 1118,88 1118,89 1118,89 1119,91 1119,92 1119,91 1119,90 1120,89 1120,89 1120,89 1121,89 1121,90 1121,91 1121,91 1122,90 1122,89 1122,89 1123,89 1123,90 1123,90 1124,90 1124,90 1124,91 1124,91 1125,91 1125,91 1125,91 1126,90 1126,89 1126,89 1127,89 1127,89 1127,90 1127,90 1128,91 1128,90 1128,89 1129,89 1129,89 1129,89 1129,91 1130,92 1130,92 1130,91 1131,89 1131,88 1131,88 1132,89 1132,90 1132,92 1132,93 1133,92 1133,90 1133,88 1134,88 1134,89 1134,91 1135,92 1135,92 1135,92 1135,90 1136,89 1136,88 1136,88 1137,89 1137,90 1137,91 1137,91 1138,90 1138,89 1138,89 1139,89 1139,90 1139,91 1140,91 1140,90 1140,90 1140,90 1141,89 1141,89 1141,89 1142,89 1142,90 1142,90 1143,91 1143,91 1143,91 1143,91 1144,91 1144,90 1144,90 1145,90 1145,90 1145,91 1145,90 1146,90 1146,89 1146,89 1147,89 1147,90 1147,90 1148,90 1148,90 1148,91 1148,91 1149,90 1149,90 1149,90 1150,90 1150,90 1150,90 1151,90 1151,90 1151,90 1151,90 1152,91 1152,91 1152,90 1153,90 1153,90 1153,90 1153,91 1154,91 1154,90 1154,89 1155,89 1155,89 1155,90 1156,91 1156,91 1156,91 1156,90 1157,90 1157,89 1157,90 1158,90 1158,91 1158,91 1159,90 1159,90 1159,90 1159,90 1160,90 1160,90 1160,89 1161,89 1161,89 1161,90 1162,90 1162,90 1162,91 1162,91 1163,91 1163,90 1163,89 1164,89 1164,90 1164,90 1164,91 1165,90 1165,89 1165,88 1166,88 1166,90 1166,92 1167,92 1167,92 1167,90 1167,89 1168,87 1168,87 1168,89 1169,90 1169,91 1169,91 1170,91 1170,90 1170,89 1170,89 1171,90 1171,90 1171,90 1172,90 1172,90 1172,90 1172,89 1173,89 1173,89 1173,89 1174,90 1174,90 1174,90 1175,90 1175,90 1175,90 1175,89 1176,89 1176,89 1176,90 1177,91 1177,92 1177,92 1178,91 1178,90 1178,88 1178,88 1179,89 1179,91 1179,92 1180,92 1180,91 1180,89 1180,88 1181,88 1181,89 1181,90 1182,91 1182,91 1182,90 1183,90 1183,90 1183,90 1183,90 1184,90 1184,90 1184,91 1185,91 1185,91 1185,91 1186,91 1186,90 1186,90 1186,90 1187,90 1187,90 1187,90 1188,91 1188,91 1188,91 1188,89 1189,88 1189,87 1189,88 1190,90 1190,92 1190,92 1191,92 1191,90 1191,89 1191,88 1192,89 1192,90 1192,91 1193,92 1193,92 1193,91 1194,90 1194,90 1194,89 1194,90 1195,90 1195,91 1195,91 1196,90 1196,90 1196,89 1196,89 1197,89 1197,89 1197,90 1198,91 1198,91 1198,91 1199,90 1199,90 1199,89 1199,90 1200,91 1200,91 1200,92 1201,92 1201,91 1201,89 1202,89 1202,89 1202,90 1202,90 1203,91 1203,91 1203,90 1204,89 1204,89 1204,89 1204,91 1205,91 1205,91 1205,90 1206,90 1206,90 1206,90 1207,90 1207,90 1207,91 1207,91 1208,91 1208,90 1208,90 1209,91 1209,91 1209,91 1210,91 1210,90 1210,90 1210,89 1211,89 1211,90 1211,90 1212,90 1212,90 1212,89 1213,89 1213,89 1213,90 1213,91 1214,91 1214,91 1214,91 1215,90 1215,90 1215,90 1215,90 1216,91 1216,91 1216,91 1217,91 1217,90 1217,89 1218,89 1218,89 1218,90 1218,91 1219,92 1219,92 1219,90 1220,89 1220,87 1220,88 1221,89 1221,91 1221,92 1221,91 1222,90 1222,88 1222,88 1223,88 1223,90 1223,92 1223,93 1224,93 1224,91 1224,89 1225,87 1225,88 1225,89 1226,91 1226,92 1226,92 1226,91 1227,90 1227,88 1227,88 1228,90 1228,91 1228,92 1229,92 1229,90 1229,89 1229,88 1230,88 1230,89 1230,89 1231,90 1231,90 1231,91 1231,92 1232,91 1232,90 1232,89 1233,89 1233,90 1233,90 1234,91 1234,92 1234,92 1234,91 1235,90 1235,89 1235,89 1236,90 1236,91 1236,92 1237,92 1237,91 1237,89 1237,88 1238,88 1238,89 1238,90 1239,91 1239,91 1239,91 1239,90 1240,89 1240,89 1240,90 1241,91 1241,91 1241,91 1242,90 1242,89 1242,90 1242,91 1243,91 1243,91 1243,91 1244,90 1244,89 1244,89 1245,90 1245,90 1245,90 1245,90 1246,90 1246,89 1246,89 1247,89 1247,90 1247,91 1247,91 1248,91 1248,90 1248,89 1249,89 1249,89 1249,90 1250,90 1250,91 1250,91 1250,91 1251,91 1251,90 1251,90 1252,90 1252,90 1252,90 1253,91 1253,91 1253,91 1253,91 1254,90 1254,89 1254,88 1255,88 1255,89 1255,91 1255,92 1256,92 1256,91 1256,90 1257,89 1257,90 1257,91 1258,92 1258,92 1258,91 1258,90 1259,89 1259,88 1259,89 1260,90 1260,92 1260,92 1261,92 1261,90 1261,89 1261,89 1262,89 1262,90 1262,91 1263,91 1263,91 1263,90 1263,89 1264,89 1264,90 1264,90 1265,91 1265,91 1265,90 1266,90 1266,90 1266,91 1266,91 1267,90 1267,89 1267,89 1268,90 1268,91 1268,91 1269,91 1269,90 1269,90 1269,89 1270,89 1270,90 1270,91 1271,92 1271,91 1271,90 1272,89 1272,88 1272,88 1272,89 1273,91 1273,92 1273,92 1274,91 1274,90 1274,89 1274,89 1275,90 1275,91 1275,92 1276,91 1276,90 1276,89 1277,89 1277,90 1277,91 1277,91 1278,90 1278,89 1278,89 1279,89 1279,90 1279,91 1280,91 1280,91 1280,90 1280,89 1281,89 1281,89 1281,90 1282,91 1282,92 1282,91 1282,90 1283,88 1283,88 1283,89 1284,90 1284,92 1284,93 1285,92 1285,90 1285,88 1285,88 1286,89 1286,90 1286,91 1287,91 1287,90 1287,89 1288,89 1288,89 1288,90 1288,90 1289,91 1289,91 1289,91 1290,91 1290,90 1290,90 1290,89 1291,89 1291,90 1291,90 1292,91 1292,91 1292,90 1293,90 1293,90 1293,90 1293,90 1294,90 1294,90 1294,90 1295,90 1295,89 1295,89 1296,88 1296,88 1296,89 1296,90 1297,90 1297,91 1297,91 1298,91 1298,91 1298,90 1298,90 1299,90 1299,90 1299,90 1300,89 1300,89 1300,89 1301,89 1301,89 1301,90 1301,90 1302,90 1302,90 1302,90 1303,90 1303,89 1303,89 1304,89 1304,90 1304,91 1304,91 1305,90 1305,88 1305,88 1306,88 1306,89 1306,91 1306,92 1307,92 1307,91 1307,90 1308,88 1308,88 1308,89 1309,91 1309,92 1309,91 1309,90 1310,88 1310,86 1310,86 1311,88 1311,91 1311,93 1312,93 1312,92 1312,90 1312,88 1313,88 1313,88 1313,89 1314,90 1314,92 1314,92 1314,91 1315,89 1315,88 1315,88 1316,88 1316,90 1316,91 1317,91 1317,91 1317,91 1317,90 1318,89 1318,89 1318,89 1319,90 1319,91 1319,92 1320,92 1320,91 1320,89 1320,87 1321,87 1321,89 1321,90 1322,91 1322,91 1322,91 1323,90 1323,89 1323,88 1323,88 1324,89 1324,90 1324,91 1325,90 1325,90 1325,91 1325,91 1326,90 1326,90 1326,89 1327,89 1327,90 1327,91 1328,91 1328,91 1328,90 1328,89 1329,88 1329,88 1329,89 1330,90 1330,91 1330,92 1331,91 1331,89 1331,88 1331,87 1332,88 1332,91 1332,93 1333,93 1333,92 1333,90 1333,89 1334,88 1334,88 1334,90 1335,91 1335,92 1335,91 1336,90 1336,89 1336,89 1336,89 1337,90 1337,90 1337,89 1338,89 1338,90 1338,91 1339,91 1339,90 1339,89 1339,88 1340,89 1340,90 1340,92 1341,93 1341,92 1341,91 1341,89 1342,87 1342,87 1342,89 1343,92 1343,94 1343,94 1344,92 1344,89 1344,86 1344,86 1345,87 1345,90 1345,92 1346,93 1346,91 1346,89 1347,87 1347,87 1347,89 1347,91 1348,93 1348,93 1348,92 1349,89 1349,88 1349,87 1349,89 1350,91 1350,92 1350,93 1351,92 1351,90 1351,89 1352,88 1352,88 1352,90 1352,91 1353,92 1353,91 1353,90 1354,89 1354,89 1354,89 1355,89 1355,90 1355,91 1355,91 1356,91 1356,90 1356,89 1357,89 1357,89 1357,91 1357,92 1358,92 1358,92 1358,90 1359,88 1359,87 1359,88 1360,90 1360,92 1360,93 1360,92 1361,91 1361,89 1361,88 1362,87 1362,88 1362,90 1363,92 1363,92 1363,91 1363,90 1364,90 1364,90 1364,91 1365,91 1365,92 1365,91 1365,90 1366,89 1366,88 1366,88 1367,89 1367,90 1367,90 1368,91 1368,91 1368,91 1368,90 1369,90 1369,90 1369,90 1370,90 1370,90 1370,90 1371,90 1371,90 1371,89 1371,89 1372,90 1372,90 1372,90 1373,90 1373,90 1373,90 1374,91 1374,91 1374,92 1374,92 1375,91 1375,90 1375,89 1376,88 1376,88 1376,89 1376,90 1377,91 1377,91 1377,91 1378,90 1378,89 1378,90 1379,91 1379,92 1379,92 1379,91 1380,90 1380,88 1380,88 1381,89 1381,90 1381,92 1382,93 1382,92 1382,90 1382,89 1383,88 1383,89 1383,91 1384,92 1384,92 1384,91 1384,90 1385,90 1385,89 1385,89 1386,89 1386,89 1386,90 1387,90 1387,90 1387,90 1387,90 1388,90 1388,91 1388,91 1389,91 1389,90 1389,90 1390,90 1390,90 1390,90 1390,89 1391,89 1391,89 1391,90 1392,91 1392,92 1392,92 1392,91 1393,89 1393,88 1393,88 1394,89 1394,91 1394,92 1395,91 1395,90 1395,89 1395,88 1396,89 1396,90 1396,91 1397,91 1397,90 1397,90 1398,90 1398,91 1398,91 1398,91 1399,91 1399,90 1399,89 1400,89 1400,89 1400,89 1400,90 1401,91 1401,91 1401,91 1402,90 1402,89 1402,90 1403,91 1403,91 1403,91 1403,90 1404,89 1404,89 1404,89 1405,90 1405,91 1405,92 1406,92 1406,90 1406,89 1406,89 1407,89 1407,90 1407,90 1408,91 1408,91 1408,91 1408,91 1409,91 1409,90 1409,90 1410,89 1410,89 1410,89 1411,90 1411,90 1411,91 1411,91 1412,91 1412,91 1412,89 1413,89 1413,89 1413,90 1414,91 "/>
<rect x="2943" y="12" width="45" height="40" opacity="0.1" fill="#0000FF" stroke="none"/>
<rect x="2943" y="12" width="45" height="40" opacity="1" fill="none" stroke="#0000FF"/>
</svg>
