<svg width="3000" height="200" viewBox="0 0 3000 200" xmlns="http://www.w3.org/2000/svg">
<rect x="0" y="0" width="3000" height="200" opacity="1" fill="#FFFFFF" stroke="none"/>
<line opacity="0.1" stroke="#000000" stroke-width="1" x1="27" y1="172" x2="27" y2="7"/>
<line opacity="0.1" stroke="#000000" stroke-width="1" x1="56" y1="172" x2="56" y2="7"/>
<line opacity="0.1" stroke="#000000" stroke-width="1" x1="86" y1="172" x2="86" y2="7"/>
<line opacity="0.1" stroke="#000000" stroke-width="1" x1="115" y1="172" x2="115" y2="7"/>
<line opacity="0.1" stroke="#000000" stroke-width="1" x1="145" y1="172" x2="145" y2="7"/>
<line opacity="0.1" stroke="#000000" stroke-width="1" x1="175" y1="172" x2="175" y2="7"/>
<line opacity="0.1" stroke="#000000" stroke-width="1" x1="204" y1="172" x2="204" y2="7"/>
<line opacity="0.1" stroke="#000000" stroke-width="1" x1="234" y1="172" x2="234" y2="7"/>
<line opacity="0.1" stroke="#000000" stroke-width="1" x1="264" y1="172" x2="264" y2="7"/>
<line opacity="0.1" stroke="#000000" stroke-width="1" x1="293" y1="172" x2="293" y2="7"/>
<line opacity="0.1" stroke="#000000" stroke-width="1" x1="323" y1="172" x2="323" y2="7"/>
<line opacity="0.1" stroke="#000000" stroke-width="1" x1="353" y1="172" x2="353" y2="7"/>
<line opacity="0.1" stroke="#000000" stroke-width="1" x1="382" y1="172" x2="382" y2="7"/>
<line opacity="0.1" stroke="#000000" stroke-width="1" x1="412" y1="172" x2="412" y2="7"/>
<line opacity="0.1" stroke="#000000" stroke-width="1" x1="442" y1="172" x2="442" y2="7"/>
<line opacity="0.1" stroke="#000000" stroke-width="1" x1="471" y1="172" x2="471" y2="7"/>
<line opacity="0.1" stroke="#000000" stroke-width="1" x1="501" y1="172" x2="501" y2="7"/>
<line opacity="0.1" stroke="#000000" stroke-width="1" x1="531" y1="172" x2="531" y2="7"/>
<line opacity="0.1" stroke="#000000" stroke-width="1" x1="560" y1="172" x2="560" y2="7"/>
<line opacity="0.1" stroke="#000000" stroke-width="1" x1="590" y1="172" x2="590" y2="7"/>
<line opacity="0.1" stroke="#000000" stroke-width="1" x1="620" y1="172" x2="620" y2="7"/>
<line opacity="0.1" stroke="#000000" stroke-width="1" x1="649" y1="172" x2="649" y2="7"/>
<line opacity="0.1" stroke="#000000" stroke-width="1" x1="679" y1="172" x2="679" y2="7"/>
<line opacity="0.1" stroke="#000000" stroke-width="1" x1="708" y1="172" x2="708" y2="7"/>
<line opacity="0.1" stroke="#000000" stroke-width="1" x1="738" y1="172" x2="738" y2="7"/>
<line opacity="0.1" stroke="#000000" stroke-width="1" x1="768" y1="172" x2="768" y2="7"/>
<line opacity="0.1" stroke="#000000" stroke-width="1" x1="797" y1="172" x2="797" y2="7"/>
<line opacity="0.1" stroke="#000000" stroke-width="1" x1="827" y1="172" x2="827" y2="7"/>
<line opacity="0.1" stroke="#000000" stroke-width="1" x1="857" y1="172" x2="857" y2="7"/>
<line opacity="0.1" stroke="#000000" stroke-width="1" x1="886" y1="172" x2="886" y2="7"/>
<line opacity="0.1" stroke="#000000" stroke-width="1" x1="916" y1="172" x2="916" y2="7"/>
<line opacity="0.1" stroke="#000000" stroke-width="1" x1="946" y1="172" x2="946" y2="7"/>
<line opacity="0.1" stroke="#000000" stroke-width="1" x1="975" y1="172" x2="975" y2="7"/>
<line opacity="0.1" stroke="#000000" stroke-width="1" x1="1005" y1="172" x2="1005" y2="7"/>
<line opacity="0.1" stroke="#000000" stroke-width="1" x1="1035" y1="172" x2="1035" y2="7"/>
<line opacity="0.1" stroke="#000000" stroke-width="1" x1="1064" y1="172" x2="1064" y2="7"/>
<line opacity="0.1" stroke="#000000" stroke-width="1" x1="1094" y1="172" x2="1094" y2="7"/>
<line opacity="0.1" stroke="#000000" stroke-width="1" x1="1124" y1="172" x2="1124" y2="7"/>
<line opacity="0.1" stroke="#000000" stroke-width="1" x1="1153" y1="172" x2="1153" y2="7"/>
<line opacity="0.1" stroke="#000000" stroke-width="1" x1="1183" y1="172" x2="1183" y2="7"/>
<line opacity="0.1" stroke="#000000" stroke-width="1" x1="1213" y1="172" x2="1213" y2="7"/>
<line opacity="0.1" stroke="#000000" stroke-width="1" x1="1242" y1="172" x2="1242" y2="7"/>
<line opacity="0.1" stroke="#000000" stroke-width="1" x1="1272" y1="172" x2="1272" y2="7"/>
<line opacity="0.1" stroke="#000000" stroke-width="1" x1="1301" y1="172" x2="1301" y2="7"/>
<line opacity="0.1" stroke="#000000" stroke-width="1" x1="1331" y1="172" x2="1331" y2="7"/>
<line opacity="0.1" stroke="#000000" stroke-width="1" x1="1361" y1="172" x2="1361" y2="7"/>
<line opacity="0.1" stroke="#000000" stroke-width="1" x1="1390" y1="172" x2="1390" y2="7"/>
<line opacity="0.1" stroke="#000000" stroke-width="1" x1="1420" y1="172" x2="1420" y2="7"/>
<line opacity="0.1" stroke="#000000" stroke-width="1" x1="1450" y1="172" x2="1450" y2="7"/>
<line opacity="0.1" stroke="#000000" stroke-width="1" x1="1479" y1="172" x2="1479" y2="7"/>
<line opacity="0.1" stroke="#000000" stroke-width="1" x1="1509" y1="172" x2="1509" y2="7"/>
<line opacity="0.1" stroke="#000000" stroke-width="1" x1="1539" y1="172" x2="1539" y2="7"/>
<line opacity="0.1" stroke="#000000" stroke-width="1" x1="1568" y1="172" x2="1568" y2="7"/>
<line opacity="0.1" stroke="#000000" stroke-width="1" x1="1598" y1="172" x2="1598" y2="7"/>
<line opacity="0.1" stroke="#000000" stroke-width="1" x1="1628" y1="172" x2="1628" y2="7"/>
<line opacity="0.1" stroke="#000000" stroke-width="1" x1="1657" y1="172" x2="1657" y2="7"/>
<line opacity="0.1" stroke="#000000" stroke-width="1" x1="1687" y1="172" x2="1687" y2="7"/>
<line opacity="0.1" stroke="#000000" stroke-width="1" x1="1717" y1="172" x2="1717" y2="7"/>
<line opacity="0.1" stroke="#000000" stroke-width="1" x1="1746" y1="172" x2="1746" y2="7"/>
<line opacity="0.1" stroke="#000000" stroke-width="1" x1="1776" y1="172" x2="1776" y2="7"/>
<line opacity="0.1" stroke="#000000" stroke-width="1" x1="1806" y1="172" x2="1806" y2="7"/>
<line opacity="0.1" stroke="#000000" stroke-width="1" x1="1835" y1="172" x2="1835" y2="7"/>
<line opacity="0.1" stroke="#000000" stroke-width="1" x1="1865" y1="172" x2="1865" y2="7"/>
<line opacity="0.1" stroke="#000000" stroke-width="1" x1="1894" y1="172" x2="1894" y2="7"/>
<line opacity="0.1" stroke="#000000" stroke-width="1" x1="1924" y1="172" x2="1924" y2="7"/>
<line opacity="0.1" stroke="#000000" stroke-width="1" x1="1954" y1="172" x2="1954" y2="7"/>
<line opacity="0.1" stroke="#000000" stroke-width="1" x1="1983" y1="172" x2="1983" y2="7"/>
<line opacity="0.1" stroke="#000000" stroke-width="1" x1="2013" y1="172" x2="2013" y2="7"/>
<line opacity="0.1" stroke="#000000" stroke-width="1" x1="2043" y1="172" x2="2043" y2="7"/>
<line opacity="0.1" stroke="#000000" stroke-width="1" x1="2072" y1="172" x2="2072" y2="7"/>
<line opacity="0.1" stroke="#000000" stroke-width="1" x1="2102" y1="172" x2="2102" y2="7"/>
<line opacity="0.1" stroke="#000000" stroke-width="1" x1="2132" y1="172" x2="2132" y2="7"/>
<line opacity="0.1" stroke="#000000" stroke-width="1" x1="2161" y1="172" x2="2161" y2="7"/>
<line opacity="0.1" stroke="#000000" stroke-width="1" x1="2191" y1="172" x2="2191" y2="7"/>
<line opacity="0.1" stroke="#000000" stroke-width="1" x1="2221" y1="172" x2="2221" y2="7"/>
<line opacity="0.1" stroke="#000000" stroke-width="1" x1="2250" y1="172" x2="2250" y2="7"/>
<line opacity="0.1" stroke="#000000" stroke-width="1" x1="2280" y1="172" x2="2280" y2="7"/>
<line opacity="0.1" stroke="#000000" stroke-width="1" x1="2310" y1="172" x2="2310" y2="7"/>
<line opacity="0.1" stroke="#000000" stroke-width="1" x1="2339" y1="172" x2="2339" y2="7"/>
<line opacity="0.1" stroke="#000000" stroke-width="1" x1="2369" y1="172" x2="2369" y2="7"/>
<line opacity="0.1" stroke="#000000" stroke-width="1" x1="2399" y1="172" x2="2399" y2="7"/>
<line opacity="0.1" stroke="#000000" stroke-width="1" x1="2428" y1="172" x2="2428" y2="7"/>
<line opacity="0.1" stroke="#000000" stroke-width="1" x1="2458" y1="172" x2="2458" y2="7"/>
<line opacity="0.1" stroke="#000000" stroke-width="1" x1="2487" y1="172" x2="2487" y2="7"/>
<line opacity="0.1" stroke="#000000" stroke-width="1" x1="2517" y1="172" x2="2517" y2="7"/>
<line opacity="0.1" stroke="#000000" stroke-width="1" x1="2547" y1="172" x2="2547" y2="7"/>
<line opacity="0.1" stroke="#000000" stroke-width="1" x1="2576" y1="172" x2="2576" y2="7"/>
<line opacity="0.1" stroke="#000000" stroke-width="1" x1="2606" y1="172" x2="2606" y2="7"/>
<line opacity="0.1" stroke="#000000" stroke-width="1" x1="2636" y1="172" x2="2636" y2="7"/>
<line opacity="0.1" stroke="#000000" stroke-width="1" x1="2665" y1="172" x2="2665" y2="7"/>
<line opacity="0.1" stroke="#000000" stroke-width="1" x1="2695" y1="172" x2="2695" y2="7"/>
<line opacity="0.1" stroke="#000000" stroke-width="1" x1="2725" y1="172" x2="2725" y2="7"/>
<line opacity="0.1" stroke="#000000" stroke-width="1" x1="2754" y1="172" x2="2754" y2="7"/>
<line opacity="0.1" stroke="#000000" stroke-width="1" x1="2784" y1="172" x2="2784" y2="7"/>
<line opacity="0.1" stroke="#000000" stroke-width="1" x1="2814" y1="172" x2="2814" y2="7"/>
<line opacity="0.1" stroke="#000000" stroke-width="1" x1="2843" y1="172" x2="2843" y2="7"/>
<line opacity="0.1" stroke="#000000" stroke-width="1" x1="2873" y1="172" x2="2873" y2="7"/>
<line opacity="0.1" stroke="#000000" stroke-width="1" x1="2903" y1="172" x2="2903" y2="7"/>
<line opacity="0.1" stroke="#000000" stroke-width="1" x1="2932" y1="172" x2="2932" y2="7"/>
<line opacity="0.1" stroke="#000000" stroke-width="1" x1="2962" y1="172" x2="2962" y2="7"/>
<line opacity="0.1" stroke="#000000" stroke-width="1" x1="2992" y1="172" x2="2992" y2="7"/>
<line opacity="0.1" stroke="#000000" stroke-width="1" x1="27" y1="172" x2="2992" y2="172"/>
<line opacity="0.1" stroke="#000000" stroke-width="1" x1="27" y1="170" x2="2992" y2="170"/>
<line opacity="0.1" stroke="#000000" stroke-width="1" x1="27" y1="168" x2="2992" y2="168"/>
<line opacity="0.1" stroke="#000000" stroke-width="1" x1="27" y1="166" x2="2992" y2="166"/>
<line opacity="0.1" stroke="#000000" stroke-width="1" x1="27" y1="164" x2="2992" y2="164"/>
<line opacity="0.1" stroke="#000000" stroke-width="1" x1="27" y1="162" x2="2992" y2="162"/>
<line opacity="0.1" stroke="#000000" stroke-width="1" x1="27" y1="160" x2="2992" y2="160"/>
<line opacity="0.1" stroke="#000000" stroke-width="1" x1="27" y1="158" x2="2992" y2="158"/>
<line opacity="0.1" stroke="#000000" stroke-width="1" x1="27" y1="156" x2="2992" y2="156"/>
<line opacity="0.1" stroke="#000000" stroke-width="1" x1="27" y1="154" x2="2992" y2="154"/>
<line opacity="0.1" stroke="#000000" stroke-width="1" x1="27" y1="152" x2="2992" y2="152"/>
<line opacity="0.1" stroke="#000000" stroke-width="1" x1="27" y1="150" x2="2992" y2="150"/>
<line opacity="0.1" stroke="#000000" stroke-width="1" x1="27" y1="148" x2="2992" y2="148"/>
<line opacity="0.1" stroke="#000000" stroke-width="1" x1="27" y1="146" x2="2992" y2="146"/>
<line opacity="0.1" stroke="#000000" stroke-width="1" x1="27" y1="144" x2="2992" y2="144"/>
<line opacity="0.1" stroke="#000000" stroke-width="1" x1="27" y1="142" x2="2992" y2="142"/>
<line opacity="0.1" stroke="#000000" stroke-width="1" x1="27" y1="139" x2="2992" y2="139"/>
<line opacity="0.1" stroke="#000000" stroke-width="1" x1="27" y1="137" x2="2992" y2="137"/>
<line opacity="0.1" stroke="#000000" stroke-width="1" x1="27" y1="135" x2="2992" y2="135"/>
<line opacity="0.1" stroke="#000000" stroke-width="1" x1="27" y1="133" x2="2992" y2="133"/>
<line opacity="0.1" stroke="#000000" stroke-width="1" x1="27" y1="131" x2="2992" y2="131"/>
<line opacity="0.1" stroke="#000000" stroke-width="1" x1="27" y1="129" x2="2992" y2="129"/>
<line opacity="0.1" stroke="#000000" stroke-width="1" x1="27" y1="127" x2="2992" y2="127"/>
<line opacity="0.1" stroke="#000000" stroke-width="1" x1="27" y1="125" x2="2992" y2="125"/>
<line opacity="0.1" stroke="#000000" stroke-width="1" x1="27" y1="123" x2="2992" y2="123"/>
<line opacity="0.1" stroke="#000000" stroke-width="1" x1="27" y1="121" x2="2992" y2="121"/>
<line opacity="0.1" stroke="#000000" stroke-width="1" x1="27" y1="119" x2="2992" y2="119"/>
<line opacity="0.1" stroke="#000000" stroke-width="1" x1="27" y1="117" x2="2992" y2="117"/>
<line opacity="0.1" stroke="#000000" stroke-width="1" x1="27" y1="115" x2="2992" y2="115"/>
<line opacity="0.1" stroke="#000000" stroke-width="1" x1="27" y1="113" x2="2992" y2="113"/>
<line opacity="0.1" stroke="#000000" stroke-width="1" x1="27" y1="111" x2="2992" y2="111"/>
<line opacity="0.1" stroke="#000000" stroke-width="1" x1="27" y1="109" x2="2992" y2="109"/>
<line opacity="0.1" stroke="#000000" stroke-width="1" x1="27" y1="106" x2="2992" y2="106"/>
<line opacity="0.1" stroke="#000000" stroke-width="1" x1="27" y1="104" x2="2992" y2="104"/>
<line opacity="0.1" stroke="#000000" stroke-width="1" x1="27" y1="102" x2="2992" y2="102"/>
<line opacity="0.1" stroke="#000000" stroke-width="1" x1="27" y1="100" x2="2992" y2="100"/>
<line opacity="0.1" stroke="#000000" stroke-width="1" x1="27" y1="98" x2="2992" y2="98"/>
<line opacity="0.1" stroke="#000000" stroke-width="1" x1="27" y1="96" x2="2992" y2="96"/>
<line opacity="0.1" stroke="#000000" stroke-width="1" x1="27" y1="94" x2="2992" y2="94"/>
<line opacity="0.1" stroke="#000000" stroke-width="1" x1="27" y1="92" x2="2992" y2="92"/>
<line opacity="0.1" stroke="#000000" stroke-width="1" x1="27" y1="90" x2="2992" y2="90"/>
<line opacity="0.1" stroke="#000000" stroke-width="1" x1="27" y1="88" x2="2992" y2="88"/>
<line opacity="0.1" stroke="#000000" stroke-width="1" x1="27" y1="86" x2="2992" y2="86"/>
<line opacity="0.1" stroke="#000000" stroke-width="1" x1="27" y1="84" x2="2992" y2="84"/>
<line opacity="0.1" stroke="#000000" stroke-width="1" x1="27" y1="82" x2="2992" y2="82"/>
<line opacity="0.1" stroke="#000000" stroke-width="1" x1="27" y1="80" x2="2992" y2="80"/>
<line opacity="0.1" stroke="#000000" stroke-width="1" x1="27" y1="78" x2="2992" y2="78"/>
<line opacity="0.1" stroke="#000000" stroke-width="1" x1="27" y1="76" x2="2992" y2="76"/>
<line opacity="0.1" stroke="#000000" stroke-width="1" x1="27" y1="73" x2="2992" y2="73"/>
<line opacity="0.1" stroke="#000000" stroke-width="1" x1="27" y1="71" x2="2992" y2="71"/>
<line opacity="0.1" stroke="#000000" stroke-width="1" x1="27" y1="69" x2="2992" y2="69"/>
<line opacity="0.1" stroke="#000000" stroke-width="1" x1="27" y1="67" x2="2992" y2="67"/>
<line opacity="0.1" stroke="#000000" stroke-width="1" x1="27" y1="65" x2="2992" y2="65"/>
<line opacity="0.1" stroke="#000000" stroke-width="1" x1="27" y1="63" x2="2992" y2="63"/>
<line opacity="0.1" stroke="#000000" stroke-width="1" x1="27" y1="61" x2="2992" y2="61"/>
<line opacity="0.1" stroke="#000000" stroke-width="1" x1="27" y1="59" x2="2992" y2="59"/>
<line opacity="0.1" stroke="#000000" stroke-width="1" x1="27" y1="57" x2="2992" y2="57"/>
<line opacity="0.1" stroke="#000000" stroke-width="1" x1="27" y1="55" x2="2992" y2="55"/>
<line opacity="0.1" stroke="#000000" stroke-width="1" x1="27" y1="53" x2="2992" y2="53"/>
<line opacity="0.1" stroke="#000000" stroke-width="1" x1="27" y1="51" x2="2992" y2="51"/>
<line opacity="0.1" stroke="#000000" stroke-width="1" x1="27" y1="49" x2="2992" y2="49"/>
<line opacity="0.1" stroke="#000000" stroke-width="1" x1="27" y1="47" x2="2992" y2="47"/>
<line opacity="0.1" stroke="#000000" stroke-width="1" x1="27" y1="45" x2="2992" y2="45"/>
<line opacity="0.1" stroke="#000000" stroke-width="1" x1="27" y1="43" x2="2992" y2="43"/>
<line opacity="0.1" stroke="#000000" stroke-width="1" x1="27" y1="40" x2="2992" y2="40"/>
<line opacity="0.1" stroke="#000000" stroke-width="1" x1="27" y1="38" x2="2992" y2="38"/>
<line opacity="0.1" stroke="#000000" stroke-width="1" x1="27" y1="36" x2="2992" y2="36"/>
<line opacity="0.1" stroke="#000000" stroke-width="1" x1="27" y1="34" x2="2992" y2="34"/>
<line opacity="0.1" stroke="#000000" stroke-width="1" x1="27" y1="32" x2="2992" y2="32"/>
<line opacity="0.1" stroke="#000000" stroke-width="1" x1="27" y1="30" x2="2992" y2="30"/>
<line opacity="0.1" stroke="#000000" stroke-width="1" x1="27" y1="28" x2="2992" y2="28"/>
<line opacity="0.1" stroke="#000000" stroke-width="1" x1="27" y1="26" x2="2992" y2="26"/>
<line opacity="0.1" stroke="#000000" stroke-width="1" x1="27" y1="24" x2="2992" y2="24"/>
<line opacity="0.1" stroke="#000000" stroke-width="1" x1="27" y1="22" x2="2992" y2="22"/>
<line opacity="0.1" stroke="#000000" stroke-width="1" x1="27" y1="20" x2="2992" y2="20"/>
<line opacity="0.1" stroke="#000000" stroke-width="1" x1="27" y1="18" x2="2992" y2="18"/>
<line opacity="0.1" stroke="#000000" stroke-width="1" x1="27" y1="16" x2="2992" y2="16"/>
<line opacity="0.1" stroke="#000000" stroke-width="1" x1="27" y1="14" x2="2992" y2="14"/>
<line opacity="0.1" stroke="#000000" stroke-width="1" x1="27" y1="12" x2="2992" y2="12"/>
<line opacity="0.1" stroke="#000000" stroke-width="1" x1="27" y1="10" x2="2992" y2="10"/>
<line opacity="0.2" stroke="#000000" stroke-width="1" x1="27" y1="172" x2="27" y2="7"/>
<line opacity="0.2" stroke="#000000" stroke-width="1" x1="323" y1="172" x2="323" y2="7"/>
<line opacity="0.2" stroke="#000000" stroke-width="1" x1="620" y1="172" x2="620" y2="7"/>
<line opacity="0.2" stroke="#000000" stroke-width="1" x1="916" y1="172" x2="916" y2="7"/>
<line opacity="0.2" stroke="#000000" stroke-width="1" x1="1213" y1="172" x2="1213" y2="7"/>
<line opacity="0.2" stroke="#000000" stroke-width="1" x1="1509" y1="172" x2="1509" y2="7"/>
<line opacity="0.2" stroke="#000000" stroke-width="1" x1="1806" y1="172" x2="1806" y2="7"/>
<line opacity="0.2" stroke="#000000" stroke-width="1" x1="2102" y1="172" x2="2102" y2="7"/>
<line opacity="0.2" stroke="#000000" stroke-width="1" x1="2399" y1="172" x2="2399" y2="7"/>
<line opacity="0.2" stroke="#000000" stroke-width="1" x1="2695" y1="172" x2="2695" y2="7"/>
<line opacity="0.2" stroke="#000000" stroke-width="1" x1="2992" y1="172" x2="2992" y2="7"/>
<line opacity="0.2" stroke="#000000" stroke-width="1" x1="27" y1="172" x2="2992" y2="172"/>
<line opacity="0.2" stroke="#000000" stroke-width="1" x1="27" y1="152" x2="2992" y2="152"/>
<line opacity="0.2" stroke="#000000" stroke-width="1" x1="27" y1="131" x2="2992" y2="131"/>
<line opacity="0.2" stroke="#000000" stroke-width="1" x1="27" y1="111" x2="2992" y2="111"/>
<line opacity="0.2" stroke="#000000" stroke-width="1" x1="27" y1="90" x2="2992" y2="90"/>
<line opacity="0.2" stroke="#000000" stroke-width="1" x1="27" y1="69" x2="2992" y2="69"/>
<line opacity="0.2" stroke="#000000" stroke-width="1" x1="27" y1="49" x2="2992" y2="49"/>
<line opacity="0.2" stroke="#000000" stroke-width="1" x1="27" y1="28" x2="2992" y2="28"/>
<line opacity="0.2" stroke="#000000" stroke-width="1" x1="27" y1="7" x2="2992" y2="7"/>
<polyline fill="none" opacity="1" stroke="#000000" stroke-width="1" points="26,7 26,172 "/>
<text x="17" y="172" dy="0.5ex" text-anchor="end" font-family="sans-serif" font-size="9.67741935483871" opacity="1" fill="#000000">
-0.4
</text>
<polyline fill="none" opacity="1" stroke="#000000" stroke-width="1" points="21,172 26,172 "/>
<text x="17" y="152" dy="0.5ex" text-anchor="end" font-family="sans-serif" font-size="9.67741935483871" opacity="1" fill="#000000">
-0.3
</text>
<polyline fill="none" opacity="1" stroke="#000000" stroke-width="1" points="21,152 26,152 "/>
<text x="17" y="131" dy="0.5ex" text-anchor="end" font-family="sans-serif" font-size="9.67741935483871" opacity="1" fill="#000000">
-0.2
</text>
<polyline fill="none" opacity="1" stroke="#000000" stroke-width="1" points="21,131 26,131 "/>
<text x="17" y="111" dy="0.5ex" text-anchor="end" font-family="sans-serif" font-size="9.67741935483871" opacity="1" fill="#000000">
-0.1
</text>
<polyline fill="none" opacity="1" stroke="#000000" stroke-width="1" points="21,111 26,111 "/>
<text x="17" y="90" dy="0.5ex" text-anchor="end" font-family="sans-serif" font-size="9.67741935483871" opacity="1" fill="#000000">
0.0
</text>
<polyline fill="none" opacity="1" stroke="#000000" stroke-width="1" points="21,90 26,90 "/>
<text x="17" y="69" dy="0.5ex" text-anchor="end" font-family="sans-serif" font-size="9.67741935483871" opacity="1" fill="#000000">
0.1
</text>
<polyline fill="none" opacity="1" stroke="#000000" stroke-width="1" points="21,69 26,69 "/>
<text x="17" y="49" dy="0.5ex" text-anchor="end" font-family="sans-serif" font-size="9.67741935483871" opacity="1" fill="#000000">
0.2
</text>
<polyline fill="none" opacity="1" stroke="#000000" stroke-width="1" points="21,49 26,49 "/>
<text x="17" y="28" dy="0.5ex" text-anchor="end" font-family="sans-serif" font-size="9.67741935483871" opacity="1" fill="#000000">
0.3
</text>
<polyline fill="none" opacity="1" stroke="#000000" stroke-width="1" points="21,28 26,28 "/>
<text x="17" y="7" dy="0.5ex" text-anchor="end" font-family="sans-serif" font-size="9.67741935483871" opacity="1" fill="#000000">
0.4
</text>
<polyline fill="none" opacity="1" stroke="#000000" stroke-width="1" points="21,7 26,7 "/>
<polyline fill="none" opacity="1" stroke="#000000" stroke-width="1" points="27,173 2992,173 "/>
<text x="27" y="183" dy="0.76em" text-anchor="middle" font-family="sans-serif" font-size="9.67741935483871" opacity="1" fill="#000000">
0.0
</text>
<polyline fill="none" opacity="1" stroke="#000000" stroke-width="1" points="27,173 27,178 "/>
<text x="323" y="183" dy="0.76em" text-anchor="middle" font-family="sans-serif" font-size="9.67741935483871" opacity="1" fill="#000000">
1000.0
</text>
<polyline fill="none" opacity="1" stroke="#000000" stroke-width="1" points="323,173 323,178 "/>
<text x="620" y="183" dy="0.76em" text-anchor="middle" font-family="sans-serif" font-size="9.67741935483871" opacity="1" fill="#000000">
2000.0
</text>
<polyline fill="none" opacity="1" stroke="#000000" stroke-width="1" points="620,173 620,178 "/>
<text x="916" y="183" dy="0.76em" text-anchor="middle" font-family="sans-serif" font-size="9.67741935483871" opacity="1" fill="#000000">
3000.0
</text>
<polyline fill="none" opacity="1" stroke="#000000" stroke-width="1" points="916,173 916,178 "/>
<text x="1213" y="183" dy="0.76em" text-anchor="middle" font-family="sans-serif" font-size="9.67741935483871" opacity="1" fill="#000000">
4000.0
</text>
<polyline fill="none" opacity="1" stroke="#000000" stroke-width="1" points="1213,173 1213,178 "/>
<text x="1509" y="183" dy="0.76em" text-anchor="middle" font-family="sans-serif" font-size="9.67741935483871" opacity="1" fill="#000000">
5000.0
</text>
<polyline fill="none" opacity="1" stroke="#000000" stroke-width="1" points="1509,173 1509,178 "/>
<text x="1806" y="183" dy="0.76em" text-anchor="middle" font-family="sans-serif" font-size="9.67741935483871" opacity="1" fill="#000000">
6000.0
</text>
<polyline fill="none" opacity="1" stroke="#000000" stroke-width="1" points="1806,173 1806,178 "/>
<text x="2102" y="183" dy="0.76em" text-anchor="middle" font-family="sans-serif" font-size="9.67741935483871" opacity="1" fill="#000000">
7000.0
</text>
<polyline fill="none" opacity="1" stroke="#000000" stroke-width="1" points="2102,173 2102,178 "/>
<text x="2399" y="183" dy="0.76em" text-anchor="middle" font-family="sans-serif" font-size="9.67741935483871" opacity="1" fill="#000000">
8000.0
</text>
<polyline fill="none" opacity="1" stroke="#000000" stroke-width="1" points="2399,173 2399,178 "/>
<text x="2695" y="183" dy="0.76em" text-anchor="middle" font-family="sans-serif" font-size="9.67741935483871" opacity="1" fill="#000000">
9000.0
</text>
<polyline fill="none" opacity="1" stroke="#000000" stroke-width="1" points="2695,173 2695,178 "/>
<text x="2992" y="183" dy="0.76em" text-anchor="middle" font-family="sans-serif" font-size="9.67741935483871" opacity="1" fill="#000000">
10000.0
</text>
<polyline fill="none" opacity="1" stroke="#000000" stroke-width="1" points="2992,173 2992,178 "/>
<polyline fill="none" opacity="1" stroke="#FF0000" stroke-width="1" points="27,97 27,95 27,89 27,86 28,89 28,94 28,91 29,85 29,85 29,90 29,93 30,90 30,86 30,88 31,92 31,93 31,89 32,87 32,89 32,92 32,92 33,88 33,87 33,90 34,94 34,94 34,90 35,90 35,93 35,96 35,95 36,91 36,90 36,92 37,94 37,92 37,88 37,88 38,90 38,90 38,87 39,84 39,83 39,85 40,87 40,87 40,87 40,89 41,91 41,91 41,90 42,90 42,92 42,96 43,96 43,95 43,93 43,92 44,91 44,88 44,85 45,84 45,85 45,85 45,83 46,81 46,83 46,89 47,96 47,101 47,106 48,110 48,113 48,111 48,105 49,97 49,89 49,80 50,71 50,62 50,58 51,61 51,67 51,77 51,89 52,104 52,117 52,125 53,127 53,123 53,115 53,102 54,86 54,70 54,58 55,53 55,56 55,66 56,81 56,99 56,116 56,127 57,130 57,127 57,116 58,99 58,78 58,58 59,45 59,42 59,49 59,64 60,85 60,107 60,125 61,135 61,135 61,126 61,109 62,87 62,65 62,49 63,44 63,52 63,67 64,88 64,109 64,125 64,132 65,130 65,118 65,100 66,80 66,64 66,59 67,64 67,74 67,88 67,104 68,115 68,118 68,113 69,103 69,89 69,75 69,68 70,68 70,74 70,84 71,95 71,104 71,108 72,107 72,101 72,93 72,84 73,76 73,73 73,74 74,79 74,87 74,95 75,101 75,103 75,102 75,99 76,94 76,89 76,85 77,86 77,89 77,95 77,100 78,101 78,97 78,90 79,84 79,80 79,79 80,81 80,87 80,93 80,97 81,96 81,90 81,82 82,78 82,81 82,90 83,99 83,105 83,105 83,98 84,87 84,78 84,75 85,82 85,94 85,103 86,105 86,99 86,88 86,77 87,73 87,79 87,91 88,102 88,105 88,98 88,86 89,77 89,76 89,84 90,97 90,106 90,107 91,98 91,85 91,74 91,74 92,85 92,100 92,108 93,106 93,96 93,84 94,79 94,84 94,94 94,102 95,103 95,95 95,82 96,73 96,74 96,85 96,96 97,102 97,100 97,94 98,90 98,90 98,94 99,97 99,95 99,89 99,81 100,77 100,81 100,92 101,102 101,104 101,99 102,92 102,87 102,87 102,89 103,90 103,89 103,87 104,86 104,89 104,95 104,100 105,100 105,95 105,87 106,82 106,82 106,87 107,92 107,93 107,92 107,90 108,88 108,87 108,88 109,90 109,94 109,95 110,94 110,90 110,88 110,87 111,89 111,91 111,93 112,94 112,94 112,92 112,91 113,90 113,87 113,85 114,84 114,87 114,91 115,95 115,94 115,91 115,88 116,89 116,92 116,93 117,90 117,85 117,85 118,90 118,95 118,95 118,91 119,88 119,89 119,93 120,97 120,94 120,88 120,84 121,85 121,91 121,95 122,94 122,91 122,89 123,89 123,90 123,89 123,89 124,92 124,97 124,98 125,91 125,82 125,78 126,83 126,92 126,96 126,92 127,86 127,85 127,90 128,96 128,97 128,94 128,93 129,93 129,92 129,90 130,88 130,87 130,89 131,91 131,92 131,91 131,91 132,91 132,91 132,88 133,86 133,85 133,86 134,87 134,89 134,89 134,89 135,90 135,92 135,94 136,95 136,92 136,89 137,89 137,92 137,95 137,95 138,91 138,88 138,89 139,92 139,94 139,92 139,89 140,88 140,88 140,89 141,88 141,86 141,87 142,89 142,90 142,90 142,89 143,89 143,90 143,91 144,91 144,91 144,90 145,91 145,92 145,92 145,91 146,89 146,89 146,90 147,92 147,93 147,90 147,85 148,82 148,84 148,92 149,100 149,100 149,93 150,84 150,80 150,84 150,93 151,98 151,95 151,88 152,80 152,78 152,84 153,94 153,99 153,96 153,88 154,81 154,81 154,89 155,99 155,105 155,104 155,96 156,85 156,77 156,78 157,87 157,96 157,98 158,92 158,83 158,77 158,78 159,86 159,96 159,102 160,100 160,92 160,84 161,79 161,80 161,87 161,96 162,102 162,102 162,96 163,88 163,81 163,79 163,83 164,92 164,99 164,99 165,92 165,83 165,78 166,80 166,86 166,93 166,97 167,98 167,95 167,90 168,85 168,84 168,85 169,88 169,92 169,95 169,96 170,94 170,89 170,85 171,82 171,84 171,89 171,93 172,95 172,94 172,91 173,86 173,81 173,79 174,84 174,91 174,97 174,98 175,93 175,87 175,84 176,87 176,92 176,96 177,96 177,92 177,86 177,81 178,79 178,81 178,85 179,89 179,93 179,97 179,100 180,101 180,96 180,88 181,80 181,74 181,74 182,79 182,88 182,98 182,106 183,107 183,103 183,94 184,84 184,75 184,70 185,69 185,74 185,85 185,99 186,111 186,116 186,113 187,103 187,90 187,75 188,63 188,59 188,64 188,76 189,92 189,110 189,122 190,124 190,116 190,100 190,83 191,67 191,57 191,55 192,60 192,72 192,89 193,108 193,125 193,133 193,131 194,119 194,100 194,76 195,54 195,43 195,45 196,57 196,74 196,93 196,111 197,124 197,131 197,130 198,121 198,107 198,88 198,69 199,53 199,45 199,46 200,56 200,73 200,93 201,111 201,124 201,128 201,126 202,118 202,106 202,91 203,79 203,69 203,64 204,62 204,65 204,71 204,78 205,86 205,92 205,98 206,102 206,105 206,108 206,109 207,110 207,106 207,99 208,89 208,80 208,74 209,72 209,73 209,76 209,80 210,84 210,87 210,90 211,94 211,97 211,98 212,99 212,98 212,97 212,96 213,94 213,92 213,90 214,89 214,88 214,86 214,85 215,86 215,88 215,90 216,91 216,89 216,86 217,82 217,79 217,80 217,82 218,87 218,92 218,98 219,102 219,103 219,103 220,100 220,97 220,92 220,89 221,86 221,83 221,81 222,81 222,83 222,86 222,88 223,88 223,89 223,91 224,93 224,94 224,94 225,94 225,94 225,94 225,94 226,93 226,92 226,89 227,85 227,80 227,76 228,74 228,76 228,80 228,87 229,95 229,102 229,106 230,106 230,103 230,97 230,91 231,83 231,77 231,73 232,72 232,75 232,83 233,94 233,104 233,113 233,119 234,120 234,116 234,106 235,92 235,78 235,66 236,57 236,52 236,52 236,59 237,70 237,84 237,99 238,111 238,120 238,122 238,119 239,112 239,101 239,90 240,79 240,69 240,62 241,58 241,61 241,71 241,86 242,102 242,114 242,121 243,123 243,120 243,113 244,101 244,87 244,73 244,63 245,59 245,61 245,66 246,75 246,89 246,104 247,114 247,116 247,112 247,102 248,89 248,76 248,67 249,63 249,67 249,77 249,92 250,106 250,115 250,120 251,120 251,115 251,105 252,92 252,79 252,67 252,58 253,56 253,60 253,69 254,81 254,94 254,107 255,117 255,123 255,123 255,118 256,109 256,97 256,85 257,73 257,63 257,56 257,54 258,57 258,66 258,76 259,87 259,98 259,106 260,113 260,116 260,114 260,106 261,94 261,82 261,73 262,68 262,69 262,76 263,86 263,99 263,109 263,116 264,117 264,114 264,107 265,97 265,83 265,69 265,60 266,58 266,64 266,77 267,93 267,105 267,112 268,114 268,112 268,105 268,94 269,81 269,70 269,61 270,59 270,67 270,82 271,98 271,109 271,115 271,115 272,113 272,108 272,100 273,89 273,80 273,75 273,75 274,76 274,80 274,87 275,95 275,99 275,99 276,94 276,87 276,78 276,71 277,68 277,69 277,76 278,88 278,101 278,112 279,120 279,125 279,124 279,115 280,100 280,84 280,70 281,60 281,55 281,55 281,61 282,72 282,86 282,99 283,107 283,112 283,113 284,110 284,100 284,87 284,78 285,75 285,78 285,86 286,96 286,104 286,109 287,108 287,101 287,92 287,81 288,70 288,61 288,54 289,56 289,67 289,83 289,98 290,111 290,120 290,124 291,122 291,114 291,100 292,84 292,71 292,64 292,62 293,64 293,71 293,85 294,100 294,110 294,113 295,108 295,98 295,87 295,77 296,73 296,74 296,80 297,90 297,102 297,114 298,121 298,124 298,121 298,109 299,94 299,79 299,67 300,57 300,53 300,56 300,65 301,77 301,91 301,103 302,113 302,118 302,119 303,116 303,110 303,103 303,95 304,85 304,74 304,64 305,58 305,56 305,59 306,64 306,73 306,85 306,98 307,111 307,120 307,125 308,125 308,117 308,104 308,89 309,75 309,65 309,59 310,57 310,61 310,72 311,85 311,98 311,109 311,116 312,119 312,118 312,113 313,103 313,90 313,79 314,69 314,63 314,61 314,64 315,74 315,87 315,101 316,113 316,122 316,127 316,126 317,120 317,108 317,93 318,79 318,68 318,61 319,58 319,59 319,63 319,71 320,81 320,95 320,108 321,119 321,126 321,128 322,124 322,115 322,101 322,86 323,72 323,61 323,55 324,53 324,55 324,62 324,74 325,89 325,104 325,115 326,123 326,128 326,128 327,122 327,110 327,94 327,78 328,64 328,52 328,46 329,47 329,55 329,69 330,85 330,102 330,117 330,127 331,130 331,127 331,119 332,107 332,92 332,79 332,68 333,59 333,55 333,57 334,64 334,76 334,91 335,106 335,118 335,125 335,126 336,123 336,115 336,100 337,83 337,68 337,58 338,52 338,53 338,60 338,72 339,87 339,102 339,114 340,120 340,121 340,118 340,109 341,94 341,79 341,70 342,68 342,73 342,82 343,93 343,103 343,110 343,113 344,110 344,101 344,88 345,75 345,63 345,55 346,53 346,63 346,81 346,99 347,113 347,123 347,126 348,124 348,116 348,103 349,88 349,75 349,68 349,65 350,66 350,72 350,82 351,94 351,102 351,105 351,104 352,98 352,89 352,78 353,72 353,72 353,79 354,89 354,101 354,111 354,118 355,122 355,120 355,112 356,100 356,87 356,75 357,65 357,58 357,56 357,59 358,67 358,78 358,92 359,105 359,116 359,123 359,125 360,122 360,113 360,101 361,87 361,74 361,65 362,61 362,61 362,65 362,70 363,79 363,91 363,105 364,114 364,118 364,117 365,112 365,104 365,94 365,84 366,75 366,68 366,63 367,61 367,66 367,76 367,89 368,103 368,113 368,120 369,123 369,121 369,114 370,103 370,91 370,79 370,67 371,58 371,55 371,58 372,67 372,82 372,97 373,111 373,121 373,127 373,128 374,123 374,113 374,100 375,86 375,74 375,64 375,59 376,57 376,60 376,67 377,79 377,93 377,106 378,117 378,123 378,124 378,120 379,112 379,101 379,87 380,75 380,65 380,59 381,57 381,58 381,64 381,74 382,86 382,98 382,109 383,118 383,123 383,124 383,119 384,108 384,93 384,80 385,68 385,59 385,53 386,54 386,60 386,73 386,87 387,103 387,117 387,126 388,129 388,127 388,118 389,104 389,88 389,74 389,63 390,55 390,52 390,55 391,64 391,77 391,93 391,109 392,121 392,127 392,127 393,123 393,115 393,101 394,87 394,75 394,65 394,59 395,56 395,59 395,65 396,76 396,88 396,100 397,111 397,118 397,122 397,123 398,118 398,109 398,97 399,84 399,72 399,62 399,57 400,57 400,63 400,75 401,89 401,101 401,113 402,120 402,123 402,121 402,113 403,102 403,88 403,76 404,67 404,61 404,59 405,62 405,70 405,82 405,95 406,108 406,118 406,124 407,123 407,118 407,110 408,98 408,85 408,74 408,65 409,58 409,56 409,58 410,66 410,78 410,92 410,105 411,116 411,123 411,126 412,125 412,117 412,105 413,92 413,81 413,71 413,63 414,57 414,56 414,61 415,71 415,83 415,98 416,112 416,123 416,128 416,126 417,118 417,105 417,91 418,79 418,69 418,62 418,58 419,60 419,67 419,78 420,90 420,103 420,112 421,118 421,119 421,117 421,112 422,103 422,90 422,78 423,69 423,62 423,60 424,62 424,69 424,79 424,92 425,104 425,115 425,122 426,125 426,123 426,116 426,104 427,89 427,76 427,64 428,56 428,54 428,58 429,68 429,81 429,95 429,110 430,121 430,129 430,130 431,125 431,113 431,96 432,78 432,63 432,53 432,51 433,57 433,69 433,82 434,95 434,107 434,116 434,119 435,118 435,113 435,101 436,86 436,71 436,64 437,65 437,73 437,85 437,99 438,110 438,116 438,116 439,111 439,100 439,87 440,74 440,66 440,62 440,61 441,65 441,74 441,87 442,99 442,110 442,117 442,119 443,118 443,112 443,102 444,89 444,78 444,69 445,61 445,57 445,59 445,67 446,78 446,91 446,101 447,110 447,115 447,118 448,116 448,110 448,102 448,93 449,83 449,73 449,66 450,62 450,64 450,70 450,81 451,93 451,104 451,112 452,116 452,115 452,111 453,103 453,92 453,80 453,69 454,60 454,55 454,55 455,61 455,72 455,87 456,102 456,115 456,124 456,127 457,126 457,121 457,110 458,95 458,79 458,66 459,57 459,51 459,51 459,58 460,72 460,87 460,102 461,114 461,122 461,126 461,125 462,119 462,108 462,93 463,77 463,63 463,53 464,48 464,52 464,62 464,78 465,95 465,110 465,121 466,127 466,127 466,123 467,115 467,104 467,92 467,79 468,67 468,59 468,54 469,54 469,62 469,77 469,95 470,111 470,121 470,125 471,124 471,118 471,108 472,94 472,79 472,68 472,63 473,62 473,66 473,75 474,89 474,104 474,114 475,115 475,110 475,100 475,87 476,74 476,66 476,64 477,68 477,78 477,90 477,102 478,110 478,116 478,119 479,115 479,104 479,90 480,78 480,67 480,60 480,60 481,64 481,72 481,84 482,98 482,111 482,120 483,124 483,124 483,119 483,110 484,97 484,83 484,69 485,58 485,52 485,52 485,58 486,68 486,81 486,96 487,111 487,121 487,127 488,128 488,121 488,107 488,90 489,73 489,61 489,54 490,55 490,63 490,75 491,89 491,103 491,114 491,120 492,121 492,117 492,108 493,92 493,75 493,64 493,63 494,68 494,80 494,93 495,105 495,112 495,115 496,112 496,104 496,91 496,78 497,69 497,63 497,60 498,64 498,74 498,86 499,98 499,109 499,116 499,119 500,117 500,111 500,102 501,91 501,80 501,71 501,65 502,61 502,62 502,66 503,74 503,85 503,97 504,108 504,116 504,120 504,119 505,113 505,105 505,95 506,85 506,75 506,68 507,64 507,65 507,71 507,80 508,90 508,99 508,107 509,112 509,112 509,108 509,101 510,90 510,80 510,72 511,64 511,60 511,60 512,67 512,77 512,89 512,103 513,116 513,126 513,130 514,129 514,122 514,107 515,90 515,73 515,60 515,51 516,46 516,47 516,57 517,74 517,95 517,113 518,125 518,129 518,126 518,118 519,106 519,90 519,75 520,63 520,58 520,58 520,63 521,74 521,89 521,106 522,118 522,122 522,117 523,105 523,88 523,74 523,64 524,63 524,68 524,79 525,92 525,104 525,112 526,118 526,120 526,115 526,104 527,92 527,81 527,71 528,64 528,62 528,66 528,73 529,84 529,96 529,107 530,114 530,118 530,116 531,111 531,103 531,92 531,81 532,71 532,64 532,60 533,61 533,65 533,74 534,85 534,96 534,106 534,114 535,117 535,117 535,113 536,105 536,94 536,83 536,73 537,65 537,61 537,62 538,67 538,76 538,87 539,99 539,111 539,119 539,123 540,123 540,118 540,108 541,95 541,82 541,69 542,59 542,52 542,51 542,56 543,67 543,83 543,99 544,114 544,126 544,133 544,133 545,126 545,112 545,96 546,80 546,65 546,53 547,44 547,43 547,50 547,64 548,83 548,103 548,122 549,136 549,143 549,142 550,132 550,115 550,94 550,75 551,58 551,46 551,40 552,41 552,49 552,64 552,82 553,101 553,118 553,129 554,134 554,133 554,126 555,112 555,96 555,79 555,64 556,52 556,46 556,46 557,53 557,67 557,84 558,102 558,118 558,130 558,134 559,132 559,124 559,108 560,91 560,75 560,63 560,53 561,49 561,52 561,61 562,75 562,92 562,107 563,119 563,126 563,128 563,124 564,115 564,102 564,87 565,74 565,63 565,55 566,51 566,54 566,61 566,73 567,87 567,101 567,113 568,122 568,127 568,126 569,120 569,110 569,96 569,82 570,69 570,59 570,53 571,52 571,58 571,70 571,84 572,98 572,111 572,121 573,126 573,126 573,119 574,105 574,88 574,72 574,61 575,55 575,56 575,63 576,74 576,88 576,101 577,110 577,115 577,114 577,109 578,99 578,84 578,70 579,62 579,62 579,69 579,81 580,97 580,111 580,119 581,120 581,116 581,105 582,90 582,75 582,63 582,55 583,54 583,63 583,78 584,94 584,108 584,116 585,120 585,119 585,113 585,102 586,88 586,75 586,68 587,66 587,68 587,74 587,86 588,98 588,107 588,111 589,108 589,99 589,89 590,80 590,75 590,74 590,77 591,85 591,96 591,107 592,116 592,121 592,121 593,114 593,102 593,88 593,75 594,64 594,58 594,57 595,60 595,67 595,79 595,94 596,107 596,117 596,123 597,124 597,120 597,110 598,99 598,87 598,75 598,65 599,58 599,55 599,57 600,65 600,76 600,90 601,105 601,117 601,123 601,124 602,118 602,107 602,93 603,81 603,70 603,61 603,56 604,57 604,63 604,75 605,89 605,104 605,117 606,125 606,128 606,124 606,116 607,104 607,90 607,75 608,62 608,54 608,52 609,56 609,65 609,79 609,95 610,109 610,120 610,126 611,128 611,124 611,113 611,98 612,80 612,67 612,59 613,57 613,61 613,70 614,81 614,94 614,105 614,112 615,115 615,114 615,108 616,98 616,83 616,69 617,60 617,60 617,68 617,79 618,91 618,101 618,107 619,108 619,106 619,99 620,89 620,78 620,68 620,61 621,61 621,70 621,85 622,100 622,110 622,116 622,117 623,112 623,104 623,92 624,80 624,70 624,66 625,66 625,69 625,78 625,91 626,103 626,111 626,113 627,110 627,101 627,88 628,76 628,70 628,69 628,74 629,83 629,94 629,105 630,115 630,121 630,122 630,115 631,101 631,86 631,73 632,64 632,60 632,63 633,70 633,79 633,90 633,99 634,105 634,107 634,105 635,100 635,92 635,84 636,80 636,81 636,86 636,94 637,103 637,109 637,110 638,105 638,97 638,86 638,75 639,66 639,59 639,56 640,60 640,73 640,91 641,108 641,120 641,125 641,123 642,115 642,105 642,93 643,80 643,69 643,65 644,65 644,70 644,80 644,92 645,104 645,111 645,112 646,107 646,96 646,84 646,74 647,71 647,72 647,78 648,89 648,102 648,113 649,121 649,123 649,120 649,109 650,94 650,81 650,70 651,62 651,59 651,60 652,64 652,73 652,86 652,100 653,111 653,119 653,121 654,120 654,114 654,106 654,94 655,82 655,71 655,62 656,56 656,54 656,57 657,64 657,74 657,87 657,101 658,113 658,121 658,125 659,121 659,109 659,93 660,78 660,66 660,60 660,60 661,67 661,77 661,89 662,100 662,110 662,115 662,115 663,110 663,100 663,85 664,72 664,65 664,66 665,73 665,84 665,98 665,111 666,120 666,122 666,119 667,109 667,95 667,79 668,67 668,59 668,56 668,61 669,75 669,90 669,103 670,113 670,117 670,116 670,111 671,101 671,89 671,79 672,74 672,73 672,74 673,79 673,87 673,96 673,102 674,103 674,99 674,90 675,79 675,68 675,63 676,65 676,73 676,85 676,98 677,110 677,120 677,126 678,125 678,115 678,99 679,80 679,65 679,55 679,53 680,57 680,66 680,78 681,92 681,105 681,113 681,115 682,112 682,106 682,95 683,83 683,74 683,71 684,74 684,82 684,92 684,100 685,104 685,103 685,98 686,90 686,82 686,73 687,65 687,59 687,60 687,70 688,85 688,101 688,113 689,118 689,118 689,114 689,106 690,93 690,79 690,68 691,64 691,65 691,69 692,77 692,90 692,104 692,114 693,116 693,111 693,99 694,84 694,72 694,66 695,67 695,74 695,85 695,96 696,106 696,115 696,121 697,121 697,113 697,99 697,84 698,72 698,65 698,64 699,69 699,76 699,86 700,97 700,106 700,111 700,110 701,107 701,99 701,87 702,75 702,68 702,68 703,74 703,84 703,96 703,103 704,106 704,104 704,98 705,89 705,79 705,70 705,62 706,59 706,62 706,73 707,88 707,101 707,112 708,118 708,121 708,118 708,112 709,101 709,88 709,75 710,66 710,60 710,59 711,61 711,68 711,79 711,91 712,103 712,115 712,122 713,125 713,124 713,119 713,110 714,99 714,87 714,76 715,66 715,61 715,60 716,63 716,71 716,82 716,94 717,105 717,114 717,119 718,119 718,114 718,105 719,93 719,81 719,72 719,65 720,62 720,63 720,69 721,80 721,92 721,102 721,110 722,114 722,115 722,111 723,102 723,90 723,78 724,69 724,63 724,61 724,61 725,65 725,75 725,89 726,104 726,114 726,118 727,117 727,110 727,100 727,88 728,77 728,67 728,63 729,63 729,66 729,73 730,83 730,98 730,111 730,119 731,119 731,112 731,98 732,82 732,70 732,64 732,66 733,73 733,84 733,96 734,106 734,113 734,116 735,114 735,106 735,93 735,80 736,70 736,63 736,60 737,64 737,71 737,80 738,91 738,103 738,113 738,118 739,120 739,117 739,111 740,102 740,91 740,80 740,69 741,61 741,57 741,57 742,61 742,68 742,80 743,92 743,105 743,114 743,118 744,119 744,116 744,108 745,98 745,88 745,77 746,68 746,62 746,61 746,65 747,74 747,86 747,98 748,110 748,118 748,120 748,118 749,111 749,99 749,86 750,74 750,64 750,57 751,55 751,60 751,69 751,82 752,96 752,109 752,119 753,124 753,126 753,123 754,114 754,101 754,87 754,73 755,63 755,55 755,52 756,55 756,62 756,75 756,91 757,106 757,120 757,128 758,132 758,129 758,121 759,107 759,91 759,77 759,64 760,53 760,47 760,47 761,54 761,67 761,83 762,100 762,114 762,125 762,132 763,133 763,128 763,114 764,95 764,77 764,63 764,54 765,53 765,58 765,67 766,80 766,95 766,108 767,116 767,120 767,118 767,110 768,96 768,81 768,71 769,69 769,75 769,86 770,98 770,108 770,113 770,113 771,109 771,99 771,87 772,75 772,65 772,59 772,59 773,67 773,82 773,98 774,108 774,114 774,115 775,112 775,105 775,94 775,82 776,72 776,69 776,72 777,77 777,85 777,96 778,106 778,112 778,111 778,104 779,93 779,80 779,68 780,63 780,65 780,73 781,85 781,99 781,111 781,121 782,126 782,124 782,113 783,96 783,79 783,66 783,57 784,55 784,60 784,69 785,81 785,95 785,106 786,113 786,114 786,111 786,103 787,91 787,79 787,72 788,71 788,76 788,86 789,97 789,106 789,109 789,106 790,99 790,89 790,79 791,69 791,60 791,56 791,58 792,68 792,83 792,99 793,114 793,124 793,128 794,126 794,119 794,107 794,91 795,75 795,62 795,54 796,50 796,51 796,59 797,73 797,89 797,105 797,118 798,126 798,129 798,129 799,125 799,117 799,105 799,90 800,76 800,65 800,58 801,57 801,59 801,67 802,78 802,92 802,105 802,116 803,123 803,126 803,123 804,115 804,104 804,92 805,79 805,68 805,59 805,56 806,59 806,67 806,80 807,93 807,105 807,115 807,120 808,119 808,113 808,102 809,89 809,77 809,69 810,64 810,64 810,67 810,75 811,85 811,97 811,106 812,113 812,115 812,115 813,110 813,103 813,92 813,81 814,72 814,66 814,63 815,64 815,68 815,75 815,86 816,99 816,111 816,120 817,125 817,124 817,120 818,113 818,102 818,89 818,76 819,66 819,57 819,53 820,56 820,63 820,76 821,90 821,105 821,118 821,128 822,132 822,131 822,123 823,108 823,92 823,77 823,64 824,55 824,52 824,54 825,61 825,73 825,87 826,101 826,113 826,122 826,127 827,125 827,118 827,105 828,91 828,78 828,66 829,57 829,52 829,51 829,58 830,74 830,94 830,112 831,124 831,130 831,130 831,123 832,111 832,94 832,77 833,65 833,59 833,57 834,60 834,68 834,82 834,98 835,110 835,115 835,113 836,104 836,90 836,76 837,66 837,63 837,66 837,76 838,89 838,103 838,115 839,123 839,125 839,117 840,102 840,86 840,73 840,63 841,59 841,61 841,68 842,78 842,90 842,101 842,109 843,112 843,111 843,104 844,93 844,82 844,75 845,73 845,77 845,86 845,97 846,106 846,111 846,110 847,104 847,94 847,82 848,69 848,58 848,51 848,53 849,65 849,83 849,100 850,114 850,122 850,124 850,121 851,113 851,101 851,87 852,76 852,69 852,67 853,68 853,73 853,84 853,95 854,103 854,105 854,102 855,95 855,85 855,77 856,74 856,77 856,84 856,94 857,105 857,115 857,123 858,126 858,123 858,112 858,97 859,80 859,66 859,56 860,51 860,52 860,58 861,68 861,82 861,99 861,114 862,124 862,130 862,130 863,124 863,114 863,100 864,86 864,73 864,63 864,56 865,53 865,55 865,61 866,72 866,85 866,98 866,110 867,118 867,122 867,120 868,110 868,95 868,81 869,71 869,65 869,64 869,67 870,74 870,85 870,97 871,106 871,111 871,112 872,109 872,100 872,87 872,74 873,67 873,68 873,76 874,87 874,100 874,112 874,119 875,121 875,117 875,107 876,92 876,76 876,63 877,54 877,50 877,55 877,67 878,84 878,102 878,118 879,129 879,133 879,129 880,120 880,105 880,88 880,74 881,63 881,55 881,52 882,55 882,64 882,77 882,91 883,105 883,116 883,123 884,123 884,119 884,110 885,99 885,86 885,73 885,63 886,59 886,60 886,66 887,76 887,88 887,99 888,109 888,115 888,119 888,117 889,112 889,102 889,90 890,77 890,66 890,57 891,53 891,55 891,64 891,77 892,92 892,108 892,121 893,128 893,129 893,125 893,114 894,99 894,81 894,66 895,56 895,50 895,49 896,54 896,65 896,81 896,99 897,115 897,128 897,134 898,133 898,125 898,112 899,94 899,76 899,60 899,49 900,44 900,45 900,54 901,69 901,89 901,109 901,125 902,134 902,137 902,133 903,124 903,113 903,98 904,83 904,69 904,58 904,51 905,49 905,53 905,64 906,82 906,100 906,116 907,125 907,129 907,126 907,120 908,108 908,93 908,78 909,68 909,64 909,65 909,69 910,78 910,91 910,104 911,112 911,112 911,105 912,93 912,80 912,68 912,61 913,61 913,67 913,79 914,94 914,108 914,118 915,124 915,124 915,118 915,106 916,92 916,78 916,66 917,57 917,54 917,57 917,65 918,78 918,93 918,107 919,118 919,124 919,124 920,121 920,113 920,101 920,88 921,75 921,63 921,56 922,54 922,58 922,65 923,77 923,91 923,106 923,117 924,123 924,126 924,122 925,110 925,93 925,77 925,66 926,59 926,59 926,65 927,75 927,88 927,102 928,115 928,122 928,124 928,120 929,109 929,91 929,73 930,60 930,57 930,63 931,75 931,90 931,105 931,115 932,120 932,121 932,114 933,100 933,85 933,72 933,62 934,58 934,61 934,71 935,85 935,99 935,111 936,120 936,124 936,121 936,114 937,101 937,87 937,73 938,63 938,55 938,52 939,56 939,66 939,80 939,96 940,111 940,122 940,128 941,128 941,121 941,109 941,94 942,80 942,68 942,60 943,59 943,62 943,68 944,78 944,90 944,100 944,109 945,115 945,117 945,115 946,108 946,98 946,86 947,75 947,66 947,62 947,61 948,64 948,72 948,83 949,95 949,108 949,118 950,123 950,122 950,118 950,109 951,96 951,82 951,70 952,61 952,55 952,53 952,55 953,66 953,82 953,101 954,117 954,126 954,129 955,125 955,115 955,100 955,84 956,69 956,60 956,56 957,57 957,62 957,73 958,90 958,108 958,120 958,123 959,118 959,107 959,92 960,79 960,71 960,69 960,73 961,81 961,91 961,100 962,106 962,110 962,110 963,103 963,91 963,79 963,72 964,70 964,73 964,80 965,88 965,95 965,102 966,107 966,108 966,104 966,98 967,88 967,77 967,69 968,66 968,69 968,77 968,90 969,103 969,112 969,114 970,111 970,103 970,92 971,79 971,68 971,59 971,53 972,56 972,69 972,88 973,105 973,117 973,123 974,123 974,118 974,108 974,96 975,82 975,71 975,67 976,68 976,72 976,79 976,90 977,101 977,108 977,109 978,103 978,93 978,80 979,69 979,64 979,66 979,74 980,86 980,101 980,115 981,124 981,129 981,126 982,115 982,99 982,83 982,68 983,55 983,47 983,47 984,53 984,65 984,82 984,101 985,118 985,129 985,134 986,133 986,125 986,113 987,97 987,81 987,67 987,56 988,50 988,48 988,52 989,61 989,75 989,92 990,107 990,119 990,126 990,129 991,125 991,113 991,96 992,80 992,66 992,58 992,56 993,60 993,69 993,81 994,93 994,104 994,111 995,114 995,113 995,106 995,94 996,81 996,72 996,72 997,77 997,87 997,98 998,108 998,113 998,114 998,109 999,100 999,86 999,72 1000,62 1000,56 1000,55 1001,61 1001,73 1001,88 1001,103 1002,116 1002,124 1002,125 1003,122 1003,113 1003,100 1003,86 1004,73 1004,64 1004,58 1005,56 1005,60 1005,68 1006,80 1006,92 1006,103 1006,111 1007,115 1007,116 1007,112 1008,105 1008,96 1008,85 1009,75 1009,67 1009,63 1009,63 1010,67 1010,76 1010,87 1011,98 1011,107 1011,113 1011,117 1012,116 1012,111 1012,102 1013,89 1013,77 1013,66 1014,57 1014,52 1014,53 1014,61 1015,73 1015,87 1015,103 1016,116 1016,125 1016,129 1017,129 1017,121 1017,108 1017,91 1018,76 1018,63 1018,55 1019,50 1019,52 1019,61 1019,76 1020,94 1020,111 1020,121 1021,124 1021,121 1021,113 1022,101 1022,87 1022,73 1022,63 1023,59 1023,60 1023,66 1024,78 1024,94 1024,112 1025,124 1025,127 1025,120 1025,105 1026,89 1026,75 1026,66 1027,63 1027,67 1027,76 1027,89 1028,102 1028,111 1028,118 1029,119 1029,113 1029,101 1030,87 1030,75 1030,65 1030,61 1031,62 1031,68 1031,78 1032,89 1032,102 1032,113 1033,121 1033,124 1033,121 1033,113 1034,100 1034,86 1034,72 1035,60 1035,53 1035,52 1035,56 1036,65 1036,76 1036,90 1037,104 1037,115 1037,123 1038,124 1038,120 1038,112 1038,99 1039,85 1039,72 1039,63 1040,58 1040,57 1040,61 1041,70 1041,82 1041,96 1041,109 1042,119 1042,125 1042,124 1043,119 1043,109 1043,97 1043,84 1044,72 1044,62 1044,57 1045,55 1045,58 1045,65 1046,77 1046,92 1046,105 1046,116 1047,123 1047,126 1047,125 1048,116 1048,101 1048,84 1049,69 1049,58 1049,54 1049,55 1050,62 1050,73 1050,87 1051,101 1051,112 1051,120 1052,122 1052,118 1052,107 1052,91 1053,74 1053,63 1053,59 1054,64 1054,74 1054,86 1054,97 1055,104 1055,108 1055,107 1056,101 1056,92 1056,82 1057,73 1057,66 1057,63 1057,68 1058,79 1058,91 1058,103 1059,112 1059,117 1059,117 1060,114 1060,108 1060,98 1060,86 1061,75 1061,66 1061,59 1062,56 1062,59 1062,66 1062,77 1063,90 1063,104 1063,116 1064,124 1064,127 1064,126 1065,119 1065,107 1065,93 1065,78 1066,66 1066,57 1066,54 1067,56 1067,67 1067,82 1068,98 1068,110 1068,118 1068,121 1069,117 1069,108 1069,94 1070,79 1070,67 1070,61 1070,61 1071,65 1071,75 1071,91 1072,107 1072,118 1072,121 1073,116 1073,105 1073,89 1073,74 1074,63 1074,57 1074,58 1075,68 1075,82 1075,97 1076,111 1076,121 1076,126 1076,122 1077,111 1077,96 1077,82 1078,70 1078,63 1078,61 1078,64 1079,71 1079,80 1079,90 1080,97 1080,102 1080,103 1081,101 1081,94 1081,87 1081,84 1082,85 1082,89 1082,95 1083,103 1083,110 1083,112 1084,109 1084,102 1084,91 1084,78 1085,66 1085,55 1085,49 1086,50 1086,58 1086,72 1086,90 1087,108 1087,123 1087,134 1088,138 1088,135 1088,125 1089,109 1089,90 1089,73 1089,58 1090,49 1090,46 1090,50 1091,61 1091,76 1091,92 1092,107 1092,119 1092,127 1092,129 1093,126 1093,117 1093,105 1094,91 1094,78 1094,67 1094,60 1095,58 1095,63 1095,75 1096,92 1096,107 1096,118 1097,123 1097,122 1097,116 1097,104 1098,90 1098,76 1098,67 1099,64 1099,65 1099,69 1100,78 1100,91 1100,105 1100,114 1101,116 1101,113 1101,102 1102,87 1102,73 1102,63 1102,59 1103,62 1103,73 1103,88 1104,103 1104,116 1104,126 1105,127 1105,118 1105,101 1105,83 1106,68 1106,57 1106,52 1107,55 1107,63 1107,76 1108,90 1108,104 1108,114 1108,118 1109,117 1109,110 1109,97 1110,84 1110,75 1110,73 1111,76 1111,84 1111,96 1111,107 1112,114 1112,115 1112,111 1113,102 1113,88 1113,72 1113,58 1114,49 1114,48 1114,58 1115,75 1115,95 1115,112 1116,126 1116,133 1116,133 1116,126 1117,113 1117,96 1117,80 1118,69 1118,63 1118,61 1119,64 1119,74 1119,87 1119,98 1120,103 1120,102 1120,97 1121,88 1121,79 1121,74 1121,74 1122,79 1122,87 1122,97 1123,107 1123,115 1123,121 1124,123 1124,117 1124,106 1124,93 1125,79 1125,68 1125,59 1126,56 1126,57 1126,63 1127,74 1127,89 1127,102 1127,113 1128,119 1128,120 1128,118 1129,112 1129,102 1129,91 1129,80 1130,70 1130,62 1130,59 1131,60 1131,65 1131,72 1132,83 1132,94 1132,104 1132,111 1133,115 1133,114 1133,110 1134,102 1134,92 1134,81 1135,71 1135,64 1135,62 1135,65 1136,73 1136,84 1136,97 1137,109 1137,117 1137,121 1137,122 1138,119 1138,110 1138,98 1139,85 1139,73 1139,64 1140,58 1140,60 1140,67 1140,79 1141,94 1141,109 1141,120 1142,127 1142,128 1142,126 1143,118 1143,106 1143,91 1143,77 1144,65 1144,57 1144,55 1145,57 1145,65 1145,77 1145,93 1146,108 1146,121 1146,130 1147,134 1147,130 1147,119 1148,103 1148,86 1148,71 1148,59 1149,51 1149,48 1149,51 1150,59 1150,73 1150,89 1151,105 1151,119 1151,128 1151,132 1152,130 1152,122 1152,108 1153,90 1153,74 1153,60 1153,50 1154,46 1154,48 1154,56 1155,70 1155,86 1155,104 1156,119 1156,130 1156,135 1156,133 1157,125 1157,111 1157,93 1158,78 1158,64 1158,55 1159,50 1159,51 1159,58 1159,70 1160,86 1160,103 1160,118 1161,128 1161,132 1161,129 1162,119 1162,101 1162,81 1162,65 1163,55 1163,51 1163,54 1164,63 1164,76 1164,90 1164,105 1165,116 1165,122 1165,122 1166,117 1166,106 1166,89 1167,74 1167,64 1167,63 1167,70 1168,81 1168,94 1168,105 1169,112 1169,116 1169,114 1170,107 1170,95 1170,82 1170,70 1171,61 1171,57 1171,62 1172,74 1172,88 1172,100 1172,110 1173,118 1173,121 1173,120 1174,113 1174,102 1174,90 1175,78 1175,70 1175,64 1175,63 1176,68 1176,77 1176,86 "/>
<rect x="2943" y="12" width="45" height="40" opacity="0.1" fill="#0000FF" stroke="none"/>
<rect x="2943" y="12" width="45" height="40" opacity="1" fill="none" stroke="#0000FF"/>
</svg>
