<svg width="3000" height="200" viewBox="0 0 3000 200" xmlns="http://www.w3.org/2000/svg">
<rect x="0" y="0" width="3000" height="200" opacity="1" fill="#FFFFFF" stroke="none"/>
<line opacity="0.1" stroke="#000000" stroke-width="1" x1="27" y1="172" x2="27" y2="7"/>
<line opacity="0.1" stroke="#000000" stroke-width="1" x1="56" y1="172" x2="56" y2="7"/>
<line opacity="0.1" stroke="#000000" stroke-width="1" x1="86" y1="172" x2="86" y2="7"/>
<line opacity="0.1" stroke="#000000" stroke-width="1" x1="115" y1="172" x2="115" y2="7"/>
<line opacity="0.1" stroke="#000000" stroke-width="1" x1="145" y1="172" x2="145" y2="7"/>
<line opacity="0.1" stroke="#000000" stroke-width="1" x1="175" y1="172" x2="175" y2="7"/>
<line opacity="0.1" stroke="#000000" stroke-width="1" x1="204" y1="172" x2="204" y2="7"/>
<line opacity="0.1" stroke="#000000" stroke-width="1" x1="234" y1="172" x2="234" y2="7"/>
<line opacity="0.1" stroke="#000000" stroke-width="1" x1="264" y1="172" x2="264" y2="7"/>
<line opacity="0.1" stroke="#000000" stroke-width="1" x1="293" y1="172" x2="293" y2="7"/>
<line opacity="0.1" stroke="#000000" stroke-width="1" x1="323" y1="172" x2="323" y2="7"/>
<line opacity="0.1" stroke="#000000" stroke-width="1" x1="353" y1="172" x2="353" y2="7"/>
<line opacity="0.1" stroke="#000000" stroke-width="1" x1="382" y1="172" x2="382" y2="7"/>
<line opacity="0.1" stroke="#000000" stroke-width="1" x1="412" y1="172" x2="412" y2="7"/>
<line opacity="0.1" stroke="#000000" stroke-width="1" x1="442" y1="172" x2="442" y2="7"/>
<line opacity="0.1" stroke="#000000" stroke-width="1" x1="471" y1="172" x2="471" y2="7"/>
<line opacity="0.1" stroke="#000000" stroke-width="1" x1="501" y1="172" x2="501" y2="7"/>
<line opacity="0.1" stroke="#000000" stroke-width="1" x1="531" y1="172" x2="531" y2="7"/>
<line opacity="0.1" stroke="#000000" stroke-width="1" x1="560" y1="172" x2="560" y2="7"/>
<line opacity="0.1" stroke="#000000" stroke-width="1" x1="590" y1="172" x2="590" y2="7"/>
<line opacity="0.1" stroke="#000000" stroke-width="1" x1="620" y1="172" x2="620" y2="7"/>
<line opacity="0.1" stroke="#000000" stroke-width="1" x1="649" y1="172" x2="649" y2="7"/>
<line opacity="0.1" stroke="#000000" stroke-width="1" x1="679" y1="172" x2="679" y2="7"/>
<line opacity="0.1" stroke="#000000" stroke-width="1" x1="708" y1="172" x2="708" y2="7"/>
<line opacity="0.1" stroke="#000000" stroke-width="1" x1="738" y1="172" x2="738" y2="7"/>
<line opacity="0.1" stroke="#000000" stroke-width="1" x1="768" y1="172" x2="768" y2="7"/>
<line opacity="0.1" stroke="#000000" stroke-width="1" x1="797" y1="172" x2="797" y2="7"/>
<line opacity="0.1" stroke="#000000" stroke-width="1" x1="827" y1="172" x2="827" y2="7"/>
<line opacity="0.1" stroke="#000000" stroke-width="1" x1="857" y1="172" x2="857" y2="7"/>
<line opacity="0.1" stroke="#000000" stroke-width="1" x1="886" y1="172" x2="886" y2="7"/>
<line opacity="0.1" stroke="#000000" stroke-width="1" x1="916" y1="172" x2="916" y2="7"/>
<line opacity="0.1" stroke="#000000" stroke-width="1" x1="946" y1="172" x2="946" y2="7"/>
<line opacity="0.1" stroke="#000000" stroke-width="1" x1="975" y1="172" x2="975" y2="7"/>
<line opacity="0.1" stroke="#000000" stroke-width="1" x1="1005" y1="172" x2="1005" y2="7"/>
<line opacity="0.1" stroke="#000000" stroke-width="1" x1="1035" y1="172" x2="1035" y2="7"/>
<line opacity="0.1" stroke="#000000" stroke-width="1" x1="1064" y1="172" x2="1064" y2="7"/>
<line opacity="0.1" stroke="#000000" stroke-width="1" x1="1094" y1="172" x2="1094" y2="7"/>
<line opacity="0.1" stroke="#000000" stroke-width="1" x1="1124" y1="172" x2="1124" y2="7"/>
<line opacity="0.1" stroke="#000000" stroke-width="1" x1="1153" y1="172" x2="1153" y2="7"/>
<line opacity="0.1" stroke="#000000" stroke-width="1" x1="1183" y1="172" x2="1183" y2="7"/>
<line opacity="0.1" stroke="#000000" stroke-width="1" x1="1213" y1="172" x2="1213" y2="7"/>
<line opacity="0.1" stroke="#000000" stroke-width="1" x1="1242" y1="172" x2="1242" y2="7"/>
<line opacity="0.1" stroke="#000000" stroke-width="1" x1="1272" y1="172" x2="1272" y2="7"/>
<line opacity="0.1" stroke="#000000" stroke-width="1" x1="1301" y1="172" x2="1301" y2="7"/>
<line opacity="0.1" stroke="#000000" stroke-width="1" x1="1331" y1="172" x2="1331" y2="7"/>
<line opacity="0.1" stroke="#000000" stroke-width="1" x1="1361" y1="172" x2="1361" y2="7"/>
<line opacity="0.1" stroke="#000000" stroke-width="1" x1="1390" y1="172" x2="1390" y2="7"/>
<line opacity="0.1" stroke="#000000" stroke-width="1" x1="1420" y1="172" x2="1420" y2="7"/>
<line opacity="0.1" stroke="#000000" stroke-width="1" x1="1450" y1="172" x2="1450" y2="7"/>
<line opacity="0.1" stroke="#000000" stroke-width="1" x1="1479" y1="172" x2="1479" y2="7"/>
<line opacity="0.1" stroke="#000000" stroke-width="1" x1="1509" y1="172" x2="1509" y2="7"/>
<line opacity="0.1" stroke="#000000" stroke-width="1" x1="1539" y1="172" x2="1539" y2="7"/>
<line opacity="0.1" stroke="#000000" stroke-width="1" x1="1568" y1="172" x2="1568" y2="7"/>
<line opacity="0.1" stroke="#000000" stroke-width="1" x1="1598" y1="172" x2="1598" y2="7"/>
<line opacity="0.1" stroke="#000000" stroke-width="1" x1="1628" y1="172" x2="1628" y2="7"/>
<line opacity="0.1" stroke="#000000" stroke-width="1" x1="1657" y1="172" x2="1657" y2="7"/>
<line opacity="0.1" stroke="#000000" stroke-width="1" x1="1687" y1="172" x2="1687" y2="7"/>
<line opacity="0.1" stroke="#000000" stroke-width="1" x1="1717" y1="172" x2="1717" y2="7"/>
<line opacity="0.1" stroke="#000000" stroke-width="1" x1="1746" y1="172" x2="1746" y2="7"/>
<line opacity="0.1" stroke="#000000" stroke-width="1" x1="1776" y1="172" x2="1776" y2="7"/>
<line opacity="0.1" stroke="#000000" stroke-width="1" x1="1806" y1="172" x2="1806" y2="7"/>
<line opacity="0.1" stroke="#000000" stroke-width="1" x1="1835" y1="172" x2="1835" y2="7"/>
<line opacity="0.1" stroke="#000000" stroke-width="1" x1="1865" y1="172" x2="1865" y2="7"/>
<line opacity="0.1" stroke="#000000" stroke-width="1" x1="1894" y1="172" x2="1894" y2="7"/>
<line opacity="0.1" stroke="#000000" stroke-width="1" x1="1924" y1="172" x2="1924" y2="7"/>
<line opacity="0.1" stroke="#000000" stroke-width="1" x1="1954" y1="172" x2="1954" y2="7"/>
<line opacity="0.1" stroke="#000000" stroke-width="1" x1="1983" y1="172" x2="1983" y2="7"/>
<line opacity="0.1" stroke="#000000" stroke-width="1" x1="2013" y1="172" x2="2013" y2="7"/>
<line opacity="0.1" stroke="#000000" stroke-width="1" x1="2043" y1="172" x2="2043" y2="7"/>
<line opacity="0.1" stroke="#000000" stroke-width="1" x1="2072" y1="172" x2="2072" y2="7"/>
<line opacity="0.1" stroke="#000000" stroke-width="1" x1="2102" y1="172" x2="2102" y2="7"/>
<line opacity="0.1" stroke="#000000" stroke-width="1" x1="2132" y1="172" x2="2132" y2="7"/>
<line opacity="0.1" stroke="#000000" stroke-width="1" x1="2161" y1="172" x2="2161" y2="7"/>
<line opacity="0.1" stroke="#000000" stroke-width="1" x1="2191" y1="172" x2="2191" y2="7"/>
<line opacity="0.1" stroke="#000000" stroke-width="1" x1="2221" y1="172" x2="2221" y2="7"/>
<line opacity="0.1" stroke="#000000" stroke-width="1" x1="2250" y1="172" x2="2250" y2="7"/>
<line opacity="0.1" stroke="#000000" stroke-width="1" x1="2280" y1="172" x2="2280" y2="7"/>
<line opacity="0.1" stroke="#000000" stroke-width="1" x1="2310" y1="172" x2="2310" y2="7"/>
<line opacity="0.1" stroke="#000000" stroke-width="1" x1="2339" y1="172" x2="2339" y2="7"/>
<line opacity="0.1" stroke="#000000" stroke-width="1" x1="2369" y1="172" x2="2369" y2="7"/>
<line opacity="0.1" stroke="#000000" stroke-width="1" x1="2399" y1="172" x2="2399" y2="7"/>
<line opacity="0.1" stroke="#000000" stroke-width="1" x1="2428" y1="172" x2="2428" y2="7"/>
<line opacity="0.1" stroke="#000000" stroke-width="1" x1="2458" y1="172" x2="2458" y2="7"/>
<line opacity="0.1" stroke="#000000" stroke-width="1" x1="2487" y1="172" x2="2487" y2="7"/>
<line opacity="0.1" stroke="#000000" stroke-width="1" x1="2517" y1="172" x2="2517" y2="7"/>
<line opacity="0.1" stroke="#000000" stroke-width="1" x1="2547" y1="172" x2="2547" y2="7"/>
<line opacity="0.1" stroke="#000000" stroke-width="1" x1="2576" y1="172" x2="2576" y2="7"/>
<line opacity="0.1" stroke="#000000" stroke-width="1" x1="2606" y1="172" x2="2606" y2="7"/>
<line opacity="0.1" stroke="#000000" stroke-width="1" x1="2636" y1="172" x2="2636" y2="7"/>
<line opacity="0.1" stroke="#000000" stroke-width="1" x1="2665" y1="172" x2="2665" y2="7"/>
<line opacity="0.1" stroke="#000000" stroke-width="1" x1="2695" y1="172" x2="2695" y2="7"/>
<line opacity="0.1" stroke="#000000" stroke-width="1" x1="2725" y1="172" x2="2725" y2="7"/>
<line opacity="0.1" stroke="#000000" stroke-width="1" x1="2754" y1="172" x2="2754" y2="7"/>
<line opacity="0.1" stroke="#000000" stroke-width="1" x1="2784" y1="172" x2="2784" y2="7"/>
<line opacity="0.1" stroke="#000000" stroke-width="1" x1="2814" y1="172" x2="2814" y2="7"/>
<line opacity="0.1" stroke="#000000" stroke-width="1" x1="2843" y1="172" x2="2843" y2="7"/>
<line opacity="0.1" stroke="#000000" stroke-width="1" x1="2873" y1="172" x2="2873" y2="7"/>
<line opacity="0.1" stroke="#000000" stroke-width="1" x1="2903" y1="172" x2="2903" y2="7"/>
<line opacity="0.1" stroke="#000000" stroke-width="1" x1="2932" y1="172" x2="2932" y2="7"/>
<line opacity="0.1" stroke="#000000" stroke-width="1" x1="2962" y1="172" x2="2962" y2="7"/>
<line opacity="0.1" stroke="#000000" stroke-width="1" x1="2992" y1="172" x2="2992" y2="7"/>
<line opacity="0.1" stroke="#000000" stroke-width="1" x1="27" y1="172" x2="2992" y2="172"/>
<line opacity="0.1" stroke="#000000" stroke-width="1" x1="27" y1="169" x2="2992" y2="169"/>
<line opacity="0.1" stroke="#000000" stroke-width="1" x1="27" y1="165" x2="2992" y2="165"/>
<line opacity="0.1" stroke="#000000" stroke-width="1" x1="27" y1="161" x2="2992" y2="161"/>
<line opacity="0.1" stroke="#000000" stroke-width="1" x1="27" y1="157" x2="2992" y2="157"/>
<line opacity="0.1" stroke="#000000" stroke-width="1" x1="27" y1="154" x2="2992" y2="154"/>
<line opacity="0.1" stroke="#000000" stroke-width="1" x1="27" y1="150" x2="2992" y2="150"/>
<line opacity="0.1" stroke="#000000" stroke-width="1" x1="27" y1="146" x2="2992" y2="146"/>
<line opacity="0.1" stroke="#000000" stroke-width="1" x1="27" y1="142" x2="2992" y2="142"/>
<line opacity="0.1" stroke="#000000" stroke-width="1" x1="27" y1="139" x2="2992" y2="139"/>
<line opacity="0.1" stroke="#000000" stroke-width="1" x1="27" y1="135" x2="2992" y2="135"/>
<line opacity="0.1" stroke="#000000" stroke-width="1" x1="27" y1="131" x2="2992" y2="131"/>
<line opacity="0.1" stroke="#000000" stroke-width="1" x1="27" y1="127" x2="2992" y2="127"/>
<line opacity="0.1" stroke="#000000" stroke-width="1" x1="27" y1="124" x2="2992" y2="124"/>
<line opacity="0.1" stroke="#000000" stroke-width="1" x1="27" y1="120" x2="2992" y2="120"/>
<line opacity="0.1" stroke="#000000" stroke-width="1" x1="27" y1="116" x2="2992" y2="116"/>
<line opacity="0.1" stroke="#000000" stroke-width="1" x1="27" y1="112" x2="2992" y2="112"/>
<line opacity="0.1" stroke="#000000" stroke-width="1" x1="27" y1="109" x2="2992" y2="109"/>
<line opacity="0.1" stroke="#000000" stroke-width="1" x1="27" y1="105" x2="2992" y2="105"/>
<line opacity="0.1" stroke="#000000" stroke-width="1" x1="27" y1="101" x2="2992" y2="101"/>
<line opacity="0.1" stroke="#000000" stroke-width="1" x1="27" y1="97" x2="2992" y2="97"/>
<line opacity="0.1" stroke="#000000" stroke-width="1" x1="27" y1="94" x2="2992" y2="94"/>
<line opacity="0.1" stroke="#000000" stroke-width="1" x1="27" y1="90" x2="2992" y2="90"/>
<line opacity="0.1" stroke="#000000" stroke-width="1" x1="27" y1="86" x2="2992" y2="86"/>
<line opacity="0.1" stroke="#000000" stroke-width="1" x1="27" y1="82" x2="2992" y2="82"/>
<line opacity="0.1" stroke="#000000" stroke-width="1" x1="27" y1="79" x2="2992" y2="79"/>
<line opacity="0.1" stroke="#000000" stroke-width="1" x1="27" y1="75" x2="2992" y2="75"/>
<line opacity="0.1" stroke="#000000" stroke-width="1" x1="27" y1="71" x2="2992" y2="71"/>
<line opacity="0.1" stroke="#000000" stroke-width="1" x1="27" y1="67" x2="2992" y2="67"/>
<line opacity="0.1" stroke="#000000" stroke-width="1" x1="27" y1="64" x2="2992" y2="64"/>
<line opacity="0.1" stroke="#000000" stroke-width="1" x1="27" y1="60" x2="2992" y2="60"/>
<line opacity="0.1" stroke="#000000" stroke-width="1" x1="27" y1="56" x2="2992" y2="56"/>
<line opacity="0.1" stroke="#000000" stroke-width="1" x1="27" y1="52" x2="2992" y2="52"/>
<line opacity="0.1" stroke="#000000" stroke-width="1" x1="27" y1="49" x2="2992" y2="49"/>
<line opacity="0.1" stroke="#000000" stroke-width="1" x1="27" y1="45" x2="2992" y2="45"/>
<line opacity="0.1" stroke="#000000" stroke-width="1" x1="27" y1="41" x2="2992" y2="41"/>
<line opacity="0.1" stroke="#000000" stroke-width="1" x1="27" y1="37" x2="2992" y2="37"/>
<line opacity="0.1" stroke="#000000" stroke-width="1" x1="27" y1="34" x2="2992" y2="34"/>
<line opacity="0.1" stroke="#000000" stroke-width="1" x1="27" y1="30" x2="2992" y2="30"/>
<line opacity="0.1" stroke="#000000" stroke-width="1" x1="27" y1="26" x2="2992" y2="26"/>
<line opacity="0.1" stroke="#000000" stroke-width="1" x1="27" y1="22" x2="2992" y2="22"/>
<line opacity="0.1" stroke="#000000" stroke-width="1" x1="27" y1="19" x2="2992" y2="19"/>
<line opacity="0.1" stroke="#000000" stroke-width="1" x1="27" y1="15" x2="2992" y2="15"/>
<line opacity="0.1" stroke="#000000" stroke-width="1" x1="27" y1="11" x2="2992" y2="11"/>
<line opacity="0.1" stroke="#000000" stroke-width="1" x1="27" y1="7" x2="2992" y2="7"/>
<line opacity="0.2" stroke="#000000" stroke-width="1" x1="27" y1="172" x2="27" y2="7"/>
<line opacity="0.2" stroke="#000000" stroke-width="1" x1="323" y1="172" x2="323" y2="7"/>
<line opacity="0.2" stroke="#000000" stroke-width="1" x1="620" y1="172" x2="620" y2="7"/>
<line opacity="0.2" stroke="#000000" stroke-width="1" x1="916" y1="172" x2="916" y2="7"/>
<line opacity="0.2" stroke="#000000" stroke-width="1" x1="1213" y1="172" x2="1213" y2="7"/>
<line opacity="0.2" stroke="#000000" stroke-width="1" x1="1509" y1="172" x2="1509" y2="7"/>
<line opacity="0.2" stroke="#000000" stroke-width="1" x1="1806" y1="172" x2="1806" y2="7"/>
<line opacity="0.2" stroke="#000000" stroke-width="1" x1="2102" y1="172" x2="2102" y2="7"/>
<line opacity="0.2" stroke="#000000" stroke-width="1" x1="2399" y1="172" x2="2399" y2="7"/>
<line opacity="0.2" stroke="#000000" stroke-width="1" x1="2695" y1="172" x2="2695" y2="7"/>
<line opacity="0.2" stroke="#000000" stroke-width="1" x1="2992" y1="172" x2="2992" y2="7"/>
<line opacity="0.2" stroke="#000000" stroke-width="1" x1="27" y1="165" x2="2992" y2="165"/>
<line opacity="0.2" stroke="#000000" stroke-width="1" x1="27" y1="150" x2="2992" y2="150"/>
<line opacity="0.2" stroke="#000000" stroke-width="1" x1="27" y1="135" x2="2992" y2="135"/>
<line opacity="0.2" stroke="#000000" stroke-width="1" x1="27" y1="120" x2="2992" y2="120"/>
<line opacity="0.2" stroke="#000000" stroke-width="1" x1="27" y1="105" x2="2992" y2="105"/>
<line opacity="0.2" stroke="#000000" stroke-width="1" x1="27" y1="90" x2="2992" y2="90"/>
<line opacity="0.2" stroke="#000000" stroke-width="1" x1="27" y1="75" x2="2992" y2="75"/>
<line opacity="0.2" stroke="#000000" stroke-width="1" x1="27" y1="60" x2="2992" y2="60"/>
<line opacity="0.2" stroke="#000000" stroke-width="1" x1="27" y1="45" x2="2992" y2="45"/>
<line opacity="0.2" stroke="#000000" stroke-width="1" x1="27" y1="30" x2="2992" y2="30"/>
<line opacity="0.2" stroke="#000000" stroke-width="1" x1="27" y1="15" x2="2992" y2="15"/>
<polyline fill="none" opacity="1" stroke="#000000" stroke-width="1" points="26,7 26,172 "/>
<text x="17" y="165" dy="0.5ex" text-anchor="end" font-family="sans-serif" font-size="9.67741935483871" opacity="1" fill="#000000">
-1.0
</text>
<polyline fill="none" opacity="1" stroke="#000000" stroke-width="1" points="21,165 26,165 "/>
<text x="17" y="150" dy="0.5ex" text-anchor="end" font-family="sans-serif" font-size="9.67741935483871" opacity="1" fill="#000000">
-0.8
</text>
<polyline fill="none" opacity="1" stroke="#000000" stroke-width="1" points="21,150 26,150 "/>
<text x="17" y="135" dy="0.5ex" text-anchor="end" font-family="sans-serif" font-size="9.67741935483871" opacity="1" fill="#000000">
-0.6
</text>
<polyline fill="none" opacity="1" stroke="#000000" stroke-width="1" points="21,135 26,135 "/>
<text x="17" y="120" dy="0.5ex" text-anchor="end" font-family="sans-serif" font-size="9.67741935483871" opacity="1" fill="#000000">
-0.4
</text>
<polyline fill="none" opacity="1" stroke="#000000" stroke-width="1" points="21,120 26,120 "/>
<text x="17" y="105" dy="0.5ex" text-anchor="end" font-family="sans-serif" font-size="9.67741935483871" opacity="1" fill="#000000">
-0.2
</text>
<polyline fill="none" opacity="1" stroke="#000000" stroke-width="1" points="21,105 26,105 "/>
<text x="17" y="90" dy="0.5ex" text-anchor="end" font-family="sans-serif" font-size="9.67741935483871" opacity="1" fill="#000000">
-0.0
</text>
<polyline fill="none" opacity="1" stroke="#000000" stroke-width="1" points="21,90 26,90 "/>
<text x="17" y="75" dy="0.5ex" text-anchor="end" font-family="sans-serif" font-size="9.67741935483871" opacity="1" fill="#000000">
0.2
</text>
<polyline fill="none" opacity="1" stroke="#000000" stroke-width="1" points="21,75 26,75 "/>
<text x="17" y="60" dy="0.5ex" text-anchor="end" font-family="sans-serif" font-size="9.67741935483871" opacity="1" fill="#000000">
0.4
</text>
<polyline fill="none" opacity="1" stroke="#000000" stroke-width="1" points="21,60 26,60 "/>
<text x="17" y="45" dy="0.5ex" text-anchor="end" font-family="sans-serif" font-size="9.67741935483871" opacity="1" fill="#000000">
0.6
</text>
<polyline fill="none" opacity="1" stroke="#000000" stroke-width="1" points="21,45 26,45 "/>
<text x="17" y="30" dy="0.5ex" text-anchor="end" font-family="sans-serif" font-size="9.67741935483871" opacity="1" fill="#000000">
0.8
</text>
<polyline fill="none" opacity="1" stroke="#000000" stroke-width="1" points="21,30 26,30 "/>
<text x="17" y="15" dy="0.5ex" text-anchor="end" font-family="sans-serif" font-size="9.67741935483871" opacity="1" fill="#000000">
1.0
</text>
<polyline fill="none" opacity="1" stroke="#000000" stroke-width="1" points="21,15 26,15 "/>
<polyline fill="none" opacity="1" stroke="#000000" stroke-width="1" points="27,173 2992,173 "/>
<text x="27" y="183" dy="0.76em" text-anchor="middle" font-family="sans-serif" font-size="9.67741935483871" opacity="1" fill="#000000">
0.0
</text>
<polyline fill="none" opacity="1" stroke="#000000" stroke-width="1" points="27,173 27,178 "/>
<text x="323" y="183" dy="0.76em" text-anchor="middle" font-family="sans-serif" font-size="9.67741935483871" opacity="1" fill="#000000">
1000.0
</text>
<polyline fill="none" opacity="1" stroke="#000000" stroke-width="1" points="323,173 323,178 "/>
<text x="620" y="183" dy="0.76em" text-anchor="middle" font-family="sans-serif" font-size="9.67741935483871" opacity="1" fill="#000000">
2000.0
</text>
<polyline fill="none" opacity="1" stroke="#000000" stroke-width="1" points="620,173 620,178 "/>
<text x="916" y="183" dy="0.76em" text-anchor="middle" font-family="sans-serif" font-size="9.67741935483871" opacity="1" fill="#000000">
3000.0
</text>
<polyline fill="none" opacity="1" stroke="#000000" stroke-width="1" points="916,173 916,178 "/>
<text x="1213" y="183" dy="0.76em" text-anchor="middle" font-family="sans-serif" font-size="9.67741935483871" opacity="1" fill="#000000">
4000.0
</text>
<polyline fill="none" opacity="1" stroke="#000000" stroke-width="1" points="1213,173 1213,178 "/>
<text x="1509" y="183" dy="0.76em" text-anchor="middle" font-family="sans-serif" font-size="9.67741935483871" opacity="1" fill="#000000">
5000.0
</text>
<polyline fill="none" opacity="1" stroke="#000000" stroke-width="1" points="1509,173 1509,178 "/>
<text x="1806" y="183" dy="0.76em" text-anchor="middle" font-family="sans-serif" font-size="9.67741935483871" opacity="1" fill="#000000">
6000.0
</text>
<polyline fill="none" opacity="1" stroke="#000000" stroke-width="1" points="1806,173 1806,178 "/>
<text x="2102" y="183" dy="0.76em" text-anchor="middle" font-family="sans-serif" font-size="9.67741935483871" opacity="1" fill="#000000">
7000.0
</text>
<polyline fill="none" opacity="1" stroke="#000000" stroke-width="1" points="2102,173 2102,178 "/>
<text x="2399" y="183" dy="0.76em" text-anchor="middle" font-family="sans-serif" font-size="9.67741935483871" opacity="1" fill="#000000">
8000.0
</text>
<polyline fill="none" opacity="1" stroke="#000000" stroke-width="1" points="2399,173 2399,178 "/>
<text x="2695" y="183" dy="0.76em" text-anchor="middle" font-family="sans-serif" font-size="9.67741935483871" opacity="1" fill="#000000">
9000.0
</text>
<polyline fill="none" opacity="1" stroke="#000000" stroke-width="1" points="2695,173 2695,178 "/>
<text x="2992" y="183" dy="0.76em" text-anchor="middle" font-family="sans-serif" font-size="9.67741935483871" opacity="1" fill="#000000">
10000.0
</text>
<polyline fill="none" opacity="1" stroke="#000000" stroke-width="1" points="2992,173 2992,178 "/>
<polyline fill="none" opacity="1" stroke="#FF0000" stroke-width="1" points="27,90 27,91 27,91 27,90 28,90 28,90 28,90 29,90 29,90 29,90 29,90 30,90 30,90 30,90 31,90 31,90 31,90 32,90 32,90 32,90 32,90 33,90 33,90 33,90 34,90 34,90 34,90 35,90 35,90 35,90 35,91 36,91 36,90 36,90 37,90 37,91 37,91 37,90 38,90 38,90 38,91 39,90 39,90 39,90 40,90 40,90 40,90 40,89 41,89 41,90 41,90 42,90 42,89 42,90 43,90 43,90 43,90 43,90 44,90 44,90 44,91 45,91 45,91 45,91 45,91 46,91 46,91 46,91 47,91 47,91 47,90 48,90 48,90 48,90 48,90 49,89 49,89 49,89 50,89 50,90 50,90 51,90 51,90 51,90 51,90 52,90 52,90 52,91 53,91 53,90 53,90 53,90 54,90 54,90 54,89 55,89 55,89 55,89 56,89 56,89 56,90 56,91 57,91 57,91 57,91 58,91 58,91 58,91 59,90 59,90 59,89 59,89 60,89 60,88 60,88 61,89 61,89 61,90 61,90 62,91 62,92 62,93 63,93 63,92 63,92 64,91 64,90 64,89 64,88 65,87 65,87 65,87 66,86 66,87 66,88 67,90 67,91 67,92 67,93 68,93 68,93 68,93 69,92 69,91 69,90 69,89 70,88 70,88 70,88 71,89 71,90 71,90 72,91 72,92 72,92 72,92 73,91 73,90 73,89 74,88 74,87 74,87 75,87 75,88 75,90 75,91 76,92 76,93 76,93 77,93 77,92 77,91 77,90 78,89 78,88 78,88 79,88 79,89 79,91 80,92 80,92 80,92 80,92 81,92 81,91 81,89 82,89 82,88 82,88 83,89 83,90 83,92 83,93 84,93 84,92 84,91 85,90 85,89 85,87 86,86 86,86 86,86 86,88 87,90 87,92 87,93 88,93 88,93 88,92 88,91 89,89 89,88 89,88 90,88 90,89 90,90 91,92 91,93 91,93 91,92 92,91 92,91 92,90 93,89 93,89 93,89 94,90 94,91 94,91 94,91 95,90 95,89 95,89 96,88 96,88 96,89 96,90 97,91 97,92 97,92 98,92 98,92 98,90 99,89 99,88 99,88 99,89 100,90 100,90 100,91 101,91 101,91 101,90 102,89 102,89 102,89 102,90 103,90 103,91 103,91 104,92 104,92 104,91 104,90 105,90 105,90 105,90 106,90 106,90 106,90 107,90 107,90 107,90 107,90 108,90 108,90 108,90 109,89 109,89 109,89 110,89 110,89 110,90 110,91 111,92 111,92 111,91 112,90 112,90 112,89 112,89 113,89 113,89 113,90 114,91 114,91 114,90 115,90 115,89 115,89 115,89 116,89 116,89 116,90 117,90 117,90 117,90 118,90 118,91 118,91 118,91 119,90 119,90 119,90 120,89 120,89 120,89 120,90 121,90 121,91 121,90 122,90 122,90 122,90 123,89 123,89 123,89 123,89 124,89 124,90 124,90 125,90 125,91 125,91 126,91 126,90 126,90 126,90 127,90 127,90 127,90 128,90 128,89 128,89 128,89 129,89 129,90 129,90 130,91 130,91 130,91 131,91 131,90 131,90 131,89 132,89 132,89 132,89 133,89 133,90 133,90 134,91 134,91 134,90 134,89 135,89 135,88 135,88 136,89 136,90 136,91 137,92 137,92 137,91 137,90 138,90 138,89 138,89 139,89 139,89 139,89 139,89 140,89 140,89 140,89 141,89 141,89 141,90 142,90 142,91 142,91 142,90 143,89 143,89 143,89 144,89 144,91 144,92 145,93 145,93 145,92 145,91 146,90 146,89 146,88 147,89 147,89 147,90 147,90 148,90 148,90 148,89 149,88 149,87 149,87 150,88 150,89 150,91 150,91 151,92 151,91 151,90 152,90 152,89 152,89 153,89 153,90 153,91 153,92 154,92 154,92 154,91 155,91 155,90 155,89 155,88 156,88 156,89 156,90 157,91 157,91 157,92 158,91 158,91 158,90 158,88 159,87 159,87 159,88 160,89 160,90 160,91 161,92 161,92 161,91 161,90 162,89 162,88 162,87 163,88 163,89 163,91 163,93 164,93 164,93 164,92 165,90 165,88 165,86 166,85 166,86 166,88 166,90 167,92 167,93 167,93 168,93 168,92 168,90 169,88 169,87 169,87 169,87 170,88 170,90 170,92 171,93 171,93 171,93 171,92 172,91 172,89 172,88 173,87 173,86 173,87 174,88 174,89 174,90 174,91 175,92 175,92 175,92 176,92 176,91 176,90 177,88 177,87 177,86 177,87 178,89 178,91 178,93 179,94 179,94 179,92 179,90 180,89 180,88 180,88 181,88 181,88 181,89 182,89 182,90 182,90 182,89 183,90 183,91 183,92 184,92 184,92 184,91 185,90 185,88 185,87 185,86 186,86 186,87 186,88 187,90 187,91 187,92 188,92 188,92 188,92 188,92 189,92 189,91 189,91 190,90 190,89 190,89 190,89 191,88 191,88 191,88 192,88 192,88 192,89 193,89 193,90 193,91 193,92 194,92 194,92 194,91 195,91 195,90 195,90 196,90 196,90 196,91 196,91 197,90 197,89 197,88 198,88 198,89 198,89 198,90 199,91 199,91 199,91 200,90 200,89 200,89 201,89 201,89 201,89 201,90 202,90 202,89 202,89 203,89 203,89 203,91 204,92 204,93 204,93 204,93 205,92 205,90 205,89 206,88 206,88 206,88 206,88 207,88 207,89 207,89 208,89 208,89 208,90 209,91 209,92 209,92 209,92 210,92 210,91 210,90 211,88 211,87 211,88 212,88 212,89 212,90 212,91 213,91 213,92 213,91 214,91 214,91 214,91 214,91 215,90 215,89 215,88 216,88 216,88 216,88 217,89 217,91 217,92 217,93 218,93 218,92 218,91 219,90 219,88 219,87 220,87 220,87 220,88 220,89 221,89 221,90 221,90 222,91 222,91 222,91 222,92 223,93 223,93 223,93 224,92 224,90 224,89 225,88 225,87 225,87 225,87 226,89 226,90 226,91 227,91 227,91 227,91 228,91 228,90 228,89 228,89 229,89 229,89 229,89 230,89 230,90 230,91 230,91 231,91 231,91 231,91 232,91 232,91 232,91 233,91 233,91 233,91 233,89 234,88 234,87 234,87 235,88 235,89 235,90 236,92 236,93 236,92 236,91 237,90 237,90 237,90 238,90 238,91 238,92 238,92 239,91 239,89 239,87 240,87 240,88 240,89 241,90 241,92 241,92 241,92 242,90 242,88 242,87 243,87 243,88 243,89 244,90 244,91 244,92 244,93 245,93 245,93 245,93 246,93 246,92 246,91 247,89 247,88 247,87 247,87 248,88 248,90 248,92 249,93 249,93 249,92 249,90 250,88 250,87 250,86 251,87 251,88 251,90 252,92 252,93 252,93 252,93 253,93 253,92 253,91 254,89 254,88 254,88 255,88 255,88 255,90 255,91 256,92 256,92 256,91 257,90 257,89 257,89 257,89 258,90 258,92 258,93 259,94 259,93 259,92 260,91 260,89 260,88 260,87 261,87 261,88 261,89 262,91 262,92 262,92 263,93 263,92 263,91 263,90 264,88 264,87 264,86 265,86 265,88 265,90 265,93 266,95 266,96 266,95 267,94 267,92 267,90 268,88 268,87 268,87 268,87 269,89 269,90 269,92 270,92 270,93 270,92 271,91 271,90 271,88 271,87 272,87 272,87 272,89 273,90 273,92 273,93 273,93 274,92 274,91 274,90 275,89 275,88 275,88 276,88 276,88 276,89 276,89 277,90 277,91 277,92 278,92 278,92 278,91 279,90 279,89 279,89 279,89 280,90 280,91 280,92 281,91 281,90 281,89 281,88 282,87 282,88 282,89 283,91 283,92 283,92 284,92 284,91 284,90 284,88 285,87 285,87 285,88 286,89 286,90 286,91 287,92 287,92 287,92 287,92 288,91 288,90 288,90 289,89 289,88 289,88 289,89 290,90 290,90 290,91 291,91 291,91 291,91 292,90 292,89 292,90 292,90 293,91 293,92 293,91 294,91 294,90 294,89 295,88 295,88 295,88 295,88 296,89 296,91 296,92 297,93 297,93 297,92 298,91 298,90 298,89 298,89 299,89 299,90 299,90 300,90 300,91 300,91 300,91 301,90 301,90 301,89 302,88 302,88 302,88 303,89 303,89 303,90 303,90 304,92 304,93 304,93 305,93 305,92 305,92 306,91 306,90 306,90 306,89 307,89 307,89 307,89 308,90 308,91 308,92 308,92 309,92 309,91 309,89 310,88 310,87 310,87 311,88 311,89 311,90 311,91 312,92 312,92 312,92 313,92 313,91 313,91 314,90 314,89 314,89 314,88 315,89 315,90 315,91 316,92 316,92 316,92 316,91 317,90 317,89 317,88 318,88 318,88 318,90 319,91 319,92 319,93 319,93 320,93 320,91 320,89 321,88 321,87 321,87 322,88 322,89 322,91 322,93 323,94 323,94 323,93 324,92 324,90 324,88 324,87 325,87 325,88 325,90 326,92 326,93 326,93 327,93 327,92 327,90 327,88 328,86 328,85 328,85 329,86 329,88 329,90 330,93 330,95 330,96 330,96 331,94 331,92 331,91 332,89 332,87 332,87 332,88 333,89 333,90 333,91 334,91 334,91 334,91 335,90 335,89 335,89 335,90 336,90 336,89 336,89 337,88 337,88 337,88 338,89 338,90 338,91 338,92 339,93 339,94 339,94 340,93 340,92 340,89 340,87 341,86 341,85 341,86 342,87 342,89 342,91 343,93 343,95 343,95 343,94 344,93 344,91 344,89 345,87 345,86 345,87 346,88 346,89 346,91 346,92 347,93 347,92 347,91 348,90 348,88 348,88 349,88 349,89 349,91 349,92 350,93 350,93 350,92 351,91 351,89 351,88 351,87 352,87 352,87 352,88 353,89 353,91 353,92 354,93 354,94 354,93 354,92 355,90 355,88 355,88 356,88 356,88 356,89 357,90 357,91 357,91 357,92 358,92 358,92 358,93 359,92 359,91 359,90 359,88 360,88 360,87 360,86 361,87 361,89 361,91 362,92 362,93 362,93 362,93 363,92 363,90 363,88 364,87 364,87 364,88 365,89 365,91 365,94 365,95 366,96 366,94 366,92 367,90 367,87 367,85 367,84 368,84 368,86 368,89 369,92 369,94 369,96 370,96 370,94 370,92 370,89 371,87 371,85 371,85 372,86 372,88 372,90 373,92 373,93 373,93 373,93 374,92 374,92 374,91 375,90 375,89 375,89 375,89 376,89 376,88 376,89 377,89 377,89 377,89 378,90 378,91 378,92 378,92 379,92 379,91 379,90 380,89 380,89 380,88 381,88 381,89 381,90 381,91 382,91 382,92 382,92 383,91 383,91 383,90 383,89 384,89 384,89 384,88 385,88 385,89 385,90 386,90 386,90 386,90 386,90 387,91 387,90 387,90 388,90 388,91 388,91 389,90 389,90 389,90 389,89 390,89 390,88 390,89 391,90 391,91 391,91 391,92 392,92 392,91 392,90 393,89 393,88 393,88 394,88 394,90 394,91 394,92 395,93 395,93 395,92 396,91 396,89 396,88 397,87 397,87 397,88 397,88 398,89 398,90 398,91 399,92 399,92 399,92 399,90 400,89 400,88 400,88 401,88 401,89 401,90 402,90 402,91 402,92 402,92 403,92 403,91 403,90 404,89 404,88 404,88 405,88 405,89 405,91 405,92 406,92 406,92 406,91 407,91 407,89 407,89 408,88 408,89 408,90 408,90 409,90 409,90 409,89 410,89 410,88 410,88 410,88 411,89 411,90 411,92 412,92 412,93 412,92 413,91 413,90 413,89 413,89 414,89 414,89 414,90 415,91 415,92 415,92 416,91 416,90 416,88 416,88 417,88 417,89 417,89 418,90 418,90 418,91 418,91 419,91 419,90 419,90 420,89 420,89 420,89 421,90 421,91 421,92 421,91 422,91 422,90 422,89 423,88 423,88 423,88 424,88 424,89 424,91 424,92 425,93 425,93 425,92 426,90 426,88 426,87 426,86 427,87 427,88 427,90 428,92 428,94 428,94 429,93 429,91 429,89 429,87 430,86 430,86 430,87 431,89 431,91 431,93 432,95 432,95 432,94 432,91 433,89 433,86 433,85 434,85 434,86 434,87 434,90 435,92 435,94 435,94 436,93 436,92 436,90 437,88 437,87 437,86 437,86 438,88 438,90 438,92 439,94 439,94 439,94 440,93 440,91 440,88 440,86 441,86 441,86 441,87 442,89 442,89 442,90 442,90 443,90 443,90 443,91 444,91 444,92 444,92 445,91 445,91 445,91 445,90 446,88 446,87 446,88 447,88 447,89 447,90 448,92 448,93 448,93 448,93 449,91 449,89 449,87 450,85 450,84 450,86 450,88 451,91 451,94 451,96 452,96 452,95 452,92 453,89 453,86 453,84 453,83 454,84 454,86 454,89 455,92 455,94 455,95 456,94 456,93 456,91 456,89 457,87 457,86 457,86 458,88 458,89 458,91 459,92 459,92 459,92 459,92 460,91 460,89 460,88 461,88 461,89 461,89 461,90 462,91 462,91 462,91 463,89 463,88 463,88 464,88 464,89 464,89 464,91 465,92 465,93 465,93 466,92 466,91 466,90 467,89 467,88 467,87 467,87 468,88 468,90 468,91 469,92 469,92 469,92 469,92 470,91 470,90 470,89 471,89 471,89 471,89 472,89 472,89 472,90 472,90 473,89 473,89 473,89 474,91 474,92 474,94 475,94 475,94 475,92 475,89 476,87 476,85 476,84 477,85 477,87 477,89 477,92 478,94 478,95 478,95 479,94 479,92 479,89 480,87 480,85 480,85 480,86 481,88 481,91 481,93 482,95 482,95 482,94 483,92 483,89 483,86 483,85 484,85 484,86 484,88 485,91 485,93 485,95 485,95 486,94 486,93 486,91 487,89 487,87 487,86 488,86 488,87 488,89 488,90 489,91 489,91 489,91 490,90 490,90 490,89 491,89 491,89 491,90 491,90 492,91 492,91 492,91 493,90 493,90 493,90 493,90 494,90 494,90 494,90 495,91 495,91 495,91 496,90 496,89 496,89 496,88 497,88 497,88 497,89 498,90 498,90 498,90 499,90 499,91 499,91 499,91 500,90 500,89 500,89 501,90 501,90 501,91 501,91 502,91 502,91 502,90 503,89 503,89 503,89 504,89 504,90 504,92 504,93 505,94 505,93 505,92 506,90 506,87 506,85 507,85 507,85 507,87 507,90 508,92 508,95 508,95 509,95 509,94 509,91 509,89 510,87 510,86 510,86 511,87 511,89 511,91 512,93 512,94 512,94 512,93 513,91 513,89 513,88 514,87 514,87 514,87 515,88 515,90 515,91 515,92 516,92 516,92 516,92 517,91 517,90 517,89 518,88 518,87 518,87 518,88 519,89 519,91 519,93 520,94 520,94 520,93 520,92 521,90 521,89 521,88 522,87 522,87 522,88 523,89 523,90 523,92 523,94 524,94 524,94 524,92 525,90 525,88 525,86 526,85 526,85 526,86 526,88 527,90 527,93 527,94 528,95 528,95 528,93 528,91 529,89 529,88 529,87 530,87 530,88 530,89 531,91 531,92 531,93 531,92 532,91 532,90 532,89 533,88 533,88 533,88 534,89 534,90 534,91 534,92 535,92 535,92 535,91 536,89 536,89 536,89 536,89 537,89 537,90 537,91 538,93 538,93 538,93 539,91 539,90 539,88 539,86 540,86 540,87 540,88 541,90 541,92 541,94 542,94 542,94 542,93 542,90 543,88 543,87 543,87 544,87 544,88 544,90 544,92 545,94 545,94 545,93 546,92 546,90 546,88 547,87 547,86 547,87 547,88 548,90 548,91 548,93 549,94 549,94 549,93 550,91 550,89 550,87 550,86 551,86 551,87 551,88 552,90 552,92 552,93 552,93 553,93 553,92 553,91 554,89 554,88 554,87 555,87 555,88 555,89 555,91 556,92 556,93 556,93 557,92 557,91 557,89 558,88 558,87 558,87 558,87 559,89 559,90 559,91 560,92 560,92 560,92 560,90 561,89 561,88 561,88 562,88 562,88 562,89 563,91 563,92 563,93 563,92 564,92 564,91 564,90 565,89 565,88 565,87 566,87 566,88 566,89 566,90 567,91 567,92 567,92 568,91 568,90 568,90 569,89 569,89 569,89 569,89 570,90 570,90 570,90 571,90 571,90 571,90 571,90 572,90 572,89 572,89 573,90 573,91 573,92 574,92 574,92 574,92 574,91 575,89 575,88 575,88 576,88 576,89 576,90 577,91 577,92 577,93 577,92 578,91 578,90 578,88 579,87 579,87 579,87 579,88 580,89 580,92 580,93 581,94 581,94 581,93 582,91 582,89 582,87 582,87 583,87 583,88 583,89 584,91 584,92 584,93 585,93 585,93 585,91 585,89 586,88 586,88 586,88 587,89 587,90 587,91 587,91 588,91 588,90 588,89 589,88 589,88 589,89 590,90 590,92 590,93 590,94 591,93 591,92 591,90 592,88 592,86 592,86 593,86 593,88 593,90 593,92 594,93 594,94 594,93 595,92 595,90 595,88 595,86 596,86 596,86 596,88 597,89 597,91 597,93 598,94 598,94 598,93 598,92 599,90 599,89 599,87 600,87 600,87 600,88 601,89 601,90 601,91 601,92 602,92 602,92 602,92 603,91 603,89 603,88 603,87 604,87 604,88 604,89 605,91 605,92 605,92 606,93 606,93 606,92 606,91 607,90 607,89 607,88 608,87 608,87 608,88 609,89 609,90 609,92 609,93 610,93 610,93 610,92 611,90 611,88 611,87 611,87 612,87 612,88 612,90 613,91 613,93 613,93 614,93 614,92 614,90 614,89 615,87 615,87 615,87 616,88 616,89 616,91 617,92 617,93 617,93 617,92 618,91 618,90 618,89 619,88 619,88 619,88 620,88 620,89 620,91 620,92 621,93 621,93 621,92 622,91 622,89 622,88 622,87 623,87 623,87 623,88 624,89 624,91 624,92 625,93 625,94 625,93 625,93 626,91 626,90 626,88 627,87 627,87 627,87 628,88 628,90 628,91 628,92 629,93 629,93 629,92 630,92 630,90 630,89 630,88 631,88 631,88 631,88 632,89 632,91 632,92 633,92 633,92 633,91 633,90 634,90 634,90 634,90 635,90 635,90 635,90 636,90 636,90 636,90 636,90 637,90 637,90 637,90 638,90 638,90 638,90 638,91 639,91 639,91 639,90 640,90 640,90 640,90 641,89 641,89 641,89 641,89 642,90 642,90 642,91 643,91 643,92 643,92 644,92 644,92 644,92 644,91 645,89 645,88 645,87 646,88 646,89 646,90 646,92 647,93 647,94 647,94 648,92 648,90 648,89 649,87 649,86 649,86 649,87 650,89 650,91 650,93 651,94 651,94 651,94 652,93 652,91 652,88 652,87 653,86 653,86 653,87 654,89 654,91 654,93 654,93 655,93 655,93 655,92 656,91 656,90 656,88 657,87 657,87 657,87 657,87 658,89 658,90 658,92 659,94 659,94 659,94 660,93 660,91 660,89 660,88 661,86 661,86 661,86 662,88 662,90 662,93 662,95 663,95 663,94 663,92 664,90 664,88 664,86 665,84 665,84 665,85 665,88 666,91 666,94 666,96 667,97 667,96 667,94 668,92 668,89 668,86 668,85 669,85 669,86 669,88 670,91 670,93 670,93 670,93 671,93 671,92 671,91 672,89 672,89 672,88 673,88 673,89 673,89 673,90 674,91 674,92 674,92 675,92 675,92 675,91 676,91 676,90 676,90 676,89 677,88 677,88 677,87 678,88 678,89 678,90 679,92 679,92 679,92 679,92 680,91 680,90 680,88 681,88 681,88 681,88 681,90 682,92 682,93 682,93 683,93 683,91 683,89 684,87 684,86 684,86 684,87 685,89 685,91 685,94 686,96 686,96 686,95 687,93 687,90 687,87 687,85 688,84 688,85 688,87 689,90 689,93 689,95 689,96 690,96 690,93 690,90 691,86 691,84 691,83 692,84 692,87 692,90 692,93 693,94 693,95 693,94 694,92 694,91 694,90 695,89 695,88 695,88 695,89 696,89 696,90 696,90 697,90 697,90 697,90 697,89 698,90 698,90 698,91 699,91 699,91 699,90 700,89 700,89 700,88 700,88 701,89 701,90 701,90 702,91 702,92 702,92 703,91 703,91 703,90 703,90 704,90 704,90 704,90 705,90 705,90 705,90 705,90 706,90 706,90 706,90 707,90 707,90 707,90 708,89 708,89 708,89 708,89 709,89 709,89 709,90 710,91 710,92 710,92 711,91 711,91 711,90 711,89 712,89 712,88 712,89 713,89 713,89 713,90 713,90 714,90 714,91 714,91 715,91 715,90 715,90 716,90 716,89 716,88 716,88 717,89 717,91 717,91 718,92 718,92 718,91 719,90 719,89 719,88 719,88 720,88 720,88 720,89 721,90 721,92 721,92 721,93 722,92 722,91 722,90 723,89 723,88 723,87 724,87 724,88 724,90 724,91 725,92 725,92 725,92 726,91 726,89 726,88 727,88 727,87 727,88 727,89 728,91 728,92 728,93 729,94 729,93 729,92 730,91 730,89 730,88 730,87 731,86 731,87 731,89 732,90 732,92 732,93 732,93 733,92 733,90 733,89 734,88 734,87 734,88 735,89 735,91 735,93 735,93 736,93 736,92 736,90 737,89 737,88 737,87 738,87 738,88 738,89 738,91 739,92 739,92 739,92 740,92 740,90 740,89 740,89 741,90 741,91 741,91 742,90 742,90 742,90 743,90 743,89 743,89 743,89 744,89 744,89 744,90 745,91 745,92 745,92 746,92 746,91 746,89 746,88 747,87 747,87 747,88 748,90 748,93 748,94 748,95 749,93 749,91 749,89 750,87 750,85 750,85 751,86 751,88 751,90 751,92 752,95 752,96 752,95 753,94 753,92 753,89 754,87 754,86 754,86 754,87 755,89 755,92 755,94 756,95 756,94 756,92 756,91 757,89 757,87 757,87 758,87 758,88 758,89 759,90 759,92 759,93 759,93 760,93 760,92 760,91 761,89 761,89 761,88 762,88 762,89 762,89 762,89 763,89 763,90 763,90 764,90 764,91 764,91 764,91 765,90 765,90 765,90 766,90 766,89 766,89 767,89 767,91 767,92 767,92 768,92 768,92 768,91 769,89 769,88 769,87 770,87 770,87 770,88 770,89 771,91 771,93 771,93 772,93 772,92 772,91 772,90 773,90 773,89 773,88 774,88 774,88 774,88 775,89 775,89 775,90 775,90 776,91 776,91 776,91 777,91 777,91 777,90 778,89 778,88 778,87 778,87 779,86 779,87 779,89 780,92 780,94 780,94 781,94 781,93 781,91 781,88 782,86 782,85 782,84 783,85 783,87 783,90 783,93 784,96 784,97 784,96 785,94 785,92 785,89 786,87 786,85 786,84 786,85 787,87 787,89 787,91 788,93 788,94 788,94 789,92 789,91 789,89 789,87 790,87 790,88 790,89 791,90 791,91 791,92 791,92 792,91 792,90 792,90 793,89 793,89 793,89 794,90 794,91 794,91 794,92 795,91 795,90 795,89 796,88 796,87 796,87 797,87 797,89 797,91 797,93 798,95 798,95 798,94 799,92 799,90 799,88 799,87 800,86 800,86 800,87 801,89 801,90 801,92 802,93 802,94 802,93 802,92 803,91 803,89 803,87 804,86 804,86 804,86 805,87 805,89 805,90 805,92 806,93 806,94 806,94 807,94 807,93 807,91 807,89 808,88 808,87 808,87 809,87 809,88 809,90 810,91 810,92 810,93 810,92 811,92 811,91 811,90 812,89 812,89 812,89 813,89 813,90 813,90 813,90 814,90 814,90 814,90 815,89 815,89 815,90 815,90 816,91 816,91 816,91 817,91 817,90 817,89 818,89 818,88 818,88 818,88 819,89 819,90 819,91 820,93 820,93 820,93 821,91 821,90 821,89 821,87 822,86 822,86 822,86 823,87 823,89 823,91 823,92 824,94 824,95 824,95 825,94 825,92 825,90 826,89 826,87 826,87 826,87 827,88 827,89 827,90 828,91 828,92 828,93 829,92 829,91 829,90 829,89 830,88 830,87 830,87 831,88 831,89 831,90 831,91 832,91 832,91 832,91 833,91 833,91 833,91 834,90 834,90 834,90 834,89 835,89 835,89 835,89 836,89 836,90 836,91 837,91 837,92 837,92 837,91 838,89 838,88 838,86 839,86 839,86 839,87 840,89 840,91 840,93 840,95 841,95 841,94 841,92 842,90 842,88 842,86 842,85 843,86 843,88 843,90 844,92 844,94 844,94 845,93 845,92 845,90 845,88 846,86 846,85 846,85 847,86 847,88 847,91 848,93 848,94 848,95 848,94 849,93 849,91 849,89 850,88 850,87 850,87 850,87 851,89 851,90 851,91 852,91 852,91 852,91 853,90 853,89 853,89 853,89 854,89 854,89 854,90 855,90 855,90 855,90 856,90 856,90 856,90 856,91 857,91 857,91 857,92 858,92 858,91 858,89 858,87 859,86 859,86 859,87 860,88 860,91 860,93 861,94 861,94 861,94 861,92 862,90 862,88 862,86 863,86 863,86 863,88 864,89 864,91 864,93 864,93 865,94 865,93 865,92 866,90 866,88 866,87 866,86 867,87 867,88 867,90 868,91 868,92 868,92 869,92 869,92 869,92 869,91 870,90 870,88 870,88 871,87 871,87 871,88 872,89 872,91 872,92 872,93 873,93 873,93 873,92 874,90 874,89 874,88 874,87 875,88 875,88 875,89 876,90 876,91 876,92 877,92 877,92 877,91 877,90 878,89 878,89 878,88 879,89 879,90 879,90 880,90 880,90 880,90 880,90 881,90 881,90 881,91 882,92 882,92 882,92 882,92 883,91 883,90 883,88 884,87 884,87 884,88 885,89 885,91 885,92 885,92 886,92 886,92 886,91 887,90 887,89 887,88 888,88 888,88 888,88 888,89 889,91 889,91 889,92 890,92 890,91 890,91 891,91 891,90 891,89 891,88 892,88 892,89 892,89 893,89 893,90 893,91 893,92 894,92 894,92 894,92 895,91 895,89 895,88 896,87 896,87 896,88 896,89 897,91 897,93 897,93 898,93 898,92 898,90 899,89 899,88 899,87 899,87 900,88 900,89 900,90 901,91 901,92 901,92 901,92 902,92 902,91 902,90 903,90 903,91 903,90 904,90 904,89 904,88 904,88 905,87 905,88 905,89 906,90 906,92 906,92 907,93 907,92 907,91 907,90 908,89 908,88 908,88 909,88 909,89 909,90 909,91 910,92 910,93 910,93 911,93 911,92 911,91 912,90 912,88 912,87 912,86 913,86 913,87 913,87 914,88 914,90 914,91 915,93 915,94 915,94 915,94 916,93 916,91 916,90 917,88 917,87 917,87 917,88 918,89 918,90 918,91 919,91 919,92 919,91 920,91 920,91 920,91 920,90 921,90 921,89 921,89 922,89 922,89 922,89 923,90 923,91 923,93 923,93 924,94 924,94 924,93 925,92 925,90 925,88 925,86 926,86 926,86 926,87 927,89 927,91 927,93 928,94 928,94 928,93 928,92 929,90 929,89 929,88 930,87 930,87 930,88 931,89 931,91 931,92 931,93 932,93 932,92 932,91 933,90 933,88 933,87 933,86 934,86 934,87 934,90 935,92 935,94 935,95 936,95 936,94 936,92 936,90 937,88 937,86 937,86 938,87 938,89 938,91 939,93 939,94 939,94 939,93 940,91 940,88 940,86 941,85 941,86 941,88 941,90 942,93 942,95 942,95 943,94 943,92 943,90 944,88 944,86 944,86 944,87 945,89 945,92 945,93 946,94 946,94 946,92 947,90 947,88 947,86 947,85 948,86 948,87 948,89 949,92 949,93 949,94 950,94 950,93 950,92 950,90 951,89 951,88 951,88 952,87 952,88 952,89 952,90 953,91 953,91 953,91 954,92 954,92 954,92 955,92 955,91 955,89 955,88 956,87 956,86 956,87 957,88 957,89 957,91 958,92 958,93 958,93 958,93 959,91 959,90 959,88 960,87 960,86 960,86 960,88 961,90 961,92 961,94 962,94 962,94 962,92 963,90 963,88 963,86 963,85 964,86 964,87 964,89 965,91 965,93 965,95 966,95 966,94 966,93 966,91 967,89 967,88 967,87 968,87 968,88 968,90 968,91 969,92 969,92 969,92 970,90 970,89 970,88 971,88 971,88 971,89 971,90 972,91 972,92 972,92 973,92 973,91 973,90 974,89 974,89 974,89 974,89 975,90 975,92 975,93 976,92 976,92 976,90 976,89 977,87 977,86 977,87 978,88 978,89 978,91 979,93 979,94 979,94 979,93 980,92 980,90 980,88 981,87 981,87 981,88 982,88 982,89 982,90 982,91 983,91 983,91 983,91 984,91 984,90 984,90 984,90 985,90 985,89 985,89 986,89 986,89 986,88 987,88 987,89 987,90 987,91 988,92 988,93 988,93 989,92 989,90 989,88 990,87 990,86 990,86 990,86 991,88 991,90 991,91 992,93 992,94 992,94 992,93 993,91 993,90 993,88 994,87 994,86 994,87 995,88 995,90 995,91 995,92 996,92 996,92 996,91 997,90 997,89 997,88 998,87 998,88 998,88 998,89 999,91 999,92 999,92 1000,92 1000,92 1000,90 1001,89 1001,88 1001,88 1001,88 1002,89 1002,91 1002,92 1003,92 1003,91 1003,91 1003,90 1004,88 1004,87 1004,87 1005,87 1005,88 1005,89 1006,90 1006,91 1006,92 1006,93 1007,92 1007,91 1007,91 1008,91 1008,91 1008,90 1009,89 1009,89 1009,88 1009,88 1010,88 1010,89 1010,90 1011,92 1011,92 1011,93 1011,93 1012,92 1012,90 1012,88 1013,87 1013,86 1013,85 1014,87 1014,89 1014,91 1014,94 1015,96 1015,96 1015,95 1016,93 1016,90 1016,87 1017,84 1017,83 1017,83 1017,85 1018,88 1018,92 1018,95 1019,97 1019,97 1019,96 1019,93 1020,89 1020,86 1020,84 1021,84 1021,85 1021,88 1022,91 1022,93 1022,95 1022,96 1023,95 1023,93 1023,91 1024,89 1024,87 1024,87 1025,87 1025,87 1025,88 1025,89 1026,90 1026,91 1026,92 1027,92 1027,92 1027,92 1027,92 1028,91 1028,90 1028,90 1029,89 1029,88 1029,87 1030,88 1030,89 1030,90 1030,91 1031,92 1031,92 1031,92 1032,91 1032,89 1032,88 1033,87 1033,87 1033,88 1033,89 1034,91 1034,92 1034,92 1035,92 1035,91 1035,90 1035,89 1036,88 1036,88 1036,88 1037,90 1037,91 1037,93 1038,93 1038,93 1038,93 1038,91 1039,90 1039,88 1039,87 1040,86 1040,87 1040,88 1041,90 1041,92 1041,94 1041,95 1042,95 1042,93 1042,91 1043,88 1043,86 1043,85 1043,85 1044,87 1044,89 1044,92 1045,94 1045,95 1045,95 1046,94 1046,92 1046,90 1046,88 1047,86 1047,86 1047,86 1048,88 1048,90 1048,91 1049,93 1049,94 1049,93 1049,92 1050,91 1050,90 1050,90 1051,90 1051,89 1051,89 1052,89 1052,88 1052,88 1052,88 1053,89 1053,89 1053,90 1054,91 1054,92 1054,93 1054,93 1055,93 1055,91 1055,90 1056,88 1056,87 1056,86 1057,86 1057,87 1057,89 1057,91 1058,93 1058,94 1058,94 1059,93 1059,92 1059,90 1060,88 1060,86 1060,86 1060,86 1061,87 1061,88 1061,90 1062,92 1062,93 1062,94 1062,95 1063,95 1063,94 1063,93 1064,91 1064,89 1064,87 1065,86 1065,86 1065,86 1065,87 1066,89 1066,90 1066,92 1067,93 1067,94 1067,95 1068,94 1068,92 1068,90 1068,88 1069,86 1069,84 1069,84 1070,86 1070,88 1070,91 1070,93 1071,95 1071,96 1071,95 1072,94 1072,92 1072,89 1073,86 1073,84 1073,83 1073,83 1074,85 1074,87 1074,91 1075,94 1075,96 1075,97 1076,96 1076,94 1076,91 1076,89 1077,86 1077,85 1077,84 1078,85 1078,87 1078,90 1078,92 1079,93 1079,94 1079,94 1080,93 1080,92 1080,90 1081,88 1081,86 1081,85 1081,85 1082,87 1082,89 1082,91 1083,92 1083,94 1083,94 1084,94 1084,93 1084,91 1084,89 1085,87 1085,86 1085,86 1086,87 1086,88 1086,90 1086,91 1087,92 1087,92 1087,92 1088,91 1088,90 1088,89 1089,89 1089,89 1089,89 1089,90 1090,91 1090,91 1090,91 1091,91 1091,90 1091,90 1092,90 1092,90 1092,90 1092,91 1093,91 1093,91 1093,92 1094,91 1094,90 1094,89 1094,88 1095,87 1095,87 1095,88 1096,89 1096,90 1096,92 1097,93 1097,94 1097,94 1097,93 1098,91 1098,90 1098,88 1099,86 1099,86 1099,86 1100,88 1100,90 1100,92 1100,94 1101,94 1101,94 1101,93 1102,91 1102,89 1102,87 1102,86 1103,86 1103,86 1103,88 1104,90 1104,93 1104,94 1105,95 1105,94 1105,93 1105,91 1106,89 1106,87 1106,87 1107,87 1107,88 1107,89 1108,90 1108,91 1108,92 1108,91 1109,91 1109,91 1109,91 1110,90 1110,90 1110,90 1111,89 1111,89 1111,89 1111,89 1112,89 1112,89 1112,90 1113,90 1113,91 1113,91 1113,92 1114,92 1114,91 1114,89 1115,88 1115,86 1115,86 1116,86 1116,87 1116,89 1116,92 1117,93 1117,95 1117,95 1118,94 1118,92 1118,89 1119,87 1119,86 1119,86 1119,86 1120,88 1120,90 1120,92 1121,93 1121,93 1121,92 1121,91 1122,89 1122,88 1122,87 1123,87 1123,88 1123,89 1124,91 1124,91 1124,91 1124,91 1125,91 1125,91 1125,91 1126,90 1126,90 1126,90 1127,89 1127,89 1127,89 1127,89 1128,88 1128,88 1128,89 1129,89 1129,90 1129,91 1129,91 1130,91 1130,90 1130,89 1131,89 1131,88 1131,88 1132,89 1132,89 1132,90 1132,90 1133,90 1133,90 1133,90 1134,90 1134,91 1134,91 1135,91 1135,91 1135,90 1135,90 1136,89 1136,89 1136,89 1137,89 1137,89 1137,89 1137,90 1138,91 1138,92 1138,92 1139,91 1139,90 1139,89 1140,88 1140,87 1140,87 1140,87 1141,89 1141,90 1141,91 1142,92 1142,92 1142,91 1143,90 1143,89 1143,88 1143,88 1144,88 1144,89 1144,90 1145,91 1145,92 1145,92 1145,91 1146,91 1146,90 1146,88 1147,87 1147,86 1147,86 1148,87 1148,88 1148,89 1148,91 1149,91 1149,92 1149,92 1150,92 1150,91 1150,90 1151,90 1151,89 1151,89 1151,90 1152,90 1152,91 1152,91 1153,91 1153,91 1153,91 1153,91 1154,90 1154,89 1154,89 1155,89 1155,89 1155,88 1156,88 1156,88 1156,88 1156,88 1157,90 1157,91 1157,93 1158,94 1158,94 1158,94 1159,93 1159,91 1159,89 1159,88 1160,87 1160,86 1160,86 1161,87 1161,89 1161,91 1162,92 1162,92 1162,93 1162,92 1163,90 1163,89 1163,88 1164,87 1164,88 1164,89 1164,90 1165,91 1165,92 1165,92 1166,91 1166,91 1166,90 1167,89 1167,89 1167,89 1167,90 1168,90 1168,90 1168,90 1169,89 1169,89 1169,89 1170,89 1170,89 1170,89 1170,90 1171,91 1171,92 1171,92 1172,92 1172,92 1172,90 1172,89 1173,88 1173,87 1173,87 1174,88 1174,89 1174,90 1175,91 1175,92 1175,92 1175,92 1176,91 1176,90 1176,89 1177,88 1177,88 1177,89 1178,90 1178,91 1178,92 1178,93 1179,93 1179,93 1179,91 1180,89 1180,87 1180,87 1180,87 1181,87 1181,88 1181,90 1182,92 1182,93 1182,93 1183,92 1183,91 1183,90 1183,88 1184,87 1184,87 1184,88 1185,89 1185,91 1185,92 1186,93 1186,93 1186,92 1186,90 1187,89 1187,87 1187,87 1188,87 1188,88 1188,90 1188,91 1189,93 1189,93 1189,92 1190,91 1190,89 1190,87 1191,86 1191,86 1191,87 1191,89 1192,92 1192,94 1192,95 1193,95 1193,93 1193,91 1194,88 1194,86 1194,85 1194,85 1195,87 1195,89 1195,91 1196,93 1196,94 1196,94 1196,93 1197,91 1197,89 1197,87 1198,86 1198,86 1198,87 1199,89 1199,91 1199,92 1199,92 1200,91 1200,90 1200,89 1201,89 1201,89 1201,90 1202,91 1202,92 1202,92 1202,92 1203,91 1203,90 1203,89 1204,88 1204,87 1204,88 1204,89 1205,90 1205,92 1205,93 1206,93 1206,93 1206,92 1207,90 1207,88 1207,87 1207,86 1208,86 1208,88 1208,91 1209,93 1209,95 1209,95 1210,94 1210,92 1210,90 1210,87 1211,85 1211,85 1211,85 1212,87 1212,89 1212,92 1213,93 1213,94 1213,94 1213,93 1214,91 1214,89 1214,88 1215,87 1215,88 1215,88 1215,90 1216,91 1216,91 1216,91 1217,90 1217,90 1217,90 1218,90 1218,90 1218,90 1218,90 1219,91 1219,91 1219,90 1220,90 1220,89 1220,88 1221,88 1221,88 1221,89 1221,90 1222,91 1222,92 1222,93 1223,93 1223,92 1223,90 1223,89 1224,87 1224,86 1224,86 1225,87 1225,88 1225,90 1226,92 1226,93 1226,94 1226,94 1227,92 1227,91 1227,89 1228,88 1228,87 1228,87 1229,88 1229,89 1229,91 1229,92 1230,93 1230,93 1230,92 1231,90 1231,89 1231,87 1231,87 1232,88 1232,88 1232,90 1233,91 1233,93 1233,93 1234,92 1234,91 1234,90 1234,88 1235,88 1235,88 1235,88 1236,89 1236,90 1236,92 1237,93 1237,93 1237,92 1237,91 1238,89 1238,88 1238,87 1239,86 1239,87 1239,88 1239,89 1240,91 1240,93 1240,93 1241,94 1241,93 1241,92 1242,90 1242,88 1242,87 1242,87 1243,87 1243,88 1243,89 1244,91 1244,92 1244,93 1245,93 1245,93 1245,91 1245,90 1246,89 1246,88 1246,87 1247,88 1247,89 1247,90 1247,91 1248,92 1248,92 1248,92 1249,91 1249,91 1249,90 1250,90 1250,89 1250,89 1250,89 1251,90 1251,90 1251,91 1252,91 1252,91 1252,90 1253,89 1253,90 1253,90 1253,90 1254,90 1254,91 1254,91 1255,90 1255,90 1255,89 1255,89 1256,88 1256,88 1256,89 1257,90 1257,91 1257,91 1258,92 1258,92 1258,92 1258,91 1259,90 1259,89 1259,88 1260,87 1260,87 1260,87 1261,87 1261,89 1261,90 1261,92 1262,94 1262,94 1262,93 1263,92 1263,91 1263,89 1263,88 1264,86 1264,86 1264,86 1265,88 1265,90 1265,92 1266,93 1266,94 1266,93 1266,92 1267,90 1267,88 1267,86 1268,85 1268,85 1268,87 1269,89 1269,91 1269,92 1269,93 1270,93 1270,92 1270,91 1271,90 1271,89 1271,89 1272,88 1272,88 1272,89 1272,89 1273,89 1273,90 1273,91 1274,90 1274,90 1274,89 1274,89 1275,88 1275,88 1275,89 1276,90 1276,92 1276,93 1277,93 1277,93 1277,92 1277,91 1278,89 1278,88 1278,87 1279,87 1279,87 1279,89 1280,91 1280,92 1280,93 1280,94 1281,93 1281,92 1281,89 1282,87 1282,85 1282,84 1282,85 1283,87 1283,90 1283,92 1284,94 1284,95 1284,94 1285,93 1285,90 1285,88 1285,86 1286,85 1286,86 1286,87 1287,89 1287,90 1287,92 1288,93 1288,93 1288,92 1288,91 1289,90 1289,89 1289,89 1290,89 1290,89 1290,90 1290,90 1291,90 1291,90 1291,89 1292,89 1292,89 1292,89 1293,89 1293,90 1293,91 1293,92 1294,92 1294,92 1294,91 1295,89 1295,88 "/>
<rect x="2943" y="12" width="45" height="40" opacity="0.1" fill="#0000FF" stroke="none"/>
<rect x="2943" y="12" width="45" height="40" opacity="1" fill="none" stroke="#0000FF"/>
</svg>
